G75*
%MOIN*%
%OFA0B0*%
%FSLAX25Y25*%
%IPPOS*%
%LPD*%
%AMOC8*
5,1,8,0,0,1.08239X$1,22.5*
%
%ADD10C,0.00900*%
%ADD11C,0.01000*%
%ADD12C,0.00800*%
%ADD13C,0.00299*%
%ADD14C,0.00600*%
%ADD15R,0.00157X0.13858*%
%ADD16R,0.00157X0.14331*%
%ADD17R,0.00157X0.14646*%
%ADD18R,0.00157X0.14961*%
%ADD19R,0.00157X0.15118*%
%ADD20R,0.00157X0.15276*%
%ADD21R,0.00157X0.15433*%
%ADD22R,0.00157X0.02835*%
%ADD23R,0.00157X0.11969*%
%ADD24R,0.00157X0.02520*%
%ADD25R,0.00157X0.01102*%
%ADD26R,0.00157X0.03150*%
%ADD27R,0.00157X0.04567*%
%ADD28R,0.00157X0.02205*%
%ADD29R,0.00157X0.00787*%
%ADD30R,0.00157X0.02677*%
%ADD31R,0.00157X0.04409*%
%ADD32R,0.00157X0.02047*%
%ADD33R,0.00157X0.00630*%
%ADD34R,0.00157X0.01890*%
%ADD35R,0.00157X0.01732*%
%ADD36R,0.00157X0.01575*%
%ADD37R,0.00157X0.00945*%
%ADD38R,0.00157X0.02362*%
%ADD39R,0.00157X0.01260*%
%ADD40R,0.00157X0.01417*%
%ADD41R,0.00157X0.04252*%
%ADD42R,0.00157X0.00315*%
%ADD43R,0.00157X0.04094*%
%ADD44R,0.00157X0.00472*%
%ADD45R,0.00157X0.03937*%
%ADD46R,0.00157X0.03307*%
%ADD47R,0.00157X0.03780*%
%ADD48R,0.00157X0.03465*%
%ADD49R,0.00157X0.02992*%
%ADD50R,0.00157X0.12913*%
%ADD51R,0.00157X0.13386*%
%ADD52R,0.00157X0.13701*%
%ADD53R,0.00157X0.14016*%
%ADD54R,0.00157X0.14173*%
%ADD55R,0.00157X0.14488*%
%ADD56R,0.00157X0.07087*%
%ADD57R,0.00157X0.04882*%
%ADD58R,0.00157X0.05039*%
%ADD59R,0.00157X0.05197*%
%ADD60R,0.00157X0.03622*%
%ADD61R,0.00157X0.00157*%
%ADD62R,0.00157X0.11024*%
%ADD63R,0.00157X0.11181*%
%ADD64R,0.00157X0.11496*%
%ADD65R,0.00157X0.11654*%
%ADD66R,0.00157X0.12756*%
%ADD67R,0.00157X0.13071*%
%ADD68R,0.00157X0.13228*%
%ADD69R,0.00157X0.11811*%
%ADD70R,0.00157X0.14803*%
%ADD71R,0.00157X0.15906*%
%ADD72R,0.00157X0.16063*%
%ADD73R,0.00157X0.16220*%
%ADD74R,0.00157X0.16378*%
%ADD75R,0.00157X0.09921*%
%ADD76C,0.00100*%
%ADD77R,0.00118X0.09094*%
%ADD78R,0.00118X0.09803*%
%ADD79R,0.00079X0.10276*%
%ADD80R,0.00157X0.10748*%
%ADD81R,0.00118X0.10984*%
%ADD82R,0.00118X0.11220*%
%ADD83R,0.00079X0.11457*%
%ADD84R,0.00118X0.08150*%
%ADD85R,0.00118X0.02835*%
%ADD86R,0.00157X0.02244*%
%ADD87R,0.00157X0.01063*%
%ADD88R,0.00157X0.02598*%
%ADD89R,0.00118X0.02244*%
%ADD90R,0.00118X0.00827*%
%ADD91R,0.00118X0.01063*%
%ADD92R,0.00118X0.02480*%
%ADD93R,0.00118X0.02362*%
%ADD94R,0.00118X0.00709*%
%ADD95R,0.00118X0.00591*%
%ADD96R,0.00157X0.02480*%
%ADD97R,0.00118X0.00472*%
%ADD98R,0.00118X0.00354*%
%ADD99R,0.00118X0.02717*%
%ADD100R,0.00118X0.02598*%
%ADD101R,0.00118X0.00945*%
%ADD102R,0.00118X0.00236*%
%ADD103R,0.00118X0.04016*%
%ADD104R,0.00157X0.00354*%
%ADD105R,0.00157X0.00236*%
%ADD106R,0.00157X0.03898*%
%ADD107R,0.00118X0.03661*%
%ADD108R,0.00118X0.03189*%
%ADD109R,0.00157X0.00591*%
%ADD110R,0.00157X0.02717*%
%ADD111R,0.00118X0.01181*%
%ADD112R,0.00118X0.01654*%
%ADD113R,0.00157X0.00709*%
%ADD114R,0.00157X0.02126*%
%ADD115R,0.00118X0.01299*%
%ADD116R,0.00118X0.02008*%
%ADD117R,0.00118X0.01890*%
%ADD118R,0.00157X0.02008*%
%ADD119R,0.00118X0.02126*%
%ADD120R,0.00118X0.11457*%
%ADD121R,0.00118X0.10748*%
%ADD122R,0.00118X0.10276*%
%ADD123C,0.01000*%
%ADD124R,0.00079X0.11929*%
%ADD125R,0.00157X0.12402*%
%ADD126R,0.00118X0.12638*%
%ADD127R,0.00118X0.12874*%
%ADD128R,0.00079X0.13110*%
%ADD129R,0.00118X0.04961*%
%ADD130R,0.00118X0.03071*%
%ADD131R,0.00118X0.05079*%
%ADD132R,0.00157X0.01181*%
%ADD133R,0.00157X0.00118*%
%ADD134R,0.00157X0.00827*%
%ADD135R,0.00118X0.01417*%
%ADD136R,0.00118X0.13110*%
%ADD137R,0.00118X0.12402*%
%ADD138R,0.00118X0.11929*%
%ADD139R,0.00157X0.10551*%
%ADD140R,0.00157X0.07874*%
%ADD141R,0.00157X0.08031*%
%ADD142R,0.00157X0.08346*%
%ADD143R,0.00157X0.08504*%
%ADD144R,0.00157X0.09606*%
%ADD145R,0.00157X0.09764*%
%ADD146R,0.00157X0.10079*%
%ADD147R,0.00157X0.08661*%
%ADD148C,0.00300*%
%ADD149C,0.01181*%
%ADD150C,0.00050*%
%ADD151R,0.00118X0.10512*%
%ADD152R,0.00079X0.11693*%
%ADD153R,0.00157X0.12165*%
%ADD154R,0.00079X0.12874*%
%ADD155R,0.00157X0.01654*%
%ADD156R,0.00157X0.01299*%
%ADD157R,0.00118X0.01535*%
%ADD158R,0.00118X0.03307*%
%ADD159R,0.00118X0.03425*%
%ADD160R,0.00118X0.03543*%
%ADD161R,0.00157X0.03189*%
%ADD162R,0.00157X0.03543*%
%ADD163R,0.00118X0.00118*%
%ADD164R,0.00157X0.02953*%
%ADD165R,0.00118X0.02953*%
%ADD166R,0.00157X0.03425*%
%ADD167R,0.00118X0.01772*%
%ADD168R,0.00118X0.12165*%
%ADD169R,0.00118X0.11693*%
%ADD170C,0.00700*%
%ADD171C,0.03200*%
%ADD172R,0.00472X0.00157*%
%ADD173R,0.00787X0.00157*%
%ADD174R,0.00945X0.00157*%
%ADD175R,0.01102X0.00157*%
%ADD176R,0.01260X0.00157*%
%ADD177R,0.01417X0.00157*%
%ADD178R,0.02677X0.00157*%
%ADD179R,0.02362X0.00157*%
%ADD180R,0.02047X0.00157*%
%ADD181R,0.01732X0.00157*%
%ADD182R,0.02205X0.00157*%
%ADD183R,0.02520X0.00157*%
%ADD184R,0.02835X0.00157*%
%ADD185R,0.00630X0.00157*%
%ADD186R,0.00315X0.00157*%
%ADD187R,0.01575X0.00157*%
%ADD188R,0.03150X0.00157*%
%ADD189R,0.03307X0.00157*%
%ADD190R,0.02992X0.00157*%
%ADD191R,0.00157X0.23425*%
%ADD192R,0.00118X0.23543*%
%ADD193R,0.00157X0.23819*%
%ADD194R,0.00118X0.23976*%
%ADD195R,0.00157X0.24094*%
%ADD196R,0.00118X0.24252*%
%ADD197R,0.00157X0.13898*%
%ADD198R,0.00118X0.02205*%
%ADD199R,0.00118X0.06063*%
%ADD200R,0.00118X0.02756*%
%ADD201R,0.00118X0.03701*%
%ADD202R,0.00157X0.01772*%
%ADD203R,0.00157X0.01929*%
%ADD204R,0.00157X0.00433*%
%ADD205R,0.00157X0.01535*%
%ADD206R,0.00157X0.01811*%
%ADD207R,0.00157X0.00984*%
%ADD208R,0.00157X0.01496*%
%ADD209R,0.00118X0.01929*%
%ADD210R,0.00118X0.00433*%
%ADD211R,0.00118X0.02047*%
%ADD212R,0.00118X0.01102*%
%ADD213R,0.00118X0.01496*%
%ADD214R,0.00157X0.00551*%
%ADD215R,0.00157X0.01378*%
%ADD216R,0.00118X0.00394*%
%ADD217R,0.00118X0.01260*%
%ADD218R,0.00118X0.00551*%
%ADD219R,0.00118X0.00984*%
%ADD220R,0.00157X0.02323*%
%ADD221R,0.00157X0.00669*%
%ADD222R,0.00118X0.00669*%
%ADD223R,0.00157X0.00394*%
%ADD224R,0.00118X0.00157*%
%ADD225R,0.00118X0.01811*%
%ADD226R,0.00118X0.02087*%
%ADD227R,0.00157X0.02756*%
%ADD228R,0.00118X0.02874*%
%ADD229R,0.00157X0.02874*%
%ADD230R,0.00118X0.00276*%
%ADD231R,0.00157X0.00276*%
%ADD232R,0.00118X0.01378*%
%ADD233R,0.00118X0.01220*%
%ADD234R,0.00157X0.01220*%
%ADD235R,0.00157X0.08268*%
%ADD236R,0.00118X0.08425*%
%ADD237R,0.00118X0.15433*%
%ADD238R,0.00157X0.26299*%
%ADD239R,0.00118X0.26181*%
%ADD240R,0.00157X0.26024*%
%ADD241R,0.00118X0.25906*%
%ADD242R,0.00157X0.25748*%
%ADD243R,0.00118X0.25630*%
%ADD244R,0.00157X0.14055*%
%ADD245R,0.00118X0.05787*%
%ADD246R,0.00118X0.06772*%
%ADD247R,0.00118X0.03031*%
%ADD248R,0.00118X0.02323*%
%ADD249R,0.00118X0.02638*%
%ADD250R,0.00118X0.02913*%
%ADD251R,0.00157X0.03031*%
%ADD252R,0.00157X0.09370*%
%ADD253R,0.00118X0.15551*%
%ADD254R,0.00157X0.12441*%
%ADD255R,0.00157X0.13543*%
%ADD256R,0.00157X0.04724*%
D10*
X0177983Y0106302D02*
X0181386Y0106302D01*
X0179885Y0118701D02*
X0179885Y0122104D01*
X0178183Y0120402D02*
X0181586Y0120402D01*
D11*
X0181097Y0095000D02*
X0181099Y0095094D01*
X0181105Y0095188D01*
X0181115Y0095282D01*
X0181129Y0095375D01*
X0181147Y0095468D01*
X0181168Y0095560D01*
X0181194Y0095650D01*
X0181223Y0095740D01*
X0181256Y0095828D01*
X0181293Y0095915D01*
X0181333Y0096000D01*
X0181377Y0096084D01*
X0181425Y0096165D01*
X0181475Y0096245D01*
X0181530Y0096322D01*
X0181587Y0096397D01*
X0181647Y0096469D01*
X0181711Y0096539D01*
X0181777Y0096606D01*
X0181846Y0096670D01*
X0181918Y0096731D01*
X0181992Y0096789D01*
X0182069Y0096844D01*
X0182148Y0096896D01*
X0182229Y0096944D01*
X0182312Y0096989D01*
X0182396Y0097030D01*
X0182483Y0097068D01*
X0182571Y0097102D01*
X0182660Y0097132D01*
X0182750Y0097159D01*
X0182842Y0097181D01*
X0182934Y0097200D01*
X0183028Y0097215D01*
X0183121Y0097226D01*
X0183215Y0097233D01*
X0183309Y0097236D01*
X0183404Y0097235D01*
X0183498Y0097230D01*
X0183592Y0097221D01*
X0183685Y0097208D01*
X0183778Y0097191D01*
X0183870Y0097171D01*
X0183961Y0097146D01*
X0184051Y0097118D01*
X0184139Y0097086D01*
X0184227Y0097050D01*
X0184312Y0097010D01*
X0184396Y0096967D01*
X0184478Y0096921D01*
X0184558Y0096871D01*
X0184636Y0096817D01*
X0184711Y0096761D01*
X0184784Y0096701D01*
X0184855Y0096638D01*
X0184922Y0096573D01*
X0184987Y0096504D01*
X0185049Y0096433D01*
X0185108Y0096360D01*
X0185164Y0096284D01*
X0185216Y0096205D01*
X0185265Y0096125D01*
X0185311Y0096042D01*
X0185353Y0095958D01*
X0185392Y0095872D01*
X0185427Y0095784D01*
X0185458Y0095695D01*
X0185486Y0095605D01*
X0185509Y0095514D01*
X0185529Y0095422D01*
X0185545Y0095329D01*
X0185557Y0095235D01*
X0185565Y0095141D01*
X0185569Y0095047D01*
X0185569Y0094953D01*
X0185565Y0094859D01*
X0185557Y0094765D01*
X0185545Y0094671D01*
X0185529Y0094578D01*
X0185509Y0094486D01*
X0185486Y0094395D01*
X0185458Y0094305D01*
X0185427Y0094216D01*
X0185392Y0094128D01*
X0185353Y0094042D01*
X0185311Y0093958D01*
X0185265Y0093875D01*
X0185216Y0093795D01*
X0185164Y0093716D01*
X0185108Y0093640D01*
X0185049Y0093567D01*
X0184987Y0093496D01*
X0184922Y0093427D01*
X0184855Y0093362D01*
X0184784Y0093299D01*
X0184711Y0093239D01*
X0184636Y0093183D01*
X0184558Y0093129D01*
X0184478Y0093079D01*
X0184396Y0093033D01*
X0184312Y0092990D01*
X0184227Y0092950D01*
X0184139Y0092914D01*
X0184051Y0092882D01*
X0183961Y0092854D01*
X0183870Y0092829D01*
X0183778Y0092809D01*
X0183685Y0092792D01*
X0183592Y0092779D01*
X0183498Y0092770D01*
X0183404Y0092765D01*
X0183309Y0092764D01*
X0183215Y0092767D01*
X0183121Y0092774D01*
X0183028Y0092785D01*
X0182934Y0092800D01*
X0182842Y0092819D01*
X0182750Y0092841D01*
X0182660Y0092868D01*
X0182571Y0092898D01*
X0182483Y0092932D01*
X0182396Y0092970D01*
X0182312Y0093011D01*
X0182229Y0093056D01*
X0182148Y0093104D01*
X0182069Y0093156D01*
X0181992Y0093211D01*
X0181918Y0093269D01*
X0181846Y0093330D01*
X0181777Y0093394D01*
X0181711Y0093461D01*
X0181647Y0093531D01*
X0181587Y0093603D01*
X0181530Y0093678D01*
X0181475Y0093755D01*
X0181425Y0093835D01*
X0181377Y0093916D01*
X0181333Y0094000D01*
X0181293Y0094085D01*
X0181256Y0094172D01*
X0181223Y0094260D01*
X0181194Y0094350D01*
X0181168Y0094440D01*
X0181147Y0094532D01*
X0181129Y0094625D01*
X0181115Y0094718D01*
X0181105Y0094812D01*
X0181099Y0094906D01*
X0181097Y0095000D01*
X0183333Y0095000D02*
X0198333Y0095000D01*
X0196833Y0093500D01*
X0196833Y0096500D01*
X0198333Y0095000D01*
X0183333Y0095000D02*
X0183333Y0080000D01*
X0184833Y0081500D01*
X0181833Y0081500D01*
X0183333Y0080000D01*
X0277833Y0162400D02*
X0277835Y0162444D01*
X0277841Y0162488D01*
X0277851Y0162531D01*
X0277864Y0162573D01*
X0277881Y0162614D01*
X0277902Y0162653D01*
X0277926Y0162690D01*
X0277953Y0162725D01*
X0277983Y0162757D01*
X0278016Y0162787D01*
X0278052Y0162813D01*
X0278089Y0162837D01*
X0278129Y0162856D01*
X0278170Y0162873D01*
X0278213Y0162885D01*
X0278256Y0162894D01*
X0278300Y0162899D01*
X0278344Y0162900D01*
X0278388Y0162897D01*
X0278432Y0162890D01*
X0278475Y0162879D01*
X0278517Y0162865D01*
X0278557Y0162847D01*
X0278596Y0162825D01*
X0278632Y0162801D01*
X0278666Y0162773D01*
X0278698Y0162742D01*
X0278727Y0162708D01*
X0278753Y0162672D01*
X0278775Y0162634D01*
X0278794Y0162594D01*
X0278809Y0162552D01*
X0278821Y0162510D01*
X0278829Y0162466D01*
X0278833Y0162422D01*
X0278833Y0162378D01*
X0278829Y0162334D01*
X0278821Y0162290D01*
X0278809Y0162248D01*
X0278794Y0162206D01*
X0278775Y0162166D01*
X0278753Y0162128D01*
X0278727Y0162092D01*
X0278698Y0162058D01*
X0278666Y0162027D01*
X0278632Y0161999D01*
X0278596Y0161975D01*
X0278557Y0161953D01*
X0278517Y0161935D01*
X0278475Y0161921D01*
X0278432Y0161910D01*
X0278388Y0161903D01*
X0278344Y0161900D01*
X0278300Y0161901D01*
X0278256Y0161906D01*
X0278213Y0161915D01*
X0278170Y0161927D01*
X0278129Y0161944D01*
X0278089Y0161963D01*
X0278052Y0161987D01*
X0278016Y0162013D01*
X0277983Y0162043D01*
X0277953Y0162075D01*
X0277926Y0162110D01*
X0277902Y0162147D01*
X0277881Y0162186D01*
X0277864Y0162227D01*
X0277851Y0162269D01*
X0277841Y0162312D01*
X0277835Y0162356D01*
X0277833Y0162400D01*
D12*
X0294711Y0150711D02*
X0301207Y0150711D01*
X0294711Y0150711D02*
X0294711Y0147758D01*
X0311444Y0144806D02*
X0311444Y0132994D01*
X0301207Y0127089D02*
X0294711Y0127089D01*
X0294711Y0130042D01*
X0291752Y0129057D02*
X0291754Y0129097D01*
X0291760Y0129136D01*
X0291770Y0129175D01*
X0291783Y0129212D01*
X0291801Y0129248D01*
X0291822Y0129282D01*
X0291846Y0129314D01*
X0291873Y0129343D01*
X0291903Y0129370D01*
X0291935Y0129393D01*
X0291970Y0129413D01*
X0292006Y0129429D01*
X0292044Y0129442D01*
X0292083Y0129451D01*
X0292122Y0129456D01*
X0292162Y0129457D01*
X0292202Y0129454D01*
X0292241Y0129447D01*
X0292279Y0129436D01*
X0292317Y0129422D01*
X0292352Y0129403D01*
X0292385Y0129382D01*
X0292417Y0129357D01*
X0292445Y0129329D01*
X0292471Y0129299D01*
X0292493Y0129266D01*
X0292512Y0129231D01*
X0292528Y0129194D01*
X0292540Y0129156D01*
X0292548Y0129117D01*
X0292552Y0129077D01*
X0292552Y0129037D01*
X0292548Y0128997D01*
X0292540Y0128958D01*
X0292528Y0128920D01*
X0292512Y0128883D01*
X0292493Y0128848D01*
X0292471Y0128815D01*
X0292445Y0128785D01*
X0292417Y0128757D01*
X0292385Y0128732D01*
X0292352Y0128711D01*
X0292317Y0128692D01*
X0292279Y0128678D01*
X0292241Y0128667D01*
X0292202Y0128660D01*
X0292162Y0128657D01*
X0292122Y0128658D01*
X0292083Y0128663D01*
X0292044Y0128672D01*
X0292006Y0128685D01*
X0291970Y0128701D01*
X0291935Y0128721D01*
X0291903Y0128744D01*
X0291873Y0128771D01*
X0291846Y0128800D01*
X0291822Y0128832D01*
X0291801Y0128866D01*
X0291783Y0128902D01*
X0291770Y0128939D01*
X0291760Y0128978D01*
X0291754Y0129017D01*
X0291752Y0129057D01*
X0277524Y0132400D02*
X0274143Y0132400D01*
X0273043Y0136343D02*
X0273043Y0138457D01*
X0274143Y0142400D02*
X0277524Y0142400D01*
X0296058Y0099750D02*
X0299808Y0099750D01*
X0306558Y0099750D02*
X0310308Y0099750D01*
X0196877Y0109439D02*
X0189790Y0109439D01*
X0186365Y0109439D02*
X0186365Y0114361D01*
X0189790Y0114361D02*
X0196877Y0114361D01*
X0171955Y0127089D02*
X0165459Y0127089D01*
X0171955Y0127089D02*
X0171955Y0130042D01*
X0155223Y0132994D02*
X0155223Y0144806D01*
X0165459Y0150711D02*
X0171955Y0150711D01*
X0171955Y0147758D01*
X0174114Y0148743D02*
X0174116Y0148783D01*
X0174122Y0148822D01*
X0174132Y0148861D01*
X0174145Y0148898D01*
X0174163Y0148934D01*
X0174184Y0148968D01*
X0174208Y0149000D01*
X0174235Y0149029D01*
X0174265Y0149056D01*
X0174297Y0149079D01*
X0174332Y0149099D01*
X0174368Y0149115D01*
X0174406Y0149128D01*
X0174445Y0149137D01*
X0174484Y0149142D01*
X0174524Y0149143D01*
X0174564Y0149140D01*
X0174603Y0149133D01*
X0174641Y0149122D01*
X0174679Y0149108D01*
X0174714Y0149089D01*
X0174747Y0149068D01*
X0174779Y0149043D01*
X0174807Y0149015D01*
X0174833Y0148985D01*
X0174855Y0148952D01*
X0174874Y0148917D01*
X0174890Y0148880D01*
X0174902Y0148842D01*
X0174910Y0148803D01*
X0174914Y0148763D01*
X0174914Y0148723D01*
X0174910Y0148683D01*
X0174902Y0148644D01*
X0174890Y0148606D01*
X0174874Y0148569D01*
X0174855Y0148534D01*
X0174833Y0148501D01*
X0174807Y0148471D01*
X0174779Y0148443D01*
X0174747Y0148418D01*
X0174714Y0148397D01*
X0174679Y0148378D01*
X0174641Y0148364D01*
X0174603Y0148353D01*
X0174564Y0148346D01*
X0174524Y0148343D01*
X0174484Y0148344D01*
X0174445Y0148349D01*
X0174406Y0148358D01*
X0174368Y0148371D01*
X0174332Y0148387D01*
X0174297Y0148407D01*
X0174265Y0148430D01*
X0174235Y0148457D01*
X0174208Y0148486D01*
X0174184Y0148518D01*
X0174163Y0148552D01*
X0174145Y0148588D01*
X0174132Y0148625D01*
X0174122Y0148664D01*
X0174116Y0148703D01*
X0174114Y0148743D01*
X0177725Y0189361D02*
X0177725Y0196448D01*
X0211741Y0196448D02*
X0211741Y0189361D01*
D13*
X0298977Y0176980D02*
X0298977Y0175720D01*
X0300355Y0175484D01*
X0300355Y0175445D01*
X0300395Y0175366D01*
X0300395Y0175287D01*
X0300434Y0175248D01*
X0300434Y0175169D01*
X0300473Y0175130D01*
X0300513Y0175051D01*
X0300513Y0174972D01*
X0300552Y0174933D01*
X0300552Y0174854D01*
X0300592Y0174815D01*
X0300631Y0174736D01*
X0300670Y0174697D01*
X0300710Y0174618D01*
X0300710Y0174579D01*
X0300749Y0174500D01*
X0299962Y0173398D01*
X0300828Y0172492D01*
X0301970Y0173279D01*
X0302009Y0173279D01*
X0302048Y0173240D01*
X0302088Y0173240D01*
X0302127Y0173201D01*
X0302166Y0173201D01*
X0302206Y0173161D01*
X0302245Y0173161D01*
X0302285Y0173122D01*
X0302324Y0173122D01*
X0302363Y0173083D01*
X0302403Y0173083D01*
X0302442Y0173043D01*
X0302521Y0173043D01*
X0302560Y0173004D01*
X0303348Y0175130D01*
X0303229Y0175169D01*
X0303072Y0175248D01*
X0302993Y0175327D01*
X0302914Y0175366D01*
X0302836Y0175445D01*
X0302796Y0175523D01*
X0302718Y0175602D01*
X0302639Y0175760D01*
X0302599Y0175878D01*
X0302521Y0176035D01*
X0302521Y0176153D01*
X0302481Y0176272D01*
X0302481Y0176508D01*
X0302639Y0176980D01*
X0302796Y0177216D01*
X0302875Y0177295D01*
X0302993Y0177374D01*
X0303072Y0177453D01*
X0303190Y0177531D01*
X0303308Y0177571D01*
X0303426Y0177649D01*
X0303544Y0177649D01*
X0303702Y0177689D01*
X0303977Y0177689D01*
X0304096Y0177649D01*
X0304214Y0177649D01*
X0304332Y0177571D01*
X0304450Y0177531D01*
X0304686Y0177374D01*
X0304844Y0177216D01*
X0305001Y0176980D01*
X0305040Y0176862D01*
X0305119Y0176744D01*
X0305119Y0176626D01*
X0305159Y0176508D01*
X0305159Y0176153D01*
X0305119Y0176035D01*
X0305119Y0175957D01*
X0305080Y0175878D01*
X0305040Y0175760D01*
X0305001Y0175681D01*
X0304922Y0175602D01*
X0304883Y0175523D01*
X0304725Y0175366D01*
X0304647Y0175327D01*
X0304568Y0175248D01*
X0304332Y0175130D01*
X0305119Y0173004D01*
X0305119Y0173043D01*
X0305198Y0173043D01*
X0305237Y0173083D01*
X0305277Y0173083D01*
X0305316Y0173122D01*
X0305355Y0173122D01*
X0305395Y0173161D01*
X0305473Y0173161D01*
X0305513Y0173201D01*
X0305552Y0173201D01*
X0305631Y0173279D01*
X0305670Y0173279D01*
X0306812Y0172492D01*
X0307718Y0173398D01*
X0306891Y0174500D01*
X0306930Y0174579D01*
X0306970Y0174618D01*
X0307009Y0174697D01*
X0307009Y0174736D01*
X0307048Y0174815D01*
X0307088Y0174854D01*
X0307127Y0174933D01*
X0307127Y0174972D01*
X0307206Y0175130D01*
X0307206Y0175169D01*
X0307245Y0175248D01*
X0307245Y0175287D01*
X0307285Y0175366D01*
X0307285Y0175445D01*
X0307324Y0175484D01*
X0308702Y0175720D01*
X0308702Y0176980D01*
X0307285Y0177216D01*
X0307285Y0177374D01*
X0307245Y0177413D01*
X0307245Y0177492D01*
X0307206Y0177531D01*
X0307166Y0177610D01*
X0307166Y0177689D01*
X0307127Y0177728D01*
X0307127Y0177807D01*
X0307088Y0177846D01*
X0307048Y0177925D01*
X0307009Y0177964D01*
X0307009Y0178043D01*
X0306970Y0178083D01*
X0306930Y0178161D01*
X0306891Y0178201D01*
X0307718Y0179342D01*
X0306812Y0180209D01*
X0305670Y0179421D01*
X0305631Y0179461D01*
X0305552Y0179500D01*
X0305513Y0179500D01*
X0305434Y0179539D01*
X0305395Y0179579D01*
X0305316Y0179618D01*
X0305277Y0179618D01*
X0305198Y0179657D01*
X0305159Y0179697D01*
X0305080Y0179697D01*
X0305001Y0179736D01*
X0304962Y0179736D01*
X0304883Y0179775D01*
X0304844Y0179775D01*
X0304765Y0179815D01*
X0304686Y0179815D01*
X0304450Y0181193D01*
X0303190Y0181193D01*
X0302954Y0179815D01*
X0302914Y0179815D01*
X0302836Y0179775D01*
X0302757Y0179775D01*
X0302718Y0179736D01*
X0302639Y0179736D01*
X0302560Y0179697D01*
X0302521Y0179697D01*
X0302442Y0179657D01*
X0302403Y0179618D01*
X0302324Y0179618D01*
X0302285Y0179579D01*
X0302206Y0179539D01*
X0302166Y0179500D01*
X0302088Y0179500D01*
X0302048Y0179461D01*
X0301970Y0179421D01*
X0300828Y0180209D01*
X0299962Y0179342D01*
X0300749Y0178201D01*
X0300710Y0178161D01*
X0300710Y0178083D01*
X0300670Y0178043D01*
X0300631Y0177964D01*
X0300592Y0177925D01*
X0300592Y0177846D01*
X0300552Y0177807D01*
X0300513Y0177728D01*
X0300513Y0177689D01*
X0300434Y0177531D01*
X0300434Y0177492D01*
X0300395Y0177413D01*
X0300395Y0177374D01*
X0300355Y0177295D01*
X0300355Y0177216D01*
X0298977Y0176980D01*
X0298977Y0176822D02*
X0302586Y0176822D01*
X0302487Y0176524D02*
X0298977Y0176524D01*
X0298977Y0176226D02*
X0302496Y0176226D01*
X0302574Y0175928D02*
X0298977Y0175928D01*
X0299500Y0175631D02*
X0302703Y0175631D01*
X0302981Y0175333D02*
X0300395Y0175333D01*
X0300513Y0175035D02*
X0303312Y0175035D01*
X0303202Y0174738D02*
X0300630Y0174738D01*
X0300706Y0174440D02*
X0303092Y0174440D01*
X0302982Y0174142D02*
X0300494Y0174142D01*
X0300281Y0173844D02*
X0302871Y0173844D01*
X0302761Y0173547D02*
X0300068Y0173547D01*
X0300104Y0173249D02*
X0301925Y0173249D01*
X0302039Y0173249D02*
X0302651Y0173249D01*
X0301494Y0172951D02*
X0300389Y0172951D01*
X0300673Y0172653D02*
X0301062Y0172653D01*
X0304698Y0174142D02*
X0307159Y0174142D01*
X0306936Y0174440D02*
X0304587Y0174440D01*
X0304477Y0174738D02*
X0307010Y0174738D01*
X0307158Y0175035D02*
X0304367Y0175035D01*
X0304659Y0175333D02*
X0307268Y0175333D01*
X0308179Y0175631D02*
X0304951Y0175631D01*
X0305105Y0175928D02*
X0308702Y0175928D01*
X0308702Y0176226D02*
X0305159Y0176226D01*
X0305153Y0176524D02*
X0308702Y0176524D01*
X0308702Y0176822D02*
X0305067Y0176822D01*
X0304908Y0177119D02*
X0307867Y0177119D01*
X0307245Y0177417D02*
X0304621Y0177417D01*
X0303036Y0177417D02*
X0300397Y0177417D01*
X0300513Y0177715D02*
X0307141Y0177715D01*
X0307009Y0178012D02*
X0300655Y0178012D01*
X0300674Y0178310D02*
X0306970Y0178310D01*
X0307186Y0178608D02*
X0300468Y0178608D01*
X0300263Y0178906D02*
X0307401Y0178906D01*
X0307617Y0179203D02*
X0300058Y0179203D01*
X0300120Y0179501D02*
X0301854Y0179501D01*
X0302168Y0179501D02*
X0305510Y0179501D01*
X0305786Y0179501D02*
X0307552Y0179501D01*
X0307240Y0179799D02*
X0306218Y0179799D01*
X0306650Y0180097D02*
X0306929Y0180097D01*
X0304797Y0179799D02*
X0302882Y0179799D01*
X0303002Y0180097D02*
X0304638Y0180097D01*
X0304587Y0180394D02*
X0303053Y0180394D01*
X0303104Y0180692D02*
X0304536Y0180692D01*
X0304485Y0180990D02*
X0303155Y0180990D01*
X0301422Y0179799D02*
X0300418Y0179799D01*
X0300716Y0180097D02*
X0300990Y0180097D01*
X0299789Y0177119D02*
X0302732Y0177119D01*
X0304808Y0173844D02*
X0307382Y0173844D01*
X0307606Y0173547D02*
X0304918Y0173547D01*
X0305028Y0173249D02*
X0305600Y0173249D01*
X0305715Y0173249D02*
X0307569Y0173249D01*
X0307271Y0172951D02*
X0306146Y0172951D01*
X0306578Y0172653D02*
X0306974Y0172653D01*
D14*
X0166034Y0122401D02*
X0165806Y0122417D01*
X0165577Y0122428D01*
X0165349Y0122433D01*
X0165120Y0122432D01*
X0164892Y0122426D01*
X0164663Y0122414D01*
X0164436Y0122397D01*
X0164208Y0122374D01*
X0163981Y0122346D01*
X0163755Y0122312D01*
X0163530Y0122273D01*
X0163306Y0122228D01*
X0163083Y0122178D01*
X0162861Y0122122D01*
X0162641Y0122061D01*
X0162422Y0121995D01*
X0162205Y0121923D01*
X0161990Y0121846D01*
X0161777Y0121764D01*
X0161566Y0121677D01*
X0161357Y0121584D01*
X0161150Y0121487D01*
X0160946Y0121384D01*
X0160744Y0121277D01*
X0160545Y0121165D01*
X0160349Y0121047D01*
X0160155Y0120926D01*
X0159965Y0120799D01*
X0159778Y0120668D01*
X0159594Y0120532D01*
X0159413Y0120392D01*
X0159236Y0120248D01*
X0159062Y0120099D01*
X0158893Y0119946D01*
X0158726Y0119789D01*
X0158564Y0119628D01*
X0158406Y0119463D01*
X0158252Y0119294D01*
X0158102Y0119122D01*
X0157956Y0118946D01*
X0157814Y0118766D01*
X0157677Y0118584D01*
X0157545Y0118397D01*
X0157417Y0118208D01*
X0157293Y0118016D01*
X0157175Y0117820D01*
X0157061Y0117622D01*
X0156952Y0117421D01*
X0156848Y0117218D01*
X0156749Y0117012D01*
X0156655Y0116803D01*
X0156566Y0116593D01*
X0156482Y0116380D01*
X0156404Y0116166D01*
X0156330Y0115949D01*
X0156262Y0115731D01*
X0156199Y0115511D01*
X0156142Y0115290D01*
X0156090Y0115067D01*
X0156044Y0114844D01*
X0156003Y0114619D01*
X0155967Y0114393D01*
X0155937Y0114166D01*
X0155913Y0113939D01*
X0155894Y0113711D01*
X0155880Y0113483D01*
X0155872Y0113255D01*
X0155870Y0113026D01*
X0155873Y0112798D01*
X0155882Y0112569D01*
X0155897Y0112341D01*
X0155916Y0112113D01*
X0155942Y0111886D01*
X0155973Y0111660D01*
X0156009Y0111434D01*
X0156051Y0111210D01*
X0156099Y0110986D01*
X0156152Y0110764D01*
X0156210Y0110543D01*
X0156274Y0110323D01*
X0156343Y0110105D01*
X0156417Y0109889D01*
X0156496Y0109675D01*
X0156581Y0109462D01*
X0156671Y0109252D01*
X0156766Y0109044D01*
X0156866Y0108839D01*
X0156971Y0108636D01*
X0157080Y0108435D01*
X0157195Y0108238D01*
X0157314Y0108043D01*
X0157439Y0107851D01*
X0157567Y0107662D01*
X0157701Y0107476D01*
X0157839Y0107294D01*
X0157981Y0107115D01*
X0158127Y0106940D01*
X0158278Y0106768D01*
X0158433Y0106600D01*
X0174233Y0109799D02*
X0174303Y0109949D01*
X0174369Y0110100D01*
X0174432Y0110252D01*
X0174490Y0110406D01*
X0174545Y0110562D01*
X0174596Y0110718D01*
X0174644Y0110876D01*
X0174687Y0111035D01*
X0174727Y0111195D01*
X0174763Y0111356D01*
X0174795Y0111518D01*
X0174823Y0111680D01*
X0174847Y0111843D01*
X0174867Y0112007D01*
X0174883Y0112171D01*
X0174896Y0112335D01*
X0174904Y0112500D01*
X0174908Y0112665D01*
X0174909Y0112829D01*
X0174905Y0112994D01*
X0174897Y0113159D01*
X0174886Y0113323D01*
X0174870Y0113487D01*
X0174851Y0113651D01*
X0174827Y0113814D01*
X0174800Y0113977D01*
X0174769Y0114139D01*
X0174733Y0114300D01*
X0190433Y0169400D02*
X0190433Y0173000D01*
X0197033Y0173000D02*
X0197033Y0169400D01*
X0279333Y0153400D02*
X0282333Y0153400D01*
X0284333Y0155400D01*
X0284333Y0158400D01*
D15*
X0271483Y0089819D03*
X0265184Y0089819D03*
D16*
X0265341Y0090055D03*
X0261483Y0090213D03*
X0261325Y0090213D03*
X0261168Y0090213D03*
X0261010Y0090213D03*
X0260853Y0090213D03*
X0260696Y0090213D03*
X0260538Y0090213D03*
X0256129Y0090213D03*
X0255971Y0090213D03*
X0255814Y0090213D03*
X0255656Y0090213D03*
X0255499Y0090213D03*
X0255341Y0090213D03*
X0255184Y0090213D03*
X0271325Y0090055D03*
X0275971Y0090055D03*
X0280696Y0090055D03*
X0231325Y0090343D03*
X0225341Y0090343D03*
X0210538Y0090055D03*
X0206129Y0090055D03*
X0245184Y0189113D03*
X0245341Y0189113D03*
X0245499Y0189113D03*
X0245656Y0189113D03*
X0245814Y0189113D03*
X0245971Y0189113D03*
X0246129Y0189113D03*
X0250538Y0189113D03*
X0250696Y0189113D03*
X0250853Y0189113D03*
X0251010Y0189113D03*
X0251168Y0189113D03*
X0251325Y0189113D03*
X0251483Y0189113D03*
X0285656Y0189240D03*
X0291010Y0189240D03*
D17*
X0290696Y0189083D03*
X0285971Y0189083D03*
X0271168Y0090213D03*
X0265499Y0090213D03*
X0231168Y0090500D03*
X0225499Y0090500D03*
X0210853Y0090213D03*
X0205814Y0090213D03*
D18*
X0205499Y0090370D03*
X0211168Y0090370D03*
X0230853Y0090657D03*
X0265656Y0090370D03*
X0271010Y0090370D03*
D19*
X0270853Y0090449D03*
X0265814Y0090449D03*
X0211325Y0090449D03*
X0205341Y0090449D03*
D20*
X0205184Y0090528D03*
X0211483Y0090528D03*
X0245184Y0091028D03*
X0245341Y0091028D03*
X0245499Y0091028D03*
X0245656Y0091028D03*
X0245814Y0091028D03*
X0245971Y0091028D03*
X0246129Y0091028D03*
X0250538Y0091028D03*
X0250696Y0091028D03*
X0250853Y0091028D03*
X0251010Y0091028D03*
X0251168Y0091028D03*
X0251325Y0091028D03*
X0251483Y0091028D03*
X0265971Y0090528D03*
X0270696Y0090528D03*
X0231483Y0188928D03*
X0231325Y0188928D03*
X0231168Y0188928D03*
X0231010Y0188928D03*
X0230853Y0188928D03*
X0230696Y0188928D03*
X0230538Y0188928D03*
X0226129Y0188928D03*
X0225971Y0188928D03*
X0225814Y0188928D03*
X0225656Y0188928D03*
X0225499Y0188928D03*
X0225341Y0188928D03*
X0225184Y0188928D03*
D21*
X0270262Y0188865D03*
X0280262Y0189016D03*
X0270538Y0090606D03*
X0266129Y0090606D03*
D22*
X0266286Y0084307D03*
X0268648Y0084307D03*
X0276286Y0084307D03*
X0277861Y0090449D03*
X0278018Y0090449D03*
X0278176Y0090449D03*
X0278333Y0090449D03*
X0278491Y0090449D03*
X0278648Y0090449D03*
X0278806Y0090449D03*
X0278963Y0090449D03*
X0280381Y0096118D03*
X0280223Y0096276D03*
X0280066Y0096276D03*
X0270223Y0097220D03*
X0270066Y0097220D03*
X0256286Y0095961D03*
X0250223Y0097248D03*
X0236916Y0096146D03*
X0236759Y0096146D03*
X0236444Y0095988D03*
X0247546Y0087799D03*
X0250223Y0084807D03*
X0256286Y0084465D03*
X0257861Y0084465D03*
X0258018Y0084465D03*
X0258176Y0084465D03*
X0258333Y0084465D03*
X0258491Y0084465D03*
X0258648Y0084465D03*
X0220696Y0093571D03*
X0218333Y0089949D03*
X0210066Y0090764D03*
X0208963Y0092339D03*
X0302016Y0110756D03*
X0303906Y0111110D03*
X0230223Y0182707D03*
X0227546Y0185699D03*
X0236286Y0192719D03*
X0239121Y0195081D03*
X0239278Y0195081D03*
X0240381Y0190987D03*
X0246286Y0194861D03*
X0259063Y0191357D03*
X0259536Y0187892D03*
X0259378Y0187735D03*
X0259221Y0187735D03*
X0248648Y0183365D03*
X0248491Y0183365D03*
X0248333Y0183365D03*
X0248176Y0183365D03*
X0248018Y0183365D03*
X0247861Y0183365D03*
X0246286Y0183365D03*
X0230223Y0195148D03*
X0288018Y0194988D03*
X0288806Y0194988D03*
X0288806Y0189949D03*
X0288963Y0189949D03*
X0288648Y0189949D03*
X0288491Y0189949D03*
X0288333Y0189949D03*
X0288176Y0189949D03*
X0288018Y0189949D03*
X0287861Y0189949D03*
D23*
X0266286Y0092496D03*
X0241483Y0089531D03*
X0235184Y0089531D03*
D24*
X0229278Y0084437D03*
X0246759Y0084650D03*
X0250066Y0084650D03*
X0260381Y0084307D03*
X0260223Y0088559D03*
X0266444Y0084150D03*
X0260223Y0091866D03*
X0260381Y0096118D03*
X0250066Y0097406D03*
X0246759Y0097406D03*
X0280381Y0088087D03*
X0280381Y0084150D03*
X0209751Y0090606D03*
X0209593Y0090606D03*
X0209436Y0090606D03*
X0226759Y0182550D03*
X0230066Y0182550D03*
X0236444Y0192719D03*
X0238491Y0195239D03*
X0238648Y0195239D03*
X0230066Y0195306D03*
X0226759Y0195306D03*
X0250381Y0195018D03*
X0250223Y0190766D03*
X0250223Y0187459D03*
X0250381Y0183207D03*
X0259851Y0188050D03*
X0260008Y0188207D03*
X0260638Y0188837D03*
X0258906Y0191357D03*
X0258748Y0191357D03*
X0287703Y0195146D03*
X0289121Y0195146D03*
X0290381Y0187587D03*
D25*
X0289908Y0187508D03*
X0288018Y0186878D03*
X0287388Y0187193D03*
X0287073Y0187350D03*
X0286916Y0187508D03*
X0287388Y0189555D03*
X0286444Y0190972D03*
X0289278Y0185618D03*
X0278609Y0182677D03*
X0269160Y0180321D03*
X0268333Y0182683D03*
X0266680Y0176345D03*
X0267782Y0175085D03*
X0268058Y0175085D03*
X0269711Y0175085D03*
X0266955Y0190951D03*
X0268609Y0191502D03*
X0268058Y0193707D03*
X0276955Y0191772D03*
X0278058Y0191220D03*
X0278609Y0189016D03*
X0249278Y0185176D03*
X0249121Y0185176D03*
X0247703Y0185018D03*
X0247546Y0185176D03*
X0246444Y0186593D03*
X0248018Y0187065D03*
X0248018Y0189113D03*
X0247861Y0189113D03*
X0246444Y0191632D03*
X0247703Y0192892D03*
X0247546Y0193050D03*
X0249121Y0193050D03*
X0249278Y0193050D03*
X0239278Y0188861D03*
X0229593Y0188770D03*
X0227231Y0189243D03*
X0227546Y0192865D03*
X0229278Y0192865D03*
X0227388Y0185148D03*
X0228018Y0184518D03*
X0209278Y0095409D03*
X0208176Y0094937D03*
X0209278Y0093362D03*
X0208491Y0091945D03*
X0206759Y0091630D03*
X0207546Y0089898D03*
X0208018Y0089898D03*
X0208176Y0089898D03*
X0206601Y0087850D03*
X0208176Y0086276D03*
X0217546Y0087508D03*
X0220696Y0087823D03*
X0220538Y0086248D03*
X0228491Y0090500D03*
X0228648Y0090500D03*
X0237231Y0088823D03*
X0239593Y0088350D03*
X0247388Y0087248D03*
X0248018Y0086618D03*
X0249593Y0090870D03*
X0247231Y0091343D03*
X0247546Y0094965D03*
X0249278Y0094965D03*
X0256444Y0092732D03*
X0257703Y0093992D03*
X0257546Y0094150D03*
X0259121Y0094150D03*
X0259278Y0094150D03*
X0258018Y0090213D03*
X0257861Y0090213D03*
X0258018Y0088165D03*
X0256444Y0087693D03*
X0257546Y0086276D03*
X0257703Y0086118D03*
X0259121Y0086276D03*
X0259278Y0086276D03*
X0266444Y0087535D03*
X0269278Y0086118D03*
X0270223Y0091157D03*
X0276444Y0091472D03*
X0277388Y0090055D03*
X0276916Y0088008D03*
X0277073Y0087850D03*
X0277388Y0087693D03*
X0278018Y0087378D03*
X0279278Y0086118D03*
X0279908Y0088008D03*
D26*
X0269751Y0097220D03*
X0266444Y0091866D03*
X0250381Y0084965D03*
X0237073Y0096146D03*
X0227703Y0098295D03*
X0220381Y0093728D03*
X0217703Y0094988D03*
X0210381Y0095488D03*
X0229436Y0084752D03*
X0230381Y0182865D03*
X0239751Y0194924D03*
X0239908Y0194924D03*
X0258591Y0194979D03*
X0259378Y0191672D03*
X0258906Y0187577D03*
X0288333Y0194831D03*
X0288491Y0194831D03*
X0290066Y0182862D03*
X0289908Y0182705D03*
X0289751Y0182705D03*
X0289593Y0182547D03*
D27*
X0267546Y0096827D03*
X0267073Y0096669D03*
X0266759Y0096512D03*
X0266444Y0096354D03*
X0239593Y0095437D03*
X0239436Y0095437D03*
X0239278Y0095437D03*
X0237388Y0095437D03*
X0237231Y0095437D03*
X0229593Y0097114D03*
X0218806Y0094437D03*
X0218648Y0094437D03*
X0218491Y0094437D03*
X0218333Y0094437D03*
X0218176Y0094437D03*
D28*
X0210066Y0095646D03*
X0207861Y0094386D03*
X0208806Y0092181D03*
X0228333Y0092941D03*
X0228491Y0092941D03*
X0229593Y0092941D03*
X0229751Y0092941D03*
X0229908Y0092941D03*
X0230066Y0092941D03*
X0230223Y0092941D03*
X0230381Y0092941D03*
X0230538Y0092941D03*
X0230066Y0097823D03*
X0240381Y0091264D03*
X0246916Y0084492D03*
X0247073Y0084492D03*
X0249751Y0084492D03*
X0256601Y0084150D03*
X0257703Y0084150D03*
X0260223Y0084150D03*
X0260066Y0088559D03*
X0260066Y0091866D03*
X0258491Y0092654D03*
X0258333Y0092654D03*
X0258333Y0096276D03*
X0256601Y0096276D03*
X0260223Y0096276D03*
X0266759Y0092024D03*
X0270223Y0093756D03*
X0267703Y0086984D03*
X0268333Y0083992D03*
X0266601Y0083992D03*
X0276601Y0083992D03*
X0278333Y0083992D03*
X0277703Y0086984D03*
X0249751Y0097563D03*
X0247073Y0097563D03*
X0229121Y0084280D03*
X0277507Y0173465D03*
X0279160Y0173465D03*
X0278885Y0176496D03*
X0269987Y0185164D03*
X0269711Y0185164D03*
X0269436Y0185164D03*
X0258591Y0191357D03*
X0258906Y0195451D03*
X0257488Y0195451D03*
X0250223Y0195176D03*
X0248333Y0195176D03*
X0246601Y0195176D03*
X0248333Y0191554D03*
X0248491Y0191554D03*
X0250066Y0190766D03*
X0250066Y0187459D03*
X0250223Y0183050D03*
X0247703Y0183050D03*
X0246601Y0183050D03*
X0240381Y0187050D03*
X0237703Y0189884D03*
X0237546Y0189884D03*
X0240066Y0191144D03*
X0236759Y0192719D03*
X0236601Y0192719D03*
X0236286Y0195396D03*
X0237861Y0195396D03*
X0238018Y0195396D03*
X0229751Y0195463D03*
X0227073Y0195463D03*
X0227073Y0182392D03*
X0226916Y0182392D03*
X0229751Y0182392D03*
X0286286Y0195303D03*
X0287388Y0195303D03*
X0289436Y0195303D03*
X0287703Y0186484D03*
D29*
X0288176Y0187035D03*
X0289593Y0187508D03*
X0289751Y0187508D03*
X0289436Y0189555D03*
X0287546Y0190972D03*
X0286916Y0192862D03*
X0289751Y0192862D03*
X0260638Y0192380D03*
X0259851Y0192223D03*
X0260008Y0190963D03*
X0258276Y0190963D03*
X0260008Y0193640D03*
X0249436Y0193050D03*
X0247388Y0193050D03*
X0246601Y0191632D03*
X0247388Y0191317D03*
X0247546Y0191317D03*
X0248176Y0189113D03*
X0248333Y0189113D03*
X0247703Y0187065D03*
X0246601Y0186593D03*
X0247388Y0185176D03*
X0249436Y0185176D03*
X0239436Y0188861D03*
X0237231Y0190435D03*
X0230381Y0190975D03*
X0229278Y0188613D03*
X0229121Y0188613D03*
X0227703Y0189400D03*
X0227388Y0186723D03*
X0226601Y0186723D03*
X0229436Y0185148D03*
X0208963Y0095252D03*
X0208648Y0095094D03*
X0208491Y0095094D03*
X0209436Y0093362D03*
X0208333Y0091787D03*
X0206916Y0091630D03*
X0207388Y0093362D03*
X0206916Y0088008D03*
X0208806Y0088008D03*
X0217703Y0087508D03*
X0219121Y0087823D03*
X0219908Y0088925D03*
X0218176Y0088925D03*
X0218176Y0086091D03*
X0218963Y0086091D03*
X0219908Y0086091D03*
X0220066Y0086091D03*
X0228176Y0086091D03*
X0229908Y0086091D03*
X0229278Y0090657D03*
X0229121Y0090657D03*
X0229121Y0093650D03*
X0229278Y0093650D03*
X0228963Y0093650D03*
X0228806Y0093650D03*
X0237546Y0088980D03*
X0237703Y0088980D03*
X0239121Y0088193D03*
X0246601Y0088823D03*
X0247388Y0088823D03*
X0249121Y0090713D03*
X0249278Y0090713D03*
X0247703Y0091500D03*
X0250381Y0093075D03*
X0256601Y0092732D03*
X0257388Y0092417D03*
X0257546Y0092417D03*
X0257388Y0094150D03*
X0259436Y0094150D03*
X0258333Y0090213D03*
X0258176Y0090213D03*
X0257703Y0088165D03*
X0256601Y0087693D03*
X0257388Y0086276D03*
X0259436Y0086276D03*
X0266601Y0087693D03*
X0267231Y0087693D03*
X0268176Y0087693D03*
X0270066Y0087693D03*
X0268333Y0092102D03*
X0268176Y0092102D03*
X0277546Y0091472D03*
X0279436Y0090055D03*
X0279593Y0088008D03*
X0279751Y0088008D03*
X0278176Y0087535D03*
X0249436Y0087248D03*
D30*
X0246601Y0084728D03*
X0236601Y0096067D03*
X0246601Y0097327D03*
X0228333Y0087035D03*
X0218491Y0090028D03*
X0209908Y0090685D03*
X0209908Y0087063D03*
X0209751Y0087063D03*
X0209593Y0087063D03*
X0209436Y0087063D03*
X0210066Y0087063D03*
X0210223Y0087063D03*
X0207703Y0094307D03*
X0206444Y0095567D03*
X0210223Y0095567D03*
X0266601Y0091945D03*
X0277703Y0090528D03*
X0279121Y0090528D03*
X0278648Y0084228D03*
X0270381Y0084228D03*
X0226601Y0182628D03*
X0226601Y0195227D03*
X0238806Y0195160D03*
X0238963Y0195160D03*
X0258748Y0195215D03*
X0260796Y0189073D03*
X0259693Y0187971D03*
X0287703Y0190028D03*
X0289121Y0190028D03*
X0288963Y0195067D03*
X0287861Y0195067D03*
D31*
X0267861Y0096906D03*
X0267703Y0096906D03*
X0267388Y0096748D03*
X0267231Y0096748D03*
X0266916Y0096591D03*
X0266601Y0096433D03*
X0239908Y0095358D03*
X0239751Y0095358D03*
X0229751Y0097035D03*
X0218963Y0094358D03*
X0218018Y0094516D03*
D32*
X0216444Y0094437D03*
X0220696Y0090500D03*
X0219593Y0088295D03*
X0219436Y0088138D03*
X0227388Y0087823D03*
X0228648Y0087193D03*
X0230696Y0089083D03*
X0228176Y0093020D03*
X0230223Y0097744D03*
X0247231Y0097642D03*
X0249436Y0097642D03*
X0249593Y0097642D03*
X0256759Y0096354D03*
X0258176Y0096354D03*
X0260066Y0096354D03*
X0258176Y0092732D03*
X0258018Y0092732D03*
X0259908Y0091787D03*
X0256916Y0090213D03*
X0256759Y0090213D03*
X0259908Y0088638D03*
X0260066Y0084071D03*
X0256759Y0084071D03*
X0249593Y0084413D03*
X0249436Y0084413D03*
X0247231Y0084413D03*
X0230538Y0084201D03*
X0228963Y0084201D03*
X0227546Y0084201D03*
X0210381Y0083913D03*
X0209908Y0095567D03*
X0206759Y0095567D03*
X0266916Y0092102D03*
X0270066Y0093677D03*
X0270066Y0083913D03*
X0269908Y0083913D03*
X0269121Y0083913D03*
X0268176Y0083913D03*
X0268018Y0083913D03*
X0266916Y0083913D03*
X0266759Y0083913D03*
X0276759Y0083913D03*
X0276916Y0083913D03*
X0278176Y0083913D03*
X0279121Y0083913D03*
X0280066Y0083913D03*
X0269711Y0172683D03*
X0266955Y0172683D03*
X0268333Y0180124D03*
X0278333Y0180276D03*
X0277782Y0176417D03*
X0279436Y0185236D03*
X0279711Y0185236D03*
X0279711Y0195709D03*
X0276955Y0195709D03*
X0286444Y0195382D03*
X0287231Y0195382D03*
X0289593Y0195382D03*
X0290381Y0195382D03*
X0260638Y0195530D03*
X0258276Y0195530D03*
X0257646Y0195530D03*
X0250066Y0195254D03*
X0248176Y0195254D03*
X0246759Y0195254D03*
X0248018Y0191632D03*
X0248176Y0191632D03*
X0249908Y0190687D03*
X0249908Y0187538D03*
X0246916Y0189113D03*
X0246759Y0189113D03*
X0240223Y0186971D03*
X0239278Y0186971D03*
X0238806Y0186971D03*
X0236601Y0186971D03*
X0236444Y0186971D03*
X0237388Y0189806D03*
X0239908Y0191065D03*
X0237703Y0195475D03*
X0237546Y0195475D03*
X0229593Y0195542D03*
X0229436Y0195542D03*
X0227231Y0195542D03*
X0227231Y0182313D03*
X0229436Y0182313D03*
X0229593Y0182313D03*
X0246759Y0182971D03*
X0250066Y0182971D03*
X0256701Y0188128D03*
D33*
X0258433Y0192144D03*
X0258276Y0193719D03*
X0247231Y0191396D03*
X0247073Y0191396D03*
X0246759Y0191554D03*
X0247388Y0186987D03*
X0247546Y0186987D03*
X0247073Y0186829D03*
X0246759Y0186672D03*
X0238806Y0188939D03*
X0236444Y0190514D03*
X0238333Y0192719D03*
X0238491Y0192719D03*
X0230223Y0191054D03*
X0229436Y0192628D03*
X0226444Y0191054D03*
X0227861Y0189479D03*
X0228963Y0188534D03*
X0228018Y0186802D03*
X0227231Y0186802D03*
X0227073Y0186802D03*
X0226916Y0186802D03*
X0226759Y0186802D03*
X0230066Y0186802D03*
X0286601Y0191051D03*
X0287388Y0191051D03*
X0287073Y0192783D03*
X0289593Y0192783D03*
X0289278Y0191051D03*
X0289278Y0187429D03*
X0289436Y0187429D03*
X0287231Y0185697D03*
X0249436Y0094728D03*
X0250223Y0093154D03*
X0248963Y0090634D03*
X0247861Y0091579D03*
X0246444Y0093154D03*
X0246759Y0088902D03*
X0246916Y0088902D03*
X0247073Y0088902D03*
X0247231Y0088902D03*
X0248018Y0088902D03*
X0250066Y0088902D03*
X0256759Y0087772D03*
X0257073Y0087929D03*
X0257388Y0088087D03*
X0257546Y0088087D03*
X0257231Y0092496D03*
X0257073Y0092496D03*
X0256759Y0092654D03*
X0266759Y0087772D03*
X0266916Y0087772D03*
X0267073Y0087772D03*
X0268333Y0087772D03*
X0269908Y0087772D03*
X0269436Y0089504D03*
X0269751Y0091394D03*
X0269908Y0091394D03*
X0269593Y0091551D03*
X0268963Y0091866D03*
X0268648Y0092024D03*
X0268491Y0092024D03*
X0268648Y0093756D03*
X0267231Y0086197D03*
X0277231Y0086197D03*
X0279278Y0087929D03*
X0279436Y0087929D03*
X0279278Y0091551D03*
X0277388Y0091551D03*
X0276601Y0091551D03*
X0240381Y0086539D03*
X0240223Y0086539D03*
X0238963Y0088114D03*
X0237861Y0089059D03*
X0237073Y0090634D03*
X0236601Y0086539D03*
X0236444Y0086539D03*
X0230696Y0090894D03*
X0229593Y0090736D03*
X0229436Y0090736D03*
X0229278Y0087587D03*
X0229121Y0087587D03*
X0219751Y0087587D03*
X0218963Y0087744D03*
X0217861Y0087587D03*
X0217388Y0089949D03*
X0208648Y0088087D03*
X0208491Y0088087D03*
X0207231Y0088087D03*
X0207073Y0088087D03*
X0207073Y0091709D03*
X0208176Y0091866D03*
X0207231Y0093283D03*
X0208806Y0095173D03*
D34*
X0206916Y0095488D03*
X0206444Y0091551D03*
X0206444Y0083835D03*
X0206601Y0083835D03*
X0206759Y0083835D03*
X0206916Y0083835D03*
X0207073Y0083835D03*
X0207231Y0083835D03*
X0207388Y0083835D03*
X0207546Y0083835D03*
X0207703Y0083835D03*
X0207861Y0083835D03*
X0208018Y0083835D03*
X0208176Y0083835D03*
X0208333Y0083835D03*
X0208491Y0083835D03*
X0208648Y0083835D03*
X0208806Y0083835D03*
X0208963Y0083835D03*
X0209121Y0083835D03*
X0209278Y0083835D03*
X0209436Y0083835D03*
X0209593Y0083835D03*
X0209751Y0083835D03*
X0209908Y0083835D03*
X0210066Y0083835D03*
X0210223Y0083835D03*
X0217388Y0083965D03*
X0217546Y0083965D03*
X0217703Y0083965D03*
X0217861Y0083965D03*
X0218018Y0083965D03*
X0218176Y0083965D03*
X0218333Y0083965D03*
X0218491Y0083965D03*
X0218648Y0083965D03*
X0218806Y0083965D03*
X0218963Y0083965D03*
X0219121Y0083965D03*
X0219278Y0083965D03*
X0219436Y0083965D03*
X0219593Y0083965D03*
X0219751Y0083965D03*
X0219908Y0083965D03*
X0220066Y0083965D03*
X0220223Y0083965D03*
X0220381Y0083965D03*
X0220538Y0083965D03*
X0220696Y0083965D03*
X0227703Y0084122D03*
X0227861Y0084122D03*
X0228806Y0084122D03*
X0229751Y0084122D03*
X0230381Y0084122D03*
X0236444Y0084492D03*
X0240223Y0084492D03*
X0240381Y0084492D03*
X0240381Y0088587D03*
X0240223Y0091264D03*
X0240066Y0091264D03*
X0239908Y0091264D03*
X0239751Y0091264D03*
X0239593Y0091264D03*
X0239436Y0091264D03*
X0239278Y0091264D03*
X0239121Y0091264D03*
X0238963Y0091264D03*
X0238806Y0091264D03*
X0238648Y0091264D03*
X0238491Y0091264D03*
X0238333Y0091264D03*
X0238176Y0091264D03*
X0238018Y0091264D03*
X0237861Y0091264D03*
X0237703Y0091264D03*
X0237546Y0091264D03*
X0237388Y0091264D03*
X0237231Y0091264D03*
X0236444Y0088587D03*
X0227388Y0090264D03*
X0216286Y0094358D03*
X0226444Y0097823D03*
X0230381Y0097665D03*
X0247388Y0097720D03*
X0247546Y0097720D03*
X0249121Y0097720D03*
X0249278Y0097720D03*
X0256916Y0096433D03*
X0257073Y0096433D03*
X0257861Y0096433D03*
X0258018Y0096433D03*
X0258491Y0096433D03*
X0258648Y0096433D03*
X0259908Y0096433D03*
X0257861Y0092811D03*
X0257073Y0090291D03*
X0250381Y0091106D03*
X0246444Y0091106D03*
X0247388Y0084335D03*
X0247546Y0084335D03*
X0247703Y0084335D03*
X0248963Y0084335D03*
X0249121Y0084335D03*
X0249278Y0084335D03*
X0256916Y0083992D03*
X0257073Y0083992D03*
X0257231Y0083992D03*
X0257388Y0083992D03*
X0257546Y0083992D03*
X0258963Y0083992D03*
X0259908Y0083992D03*
X0267073Y0083835D03*
X0267231Y0083835D03*
X0267388Y0083835D03*
X0267546Y0083835D03*
X0267703Y0083835D03*
X0267861Y0083835D03*
X0269278Y0083835D03*
X0269436Y0083835D03*
X0269593Y0083835D03*
X0269751Y0083835D03*
X0267861Y0087142D03*
X0269908Y0093756D03*
X0277861Y0087142D03*
X0280223Y0088087D03*
X0279908Y0083835D03*
X0279751Y0083835D03*
X0279436Y0083835D03*
X0279278Y0083835D03*
X0278018Y0083835D03*
X0277861Y0083835D03*
X0277703Y0083835D03*
X0277546Y0083835D03*
X0277388Y0083835D03*
X0277231Y0083835D03*
X0277073Y0083835D03*
X0293878Y0106705D03*
X0249908Y0182892D03*
X0248963Y0182892D03*
X0247546Y0182892D03*
X0247388Y0182892D03*
X0247231Y0182892D03*
X0247073Y0182892D03*
X0246916Y0182892D03*
X0239436Y0186892D03*
X0237703Y0186892D03*
X0237546Y0186892D03*
X0237388Y0186892D03*
X0237231Y0186892D03*
X0237073Y0186892D03*
X0236916Y0186892D03*
X0236759Y0186892D03*
X0239751Y0191144D03*
X0237073Y0192719D03*
X0236916Y0192719D03*
X0237231Y0195554D03*
X0237388Y0195554D03*
X0236444Y0195554D03*
X0229278Y0195620D03*
X0229121Y0195620D03*
X0227546Y0195620D03*
X0227388Y0195620D03*
X0226444Y0189006D03*
X0230381Y0189006D03*
X0229278Y0182235D03*
X0229121Y0182235D03*
X0228963Y0182235D03*
X0227703Y0182235D03*
X0227546Y0182235D03*
X0227388Y0182235D03*
X0247073Y0189191D03*
X0247861Y0191711D03*
X0247861Y0195333D03*
X0248018Y0195333D03*
X0248491Y0195333D03*
X0248648Y0195333D03*
X0249908Y0195333D03*
X0247073Y0195333D03*
X0246916Y0195333D03*
X0257803Y0195609D03*
X0257961Y0195609D03*
X0258118Y0195609D03*
X0259063Y0195609D03*
X0260481Y0195609D03*
X0256544Y0188207D03*
X0286601Y0195461D03*
X0286759Y0195461D03*
X0286916Y0195461D03*
X0287073Y0195461D03*
X0289751Y0195461D03*
X0289908Y0195461D03*
X0290066Y0195461D03*
X0290223Y0195461D03*
X0290223Y0187587D03*
X0287861Y0186642D03*
D35*
X0286601Y0187665D03*
X0260323Y0195687D03*
X0260166Y0195687D03*
X0259378Y0195687D03*
X0259221Y0195687D03*
X0256701Y0195687D03*
X0255914Y0195687D03*
X0249751Y0195412D03*
X0249593Y0195412D03*
X0249436Y0195412D03*
X0249278Y0195412D03*
X0249121Y0195412D03*
X0248963Y0195412D03*
X0248806Y0195412D03*
X0247703Y0195412D03*
X0247546Y0195412D03*
X0247388Y0195412D03*
X0247231Y0195412D03*
X0249593Y0190687D03*
X0249751Y0190687D03*
X0247231Y0189113D03*
X0249593Y0187538D03*
X0249751Y0187538D03*
X0256386Y0188286D03*
X0249751Y0182813D03*
X0249593Y0182813D03*
X0249436Y0182813D03*
X0249278Y0182813D03*
X0249121Y0182813D03*
X0240066Y0186813D03*
X0239908Y0186813D03*
X0239593Y0186813D03*
X0238648Y0186813D03*
X0238491Y0186813D03*
X0238333Y0186813D03*
X0238176Y0186813D03*
X0238018Y0186813D03*
X0237861Y0186813D03*
X0239593Y0191065D03*
X0237231Y0192798D03*
X0237073Y0195632D03*
X0236916Y0195632D03*
X0236601Y0195632D03*
X0228963Y0195699D03*
X0228806Y0195699D03*
X0228648Y0195699D03*
X0228491Y0195699D03*
X0228333Y0195699D03*
X0228176Y0195699D03*
X0228018Y0195699D03*
X0227861Y0195699D03*
X0227703Y0195699D03*
X0230223Y0188928D03*
X0228806Y0182156D03*
X0228648Y0182156D03*
X0228491Y0182156D03*
X0228333Y0182156D03*
X0228176Y0182156D03*
X0228018Y0182156D03*
X0227861Y0182156D03*
X0226286Y0097744D03*
X0230538Y0097587D03*
X0230538Y0089083D03*
X0230381Y0089083D03*
X0227546Y0087823D03*
X0228018Y0084043D03*
X0228176Y0084043D03*
X0228333Y0084043D03*
X0228491Y0084043D03*
X0228648Y0084043D03*
X0229908Y0084043D03*
X0230066Y0084043D03*
X0230223Y0084043D03*
X0226601Y0084043D03*
X0225814Y0084043D03*
X0217388Y0087508D03*
X0218806Y0090500D03*
X0216129Y0094280D03*
X0209751Y0095567D03*
X0207388Y0095094D03*
X0207231Y0095252D03*
X0207073Y0095409D03*
X0209278Y0091157D03*
X0209278Y0087535D03*
X0215814Y0083886D03*
X0216601Y0083886D03*
X0236601Y0084413D03*
X0236759Y0084413D03*
X0236916Y0084413D03*
X0237073Y0084413D03*
X0237231Y0084413D03*
X0237388Y0084413D03*
X0237546Y0084413D03*
X0237703Y0084413D03*
X0237861Y0084413D03*
X0238018Y0084413D03*
X0238176Y0084413D03*
X0238333Y0084413D03*
X0238491Y0084413D03*
X0238648Y0084413D03*
X0238806Y0084413D03*
X0238963Y0084413D03*
X0239121Y0084413D03*
X0239278Y0084413D03*
X0239436Y0084413D03*
X0239593Y0084413D03*
X0239751Y0084413D03*
X0239908Y0084413D03*
X0240066Y0084413D03*
X0247861Y0084256D03*
X0248018Y0084256D03*
X0248176Y0084256D03*
X0248333Y0084256D03*
X0248491Y0084256D03*
X0248648Y0084256D03*
X0248806Y0084256D03*
X0250223Y0091028D03*
X0257231Y0090213D03*
X0259593Y0091787D03*
X0259751Y0091787D03*
X0259751Y0096512D03*
X0259593Y0096512D03*
X0259436Y0096512D03*
X0259278Y0096512D03*
X0259121Y0096512D03*
X0258963Y0096512D03*
X0258806Y0096512D03*
X0257703Y0096512D03*
X0257546Y0096512D03*
X0257388Y0096512D03*
X0257231Y0096512D03*
X0248963Y0097799D03*
X0248806Y0097799D03*
X0248648Y0097799D03*
X0248491Y0097799D03*
X0248333Y0097799D03*
X0248176Y0097799D03*
X0248018Y0097799D03*
X0247861Y0097799D03*
X0247703Y0097799D03*
X0259593Y0088638D03*
X0259751Y0088638D03*
X0259751Y0083913D03*
X0259593Y0083913D03*
X0259436Y0083913D03*
X0259278Y0083913D03*
X0259121Y0083913D03*
X0268176Y0089898D03*
X0268333Y0089898D03*
X0268491Y0089898D03*
X0270381Y0091000D03*
X0269751Y0093677D03*
X0267073Y0092102D03*
X0276601Y0088165D03*
X0279593Y0083756D03*
D36*
X0280066Y0088087D03*
X0277546Y0090134D03*
X0268963Y0089819D03*
X0268806Y0089819D03*
X0268648Y0089819D03*
X0268018Y0089819D03*
X0267861Y0089819D03*
X0267388Y0092181D03*
X0267231Y0092181D03*
X0269593Y0093756D03*
X0259436Y0091866D03*
X0259278Y0091866D03*
X0258963Y0092024D03*
X0257388Y0090291D03*
X0258333Y0088087D03*
X0259278Y0088559D03*
X0259436Y0088559D03*
X0248963Y0087012D03*
X0248806Y0087012D03*
X0246601Y0091106D03*
X0248018Y0095201D03*
X0248176Y0095201D03*
X0248333Y0095201D03*
X0248491Y0095201D03*
X0248648Y0095201D03*
X0240223Y0088587D03*
X0236601Y0088587D03*
X0227703Y0087902D03*
X0227703Y0090264D03*
X0227546Y0090264D03*
X0220538Y0090579D03*
X0218176Y0090579D03*
X0215814Y0094043D03*
X0215971Y0094201D03*
X0209593Y0095488D03*
X0208018Y0094701D03*
X0208648Y0092024D03*
X0215971Y0083807D03*
X0216129Y0083807D03*
X0216286Y0083807D03*
X0216444Y0083807D03*
X0225971Y0083965D03*
X0226129Y0083965D03*
X0226286Y0083965D03*
X0226444Y0083965D03*
X0225814Y0097350D03*
X0226129Y0097665D03*
X0230696Y0097508D03*
X0228963Y0184912D03*
X0228806Y0184912D03*
X0226601Y0189006D03*
X0228018Y0193101D03*
X0228176Y0193101D03*
X0228333Y0193101D03*
X0228491Y0193101D03*
X0228648Y0193101D03*
X0236759Y0195711D03*
X0237388Y0192719D03*
X0237861Y0190357D03*
X0239436Y0191144D03*
X0239751Y0186735D03*
X0247388Y0189191D03*
X0248963Y0190924D03*
X0249278Y0190766D03*
X0249436Y0190766D03*
X0249436Y0187459D03*
X0249278Y0187459D03*
X0248333Y0186987D03*
X0256229Y0188365D03*
X0257488Y0192302D03*
X0260796Y0192302D03*
X0260008Y0195766D03*
X0259851Y0195766D03*
X0259693Y0195766D03*
X0259536Y0195766D03*
X0256544Y0195766D03*
X0256386Y0195766D03*
X0256229Y0195766D03*
X0256071Y0195766D03*
X0287546Y0189634D03*
X0290066Y0187587D03*
D37*
X0289436Y0185697D03*
X0287388Y0185697D03*
X0287231Y0187272D03*
X0290223Y0191051D03*
X0290066Y0192941D03*
X0289908Y0192941D03*
X0286759Y0192941D03*
X0277231Y0191575D03*
X0276680Y0188819D03*
X0277507Y0185236D03*
X0278333Y0182756D03*
X0277231Y0178622D03*
X0267231Y0178471D03*
X0267507Y0185085D03*
X0266955Y0187565D03*
X0269711Y0190872D03*
X0269160Y0192526D03*
X0259851Y0193561D03*
X0257646Y0192302D03*
X0247861Y0186987D03*
X0238176Y0192719D03*
X0238018Y0192719D03*
X0229436Y0188691D03*
X0227546Y0189321D03*
X0227388Y0189321D03*
X0227388Y0192786D03*
X0230223Y0186802D03*
X0228648Y0184439D03*
X0228491Y0184439D03*
X0228333Y0184439D03*
X0228176Y0184439D03*
X0288888Y0161677D03*
X0289833Y0159669D03*
X0302961Y0108866D03*
X0304851Y0108866D03*
X0303906Y0103315D03*
X0302961Y0102016D03*
X0302016Y0102961D03*
X0292461Y0103516D03*
X0292461Y0106232D03*
X0280223Y0091551D03*
X0277231Y0087772D03*
X0277388Y0086197D03*
X0279436Y0086197D03*
X0270223Y0087614D03*
X0269436Y0086197D03*
X0267388Y0086197D03*
X0267388Y0087614D03*
X0267388Y0089504D03*
X0267861Y0092181D03*
X0268018Y0092181D03*
X0270066Y0091236D03*
X0257861Y0088087D03*
X0250223Y0088902D03*
X0249436Y0090791D03*
X0247546Y0091421D03*
X0247388Y0091421D03*
X0248176Y0086539D03*
X0248333Y0086539D03*
X0248491Y0086539D03*
X0248648Y0086539D03*
X0239436Y0088272D03*
X0239278Y0088272D03*
X0237388Y0088902D03*
X0230696Y0087114D03*
X0229751Y0086012D03*
X0228963Y0087587D03*
X0228963Y0090579D03*
X0228806Y0090579D03*
X0228648Y0093571D03*
X0229436Y0093571D03*
X0219751Y0088846D03*
X0220223Y0086169D03*
X0220381Y0086169D03*
X0218806Y0086169D03*
X0218648Y0086169D03*
X0218491Y0086169D03*
X0218333Y0086169D03*
X0208963Y0087929D03*
X0206759Y0087929D03*
X0207388Y0086197D03*
X0207388Y0089819D03*
X0208333Y0095016D03*
X0209121Y0095331D03*
X0247388Y0094886D03*
D38*
X0246916Y0097484D03*
X0249908Y0097484D03*
X0256444Y0096197D03*
X0258648Y0092575D03*
X0256601Y0090213D03*
X0256444Y0090213D03*
X0256444Y0084228D03*
X0249908Y0084571D03*
X0267546Y0086906D03*
X0268491Y0084071D03*
X0270223Y0084071D03*
X0276444Y0084071D03*
X0278491Y0084071D03*
X0280223Y0084071D03*
X0277546Y0086906D03*
X0276444Y0088165D03*
X0270381Y0093677D03*
X0230696Y0093020D03*
X0226601Y0097744D03*
X0216601Y0094437D03*
X0218648Y0090185D03*
X0227388Y0084358D03*
X0228491Y0087035D03*
X0230696Y0084358D03*
X0206601Y0095567D03*
X0290778Y0155654D03*
X0288888Y0167110D03*
X0279987Y0185236D03*
X0276680Y0185236D03*
X0266680Y0185085D03*
X0260481Y0188601D03*
X0260323Y0188443D03*
X0260166Y0188286D03*
X0260796Y0195372D03*
X0248648Y0191475D03*
X0246601Y0189113D03*
X0246444Y0189113D03*
X0246444Y0195097D03*
X0240223Y0191065D03*
X0238333Y0195317D03*
X0238176Y0195317D03*
X0229908Y0195384D03*
X0226916Y0195384D03*
X0229908Y0182471D03*
X0246444Y0183128D03*
X0286444Y0187665D03*
X0287546Y0186406D03*
X0287546Y0195224D03*
X0289278Y0195224D03*
D39*
X0290223Y0192941D03*
X0290381Y0190894D03*
X0286601Y0192941D03*
X0286759Y0187587D03*
X0289121Y0185539D03*
X0279711Y0178622D03*
X0269987Y0175164D03*
X0268885Y0176817D03*
X0268058Y0177093D03*
X0268609Y0182605D03*
X0269160Y0189219D03*
X0279160Y0193504D03*
X0258433Y0191042D03*
X0255914Y0188522D03*
X0248806Y0187302D03*
X0248491Y0187144D03*
X0248176Y0186987D03*
X0248963Y0185097D03*
X0247703Y0189191D03*
X0247703Y0191396D03*
X0248963Y0192971D03*
X0238963Y0190987D03*
X0238806Y0190987D03*
X0238648Y0190829D03*
X0238491Y0190829D03*
X0238333Y0190672D03*
X0238176Y0190672D03*
X0237861Y0192719D03*
X0237703Y0192719D03*
X0229121Y0192943D03*
X0227703Y0192943D03*
X0227073Y0189164D03*
X0226444Y0186644D03*
X0229278Y0185069D03*
X0230381Y0186644D03*
X0229908Y0188849D03*
X0229751Y0188849D03*
X0247703Y0095043D03*
X0249121Y0095043D03*
X0249751Y0090949D03*
X0249908Y0090949D03*
X0250381Y0088744D03*
X0249278Y0087169D03*
X0246444Y0088744D03*
X0247073Y0091264D03*
X0239751Y0088429D03*
X0237073Y0088744D03*
X0236916Y0088744D03*
X0228806Y0087429D03*
X0228333Y0090421D03*
X0228176Y0090421D03*
X0220223Y0090736D03*
X0220066Y0090736D03*
X0219908Y0090736D03*
X0219751Y0090736D03*
X0219593Y0090736D03*
X0219436Y0090736D03*
X0219278Y0090736D03*
X0219121Y0090736D03*
X0219278Y0087902D03*
X0220696Y0086169D03*
X0209121Y0087772D03*
X0208018Y0086354D03*
X0207861Y0086354D03*
X0207703Y0086354D03*
X0207546Y0086354D03*
X0207703Y0089976D03*
X0207861Y0089976D03*
X0209436Y0095488D03*
X0257703Y0092496D03*
X0258963Y0094071D03*
X0257703Y0090291D03*
X0258806Y0088402D03*
X0258491Y0088244D03*
X0258176Y0088087D03*
X0258963Y0086197D03*
X0268018Y0087457D03*
X0269121Y0086039D03*
X0269278Y0089661D03*
X0267546Y0089661D03*
X0267546Y0092181D03*
X0267703Y0092181D03*
X0276759Y0088087D03*
X0279121Y0086039D03*
X0280381Y0091394D03*
D40*
X0279278Y0090055D03*
X0270381Y0087535D03*
X0269121Y0089740D03*
X0267703Y0089740D03*
X0259121Y0088480D03*
X0258963Y0088480D03*
X0258648Y0088323D03*
X0257546Y0090213D03*
X0259121Y0091945D03*
X0250066Y0091028D03*
X0246916Y0091185D03*
X0246759Y0091185D03*
X0249121Y0087091D03*
X0240066Y0088508D03*
X0239908Y0088508D03*
X0236759Y0088665D03*
X0230223Y0089083D03*
X0230066Y0089083D03*
X0228176Y0087665D03*
X0228018Y0087823D03*
X0227861Y0087823D03*
X0227861Y0090343D03*
X0228018Y0090343D03*
X0220381Y0090657D03*
X0218963Y0090657D03*
X0218018Y0090657D03*
X0209121Y0091472D03*
X0209121Y0093205D03*
X0206601Y0091630D03*
X0206444Y0087693D03*
X0225971Y0097587D03*
X0247861Y0095122D03*
X0248806Y0095122D03*
X0248963Y0095122D03*
X0291516Y0107413D03*
X0229121Y0184991D03*
X0230066Y0188928D03*
X0226916Y0189085D03*
X0226759Y0189085D03*
X0227861Y0193022D03*
X0228806Y0193022D03*
X0228963Y0193022D03*
X0237546Y0192798D03*
X0239121Y0191065D03*
X0239278Y0191065D03*
X0238018Y0190435D03*
X0247546Y0189113D03*
X0248648Y0187223D03*
X0248963Y0187380D03*
X0249121Y0187380D03*
X0249121Y0190845D03*
X0256071Y0188443D03*
X0259851Y0190963D03*
X0286444Y0193020D03*
X0290381Y0193020D03*
X0289278Y0189555D03*
D41*
X0288648Y0182941D03*
X0268176Y0096984D03*
X0268018Y0096984D03*
X0240381Y0095122D03*
X0240223Y0095280D03*
X0240066Y0095280D03*
X0219278Y0094280D03*
X0219121Y0094280D03*
D42*
X0217861Y0090106D03*
X0217546Y0089949D03*
X0218018Y0087587D03*
X0218176Y0087587D03*
X0218333Y0087587D03*
X0218491Y0087587D03*
X0218648Y0087587D03*
X0219908Y0087587D03*
X0220066Y0087587D03*
X0220223Y0087587D03*
X0220381Y0087744D03*
X0229751Y0087429D03*
X0229908Y0087429D03*
X0230381Y0087272D03*
X0230381Y0090894D03*
X0230538Y0090894D03*
X0230223Y0090894D03*
X0230066Y0090894D03*
X0228018Y0093886D03*
X0227861Y0093886D03*
X0227703Y0093886D03*
X0227546Y0093886D03*
X0238176Y0089217D03*
X0238333Y0089217D03*
X0238491Y0087957D03*
X0248491Y0090476D03*
X0248648Y0090476D03*
X0248333Y0091736D03*
X0257231Y0094228D03*
X0257231Y0086354D03*
X0269121Y0087929D03*
X0268333Y0093756D03*
X0268176Y0093756D03*
X0276916Y0091709D03*
X0277073Y0091709D03*
X0279751Y0091709D03*
X0279908Y0091709D03*
X0278648Y0087772D03*
X0207703Y0091709D03*
X0207546Y0091709D03*
X0247231Y0185254D03*
X0247231Y0193128D03*
X0238806Y0192719D03*
X0238648Y0192719D03*
X0228333Y0189636D03*
X0228491Y0188376D03*
X0228648Y0188376D03*
X0258118Y0192302D03*
X0260166Y0192302D03*
X0260323Y0192302D03*
X0286916Y0191209D03*
X0287073Y0191209D03*
X0287546Y0192626D03*
X0289278Y0192626D03*
X0289751Y0191209D03*
X0289908Y0191209D03*
X0288648Y0187272D03*
D43*
X0257488Y0188365D03*
X0268333Y0097063D03*
X0268491Y0097063D03*
X0229908Y0097035D03*
X0219436Y0094201D03*
D44*
X0227388Y0093965D03*
X0229751Y0090815D03*
X0229908Y0090815D03*
X0229278Y0089083D03*
X0229121Y0089083D03*
X0229436Y0087508D03*
X0229593Y0087508D03*
X0230538Y0087193D03*
X0236444Y0090555D03*
X0236601Y0090555D03*
X0236759Y0090555D03*
X0236916Y0090555D03*
X0238018Y0089138D03*
X0238648Y0088035D03*
X0238806Y0088035D03*
X0238806Y0086618D03*
X0238963Y0086618D03*
X0239121Y0086618D03*
X0239278Y0086618D03*
X0239436Y0086618D03*
X0239593Y0086618D03*
X0239751Y0086618D03*
X0239908Y0086618D03*
X0240066Y0086618D03*
X0238648Y0086618D03*
X0238491Y0086618D03*
X0238333Y0086618D03*
X0238176Y0086618D03*
X0238018Y0086618D03*
X0237861Y0086618D03*
X0237703Y0086618D03*
X0237546Y0086618D03*
X0237388Y0086618D03*
X0237231Y0086618D03*
X0237073Y0086618D03*
X0236916Y0086618D03*
X0236759Y0086618D03*
X0248176Y0088980D03*
X0248333Y0088980D03*
X0248491Y0088980D03*
X0248648Y0088980D03*
X0248806Y0088980D03*
X0248963Y0088980D03*
X0249121Y0088980D03*
X0249278Y0088980D03*
X0249436Y0088980D03*
X0249593Y0088980D03*
X0249751Y0088980D03*
X0249908Y0088980D03*
X0248806Y0090555D03*
X0248176Y0091657D03*
X0248018Y0091657D03*
X0248018Y0093075D03*
X0247861Y0093075D03*
X0247703Y0093075D03*
X0247546Y0093075D03*
X0247388Y0093075D03*
X0247231Y0093075D03*
X0247073Y0093075D03*
X0246916Y0093075D03*
X0246759Y0093075D03*
X0246601Y0093075D03*
X0248176Y0093075D03*
X0248333Y0093075D03*
X0248491Y0093075D03*
X0248648Y0093075D03*
X0248806Y0093075D03*
X0248963Y0093075D03*
X0249121Y0093075D03*
X0249278Y0093075D03*
X0249436Y0093075D03*
X0249593Y0093075D03*
X0249751Y0093075D03*
X0249908Y0093075D03*
X0250066Y0093075D03*
X0256916Y0092575D03*
X0258491Y0090213D03*
X0258648Y0090213D03*
X0257231Y0088008D03*
X0256916Y0087850D03*
X0268491Y0087850D03*
X0268648Y0087850D03*
X0268806Y0087850D03*
X0268963Y0087850D03*
X0269278Y0087850D03*
X0269436Y0087850D03*
X0269593Y0087850D03*
X0269751Y0087850D03*
X0269436Y0091630D03*
X0269278Y0091787D03*
X0269121Y0091787D03*
X0268806Y0091945D03*
X0268491Y0093677D03*
X0276759Y0091630D03*
X0277231Y0091630D03*
X0279436Y0091630D03*
X0279593Y0091630D03*
X0280066Y0091630D03*
X0279121Y0087850D03*
X0278963Y0087850D03*
X0278806Y0087850D03*
X0278491Y0087693D03*
X0278333Y0087693D03*
X0291988Y0104815D03*
X0291988Y0107531D03*
X0302016Y0107449D03*
X0302961Y0106150D03*
X0303906Y0105323D03*
X0302961Y0104496D03*
X0303433Y0103433D03*
X0220538Y0087823D03*
X0218806Y0087665D03*
X0208333Y0088165D03*
X0208176Y0088165D03*
X0208018Y0088165D03*
X0207861Y0088165D03*
X0207703Y0088165D03*
X0207546Y0088165D03*
X0207388Y0088165D03*
X0207388Y0091630D03*
X0207231Y0091630D03*
X0207861Y0091787D03*
X0208018Y0091787D03*
X0290778Y0159906D03*
X0290306Y0161087D03*
X0288491Y0187193D03*
X0288333Y0187193D03*
X0288806Y0187350D03*
X0288963Y0187350D03*
X0289121Y0187350D03*
X0289436Y0191130D03*
X0289593Y0191130D03*
X0290066Y0191130D03*
X0289436Y0192705D03*
X0287388Y0192705D03*
X0287231Y0192705D03*
X0287231Y0191130D03*
X0286759Y0191130D03*
X0260481Y0192380D03*
X0260008Y0192223D03*
X0258276Y0192223D03*
X0257961Y0192380D03*
X0257803Y0192380D03*
X0248648Y0189113D03*
X0248491Y0189113D03*
X0247231Y0186908D03*
X0246916Y0186750D03*
X0246916Y0191475D03*
X0237073Y0190435D03*
X0236916Y0190435D03*
X0236759Y0190435D03*
X0236601Y0190435D03*
X0230066Y0190975D03*
X0229908Y0190975D03*
X0229751Y0190975D03*
X0229593Y0190975D03*
X0229436Y0190975D03*
X0229278Y0190975D03*
X0229121Y0190975D03*
X0228963Y0190975D03*
X0228806Y0190975D03*
X0228648Y0190975D03*
X0228491Y0190975D03*
X0228333Y0190975D03*
X0228176Y0190975D03*
X0228018Y0190975D03*
X0227861Y0190975D03*
X0227703Y0190975D03*
X0227546Y0190975D03*
X0227388Y0190975D03*
X0227231Y0190975D03*
X0227073Y0190975D03*
X0226916Y0190975D03*
X0226759Y0190975D03*
X0226601Y0190975D03*
X0228018Y0189557D03*
X0228176Y0189557D03*
X0228806Y0188455D03*
X0228806Y0186880D03*
X0228963Y0186880D03*
X0229121Y0186880D03*
X0229278Y0186880D03*
X0229436Y0186880D03*
X0229593Y0186880D03*
X0229751Y0186880D03*
X0229908Y0186880D03*
X0228648Y0186880D03*
X0228491Y0186880D03*
X0228333Y0186880D03*
X0228176Y0186880D03*
D45*
X0286286Y0191917D03*
X0288491Y0182783D03*
X0228648Y0098059D03*
X0219593Y0094122D03*
X0268648Y0097142D03*
X0268806Y0097142D03*
D46*
X0269593Y0097299D03*
X0276286Y0088165D03*
X0278806Y0084543D03*
X0268806Y0084543D03*
X0250381Y0097012D03*
X0246286Y0085043D03*
X0229593Y0084831D03*
X0220223Y0093807D03*
X0217861Y0095067D03*
X0227861Y0098374D03*
X0228018Y0098374D03*
X0206286Y0095409D03*
X0288416Y0156362D03*
X0288888Y0156126D03*
X0289278Y0182626D03*
X0289436Y0182626D03*
X0287388Y0182626D03*
X0287231Y0182626D03*
X0287073Y0182626D03*
X0286916Y0182783D03*
X0286759Y0182783D03*
X0286601Y0182941D03*
X0286286Y0187665D03*
X0258748Y0187656D03*
X0258591Y0187656D03*
X0258433Y0187656D03*
X0258433Y0194900D03*
X0240223Y0194845D03*
X0240066Y0194845D03*
X0230381Y0194912D03*
X0238963Y0187601D03*
X0226286Y0182943D03*
D47*
X0257646Y0188207D03*
X0259536Y0191987D03*
X0259693Y0192144D03*
X0286286Y0183335D03*
X0288333Y0182705D03*
X0269121Y0097220D03*
X0268963Y0097220D03*
X0268963Y0084780D03*
X0228806Y0098138D03*
X0219751Y0094043D03*
D48*
X0220066Y0093886D03*
X0229121Y0097980D03*
X0229278Y0097980D03*
X0229436Y0097823D03*
X0210381Y0090921D03*
X0258806Y0084780D03*
X0269278Y0097220D03*
X0269436Y0097220D03*
X0287546Y0182547D03*
X0287703Y0182547D03*
X0287861Y0182547D03*
X0288018Y0182547D03*
X0286444Y0183020D03*
X0290223Y0183020D03*
X0290381Y0183177D03*
X0258276Y0187735D03*
X0258118Y0187735D03*
X0248806Y0183680D03*
X0239121Y0187680D03*
X0240381Y0194766D03*
D49*
X0239593Y0195002D03*
X0239436Y0195002D03*
X0248806Y0191790D03*
X0250381Y0190845D03*
X0250381Y0187380D03*
X0259063Y0187656D03*
X0259221Y0191435D03*
X0288176Y0194909D03*
X0288648Y0194909D03*
X0227861Y0185620D03*
X0227703Y0185620D03*
X0226444Y0182786D03*
X0226444Y0195069D03*
X0227388Y0098217D03*
X0227546Y0098217D03*
X0220538Y0093650D03*
X0217546Y0094909D03*
X0217388Y0094909D03*
X0210223Y0090843D03*
X0210381Y0087063D03*
X0207546Y0094307D03*
X0246444Y0097169D03*
X0258806Y0092890D03*
X0260381Y0091945D03*
X0260381Y0088480D03*
X0247861Y0087720D03*
X0247703Y0087720D03*
X0246444Y0084886D03*
X0269908Y0097299D03*
X0270381Y0096984D03*
X0279751Y0096354D03*
X0279908Y0096354D03*
D50*
X0281483Y0089346D03*
X0275184Y0089346D03*
X0216916Y0089476D03*
D51*
X0235971Y0090240D03*
X0240696Y0090240D03*
X0275341Y0089583D03*
X0281325Y0089583D03*
D52*
X0281168Y0089740D03*
X0275499Y0089740D03*
X0236286Y0090398D03*
X0285341Y0189555D03*
X0291325Y0189555D03*
D53*
X0291168Y0189398D03*
X0285499Y0189398D03*
X0281010Y0089898D03*
X0275656Y0089898D03*
D54*
X0275814Y0089976D03*
X0280853Y0089976D03*
X0231483Y0090264D03*
X0225184Y0090264D03*
D55*
X0210696Y0090134D03*
X0205971Y0090134D03*
X0276129Y0090134D03*
X0280538Y0090134D03*
X0285814Y0189161D03*
X0290853Y0189161D03*
D56*
X0246286Y0189113D03*
X0276286Y0093992D03*
X0256286Y0090213D03*
D57*
X0276444Y0095252D03*
X0276601Y0095252D03*
X0276759Y0095409D03*
X0276916Y0095409D03*
X0288806Y0183256D03*
D58*
X0228176Y0097508D03*
X0277073Y0095488D03*
X0277231Y0095488D03*
X0277388Y0095488D03*
X0279278Y0095488D03*
X0279436Y0095488D03*
X0279593Y0095488D03*
D59*
X0279121Y0095567D03*
X0278963Y0095567D03*
X0278806Y0095567D03*
X0278648Y0095567D03*
X0278491Y0095567D03*
X0278333Y0095567D03*
X0278176Y0095567D03*
X0278018Y0095567D03*
X0277861Y0095567D03*
X0277703Y0095567D03*
X0277546Y0095567D03*
X0228491Y0097429D03*
X0228333Y0097429D03*
X0288963Y0183413D03*
X0236286Y0188546D03*
D60*
X0257803Y0187971D03*
X0257961Y0187813D03*
X0288176Y0182626D03*
X0289121Y0182626D03*
X0228963Y0098059D03*
X0219908Y0093965D03*
X0278963Y0084701D03*
D61*
X0258963Y0090213D03*
X0258806Y0090213D03*
X0248491Y0091815D03*
X0248333Y0090398D03*
X0238491Y0089295D03*
X0238333Y0087878D03*
X0230223Y0087350D03*
X0230066Y0087350D03*
X0228963Y0089083D03*
X0228806Y0089083D03*
X0217703Y0090028D03*
X0268058Y0185085D03*
X0278058Y0185236D03*
X0287703Y0192547D03*
X0289121Y0192547D03*
X0248963Y0189113D03*
X0248806Y0189113D03*
X0228491Y0189715D03*
X0228333Y0188298D03*
D62*
X0226286Y0191054D03*
X0276404Y0176772D03*
X0246286Y0093154D03*
X0221483Y0088531D03*
X0215184Y0088531D03*
D63*
X0215341Y0088610D03*
X0221325Y0088610D03*
D64*
X0221168Y0088768D03*
X0215499Y0088768D03*
D65*
X0215656Y0088846D03*
X0221010Y0088846D03*
D66*
X0216759Y0089398D03*
X0235499Y0089925D03*
X0241168Y0089925D03*
D67*
X0241010Y0090083D03*
X0235656Y0090083D03*
X0217073Y0089555D03*
D68*
X0217231Y0089634D03*
X0235814Y0090161D03*
X0240853Y0090161D03*
X0285184Y0189791D03*
X0291483Y0189791D03*
D69*
X0220853Y0088925D03*
D70*
X0225656Y0090579D03*
X0231010Y0090579D03*
X0211010Y0090291D03*
X0205656Y0090291D03*
X0286129Y0189004D03*
X0290538Y0189004D03*
D71*
X0226759Y0091130D03*
D72*
X0226916Y0091209D03*
D73*
X0227073Y0091287D03*
D74*
X0227231Y0091366D03*
D75*
X0206286Y0087850D03*
X0266404Y0177172D03*
X0257173Y0191593D03*
D76*
X0274833Y0164400D02*
X0277333Y0164400D01*
X0277333Y0160400D01*
X0274833Y0160400D01*
X0274833Y0164400D01*
X0274833Y0164350D02*
X0277333Y0164350D01*
X0277333Y0164251D02*
X0274833Y0164251D01*
X0274833Y0164153D02*
X0277333Y0164153D01*
X0277333Y0164054D02*
X0274833Y0164054D01*
X0274833Y0163956D02*
X0277333Y0163956D01*
X0277333Y0163857D02*
X0274833Y0163857D01*
X0274833Y0163759D02*
X0277333Y0163759D01*
X0277333Y0163660D02*
X0274833Y0163660D01*
X0274833Y0163562D02*
X0277333Y0163562D01*
X0277333Y0163463D02*
X0274833Y0163463D01*
X0274833Y0163365D02*
X0277333Y0163365D01*
X0277333Y0163266D02*
X0274833Y0163266D01*
X0274833Y0163168D02*
X0277333Y0163168D01*
X0277333Y0163069D02*
X0274833Y0163069D01*
X0274833Y0162971D02*
X0277333Y0162971D01*
X0277333Y0162872D02*
X0274833Y0162872D01*
X0274833Y0162774D02*
X0277333Y0162774D01*
X0277333Y0162675D02*
X0274833Y0162675D01*
X0274833Y0162577D02*
X0277333Y0162577D01*
X0277333Y0162478D02*
X0274833Y0162478D01*
X0274833Y0162380D02*
X0277333Y0162380D01*
X0277333Y0162281D02*
X0274833Y0162281D01*
X0274833Y0162183D02*
X0277333Y0162183D01*
X0277333Y0162084D02*
X0274833Y0162084D01*
X0274833Y0161985D02*
X0277333Y0161985D01*
X0277333Y0161887D02*
X0274833Y0161887D01*
X0274833Y0161788D02*
X0277333Y0161788D01*
X0277333Y0161690D02*
X0274833Y0161690D01*
X0274833Y0161591D02*
X0277333Y0161591D01*
X0277333Y0161493D02*
X0274833Y0161493D01*
X0274833Y0161394D02*
X0277333Y0161394D01*
X0277333Y0161296D02*
X0274833Y0161296D01*
X0274833Y0161197D02*
X0277333Y0161197D01*
X0277333Y0161099D02*
X0274833Y0161099D01*
X0274833Y0161000D02*
X0277333Y0161000D01*
X0277333Y0160902D02*
X0274833Y0160902D01*
X0274833Y0160803D02*
X0277333Y0160803D01*
X0277333Y0160705D02*
X0274833Y0160705D01*
X0274833Y0160606D02*
X0277333Y0160606D01*
X0277333Y0160508D02*
X0274833Y0160508D01*
X0274833Y0160409D02*
X0277333Y0160409D01*
D77*
X0290591Y0106055D03*
X0295276Y0106055D03*
D78*
X0295158Y0106055D03*
X0290709Y0106055D03*
X0280400Y0176004D03*
D79*
X0290807Y0106055D03*
D80*
X0290925Y0106055D03*
D81*
X0291063Y0106055D03*
X0294843Y0106055D03*
D82*
X0294725Y0106055D03*
X0291181Y0106055D03*
X0292058Y0161382D03*
X0287609Y0161382D03*
D83*
X0291280Y0106055D03*
D84*
X0291378Y0104283D03*
D85*
X0291378Y0110484D03*
X0292205Y0110839D03*
X0292796Y0110957D03*
X0303768Y0111110D03*
X0304988Y0102843D03*
X0290168Y0155772D03*
X0290050Y0155772D03*
D86*
X0294351Y0106882D03*
X0294351Y0101213D03*
X0291516Y0101213D03*
X0302016Y0099713D03*
X0304851Y0099713D03*
D87*
X0304851Y0105264D03*
X0304378Y0107154D03*
X0291516Y0104520D03*
D88*
X0292461Y0101035D03*
X0292933Y0101035D03*
X0293406Y0101035D03*
X0302961Y0099535D03*
X0303433Y0099535D03*
X0303906Y0099535D03*
X0304851Y0102843D03*
X0294351Y0110720D03*
X0291988Y0110957D03*
X0291516Y0110720D03*
X0303433Y0111228D03*
X0269160Y0172408D03*
X0267507Y0172408D03*
X0278333Y0176693D03*
D89*
X0290916Y0155713D03*
X0304516Y0111169D03*
X0304595Y0111169D03*
X0304988Y0110933D03*
X0294488Y0104047D03*
X0294488Y0101331D03*
X0294213Y0101213D03*
X0291654Y0101213D03*
X0302154Y0099713D03*
X0304713Y0099713D03*
X0304988Y0099831D03*
D90*
X0303296Y0101957D03*
X0303768Y0103374D03*
X0302351Y0104437D03*
X0302351Y0106091D03*
X0303650Y0107272D03*
X0303768Y0107272D03*
X0303296Y0108807D03*
X0303217Y0108807D03*
X0302823Y0108807D03*
X0304516Y0108807D03*
X0304595Y0108807D03*
X0293662Y0108772D03*
X0293071Y0107709D03*
X0291733Y0107472D03*
X0292323Y0106173D03*
X0292717Y0106173D03*
X0292796Y0106173D03*
X0291654Y0104638D03*
X0292796Y0103457D03*
X0290050Y0159728D03*
X0289971Y0159728D03*
X0290640Y0161264D03*
X0289105Y0161736D03*
X0269298Y0174947D03*
X0267644Y0176876D03*
X0266818Y0176325D03*
X0269298Y0180341D03*
X0267644Y0182821D03*
X0267644Y0185144D03*
X0269022Y0185853D03*
X0267093Y0187506D03*
X0268471Y0191365D03*
X0269573Y0190931D03*
X0269298Y0192585D03*
X0268196Y0193845D03*
X0277369Y0191516D03*
X0279298Y0190138D03*
X0278471Y0188878D03*
X0277644Y0185177D03*
X0277920Y0182815D03*
X0279298Y0180492D03*
D91*
X0288751Y0161618D03*
X0289499Y0159610D03*
X0289617Y0159610D03*
X0290995Y0161382D03*
X0293544Y0108654D03*
X0293544Y0107354D03*
X0291654Y0107472D03*
X0304240Y0107154D03*
X0304516Y0107154D03*
D92*
X0304516Y0102783D03*
X0304240Y0099594D03*
X0304162Y0099594D03*
X0302705Y0099594D03*
X0302626Y0099594D03*
X0293740Y0101094D03*
X0293662Y0101094D03*
X0292205Y0101094D03*
X0292126Y0101094D03*
X0291654Y0110780D03*
X0291733Y0110898D03*
X0291851Y0110898D03*
X0293268Y0111134D03*
X0293544Y0111134D03*
X0294095Y0110898D03*
X0302351Y0111051D03*
X0302626Y0111169D03*
X0302705Y0111169D03*
X0302823Y0111287D03*
X0303099Y0111287D03*
X0303217Y0111287D03*
X0303296Y0111287D03*
X0304240Y0111169D03*
X0290640Y0155713D03*
X0290562Y0155713D03*
X0269298Y0172467D03*
X0267369Y0172467D03*
X0278196Y0176634D03*
X0278471Y0176634D03*
X0270125Y0185144D03*
D93*
X0280125Y0185236D03*
X0279298Y0173386D03*
X0277369Y0173386D03*
X0293662Y0111075D03*
X0293740Y0111075D03*
X0294016Y0110957D03*
X0294213Y0110839D03*
X0304240Y0102724D03*
X0304516Y0099654D03*
X0304595Y0099654D03*
X0302351Y0099654D03*
X0302233Y0099654D03*
X0294095Y0101154D03*
X0294016Y0101154D03*
X0291851Y0101154D03*
X0291733Y0101154D03*
D94*
X0292205Y0103398D03*
X0291733Y0104697D03*
X0292205Y0106114D03*
X0302626Y0106150D03*
X0302705Y0106150D03*
X0303296Y0107331D03*
X0303571Y0107331D03*
X0304240Y0108748D03*
X0302705Y0108748D03*
X0304240Y0105323D03*
X0304516Y0105323D03*
X0302626Y0104496D03*
X0303650Y0103433D03*
X0302705Y0101898D03*
X0290168Y0159787D03*
X0290562Y0161205D03*
X0289223Y0161795D03*
X0279298Y0178622D03*
X0277369Y0178622D03*
X0269298Y0178471D03*
X0267369Y0178471D03*
X0267369Y0182880D03*
X0269298Y0189219D03*
X0269022Y0191148D03*
X0269849Y0193904D03*
X0267369Y0193904D03*
X0266818Y0193904D03*
X0276818Y0188819D03*
X0278196Y0191299D03*
X0279298Y0193504D03*
D95*
X0289499Y0161854D03*
X0290444Y0161146D03*
X0290444Y0159846D03*
X0290562Y0159846D03*
X0291388Y0159965D03*
X0292205Y0108772D03*
X0291851Y0107472D03*
X0293740Y0108772D03*
X0293268Y0104756D03*
X0291851Y0104756D03*
X0302154Y0103020D03*
X0303571Y0103374D03*
X0302705Y0104437D03*
X0303099Y0107390D03*
X0303217Y0107390D03*
D96*
X0304378Y0102783D03*
X0304378Y0099594D03*
X0302488Y0099594D03*
X0293878Y0101094D03*
X0291988Y0101094D03*
X0293878Y0111016D03*
X0293406Y0111134D03*
X0302488Y0111169D03*
X0302961Y0111287D03*
X0304378Y0111169D03*
X0279436Y0173327D03*
X0276680Y0195492D03*
D97*
X0289617Y0161913D03*
X0290168Y0161087D03*
X0290640Y0159906D03*
X0290050Y0158252D03*
X0292126Y0108713D03*
X0292796Y0107650D03*
X0293071Y0104815D03*
X0293150Y0104815D03*
X0292126Y0104815D03*
X0302233Y0103079D03*
X0303296Y0103433D03*
X0302823Y0104496D03*
X0304044Y0105323D03*
X0304162Y0105323D03*
X0303099Y0106150D03*
X0302823Y0106150D03*
X0302823Y0107449D03*
X0302705Y0107449D03*
X0302626Y0107449D03*
D98*
X0302351Y0107508D03*
X0302233Y0107508D03*
X0302154Y0107508D03*
X0303099Y0104437D03*
X0303099Y0103374D03*
X0303217Y0103374D03*
X0302626Y0103256D03*
X0302351Y0103138D03*
X0292796Y0104874D03*
X0292717Y0104874D03*
X0292599Y0104874D03*
X0292323Y0104874D03*
X0292205Y0104874D03*
X0292205Y0107472D03*
X0292126Y0107472D03*
X0292599Y0107591D03*
X0292717Y0107591D03*
X0289971Y0158311D03*
X0290916Y0159965D03*
X0290995Y0159965D03*
X0291113Y0159965D03*
X0290050Y0161028D03*
X0289696Y0161972D03*
D99*
X0290444Y0155713D03*
X0303650Y0111169D03*
X0304044Y0111169D03*
X0294488Y0110543D03*
X0292126Y0110898D03*
D100*
X0293071Y0111075D03*
X0293150Y0111075D03*
X0294488Y0106941D03*
X0293544Y0101035D03*
X0293268Y0101035D03*
X0293150Y0101035D03*
X0293071Y0101035D03*
X0292796Y0101035D03*
X0292717Y0101035D03*
X0292599Y0101035D03*
X0292323Y0101035D03*
X0302823Y0099535D03*
X0303099Y0099535D03*
X0303217Y0099535D03*
X0303296Y0099535D03*
X0303571Y0099535D03*
X0303650Y0099535D03*
X0303768Y0099535D03*
X0304044Y0099535D03*
X0304595Y0102843D03*
X0304713Y0102843D03*
X0302154Y0110874D03*
X0302233Y0110992D03*
X0303571Y0111228D03*
X0304162Y0111110D03*
X0269022Y0172408D03*
X0267644Y0172408D03*
X0280125Y0195433D03*
D101*
X0269849Y0187565D03*
X0278196Y0182756D03*
X0289026Y0161677D03*
X0290916Y0161323D03*
X0289696Y0159669D03*
X0303099Y0108866D03*
X0304713Y0108866D03*
X0304162Y0107213D03*
X0304044Y0107213D03*
X0304595Y0105323D03*
X0304713Y0105323D03*
X0302233Y0106150D03*
X0302154Y0106150D03*
X0302154Y0104496D03*
X0302233Y0104496D03*
X0302823Y0102016D03*
X0303099Y0102016D03*
X0303217Y0102016D03*
X0293544Y0104579D03*
X0292717Y0103516D03*
X0292599Y0103516D03*
X0292323Y0103516D03*
X0292599Y0106232D03*
D102*
X0292323Y0107531D03*
X0303217Y0106150D03*
X0303296Y0106150D03*
X0303571Y0105323D03*
X0303650Y0105323D03*
X0303768Y0105323D03*
X0303296Y0104496D03*
X0303217Y0104496D03*
X0302823Y0103315D03*
X0302705Y0103315D03*
X0289971Y0160969D03*
X0289971Y0162031D03*
X0288751Y0162976D03*
X0288633Y0162976D03*
X0288554Y0162976D03*
D103*
X0292323Y0110366D03*
D104*
X0292461Y0104874D03*
X0292933Y0104874D03*
X0302488Y0107508D03*
X0302961Y0103374D03*
X0291251Y0159965D03*
X0288888Y0163035D03*
X0288416Y0162917D03*
D105*
X0289833Y0162031D03*
X0289833Y0158252D03*
X0292461Y0107531D03*
X0302488Y0103197D03*
X0303433Y0106150D03*
D106*
X0292461Y0110425D03*
D107*
X0292599Y0110543D03*
D108*
X0292717Y0110780D03*
X0289499Y0155949D03*
X0289105Y0156067D03*
X0288751Y0156185D03*
X0288554Y0156303D03*
X0291388Y0166343D03*
X0291113Y0166461D03*
D109*
X0289361Y0161854D03*
X0292933Y0107591D03*
X0302961Y0107390D03*
D110*
X0292933Y0111016D03*
X0290306Y0155713D03*
D111*
X0289223Y0159551D03*
X0289105Y0159551D03*
X0288633Y0161559D03*
X0291113Y0161441D03*
X0304988Y0108866D03*
X0304713Y0107094D03*
X0304595Y0107094D03*
X0293150Y0107768D03*
D112*
X0293268Y0107886D03*
X0304162Y0103079D03*
X0276818Y0178543D03*
X0278747Y0180354D03*
X0277093Y0181181D03*
X0279573Y0182402D03*
X0277093Y0185157D03*
X0278747Y0189291D03*
X0277920Y0190945D03*
X0277920Y0193425D03*
X0277644Y0195906D03*
X0279022Y0195906D03*
X0279298Y0195906D03*
X0270125Y0195754D03*
X0267920Y0193431D03*
X0268747Y0191778D03*
X0267920Y0189140D03*
X0270125Y0187762D03*
X0267093Y0185164D03*
X0269573Y0182408D03*
X0267093Y0181030D03*
X0266818Y0178550D03*
D113*
X0267507Y0176817D03*
X0269436Y0180400D03*
X0267507Y0182880D03*
X0267782Y0185085D03*
X0268885Y0185912D03*
X0277782Y0185236D03*
X0278333Y0188819D03*
X0267231Y0193904D03*
X0290306Y0159787D03*
X0304378Y0108748D03*
X0303433Y0107331D03*
X0302488Y0106150D03*
X0302488Y0104496D03*
X0304378Y0105323D03*
X0293406Y0104697D03*
D114*
X0293406Y0108004D03*
X0304851Y0111110D03*
X0291251Y0155772D03*
X0288416Y0166992D03*
D115*
X0289026Y0163508D03*
X0289105Y0163508D03*
X0289223Y0163508D03*
X0289499Y0163508D03*
X0289617Y0163508D03*
X0289696Y0163508D03*
X0289971Y0163508D03*
X0290050Y0163508D03*
X0290168Y0163508D03*
X0290444Y0163508D03*
X0290562Y0163508D03*
X0290640Y0163508D03*
X0290916Y0163508D03*
X0290995Y0163508D03*
X0291113Y0163508D03*
X0288554Y0161500D03*
X0289026Y0159492D03*
X0290916Y0158311D03*
X0293662Y0107118D03*
X0293662Y0104402D03*
X0304044Y0103256D03*
X0304988Y0105264D03*
D116*
X0294213Y0104047D03*
X0294095Y0104047D03*
X0294016Y0104047D03*
X0293740Y0104047D03*
X0294095Y0106764D03*
X0291113Y0155713D03*
X0288554Y0167051D03*
D117*
X0293740Y0106705D03*
X0294016Y0106705D03*
D118*
X0293878Y0104047D03*
X0294351Y0104047D03*
D119*
X0294213Y0106823D03*
X0304713Y0111110D03*
X0290995Y0155654D03*
X0291388Y0155890D03*
X0288751Y0167110D03*
X0288633Y0167110D03*
D120*
X0294607Y0106055D03*
X0301209Y0105382D03*
X0305658Y0105382D03*
D121*
X0305776Y0105382D03*
X0301091Y0105382D03*
X0294922Y0106055D03*
D122*
X0295040Y0106055D03*
D123*
X0279833Y0131100D03*
D124*
X0301307Y0105382D03*
D125*
X0301425Y0105382D03*
D126*
X0301563Y0105382D03*
X0305343Y0105382D03*
X0291625Y0161382D03*
X0288081Y0161382D03*
D127*
X0291507Y0161382D03*
X0301681Y0105382D03*
X0305225Y0105382D03*
D128*
X0301780Y0105382D03*
D129*
X0301878Y0101189D03*
X0266542Y0174534D03*
D130*
X0289617Y0155890D03*
X0289696Y0155890D03*
X0301878Y0105323D03*
D131*
X0301878Y0109516D03*
D132*
X0302016Y0106150D03*
X0302016Y0104496D03*
X0304851Y0107094D03*
X0290778Y0158252D03*
X0289361Y0159551D03*
X0291251Y0161441D03*
D133*
X0289833Y0160909D03*
X0276955Y0176831D03*
X0278333Y0184272D03*
X0278333Y0186201D03*
X0268333Y0184120D03*
X0303433Y0104437D03*
D134*
X0303906Y0107272D03*
X0290778Y0161264D03*
X0269160Y0176758D03*
X0269436Y0178530D03*
X0267782Y0182821D03*
X0269160Y0184475D03*
X0269160Y0185853D03*
X0269711Y0187506D03*
X0267507Y0189160D03*
X0267507Y0192585D03*
X0267507Y0193845D03*
X0269987Y0193845D03*
X0277507Y0193445D03*
X0277507Y0190138D03*
X0279987Y0188878D03*
X0279160Y0185846D03*
X0279160Y0184626D03*
X0278058Y0182815D03*
X0279436Y0178563D03*
D135*
X0291388Y0161441D03*
X0290995Y0158252D03*
X0288751Y0159433D03*
X0288633Y0159433D03*
X0304988Y0107094D03*
D136*
X0305107Y0105382D03*
X0288278Y0161382D03*
D137*
X0287963Y0161382D03*
X0291743Y0161382D03*
X0305422Y0105382D03*
D138*
X0305540Y0105382D03*
D139*
X0241483Y0191223D03*
X0241325Y0191223D03*
X0241168Y0191223D03*
X0241010Y0191223D03*
X0240853Y0191223D03*
X0240696Y0191223D03*
X0240538Y0191223D03*
X0236129Y0191223D03*
X0235971Y0191223D03*
X0235814Y0191223D03*
X0235656Y0191223D03*
X0235499Y0191223D03*
X0235341Y0191223D03*
X0235184Y0191223D03*
D140*
X0255284Y0192617D03*
X0261583Y0192617D03*
D141*
X0261425Y0192538D03*
X0255441Y0192538D03*
D142*
X0255599Y0192380D03*
X0261268Y0192380D03*
D143*
X0261110Y0192302D03*
X0255756Y0192302D03*
D144*
X0256859Y0191750D03*
D145*
X0257016Y0191672D03*
D146*
X0257331Y0191514D03*
D147*
X0260953Y0192223D03*
D148*
X0288764Y0093899D02*
X0288331Y0093663D01*
X0287977Y0093387D01*
X0287780Y0093072D01*
X0287662Y0092718D01*
X0287662Y0092403D01*
X0287740Y0092049D01*
X0287937Y0091694D01*
X0288213Y0091380D01*
X0288528Y0091025D01*
X0288803Y0090750D01*
X0288922Y0090435D01*
X0288922Y0090159D01*
X0288843Y0089923D01*
X0288685Y0089726D01*
X0288449Y0089569D01*
X0288134Y0089490D01*
X0287819Y0089490D01*
X0287622Y0089529D01*
X0287425Y0089608D01*
X0287189Y0089844D01*
X0287110Y0089962D01*
X0287071Y0090080D01*
X0287071Y0090238D01*
X0287110Y0090356D01*
X0287347Y0090592D01*
X0287465Y0090631D01*
X0287622Y0090710D01*
X0287662Y0090750D01*
X0287504Y0090828D01*
X0287032Y0090828D01*
X0286796Y0090789D01*
X0286599Y0090750D01*
X0286402Y0090671D01*
X0286244Y0090553D01*
X0286048Y0090395D01*
X0285811Y0090002D01*
X0285733Y0089726D01*
X0285693Y0089411D01*
X0285693Y0084017D01*
X0285890Y0084214D01*
X0286008Y0084411D01*
X0286205Y0084608D01*
X0286402Y0084844D01*
X0286874Y0085317D01*
X0287347Y0085868D01*
X0287740Y0086261D01*
X0288134Y0086498D01*
X0288370Y0086537D01*
X0289118Y0086537D01*
X0289591Y0086616D01*
X0290024Y0086734D01*
X0290418Y0086891D01*
X0290811Y0087128D01*
X0291126Y0087403D01*
X0291441Y0087718D01*
X0291717Y0088072D01*
X0292110Y0088781D01*
X0292307Y0089529D01*
X0292347Y0090198D01*
X0292229Y0090828D01*
X0292032Y0091419D01*
X0291756Y0091852D01*
X0291441Y0092206D01*
X0291126Y0092403D01*
X0291126Y0092049D01*
X0291087Y0091931D01*
X0291048Y0091852D01*
X0290929Y0091734D01*
X0290811Y0091694D01*
X0290693Y0091694D01*
X0290378Y0091773D01*
X0290221Y0091852D01*
X0290103Y0091931D01*
X0289945Y0092049D01*
X0289709Y0092285D01*
X0289551Y0092521D01*
X0289512Y0092679D01*
X0289512Y0092915D01*
X0289551Y0093033D01*
X0289591Y0093112D01*
X0289670Y0093230D01*
X0289827Y0093348D01*
X0289985Y0093427D01*
X0290181Y0093466D01*
X0290339Y0093506D01*
X0290575Y0093506D01*
X0290654Y0093466D01*
X0290693Y0093466D01*
X0290654Y0093506D01*
X0290496Y0093624D01*
X0289945Y0093899D01*
X0289591Y0093978D01*
X0289197Y0093978D01*
X0288764Y0093899D01*
X0288594Y0093806D02*
X0290131Y0093806D01*
X0290651Y0093508D02*
X0288131Y0093508D01*
X0287865Y0093209D02*
X0289656Y0093209D01*
X0289512Y0092911D02*
X0287726Y0092911D01*
X0287662Y0092612D02*
X0289529Y0092612D01*
X0289690Y0092314D02*
X0287682Y0092314D01*
X0287759Y0092015D02*
X0289990Y0092015D01*
X0290605Y0091717D02*
X0287925Y0091717D01*
X0288179Y0091418D02*
X0292032Y0091418D01*
X0292132Y0091120D02*
X0288444Y0091120D01*
X0288732Y0090821D02*
X0292230Y0090821D01*
X0292286Y0090523D02*
X0288889Y0090523D01*
X0288922Y0090224D02*
X0292342Y0090224D01*
X0292331Y0089926D02*
X0288844Y0089926D01*
X0288537Y0089627D02*
X0292313Y0089627D01*
X0292255Y0089329D02*
X0285693Y0089329D01*
X0285693Y0089030D02*
X0292176Y0089030D01*
X0292083Y0088732D02*
X0285693Y0088732D01*
X0285693Y0088433D02*
X0291917Y0088433D01*
X0291751Y0088134D02*
X0285693Y0088134D01*
X0285693Y0087836D02*
X0291533Y0087836D01*
X0291261Y0087537D02*
X0285693Y0087537D01*
X0285693Y0087239D02*
X0290939Y0087239D01*
X0290499Y0086940D02*
X0285693Y0086940D01*
X0285693Y0086642D02*
X0289687Y0086642D01*
X0287877Y0086343D02*
X0285693Y0086343D01*
X0285693Y0086045D02*
X0287524Y0086045D01*
X0287243Y0085746D02*
X0285693Y0085746D01*
X0285693Y0085448D02*
X0286987Y0085448D01*
X0286707Y0085149D02*
X0285693Y0085149D01*
X0285693Y0084851D02*
X0286409Y0084851D01*
X0286149Y0084552D02*
X0285693Y0084552D01*
X0285693Y0084254D02*
X0285914Y0084254D01*
X0285720Y0089627D02*
X0287406Y0089627D01*
X0287135Y0089926D02*
X0285790Y0089926D01*
X0285945Y0090224D02*
X0287071Y0090224D01*
X0287277Y0090523D02*
X0286207Y0090523D01*
X0286988Y0090821D02*
X0287519Y0090821D01*
X0290878Y0091717D02*
X0291842Y0091717D01*
X0291611Y0092015D02*
X0291115Y0092015D01*
X0291126Y0092314D02*
X0291269Y0092314D01*
D149*
X0197277Y0173956D03*
D150*
X0170791Y0157000D02*
X0170671Y0157171D01*
X0170539Y0157331D01*
X0170399Y0157485D01*
X0170078Y0157751D01*
X0169713Y0157954D01*
X0169522Y0158033D01*
X0169122Y0158152D01*
X0168707Y0158194D01*
X0168633Y0158201D01*
X0157997Y0158201D01*
X0157582Y0158160D01*
X0157378Y0158119D01*
X0156981Y0157992D01*
X0156615Y0157793D01*
X0156448Y0157670D01*
X0156287Y0157537D01*
X0156136Y0157394D01*
X0155871Y0157072D01*
X0155672Y0156705D01*
X0155598Y0156512D01*
X0155536Y0156313D01*
X0155484Y0156111D01*
X0156602Y0156111D01*
X0156614Y0156159D02*
X0155496Y0156159D01*
X0155484Y0156111D02*
X0155442Y0155696D01*
X0155454Y0155489D01*
X0155475Y0155281D01*
X0155507Y0155076D01*
X0155631Y0154678D01*
X0155826Y0154309D01*
X0155942Y0154138D01*
X0156213Y0153821D01*
X0156534Y0153555D01*
X0156897Y0153351D01*
X0157087Y0153268D01*
X0157486Y0153147D01*
X0157901Y0153105D01*
X0158109Y0153096D01*
X0158775Y0153096D01*
X0158780Y0153260D01*
X0158780Y0154511D01*
X0158654Y0154393D01*
X0158489Y0154267D01*
X0158301Y0154177D01*
X0158099Y0154129D01*
X0157891Y0154115D01*
X0157684Y0154134D01*
X0157482Y0154181D01*
X0157288Y0154255D01*
X0157107Y0154359D01*
X0156952Y0154498D01*
X0156821Y0154660D01*
X0156715Y0154838D01*
X0156632Y0155029D01*
X0156582Y0155232D01*
X0156553Y0155438D01*
X0156539Y0155645D01*
X0156555Y0155853D01*
X0156588Y0156059D01*
X0156641Y0156260D01*
X0156727Y0156450D01*
X0156840Y0156624D01*
X0156978Y0156779D01*
X0157138Y0156911D01*
X0157321Y0157013D01*
X0157519Y0157076D01*
X0157723Y0157112D01*
X0157931Y0157125D01*
X0158138Y0157102D01*
X0158337Y0157042D01*
X0158522Y0156947D01*
X0158684Y0156815D01*
X0158780Y0156743D01*
X0158780Y0156981D01*
X0158785Y0157094D01*
X0159739Y0157094D01*
X0159737Y0156973D01*
X0159953Y0156986D01*
X0159911Y0157094D01*
X0160885Y0157094D01*
X0160913Y0156999D01*
X0161444Y0155199D01*
X0161503Y0155208D01*
X0162035Y0157090D01*
X0162170Y0157094D01*
X0162796Y0157094D01*
X0162973Y0157095D01*
X0163509Y0155264D01*
X0163548Y0155123D01*
X0164099Y0156943D01*
X0164145Y0157094D01*
X0164980Y0157094D01*
X0165248Y0157086D01*
X0165397Y0157094D01*
X0166162Y0157094D01*
X0166158Y0157047D01*
X0166362Y0157013D01*
X0166360Y0157094D01*
X0167324Y0157094D01*
X0167323Y0156951D01*
X0167897Y0156665D01*
X0168009Y0156772D01*
X0168360Y0156996D01*
X0168560Y0157047D01*
X0168971Y0157119D01*
X0169208Y0157119D01*
X0169206Y0156937D01*
X0169206Y0156311D01*
X0169049Y0156326D01*
X0168845Y0156282D01*
X0168675Y0156164D01*
X0168559Y0155995D01*
X0168496Y0155800D01*
X0168471Y0155594D01*
X0168502Y0155387D01*
X0168578Y0155196D01*
X0168707Y0155038D01*
X0168885Y0154938D01*
X0169090Y0154903D01*
X0169206Y0154885D01*
X0169206Y0154099D01*
X0169069Y0154120D01*
X0168863Y0154143D01*
X0168452Y0154214D01*
X0168266Y0154302D01*
X0167914Y0154525D01*
X0167684Y0154873D01*
X0167593Y0155056D01*
X0167520Y0155467D01*
X0167506Y0155672D01*
X0167578Y0156083D01*
X0167635Y0156280D01*
X0167894Y0156660D01*
X0167320Y0156958D01*
X0167320Y0154151D01*
X0167275Y0154151D01*
X0166441Y0154151D01*
X0166358Y0154157D01*
X0166362Y0157017D01*
X0166158Y0157051D01*
X0166162Y0154154D01*
X0166020Y0154151D01*
X0165395Y0154151D01*
X0165199Y0154164D01*
X0165199Y0157086D01*
X0165084Y0157085D01*
X0165040Y0156956D01*
X0164026Y0154154D01*
X0163879Y0154151D01*
X0163254Y0154151D01*
X0163053Y0154161D01*
X0162499Y0155955D01*
X0162437Y0155783D01*
X0161931Y0154160D01*
X0161761Y0154151D01*
X0161136Y0154151D01*
X0160977Y0154153D01*
X0159947Y0156985D01*
X0159740Y0156974D01*
X0159748Y0153171D01*
X0159752Y0153096D01*
X0168641Y0153097D01*
X0169056Y0153138D01*
X0169259Y0153182D01*
X0169655Y0153312D01*
X0170021Y0153511D01*
X0170348Y0153769D01*
X0170496Y0153914D01*
X0170759Y0154238D01*
X0170958Y0154604D01*
X0171030Y0154799D01*
X0171092Y0154998D01*
X0171140Y0155200D01*
X0171182Y0155615D01*
X0171147Y0156030D01*
X0171111Y0156235D01*
X0170988Y0156633D01*
X0170791Y0157000D01*
X0170799Y0156984D02*
X0169207Y0156984D01*
X0169206Y0156936D02*
X0170825Y0156936D01*
X0170851Y0156887D02*
X0169206Y0156887D01*
X0169206Y0156839D02*
X0170877Y0156839D01*
X0170903Y0156790D02*
X0169206Y0156790D01*
X0169206Y0156742D02*
X0170930Y0156742D01*
X0170956Y0156693D02*
X0169206Y0156693D01*
X0169206Y0156645D02*
X0170982Y0156645D01*
X0170999Y0156596D02*
X0169206Y0156596D01*
X0169206Y0156548D02*
X0171014Y0156548D01*
X0171029Y0156499D02*
X0169206Y0156499D01*
X0169206Y0156451D02*
X0171044Y0156451D01*
X0171059Y0156402D02*
X0169206Y0156402D01*
X0169206Y0156353D02*
X0171075Y0156353D01*
X0171090Y0156305D02*
X0168953Y0156305D01*
X0168809Y0156256D02*
X0171105Y0156256D01*
X0171116Y0156208D02*
X0168738Y0156208D01*
X0168672Y0156159D02*
X0171125Y0156159D01*
X0171133Y0156111D02*
X0168639Y0156111D01*
X0168605Y0156062D02*
X0171141Y0156062D01*
X0171148Y0156014D02*
X0168572Y0156014D01*
X0168550Y0155965D02*
X0171153Y0155965D01*
X0171157Y0155917D02*
X0168534Y0155917D01*
X0168518Y0155868D02*
X0171161Y0155868D01*
X0171165Y0155820D02*
X0168502Y0155820D01*
X0168492Y0155771D02*
X0171169Y0155771D01*
X0171173Y0155723D02*
X0168487Y0155723D01*
X0168481Y0155674D02*
X0171177Y0155674D01*
X0171181Y0155626D02*
X0168475Y0155626D01*
X0168474Y0155577D02*
X0171178Y0155577D01*
X0171173Y0155529D02*
X0168481Y0155529D01*
X0168488Y0155480D02*
X0171169Y0155480D01*
X0171164Y0155432D02*
X0168495Y0155432D01*
X0168503Y0155383D02*
X0171159Y0155383D01*
X0171154Y0155335D02*
X0168523Y0155335D01*
X0168542Y0155286D02*
X0171149Y0155286D01*
X0171144Y0155238D02*
X0168562Y0155238D01*
X0168584Y0155189D02*
X0171138Y0155189D01*
X0171126Y0155141D02*
X0168624Y0155141D01*
X0168663Y0155092D02*
X0171114Y0155092D01*
X0171102Y0155044D02*
X0168703Y0155044D01*
X0168784Y0154995D02*
X0171091Y0154995D01*
X0171075Y0154947D02*
X0168870Y0154947D01*
X0169120Y0154898D02*
X0171060Y0154898D01*
X0171045Y0154850D02*
X0169206Y0154850D01*
X0169206Y0154801D02*
X0171030Y0154801D01*
X0171012Y0154753D02*
X0169206Y0154753D01*
X0169206Y0154704D02*
X0170994Y0154704D01*
X0170976Y0154656D02*
X0169206Y0154656D01*
X0169206Y0154607D02*
X0170958Y0154607D01*
X0170933Y0154559D02*
X0169206Y0154559D01*
X0169206Y0154510D02*
X0170906Y0154510D01*
X0170880Y0154462D02*
X0169206Y0154462D01*
X0169206Y0154413D02*
X0170854Y0154413D01*
X0170827Y0154365D02*
X0169206Y0154365D01*
X0169206Y0154316D02*
X0170801Y0154316D01*
X0170775Y0154267D02*
X0169206Y0154267D01*
X0169206Y0154219D02*
X0170743Y0154219D01*
X0170704Y0154170D02*
X0169206Y0154170D01*
X0169206Y0154122D02*
X0170665Y0154122D01*
X0170625Y0154073D02*
X0159746Y0154073D01*
X0159746Y0154025D02*
X0170586Y0154025D01*
X0170547Y0153976D02*
X0159746Y0153976D01*
X0159746Y0153928D02*
X0170507Y0153928D01*
X0170461Y0153879D02*
X0159747Y0153879D01*
X0159747Y0153831D02*
X0170411Y0153831D01*
X0170361Y0153782D02*
X0159747Y0153782D01*
X0159747Y0153734D02*
X0170303Y0153734D01*
X0170242Y0153685D02*
X0159747Y0153685D01*
X0159747Y0153637D02*
X0170181Y0153637D01*
X0170119Y0153588D02*
X0159747Y0153588D01*
X0159747Y0153540D02*
X0170058Y0153540D01*
X0169985Y0153491D02*
X0159747Y0153491D01*
X0159747Y0153443D02*
X0169896Y0153443D01*
X0169807Y0153394D02*
X0159748Y0153394D01*
X0159748Y0153346D02*
X0169717Y0153346D01*
X0169610Y0153297D02*
X0159748Y0153297D01*
X0159748Y0153249D02*
X0169462Y0153249D01*
X0169314Y0153200D02*
X0159748Y0153200D01*
X0159749Y0153152D02*
X0169117Y0153152D01*
X0168706Y0153103D02*
X0159751Y0153103D01*
X0158777Y0153152D02*
X0157469Y0153152D01*
X0157310Y0153200D02*
X0158778Y0153200D01*
X0158779Y0153249D02*
X0157151Y0153249D01*
X0157020Y0153297D02*
X0158780Y0153297D01*
X0158780Y0153346D02*
X0156908Y0153346D01*
X0156819Y0153394D02*
X0158780Y0153394D01*
X0158780Y0153443D02*
X0156734Y0153443D01*
X0156648Y0153491D02*
X0158780Y0153491D01*
X0158780Y0153540D02*
X0156562Y0153540D01*
X0156494Y0153588D02*
X0158780Y0153588D01*
X0158780Y0153637D02*
X0156436Y0153637D01*
X0156377Y0153685D02*
X0158780Y0153685D01*
X0158780Y0153734D02*
X0156318Y0153734D01*
X0156259Y0153782D02*
X0158780Y0153782D01*
X0158780Y0153831D02*
X0156204Y0153831D01*
X0156163Y0153879D02*
X0158780Y0153879D01*
X0158780Y0153928D02*
X0156121Y0153928D01*
X0156080Y0153976D02*
X0158780Y0153976D01*
X0158780Y0154025D02*
X0156039Y0154025D01*
X0155997Y0154073D02*
X0158780Y0154073D01*
X0158780Y0154122D02*
X0157999Y0154122D01*
X0157815Y0154122D02*
X0155956Y0154122D01*
X0155920Y0154170D02*
X0157528Y0154170D01*
X0157383Y0154219D02*
X0155887Y0154219D01*
X0155854Y0154267D02*
X0157267Y0154267D01*
X0157182Y0154316D02*
X0155822Y0154316D01*
X0155797Y0154365D02*
X0157100Y0154365D01*
X0157046Y0154413D02*
X0155771Y0154413D01*
X0155745Y0154462D02*
X0156992Y0154462D01*
X0156942Y0154510D02*
X0155720Y0154510D01*
X0155694Y0154559D02*
X0156903Y0154559D01*
X0156864Y0154607D02*
X0155668Y0154607D01*
X0155643Y0154656D02*
X0156825Y0154656D01*
X0156795Y0154704D02*
X0155623Y0154704D01*
X0155608Y0154753D02*
X0156766Y0154753D01*
X0156737Y0154801D02*
X0155593Y0154801D01*
X0155578Y0154850D02*
X0156710Y0154850D01*
X0156689Y0154898D02*
X0155563Y0154898D01*
X0155548Y0154947D02*
X0156668Y0154947D01*
X0156647Y0154995D02*
X0155532Y0154995D01*
X0155517Y0155044D02*
X0156629Y0155044D01*
X0156617Y0155092D02*
X0155505Y0155092D01*
X0155497Y0155141D02*
X0156605Y0155141D01*
X0156593Y0155189D02*
X0155489Y0155189D01*
X0155481Y0155238D02*
X0156581Y0155238D01*
X0156575Y0155286D02*
X0155474Y0155286D01*
X0155469Y0155335D02*
X0156568Y0155335D01*
X0156561Y0155383D02*
X0155464Y0155383D01*
X0155459Y0155432D02*
X0156554Y0155432D01*
X0156550Y0155480D02*
X0155454Y0155480D01*
X0155451Y0155529D02*
X0156547Y0155529D01*
X0156544Y0155577D02*
X0155449Y0155577D01*
X0155446Y0155626D02*
X0156540Y0155626D01*
X0156541Y0155674D02*
X0155444Y0155674D01*
X0155445Y0155723D02*
X0156545Y0155723D01*
X0156549Y0155771D02*
X0155450Y0155771D01*
X0155455Y0155820D02*
X0156552Y0155820D01*
X0156557Y0155868D02*
X0155460Y0155868D01*
X0155465Y0155917D02*
X0156565Y0155917D01*
X0156573Y0155965D02*
X0155469Y0155965D01*
X0155474Y0156014D02*
X0156581Y0156014D01*
X0156589Y0156062D02*
X0155479Y0156062D01*
X0155509Y0156208D02*
X0156627Y0156208D01*
X0156640Y0156256D02*
X0155521Y0156256D01*
X0155534Y0156305D02*
X0156661Y0156305D01*
X0156683Y0156353D02*
X0155548Y0156353D01*
X0155564Y0156402D02*
X0156705Y0156402D01*
X0156728Y0156451D02*
X0155579Y0156451D01*
X0155594Y0156499D02*
X0156759Y0156499D01*
X0156791Y0156548D02*
X0155611Y0156548D01*
X0155630Y0156596D02*
X0156822Y0156596D01*
X0156858Y0156645D02*
X0155649Y0156645D01*
X0155668Y0156693D02*
X0156901Y0156693D01*
X0156944Y0156742D02*
X0155692Y0156742D01*
X0155718Y0156790D02*
X0156991Y0156790D01*
X0157050Y0156839D02*
X0155745Y0156839D01*
X0155771Y0156887D02*
X0157109Y0156887D01*
X0157182Y0156936D02*
X0155797Y0156936D01*
X0155824Y0156984D02*
X0157270Y0156984D01*
X0157383Y0157033D02*
X0155850Y0157033D01*
X0155879Y0157081D02*
X0157547Y0157081D01*
X0158209Y0157081D02*
X0158784Y0157081D01*
X0158782Y0157033D02*
X0158356Y0157033D01*
X0158450Y0156984D02*
X0158780Y0156984D01*
X0158780Y0156936D02*
X0158536Y0156936D01*
X0158596Y0156887D02*
X0158780Y0156887D01*
X0158780Y0156839D02*
X0158655Y0156839D01*
X0158717Y0156790D02*
X0158780Y0156790D01*
X0158392Y0156294D02*
X0158190Y0156335D01*
X0157988Y0156311D01*
X0157805Y0156227D01*
X0157658Y0156088D01*
X0157558Y0155908D01*
X0157527Y0155704D01*
X0157529Y0155500D01*
X0157565Y0155298D01*
X0157666Y0155118D01*
X0157817Y0154982D01*
X0158002Y0154905D01*
X0158204Y0154886D01*
X0158406Y0154929D01*
X0158570Y0155053D01*
X0158684Y0155221D01*
X0158750Y0155413D01*
X0158778Y0155617D01*
X0158747Y0155821D01*
X0158677Y0156011D01*
X0158559Y0156176D01*
X0158392Y0156294D01*
X0158337Y0156305D02*
X0157976Y0156305D01*
X0157869Y0156256D02*
X0158445Y0156256D01*
X0158514Y0156208D02*
X0157784Y0156208D01*
X0157734Y0156159D02*
X0158571Y0156159D01*
X0158606Y0156111D02*
X0157683Y0156111D01*
X0157644Y0156062D02*
X0158641Y0156062D01*
X0158676Y0156014D02*
X0157617Y0156014D01*
X0157590Y0155965D02*
X0158694Y0155965D01*
X0158712Y0155917D02*
X0157563Y0155917D01*
X0157552Y0155868D02*
X0158730Y0155868D01*
X0158748Y0155820D02*
X0157544Y0155820D01*
X0157537Y0155771D02*
X0158755Y0155771D01*
X0158762Y0155723D02*
X0157530Y0155723D01*
X0157527Y0155674D02*
X0158770Y0155674D01*
X0158777Y0155626D02*
X0157527Y0155626D01*
X0157528Y0155577D02*
X0158773Y0155577D01*
X0158766Y0155529D02*
X0157529Y0155529D01*
X0157532Y0155480D02*
X0158759Y0155480D01*
X0158752Y0155432D02*
X0157541Y0155432D01*
X0157550Y0155383D02*
X0158739Y0155383D01*
X0158723Y0155335D02*
X0157559Y0155335D01*
X0157572Y0155286D02*
X0158706Y0155286D01*
X0158690Y0155238D02*
X0157599Y0155238D01*
X0157626Y0155189D02*
X0158662Y0155189D01*
X0158630Y0155141D02*
X0157653Y0155141D01*
X0157694Y0155092D02*
X0158597Y0155092D01*
X0158558Y0155044D02*
X0157748Y0155044D01*
X0157802Y0154995D02*
X0158494Y0154995D01*
X0158430Y0154947D02*
X0157902Y0154947D01*
X0158076Y0154898D02*
X0158260Y0154898D01*
X0158676Y0154413D02*
X0158780Y0154413D01*
X0158780Y0154365D02*
X0158617Y0154365D01*
X0158554Y0154316D02*
X0158780Y0154316D01*
X0158780Y0154267D02*
X0158491Y0154267D01*
X0158390Y0154219D02*
X0158780Y0154219D01*
X0158780Y0154170D02*
X0158274Y0154170D01*
X0158727Y0154462D02*
X0158780Y0154462D01*
X0158779Y0154510D02*
X0158780Y0154510D01*
X0159745Y0154510D02*
X0160847Y0154510D01*
X0160865Y0154462D02*
X0159745Y0154462D01*
X0159745Y0154413D02*
X0160882Y0154413D01*
X0160900Y0154365D02*
X0159746Y0154365D01*
X0159746Y0154316D02*
X0160918Y0154316D01*
X0160935Y0154267D02*
X0159746Y0154267D01*
X0159746Y0154219D02*
X0160953Y0154219D01*
X0160970Y0154170D02*
X0159746Y0154170D01*
X0159746Y0154122D02*
X0169053Y0154122D01*
X0168705Y0154170D02*
X0167320Y0154170D01*
X0167320Y0154219D02*
X0168441Y0154219D01*
X0168339Y0154267D02*
X0167320Y0154267D01*
X0167320Y0154316D02*
X0168244Y0154316D01*
X0168167Y0154365D02*
X0167320Y0154365D01*
X0167320Y0154413D02*
X0168090Y0154413D01*
X0168014Y0154462D02*
X0167320Y0154462D01*
X0167320Y0154510D02*
X0167937Y0154510D01*
X0167891Y0154559D02*
X0167320Y0154559D01*
X0167320Y0154607D02*
X0167860Y0154607D01*
X0167828Y0154656D02*
X0167320Y0154656D01*
X0167320Y0154704D02*
X0167796Y0154704D01*
X0167764Y0154753D02*
X0167320Y0154753D01*
X0167320Y0154801D02*
X0167732Y0154801D01*
X0167700Y0154850D02*
X0167320Y0154850D01*
X0167320Y0154898D02*
X0167672Y0154898D01*
X0167648Y0154947D02*
X0167320Y0154947D01*
X0167320Y0154995D02*
X0167623Y0154995D01*
X0167599Y0155044D02*
X0167320Y0155044D01*
X0167320Y0155092D02*
X0167586Y0155092D01*
X0167578Y0155141D02*
X0167320Y0155141D01*
X0167320Y0155189D02*
X0167569Y0155189D01*
X0167560Y0155238D02*
X0167320Y0155238D01*
X0167320Y0155286D02*
X0167552Y0155286D01*
X0167543Y0155335D02*
X0167320Y0155335D01*
X0167320Y0155383D02*
X0167535Y0155383D01*
X0167526Y0155432D02*
X0167320Y0155432D01*
X0167320Y0155480D02*
X0167519Y0155480D01*
X0167515Y0155529D02*
X0167320Y0155529D01*
X0167320Y0155577D02*
X0167512Y0155577D01*
X0167509Y0155626D02*
X0167320Y0155626D01*
X0167320Y0155674D02*
X0167506Y0155674D01*
X0167514Y0155723D02*
X0167320Y0155723D01*
X0167320Y0155771D02*
X0167523Y0155771D01*
X0167532Y0155820D02*
X0167320Y0155820D01*
X0167320Y0155868D02*
X0167540Y0155868D01*
X0167549Y0155917D02*
X0167320Y0155917D01*
X0167320Y0155965D02*
X0167557Y0155965D01*
X0167566Y0156014D02*
X0167320Y0156014D01*
X0167320Y0156062D02*
X0167574Y0156062D01*
X0167586Y0156111D02*
X0167320Y0156111D01*
X0167320Y0156159D02*
X0167600Y0156159D01*
X0167614Y0156208D02*
X0167320Y0156208D01*
X0167320Y0156256D02*
X0167628Y0156256D01*
X0167652Y0156305D02*
X0167320Y0156305D01*
X0167320Y0156353D02*
X0167685Y0156353D01*
X0167718Y0156402D02*
X0167320Y0156402D01*
X0167320Y0156451D02*
X0167751Y0156451D01*
X0167784Y0156499D02*
X0167320Y0156499D01*
X0167320Y0156548D02*
X0167817Y0156548D01*
X0167850Y0156596D02*
X0167320Y0156596D01*
X0167320Y0156645D02*
X0167883Y0156645D01*
X0167840Y0156693D02*
X0167927Y0156693D01*
X0167977Y0156742D02*
X0167743Y0156742D01*
X0167737Y0156742D02*
X0167320Y0156742D01*
X0167320Y0156790D02*
X0167643Y0156790D01*
X0167646Y0156790D02*
X0168037Y0156790D01*
X0168113Y0156839D02*
X0167550Y0156839D01*
X0167549Y0156839D02*
X0167320Y0156839D01*
X0167320Y0156887D02*
X0167452Y0156887D01*
X0167456Y0156887D02*
X0168189Y0156887D01*
X0168265Y0156936D02*
X0167363Y0156936D01*
X0167354Y0156936D02*
X0167320Y0156936D01*
X0167323Y0156984D02*
X0168341Y0156984D01*
X0168503Y0157033D02*
X0167324Y0157033D01*
X0167324Y0157081D02*
X0168755Y0157081D01*
X0169208Y0157081D02*
X0170734Y0157081D01*
X0170768Y0157033D02*
X0169207Y0157033D01*
X0169595Y0158003D02*
X0157014Y0158003D01*
X0156911Y0157954D02*
X0169711Y0157954D01*
X0169799Y0157906D02*
X0156822Y0157906D01*
X0156732Y0157857D02*
X0169886Y0157857D01*
X0169973Y0157809D02*
X0156643Y0157809D01*
X0156570Y0157760D02*
X0170061Y0157760D01*
X0170125Y0157712D02*
X0156504Y0157712D01*
X0156439Y0157663D02*
X0170184Y0157663D01*
X0170243Y0157615D02*
X0156380Y0157615D01*
X0156322Y0157566D02*
X0170301Y0157566D01*
X0170360Y0157518D02*
X0156266Y0157518D01*
X0156215Y0157469D02*
X0170414Y0157469D01*
X0170458Y0157421D02*
X0156164Y0157421D01*
X0156118Y0157372D02*
X0170502Y0157372D01*
X0170545Y0157324D02*
X0156078Y0157324D01*
X0156038Y0157275D02*
X0170585Y0157275D01*
X0170625Y0157227D02*
X0155998Y0157227D01*
X0155959Y0157178D02*
X0170665Y0157178D01*
X0170700Y0157130D02*
X0155919Y0157130D01*
X0157166Y0158051D02*
X0169461Y0158051D01*
X0169297Y0158100D02*
X0157318Y0158100D01*
X0157524Y0158148D02*
X0169134Y0158148D01*
X0168676Y0158197D02*
X0157953Y0158197D01*
X0159739Y0157081D02*
X0159916Y0157081D01*
X0159935Y0157033D02*
X0159738Y0157033D01*
X0159737Y0156984D02*
X0159924Y0156984D01*
X0159928Y0156984D02*
X0159947Y0156984D01*
X0159965Y0156936D02*
X0159740Y0156936D01*
X0159740Y0156887D02*
X0159983Y0156887D01*
X0160000Y0156839D02*
X0159740Y0156839D01*
X0159740Y0156790D02*
X0160018Y0156790D01*
X0160035Y0156742D02*
X0159741Y0156742D01*
X0159741Y0156693D02*
X0160053Y0156693D01*
X0160071Y0156645D02*
X0159741Y0156645D01*
X0159741Y0156596D02*
X0160088Y0156596D01*
X0160106Y0156548D02*
X0159741Y0156548D01*
X0159741Y0156499D02*
X0160124Y0156499D01*
X0160141Y0156451D02*
X0159741Y0156451D01*
X0159741Y0156402D02*
X0160159Y0156402D01*
X0160177Y0156353D02*
X0159741Y0156353D01*
X0159741Y0156305D02*
X0160194Y0156305D01*
X0160212Y0156256D02*
X0159742Y0156256D01*
X0159742Y0156208D02*
X0160230Y0156208D01*
X0160247Y0156159D02*
X0159742Y0156159D01*
X0159742Y0156111D02*
X0160265Y0156111D01*
X0160282Y0156062D02*
X0159742Y0156062D01*
X0159742Y0156014D02*
X0160300Y0156014D01*
X0160318Y0155965D02*
X0159742Y0155965D01*
X0159742Y0155917D02*
X0160335Y0155917D01*
X0160353Y0155868D02*
X0159742Y0155868D01*
X0159743Y0155820D02*
X0160371Y0155820D01*
X0160388Y0155771D02*
X0159743Y0155771D01*
X0159743Y0155723D02*
X0160406Y0155723D01*
X0160424Y0155674D02*
X0159743Y0155674D01*
X0159743Y0155626D02*
X0160441Y0155626D01*
X0160459Y0155577D02*
X0159743Y0155577D01*
X0159743Y0155529D02*
X0160476Y0155529D01*
X0160494Y0155480D02*
X0159743Y0155480D01*
X0159743Y0155432D02*
X0160512Y0155432D01*
X0160529Y0155383D02*
X0159743Y0155383D01*
X0159744Y0155335D02*
X0160547Y0155335D01*
X0160565Y0155286D02*
X0159744Y0155286D01*
X0159744Y0155238D02*
X0160582Y0155238D01*
X0160600Y0155189D02*
X0159744Y0155189D01*
X0159744Y0155141D02*
X0160618Y0155141D01*
X0160635Y0155092D02*
X0159744Y0155092D01*
X0159744Y0155044D02*
X0160653Y0155044D01*
X0160671Y0154995D02*
X0159744Y0154995D01*
X0159744Y0154947D02*
X0160688Y0154947D01*
X0160706Y0154898D02*
X0159744Y0154898D01*
X0159745Y0154850D02*
X0160723Y0154850D01*
X0160741Y0154801D02*
X0159745Y0154801D01*
X0159745Y0154753D02*
X0160759Y0154753D01*
X0160776Y0154704D02*
X0159745Y0154704D01*
X0159745Y0154656D02*
X0160794Y0154656D01*
X0160812Y0154607D02*
X0159745Y0154607D01*
X0159745Y0154559D02*
X0160829Y0154559D01*
X0161433Y0155238D02*
X0161511Y0155238D01*
X0161525Y0155286D02*
X0161418Y0155286D01*
X0161404Y0155335D02*
X0161539Y0155335D01*
X0161552Y0155383D02*
X0161390Y0155383D01*
X0161376Y0155432D02*
X0161566Y0155432D01*
X0161580Y0155480D02*
X0161361Y0155480D01*
X0161347Y0155529D02*
X0161593Y0155529D01*
X0161607Y0155577D02*
X0161333Y0155577D01*
X0161318Y0155626D02*
X0161621Y0155626D01*
X0161635Y0155674D02*
X0161304Y0155674D01*
X0161290Y0155723D02*
X0161648Y0155723D01*
X0161662Y0155771D02*
X0161275Y0155771D01*
X0161261Y0155820D02*
X0161676Y0155820D01*
X0161689Y0155868D02*
X0161247Y0155868D01*
X0161232Y0155917D02*
X0161703Y0155917D01*
X0161717Y0155965D02*
X0161218Y0155965D01*
X0161204Y0156014D02*
X0161731Y0156014D01*
X0161744Y0156062D02*
X0161189Y0156062D01*
X0161175Y0156111D02*
X0161758Y0156111D01*
X0161772Y0156159D02*
X0161161Y0156159D01*
X0161146Y0156208D02*
X0161785Y0156208D01*
X0161799Y0156256D02*
X0161132Y0156256D01*
X0161118Y0156305D02*
X0161813Y0156305D01*
X0161827Y0156353D02*
X0161104Y0156353D01*
X0161089Y0156402D02*
X0161840Y0156402D01*
X0161854Y0156451D02*
X0161075Y0156451D01*
X0161061Y0156499D02*
X0161868Y0156499D01*
X0161881Y0156548D02*
X0161046Y0156548D01*
X0161032Y0156596D02*
X0161895Y0156596D01*
X0161909Y0156645D02*
X0161018Y0156645D01*
X0161003Y0156693D02*
X0161922Y0156693D01*
X0161936Y0156742D02*
X0160989Y0156742D01*
X0160975Y0156790D02*
X0161950Y0156790D01*
X0161964Y0156839D02*
X0160960Y0156839D01*
X0160946Y0156887D02*
X0161977Y0156887D01*
X0161991Y0156936D02*
X0160932Y0156936D01*
X0160917Y0156984D02*
X0162005Y0156984D01*
X0162018Y0157033D02*
X0160903Y0157033D01*
X0160889Y0157081D02*
X0162032Y0157081D01*
X0162977Y0157081D02*
X0164141Y0157081D01*
X0164126Y0157033D02*
X0162991Y0157033D01*
X0163005Y0156984D02*
X0164111Y0156984D01*
X0164097Y0156936D02*
X0163019Y0156936D01*
X0163033Y0156887D02*
X0164082Y0156887D01*
X0164067Y0156839D02*
X0163048Y0156839D01*
X0163062Y0156790D02*
X0164053Y0156790D01*
X0164038Y0156742D02*
X0163076Y0156742D01*
X0163090Y0156693D02*
X0164023Y0156693D01*
X0164009Y0156645D02*
X0163105Y0156645D01*
X0163119Y0156596D02*
X0163994Y0156596D01*
X0163979Y0156548D02*
X0163133Y0156548D01*
X0163147Y0156499D02*
X0163964Y0156499D01*
X0163950Y0156451D02*
X0163161Y0156451D01*
X0163176Y0156402D02*
X0163935Y0156402D01*
X0163920Y0156353D02*
X0163190Y0156353D01*
X0163204Y0156305D02*
X0163906Y0156305D01*
X0163891Y0156256D02*
X0163218Y0156256D01*
X0163232Y0156208D02*
X0163876Y0156208D01*
X0163862Y0156159D02*
X0163247Y0156159D01*
X0163261Y0156111D02*
X0163847Y0156111D01*
X0163832Y0156062D02*
X0163275Y0156062D01*
X0163289Y0156014D02*
X0163818Y0156014D01*
X0163803Y0155965D02*
X0163304Y0155965D01*
X0163318Y0155917D02*
X0163788Y0155917D01*
X0163774Y0155868D02*
X0163332Y0155868D01*
X0163346Y0155820D02*
X0163759Y0155820D01*
X0163744Y0155771D02*
X0163360Y0155771D01*
X0163375Y0155723D02*
X0163729Y0155723D01*
X0163715Y0155674D02*
X0163389Y0155674D01*
X0163403Y0155626D02*
X0163700Y0155626D01*
X0163685Y0155577D02*
X0163417Y0155577D01*
X0163431Y0155529D02*
X0163671Y0155529D01*
X0163656Y0155480D02*
X0163446Y0155480D01*
X0163460Y0155432D02*
X0163641Y0155432D01*
X0163627Y0155383D02*
X0163474Y0155383D01*
X0163488Y0155335D02*
X0163612Y0155335D01*
X0163597Y0155286D02*
X0163503Y0155286D01*
X0163516Y0155238D02*
X0163583Y0155238D01*
X0163568Y0155189D02*
X0163530Y0155189D01*
X0163543Y0155141D02*
X0163553Y0155141D01*
X0162825Y0154898D02*
X0162162Y0154898D01*
X0162147Y0154850D02*
X0162840Y0154850D01*
X0162855Y0154801D02*
X0162131Y0154801D01*
X0162116Y0154753D02*
X0162870Y0154753D01*
X0162885Y0154704D02*
X0162101Y0154704D01*
X0162086Y0154656D02*
X0162900Y0154656D01*
X0162915Y0154607D02*
X0162071Y0154607D01*
X0162056Y0154559D02*
X0162930Y0154559D01*
X0162945Y0154510D02*
X0162041Y0154510D01*
X0162026Y0154462D02*
X0162960Y0154462D01*
X0162975Y0154413D02*
X0162010Y0154413D01*
X0161995Y0154365D02*
X0162990Y0154365D01*
X0163005Y0154316D02*
X0161980Y0154316D01*
X0161965Y0154267D02*
X0163020Y0154267D01*
X0163035Y0154219D02*
X0161950Y0154219D01*
X0161935Y0154170D02*
X0163050Y0154170D01*
X0162810Y0154947D02*
X0162177Y0154947D01*
X0162192Y0154995D02*
X0162795Y0154995D01*
X0162780Y0155044D02*
X0162207Y0155044D01*
X0162222Y0155092D02*
X0162765Y0155092D01*
X0162750Y0155141D02*
X0162237Y0155141D01*
X0162252Y0155189D02*
X0162735Y0155189D01*
X0162721Y0155238D02*
X0162268Y0155238D01*
X0162283Y0155286D02*
X0162706Y0155286D01*
X0162691Y0155335D02*
X0162298Y0155335D01*
X0162313Y0155383D02*
X0162676Y0155383D01*
X0162661Y0155432D02*
X0162328Y0155432D01*
X0162343Y0155480D02*
X0162646Y0155480D01*
X0162631Y0155529D02*
X0162358Y0155529D01*
X0162373Y0155577D02*
X0162616Y0155577D01*
X0162601Y0155626D02*
X0162389Y0155626D01*
X0162404Y0155674D02*
X0162586Y0155674D01*
X0162571Y0155723D02*
X0162419Y0155723D01*
X0162434Y0155771D02*
X0162556Y0155771D01*
X0162541Y0155820D02*
X0162451Y0155820D01*
X0162468Y0155868D02*
X0162526Y0155868D01*
X0162511Y0155917D02*
X0162486Y0155917D01*
X0164418Y0155238D02*
X0165199Y0155238D01*
X0165199Y0155286D02*
X0164436Y0155286D01*
X0164453Y0155335D02*
X0165199Y0155335D01*
X0165199Y0155383D02*
X0164471Y0155383D01*
X0164488Y0155432D02*
X0165199Y0155432D01*
X0165199Y0155480D02*
X0164506Y0155480D01*
X0164523Y0155529D02*
X0165199Y0155529D01*
X0165199Y0155577D02*
X0164541Y0155577D01*
X0164558Y0155626D02*
X0165199Y0155626D01*
X0165199Y0155674D02*
X0164576Y0155674D01*
X0164594Y0155723D02*
X0165199Y0155723D01*
X0165199Y0155771D02*
X0164611Y0155771D01*
X0164629Y0155820D02*
X0165199Y0155820D01*
X0165199Y0155868D02*
X0164646Y0155868D01*
X0164664Y0155917D02*
X0165199Y0155917D01*
X0165199Y0155965D02*
X0164681Y0155965D01*
X0164699Y0156014D02*
X0165199Y0156014D01*
X0165199Y0156062D02*
X0164716Y0156062D01*
X0164734Y0156111D02*
X0165199Y0156111D01*
X0165199Y0156159D02*
X0164751Y0156159D01*
X0164769Y0156208D02*
X0165199Y0156208D01*
X0165199Y0156256D02*
X0164787Y0156256D01*
X0164804Y0156305D02*
X0165199Y0156305D01*
X0165199Y0156353D02*
X0164822Y0156353D01*
X0164839Y0156402D02*
X0165199Y0156402D01*
X0165199Y0156451D02*
X0164857Y0156451D01*
X0164874Y0156499D02*
X0165199Y0156499D01*
X0165199Y0156548D02*
X0164892Y0156548D01*
X0164909Y0156596D02*
X0165199Y0156596D01*
X0165199Y0156645D02*
X0164927Y0156645D01*
X0164944Y0156693D02*
X0165199Y0156693D01*
X0165199Y0156742D02*
X0164962Y0156742D01*
X0164980Y0156790D02*
X0165199Y0156790D01*
X0165199Y0156839D02*
X0164997Y0156839D01*
X0165015Y0156887D02*
X0165199Y0156887D01*
X0165199Y0156936D02*
X0165032Y0156936D01*
X0165049Y0156984D02*
X0165199Y0156984D01*
X0165199Y0157033D02*
X0165066Y0157033D01*
X0165083Y0157081D02*
X0165199Y0157081D01*
X0166158Y0157033D02*
X0166245Y0157033D01*
X0166269Y0157033D02*
X0166361Y0157033D01*
X0166360Y0157081D02*
X0166161Y0157081D01*
X0166158Y0156984D02*
X0166361Y0156984D01*
X0166361Y0156936D02*
X0166158Y0156936D01*
X0166158Y0156887D02*
X0166361Y0156887D01*
X0166361Y0156839D02*
X0166158Y0156839D01*
X0166158Y0156790D02*
X0166361Y0156790D01*
X0166361Y0156742D02*
X0166158Y0156742D01*
X0166158Y0156693D02*
X0166361Y0156693D01*
X0166361Y0156645D02*
X0166158Y0156645D01*
X0166159Y0156596D02*
X0166361Y0156596D01*
X0166361Y0156548D02*
X0166159Y0156548D01*
X0166159Y0156499D02*
X0166361Y0156499D01*
X0166361Y0156451D02*
X0166159Y0156451D01*
X0166159Y0156402D02*
X0166361Y0156402D01*
X0166361Y0156353D02*
X0166159Y0156353D01*
X0166159Y0156305D02*
X0166361Y0156305D01*
X0166360Y0156256D02*
X0166159Y0156256D01*
X0166159Y0156208D02*
X0166360Y0156208D01*
X0166360Y0156159D02*
X0166159Y0156159D01*
X0166159Y0156111D02*
X0166360Y0156111D01*
X0166360Y0156062D02*
X0166159Y0156062D01*
X0166159Y0156014D02*
X0166360Y0156014D01*
X0166360Y0155965D02*
X0166159Y0155965D01*
X0166159Y0155917D02*
X0166360Y0155917D01*
X0166360Y0155868D02*
X0166159Y0155868D01*
X0166160Y0155820D02*
X0166360Y0155820D01*
X0166360Y0155771D02*
X0166160Y0155771D01*
X0166160Y0155723D02*
X0166360Y0155723D01*
X0166360Y0155674D02*
X0166160Y0155674D01*
X0166160Y0155626D02*
X0166360Y0155626D01*
X0166360Y0155577D02*
X0166160Y0155577D01*
X0166160Y0155529D02*
X0166359Y0155529D01*
X0166359Y0155480D02*
X0166160Y0155480D01*
X0166160Y0155432D02*
X0166359Y0155432D01*
X0166359Y0155383D02*
X0166160Y0155383D01*
X0166160Y0155335D02*
X0166359Y0155335D01*
X0166359Y0155286D02*
X0166160Y0155286D01*
X0166160Y0155238D02*
X0166359Y0155238D01*
X0166359Y0155189D02*
X0166160Y0155189D01*
X0166160Y0155141D02*
X0166359Y0155141D01*
X0166359Y0155092D02*
X0166161Y0155092D01*
X0166161Y0155044D02*
X0166359Y0155044D01*
X0166359Y0154995D02*
X0166161Y0154995D01*
X0166161Y0154947D02*
X0166359Y0154947D01*
X0166359Y0154898D02*
X0166161Y0154898D01*
X0166161Y0154850D02*
X0166359Y0154850D01*
X0166358Y0154801D02*
X0166161Y0154801D01*
X0166161Y0154753D02*
X0166358Y0154753D01*
X0166358Y0154704D02*
X0166161Y0154704D01*
X0166161Y0154656D02*
X0166358Y0154656D01*
X0166358Y0154607D02*
X0166161Y0154607D01*
X0166161Y0154559D02*
X0166358Y0154559D01*
X0166358Y0154510D02*
X0166161Y0154510D01*
X0166161Y0154462D02*
X0166358Y0154462D01*
X0166358Y0154413D02*
X0166161Y0154413D01*
X0166162Y0154365D02*
X0166358Y0154365D01*
X0166358Y0154316D02*
X0166162Y0154316D01*
X0166162Y0154267D02*
X0166358Y0154267D01*
X0166358Y0154219D02*
X0166162Y0154219D01*
X0166162Y0154170D02*
X0166358Y0154170D01*
X0165199Y0154170D02*
X0164032Y0154170D01*
X0164050Y0154219D02*
X0165199Y0154219D01*
X0165199Y0154267D02*
X0164067Y0154267D01*
X0164085Y0154316D02*
X0165199Y0154316D01*
X0165199Y0154365D02*
X0164102Y0154365D01*
X0164120Y0154413D02*
X0165199Y0154413D01*
X0165199Y0154462D02*
X0164137Y0154462D01*
X0164155Y0154510D02*
X0165199Y0154510D01*
X0165199Y0154559D02*
X0164172Y0154559D01*
X0164190Y0154607D02*
X0165199Y0154607D01*
X0165199Y0154656D02*
X0164207Y0154656D01*
X0164225Y0154704D02*
X0165199Y0154704D01*
X0165199Y0154753D02*
X0164243Y0154753D01*
X0164260Y0154801D02*
X0165199Y0154801D01*
X0165199Y0154850D02*
X0164278Y0154850D01*
X0164295Y0154898D02*
X0165199Y0154898D01*
X0165199Y0154947D02*
X0164313Y0154947D01*
X0164330Y0154995D02*
X0165199Y0154995D01*
X0165199Y0155044D02*
X0164348Y0155044D01*
X0164365Y0155092D02*
X0165199Y0155092D01*
X0165199Y0155141D02*
X0164383Y0155141D01*
X0164400Y0155189D02*
X0165199Y0155189D01*
X0167320Y0156693D02*
X0167830Y0156693D01*
X0158775Y0153103D02*
X0157938Y0153103D01*
D151*
X0287491Y0161382D03*
X0292176Y0161382D03*
D152*
X0287707Y0161382D03*
D153*
X0287825Y0161382D03*
D154*
X0288180Y0161382D03*
D155*
X0288416Y0159315D03*
X0291251Y0158252D03*
X0279436Y0176220D03*
X0277231Y0181024D03*
X0276955Y0181181D03*
X0279711Y0182402D03*
X0269436Y0182408D03*
X0267507Y0180754D03*
X0267231Y0180872D03*
X0266955Y0181030D03*
X0268885Y0189140D03*
X0269987Y0190951D03*
X0277507Y0195906D03*
X0279160Y0195906D03*
X0278885Y0193425D03*
X0279987Y0191772D03*
D156*
X0289361Y0163508D03*
X0289833Y0163508D03*
X0290306Y0163508D03*
X0290778Y0163508D03*
X0291251Y0163508D03*
X0288416Y0161500D03*
X0288888Y0159492D03*
D157*
X0288554Y0159374D03*
X0291113Y0158311D03*
X0291388Y0163508D03*
X0276818Y0172421D03*
X0268747Y0180262D03*
X0269022Y0182467D03*
X0269298Y0182467D03*
D158*
X0280125Y0173031D03*
X0290916Y0166520D03*
X0290995Y0166520D03*
X0288633Y0156244D03*
X0289026Y0156126D03*
X0289223Y0156008D03*
D159*
X0289105Y0166579D03*
X0289026Y0166579D03*
X0290562Y0166579D03*
X0290640Y0166579D03*
D160*
X0290444Y0166638D03*
X0290168Y0166638D03*
X0290050Y0166638D03*
X0289971Y0166638D03*
X0289696Y0166638D03*
X0289617Y0166638D03*
X0289499Y0166638D03*
X0289223Y0166638D03*
D161*
X0291251Y0166461D03*
X0289361Y0155949D03*
D162*
X0289361Y0166638D03*
X0289833Y0166638D03*
X0290306Y0166638D03*
D163*
X0289696Y0158311D03*
X0276818Y0176831D03*
X0269849Y0176680D03*
D164*
X0289833Y0155831D03*
D165*
X0289971Y0155831D03*
D166*
X0290778Y0166579D03*
D167*
X0291388Y0158311D03*
X0279298Y0176280D03*
X0277369Y0176280D03*
X0277369Y0180965D03*
X0276818Y0181240D03*
X0279849Y0182343D03*
X0267369Y0180813D03*
X0266818Y0181089D03*
X0277369Y0195846D03*
D168*
X0291822Y0161382D03*
D169*
X0291940Y0161382D03*
D170*
X0258333Y0164697D02*
X0258333Y0171980D01*
X0252546Y0171980D01*
X0214121Y0171980D02*
X0208333Y0171980D01*
X0208333Y0164697D01*
X0208333Y0114303D02*
X0208333Y0107020D01*
X0214121Y0107020D01*
X0252546Y0107020D02*
X0258333Y0107020D01*
X0258333Y0114303D01*
D171*
X0260333Y0105000D03*
D172*
X0196026Y0100547D03*
X0180841Y0087047D03*
X0178007Y0087047D03*
X0178007Y0082953D03*
D173*
X0178007Y0086890D03*
X0194766Y0096453D03*
X0193507Y0100390D03*
X0196026Y0100390D03*
D174*
X0196105Y0100232D03*
X0180920Y0086890D03*
X0180920Y0083110D03*
X0177928Y0083110D03*
D175*
X0178007Y0083268D03*
X0178007Y0086732D03*
X0180841Y0086732D03*
X0194766Y0096610D03*
X0194766Y0096768D03*
X0194766Y0096925D03*
X0194766Y0097083D03*
X0194766Y0097240D03*
X0194766Y0097398D03*
X0194766Y0097555D03*
X0194766Y0097713D03*
X0194766Y0097870D03*
X0194766Y0098028D03*
X0193979Y0099287D03*
X0193507Y0100075D03*
X0193507Y0100232D03*
X0195711Y0099445D03*
D176*
X0195633Y0099287D03*
X0195475Y0099130D03*
X0195790Y0099602D03*
X0195948Y0099760D03*
X0195948Y0099917D03*
X0196105Y0100075D03*
X0194058Y0099130D03*
X0193900Y0099445D03*
X0193743Y0099602D03*
X0193743Y0099760D03*
X0193585Y0099917D03*
X0188475Y0091445D03*
X0188318Y0091287D03*
X0188160Y0090972D03*
X0188003Y0090815D03*
X0187845Y0090657D03*
X0187688Y0090343D03*
X0187530Y0090185D03*
X0187373Y0089870D03*
X0187215Y0089713D03*
X0187058Y0089555D03*
X0180762Y0086417D03*
X0178558Y0085945D03*
X0178085Y0086575D03*
X0178085Y0083425D03*
X0180448Y0083898D03*
X0180920Y0083268D03*
D177*
X0180841Y0083425D03*
X0180684Y0083583D03*
X0180526Y0083740D03*
X0180369Y0084055D03*
X0179424Y0085000D03*
X0180211Y0085787D03*
X0180369Y0085945D03*
X0180526Y0086102D03*
X0180684Y0086260D03*
X0180841Y0086575D03*
X0178636Y0085787D03*
X0178479Y0086102D03*
X0178322Y0086260D03*
X0178164Y0086417D03*
X0178636Y0084055D03*
X0178479Y0083898D03*
X0178322Y0083740D03*
X0178164Y0083583D03*
X0186979Y0089398D03*
X0187451Y0090028D03*
X0187766Y0090500D03*
X0188239Y0091130D03*
X0194766Y0098185D03*
D178*
X0179424Y0085630D03*
D179*
X0179424Y0085472D03*
X0194766Y0098972D03*
D180*
X0194766Y0098657D03*
X0179424Y0085315D03*
X0179424Y0084685D03*
D181*
X0179424Y0084843D03*
X0179424Y0085157D03*
X0194766Y0098500D03*
D182*
X0194845Y0098815D03*
X0179503Y0084528D03*
D183*
X0179503Y0084370D03*
X0187688Y0092547D03*
D184*
X0179503Y0084213D03*
D185*
X0180920Y0082953D03*
D186*
X0193585Y0100547D03*
D187*
X0194845Y0098343D03*
D188*
X0187688Y0092390D03*
X0187688Y0091760D03*
X0187845Y0089240D03*
X0187845Y0088453D03*
D189*
X0187766Y0088610D03*
X0187766Y0088768D03*
X0187766Y0088925D03*
X0187766Y0089083D03*
X0187766Y0091917D03*
X0187766Y0092075D03*
X0187766Y0092232D03*
D190*
X0187766Y0091602D03*
D191*
X0265577Y0184869D03*
X0271089Y0184869D03*
D192*
X0270951Y0184809D03*
X0265715Y0184809D03*
D193*
X0265853Y0184672D03*
X0270814Y0184672D03*
D194*
X0270676Y0184593D03*
X0265991Y0184593D03*
D195*
X0266129Y0184534D03*
X0270538Y0184534D03*
D196*
X0266266Y0184455D03*
D197*
X0266404Y0189632D03*
D198*
X0269298Y0185164D03*
X0269573Y0185164D03*
X0269849Y0185164D03*
X0266542Y0181030D03*
X0266542Y0178550D03*
X0267093Y0172605D03*
X0269573Y0172605D03*
X0277920Y0176496D03*
X0276542Y0181181D03*
X0280125Y0191772D03*
X0279849Y0195630D03*
D199*
X0266542Y0185833D03*
D200*
X0266542Y0190794D03*
X0276542Y0191772D03*
D201*
X0266542Y0194731D03*
D202*
X0277231Y0195846D03*
X0279436Y0195846D03*
X0267782Y0180538D03*
X0268609Y0180262D03*
X0269987Y0172821D03*
X0266680Y0172821D03*
X0276680Y0172421D03*
D203*
X0277782Y0173602D03*
X0278885Y0173602D03*
X0279160Y0176358D03*
X0277507Y0176358D03*
X0278058Y0180492D03*
X0277782Y0180610D03*
X0276680Y0181161D03*
X0279987Y0182421D03*
X0278885Y0189429D03*
X0277782Y0190807D03*
X0276680Y0191791D03*
X0268885Y0191916D03*
X0267782Y0193294D03*
X0269987Y0182270D03*
X0268058Y0180341D03*
X0266680Y0181010D03*
X0266680Y0178530D03*
D204*
X0269436Y0176680D03*
X0269987Y0176680D03*
X0276680Y0176831D03*
X0277231Y0176831D03*
X0279987Y0180413D03*
X0276680Y0183169D03*
X0277231Y0188681D03*
X0277507Y0188681D03*
X0277782Y0188681D03*
X0278058Y0188681D03*
X0279160Y0188681D03*
X0279711Y0188681D03*
X0278333Y0191437D03*
X0269436Y0194042D03*
X0269160Y0194042D03*
X0268885Y0194042D03*
X0268609Y0194042D03*
X0268609Y0186050D03*
X0266955Y0183018D03*
X0266680Y0183018D03*
D205*
X0269160Y0182467D03*
X0268885Y0180262D03*
X0266680Y0187703D03*
D206*
X0268058Y0189219D03*
X0268333Y0189219D03*
X0268609Y0189219D03*
X0266680Y0190872D03*
X0266955Y0185085D03*
X0269711Y0182329D03*
X0269987Y0178471D03*
X0276680Y0178622D03*
X0277507Y0180827D03*
X0278609Y0180276D03*
X0279987Y0178622D03*
X0278609Y0173661D03*
X0278333Y0173661D03*
X0278058Y0173661D03*
X0276955Y0185236D03*
X0278058Y0193504D03*
X0278333Y0193504D03*
X0278609Y0193504D03*
D207*
X0279711Y0191713D03*
X0279160Y0190059D03*
X0277507Y0191437D03*
X0266680Y0193766D03*
X0268058Y0182743D03*
X0267782Y0176955D03*
X0267507Y0175026D03*
X0269436Y0175026D03*
X0279160Y0180413D03*
D208*
X0279436Y0182480D03*
X0277231Y0185236D03*
X0267231Y0185085D03*
X0267782Y0189219D03*
X0267782Y0195833D03*
X0267507Y0195833D03*
X0267231Y0195833D03*
X0266955Y0195833D03*
X0266680Y0195833D03*
X0268058Y0195833D03*
X0268333Y0195833D03*
X0268609Y0195833D03*
X0268885Y0195833D03*
X0269160Y0195833D03*
X0269436Y0195833D03*
X0269711Y0195833D03*
X0269987Y0195833D03*
X0277782Y0195984D03*
X0278058Y0195984D03*
X0278333Y0195984D03*
X0278609Y0195984D03*
X0278885Y0195984D03*
X0277782Y0193504D03*
X0279711Y0176142D03*
X0279987Y0176142D03*
D209*
X0280125Y0176201D03*
X0277644Y0176358D03*
X0277644Y0180768D03*
X0270125Y0182270D03*
X0268471Y0180183D03*
X0267920Y0180459D03*
X0266818Y0172743D03*
X0269849Y0172743D03*
X0277093Y0195768D03*
X0279573Y0195768D03*
D210*
X0278471Y0191437D03*
X0277920Y0188681D03*
X0277644Y0188681D03*
X0277369Y0188681D03*
X0279298Y0188681D03*
X0279573Y0188681D03*
X0269573Y0194042D03*
X0269298Y0194042D03*
X0269022Y0194042D03*
X0268747Y0194042D03*
X0268471Y0186050D03*
X0266818Y0183018D03*
X0270125Y0180262D03*
X0269573Y0176680D03*
D211*
X0270125Y0178471D03*
X0276542Y0178622D03*
X0277920Y0180551D03*
X0278471Y0180276D03*
X0280125Y0178622D03*
X0279022Y0176417D03*
X0279298Y0185236D03*
X0279573Y0185236D03*
X0279849Y0185236D03*
X0276818Y0185236D03*
X0277644Y0190748D03*
X0270125Y0190872D03*
X0266818Y0185085D03*
D212*
X0266818Y0187644D03*
X0268196Y0182683D03*
X0269573Y0178550D03*
X0269022Y0176739D03*
X0267920Y0177014D03*
X0267920Y0175085D03*
X0267644Y0175085D03*
X0269849Y0175085D03*
X0278471Y0182677D03*
X0279573Y0178543D03*
X0280125Y0188898D03*
X0279022Y0190000D03*
X0269022Y0192447D03*
D213*
X0266818Y0190872D03*
X0269022Y0189219D03*
X0269022Y0195833D03*
X0268747Y0195833D03*
X0268471Y0195833D03*
X0268196Y0195833D03*
X0267920Y0195833D03*
X0267644Y0195833D03*
X0267369Y0195833D03*
X0267093Y0195833D03*
X0266818Y0195833D03*
X0269298Y0195833D03*
X0269573Y0195833D03*
X0269849Y0195833D03*
X0277920Y0195984D03*
X0278196Y0195984D03*
X0278471Y0195984D03*
X0278747Y0195984D03*
X0279022Y0193504D03*
X0279298Y0182480D03*
X0279849Y0178622D03*
X0279849Y0176142D03*
X0279573Y0176142D03*
X0269849Y0178471D03*
X0268471Y0177093D03*
D214*
X0267231Y0176620D03*
X0266955Y0176463D03*
X0267231Y0182959D03*
X0268885Y0184337D03*
X0267507Y0187369D03*
X0267507Y0191069D03*
X0269160Y0191069D03*
X0269436Y0190951D03*
X0269711Y0193983D03*
X0268333Y0193983D03*
X0266955Y0193983D03*
X0276955Y0188740D03*
X0276680Y0187362D03*
X0278885Y0185984D03*
X0278885Y0184488D03*
X0277507Y0182953D03*
X0279436Y0180472D03*
X0279987Y0187362D03*
D215*
X0279160Y0182539D03*
X0278885Y0180335D03*
X0276955Y0178563D03*
X0276955Y0172500D03*
X0269711Y0178530D03*
X0268609Y0177034D03*
X0268333Y0177152D03*
X0266955Y0178530D03*
X0268885Y0182546D03*
D216*
X0268747Y0184258D03*
X0267920Y0185085D03*
X0267920Y0187290D03*
X0267644Y0187290D03*
X0268747Y0187290D03*
X0269022Y0187290D03*
X0267920Y0191148D03*
X0276818Y0187441D03*
X0277093Y0187441D03*
X0277369Y0187441D03*
X0277644Y0187441D03*
X0277920Y0187441D03*
X0278196Y0187441D03*
X0278471Y0187441D03*
X0278747Y0187441D03*
X0279022Y0187441D03*
X0279298Y0187441D03*
X0279573Y0187441D03*
X0279849Y0187441D03*
X0278747Y0186063D03*
X0277920Y0185236D03*
X0278747Y0184409D03*
X0277093Y0183031D03*
X0279573Y0180551D03*
X0280125Y0180276D03*
X0269573Y0180400D03*
X0267093Y0176542D03*
X0278747Y0191575D03*
X0279022Y0191575D03*
D217*
X0277644Y0193504D03*
X0269849Y0190872D03*
X0267644Y0189219D03*
X0267369Y0185085D03*
X0268471Y0182605D03*
X0267093Y0178471D03*
X0268196Y0177093D03*
X0277093Y0178622D03*
X0277369Y0185236D03*
D218*
X0277369Y0182953D03*
X0280125Y0187362D03*
X0279849Y0188740D03*
X0279022Y0188740D03*
X0278196Y0188740D03*
X0277093Y0188740D03*
X0277369Y0190118D03*
X0279298Y0191654D03*
X0269298Y0191069D03*
X0268196Y0191227D03*
X0267644Y0191069D03*
X0267369Y0192605D03*
X0267093Y0193983D03*
X0268471Y0193983D03*
X0269298Y0187369D03*
X0268747Y0185991D03*
X0267369Y0187369D03*
X0267093Y0182959D03*
X0267369Y0176739D03*
D219*
X0268196Y0175026D03*
X0269573Y0175026D03*
X0267920Y0182743D03*
X0267093Y0191010D03*
X0277093Y0191713D03*
D220*
X0279987Y0195571D03*
X0278609Y0176555D03*
X0278058Y0176555D03*
X0269436Y0172546D03*
X0267231Y0172546D03*
D221*
X0277782Y0182894D03*
X0269436Y0187428D03*
X0267231Y0187428D03*
X0267231Y0191010D03*
X0268333Y0191286D03*
X0279436Y0191713D03*
D222*
X0279573Y0191713D03*
X0279022Y0185925D03*
X0279022Y0184547D03*
X0277644Y0182894D03*
X0269022Y0184396D03*
X0269573Y0187428D03*
X0267369Y0191010D03*
X0269298Y0176680D03*
X0270125Y0176680D03*
D223*
X0269160Y0178471D03*
X0267507Y0178471D03*
X0269711Y0180400D03*
X0268609Y0184258D03*
X0268885Y0187290D03*
X0269160Y0187290D03*
X0268058Y0187290D03*
X0267782Y0187290D03*
X0267782Y0191148D03*
X0268058Y0191148D03*
X0276955Y0187441D03*
X0277231Y0187441D03*
X0277507Y0187441D03*
X0277782Y0187441D03*
X0278058Y0187441D03*
X0278333Y0187441D03*
X0278609Y0187441D03*
X0278885Y0187441D03*
X0279160Y0187441D03*
X0279436Y0187441D03*
X0279711Y0187441D03*
X0278609Y0186063D03*
X0277231Y0183031D03*
X0279711Y0180551D03*
X0279160Y0178622D03*
X0277507Y0178622D03*
X0278885Y0191575D03*
X0279160Y0191575D03*
D224*
X0279022Y0178622D03*
X0277644Y0178622D03*
X0269022Y0178471D03*
X0267644Y0178471D03*
D225*
X0267644Y0180676D03*
X0269849Y0182329D03*
X0268747Y0189219D03*
X0268471Y0189219D03*
X0268196Y0189219D03*
X0278196Y0193504D03*
X0278471Y0193504D03*
X0278747Y0193504D03*
X0278747Y0173661D03*
X0278471Y0173661D03*
X0278196Y0173661D03*
X0277920Y0173661D03*
X0270125Y0172959D03*
D226*
X0277644Y0173524D03*
X0279022Y0173524D03*
X0278196Y0180413D03*
X0280125Y0182343D03*
X0268196Y0180262D03*
X0267644Y0193215D03*
D227*
X0267782Y0172329D03*
X0268885Y0172329D03*
X0279711Y0173189D03*
D228*
X0268747Y0172270D03*
X0268471Y0172270D03*
X0268196Y0172270D03*
X0267920Y0172270D03*
D229*
X0268058Y0172270D03*
X0268333Y0172270D03*
X0268609Y0172270D03*
D230*
X0269849Y0180341D03*
X0268471Y0184199D03*
X0268471Y0187231D03*
X0268196Y0187231D03*
X0276818Y0183091D03*
X0278471Y0184350D03*
X0278471Y0186122D03*
X0279849Y0180492D03*
X0277093Y0176752D03*
D231*
X0276955Y0183091D03*
X0278609Y0184350D03*
X0279436Y0188602D03*
X0278609Y0191516D03*
X0268609Y0187231D03*
X0268333Y0187231D03*
X0268333Y0186128D03*
X0269987Y0180341D03*
X0269711Y0176601D03*
D232*
X0268747Y0176876D03*
X0270125Y0175105D03*
X0277093Y0172618D03*
X0279022Y0182539D03*
X0268747Y0182546D03*
X0276818Y0191791D03*
D233*
X0279849Y0191713D03*
X0270125Y0193766D03*
X0278747Y0182618D03*
X0279022Y0180413D03*
X0269022Y0180262D03*
D234*
X0278885Y0182618D03*
X0269987Y0187703D03*
X0277231Y0172697D03*
D235*
X0270262Y0176345D03*
D236*
X0270400Y0176542D03*
D237*
X0270400Y0188865D03*
D238*
X0275577Y0183583D03*
X0281089Y0183583D03*
D239*
X0280951Y0183642D03*
X0275715Y0183642D03*
D240*
X0275853Y0183720D03*
X0280814Y0183720D03*
D241*
X0280676Y0183780D03*
X0275991Y0183780D03*
D242*
X0276129Y0183858D03*
X0280538Y0183858D03*
D243*
X0276266Y0183917D03*
D244*
X0276404Y0189705D03*
D245*
X0276542Y0174272D03*
D246*
X0276542Y0186339D03*
D247*
X0276542Y0195217D03*
D248*
X0276818Y0195571D03*
X0278747Y0176555D03*
D249*
X0279573Y0173248D03*
D250*
X0279849Y0173110D03*
D251*
X0279987Y0173051D03*
D252*
X0280262Y0175945D03*
D253*
X0280400Y0188957D03*
D254*
X0241325Y0089768D03*
X0235341Y0089768D03*
D255*
X0236129Y0090319D03*
X0240538Y0090319D03*
D256*
X0239121Y0095516D03*
X0238963Y0095516D03*
X0238806Y0095516D03*
X0238648Y0095516D03*
X0238491Y0095516D03*
X0238333Y0095516D03*
X0238176Y0095516D03*
X0238018Y0095516D03*
X0237861Y0095516D03*
X0237703Y0095516D03*
X0237546Y0095516D03*
M02*
