G75*
%MOIN*%
%OFA0B0*%
%FSLAX25Y25*%
%IPPOS*%
%LPD*%
%AMOC8*
5,1,8,0,0,1.08239X$1,22.5*
%
%ADD10C,0.00600*%
%ADD11C,0.01000*%
%ADD12R,0.02500X0.05000*%
%ADD13C,0.02500*%
%ADD14C,0.07400*%
%ADD15C,0.03937*%
%ADD16C,0.02000*%
%ADD17C,0.02200*%
%ADD18C,0.03000*%
%ADD19C,0.02378*%
%ADD20C,0.00669*%
%ADD21C,0.00300*%
D10*
X0182333Y0132900D02*
X0184333Y0130900D01*
X0182333Y0132900D02*
X0182333Y0154900D01*
X0201133Y0173700D01*
X0216133Y0173700D01*
X0219433Y0177000D01*
X0250333Y0177000D01*
X0268333Y0195000D01*
X0268333Y0199900D01*
X0275733Y0199900D02*
X0251333Y0175500D01*
X0219933Y0175500D01*
X0216885Y0172451D01*
X0201582Y0172451D01*
X0184333Y0155203D01*
X0184333Y0136900D01*
X0185333Y0135900D01*
X0178333Y0148900D02*
X0178333Y0152597D01*
X0200936Y0175200D01*
X0215533Y0175200D01*
X0218833Y0178500D01*
X0249033Y0178500D01*
X0258333Y0187800D01*
X0258333Y0187900D01*
X0258333Y0199900D01*
X0253333Y0189900D02*
X0253333Y0184900D01*
X0248433Y0180000D01*
X0218238Y0180000D01*
X0215038Y0176800D01*
X0200633Y0176800D01*
X0176333Y0152500D01*
X0176333Y0151394D01*
X0176239Y0151300D01*
X0186533Y0154600D02*
X0186533Y0155706D01*
X0201979Y0171151D01*
X0254282Y0171151D01*
X0260030Y0176900D01*
X0289833Y0176900D01*
X0304833Y0161900D01*
X0304833Y0134900D01*
X0298833Y0128900D01*
X0270833Y0128900D01*
X0272603Y0130100D02*
X0271703Y0131000D01*
X0269963Y0131000D01*
X0267897Y0128933D01*
X0267833Y0128933D01*
X0272603Y0130100D02*
X0298033Y0130100D01*
X0303333Y0135400D01*
X0303333Y0161703D01*
X0289336Y0175700D01*
X0260527Y0175700D01*
X0254479Y0169651D01*
X0202676Y0169651D01*
X0198629Y0165604D01*
X0198629Y0158004D01*
X0201433Y0155200D01*
X0201933Y0155200D01*
X0177333Y0163900D02*
X0177333Y0166000D01*
X0170833Y0172500D01*
X0169833Y0172500D01*
X0169333Y0167000D02*
X0163833Y0172500D01*
X0163333Y0172500D01*
X0169333Y0167000D02*
X0169333Y0163900D01*
X0178833Y0174400D02*
X0192133Y0187700D01*
X0275733Y0199900D02*
X0278333Y0199900D01*
X0298333Y0153900D02*
X0298333Y0140869D01*
X0296133Y0122000D02*
X0293433Y0122000D01*
X0293333Y0121900D01*
X0289333Y0121900D02*
X0288433Y0121000D01*
X0273833Y0121000D01*
X0266833Y0118400D02*
X0266733Y0118300D01*
X0266733Y0113900D01*
X0266333Y0109500D02*
X0266333Y0094500D01*
X0261333Y0089500D01*
X0261833Y0088000D02*
X0268333Y0094500D01*
X0268333Y0105000D01*
X0264333Y0095000D02*
X0260333Y0091000D01*
X0224833Y0091000D01*
X0238333Y0083500D02*
X0242833Y0088000D01*
X0261833Y0088000D01*
X0259161Y0092500D02*
X0260197Y0093536D01*
X0262333Y0095673D01*
X0262333Y0119900D01*
X0283333Y0114900D02*
X0287233Y0114900D01*
X0289333Y0112800D01*
X0293333Y0112800D02*
X0302433Y0112800D01*
X0303333Y0111900D01*
X0280262Y0094171D02*
X0279162Y0093071D01*
X0274362Y0093071D01*
X0274333Y0093100D01*
X0285557Y0081703D02*
X0285557Y0078300D01*
X0284423Y0078300D02*
X0286692Y0078300D01*
X0288106Y0078867D02*
X0288106Y0081136D01*
X0290375Y0078867D01*
X0289808Y0078300D01*
X0288673Y0078300D01*
X0288106Y0078867D01*
X0286692Y0080569D02*
X0285557Y0081703D01*
X0288106Y0081136D02*
X0288673Y0081703D01*
X0289808Y0081703D01*
X0290375Y0081136D01*
X0290375Y0078867D01*
X0291789Y0080569D02*
X0292924Y0078300D01*
X0294058Y0080569D01*
X0238333Y0080000D02*
X0238333Y0083500D01*
D11*
X0155033Y0088624D02*
X0155033Y0191276D01*
X0156333Y0189026D01*
X0158764Y0186986D01*
X0161746Y0185900D01*
X0164920Y0185900D01*
X0167903Y0186986D01*
X0170334Y0189026D01*
X0171921Y0191774D01*
X0171921Y0191774D01*
X0172472Y0194900D01*
X0171921Y0198026D01*
X0170334Y0200774D01*
X0170334Y0200774D01*
X0167903Y0202814D01*
X0167903Y0202814D01*
X0166843Y0203200D01*
X0174710Y0203200D01*
X0174457Y0202590D01*
X0174457Y0198928D01*
X0174955Y0197726D01*
X0175383Y0197298D01*
X0175383Y0188748D01*
X0174955Y0188319D01*
X0174457Y0187118D01*
X0174457Y0181487D01*
X0174955Y0180286D01*
X0175874Y0179366D01*
X0177075Y0178869D01*
X0178376Y0178869D01*
X0179577Y0179366D01*
X0180496Y0180286D01*
X0180813Y0181050D01*
X0183221Y0181050D01*
X0178971Y0176800D01*
X0178356Y0176800D01*
X0177474Y0176435D01*
X0176799Y0175759D01*
X0176433Y0174877D01*
X0176433Y0173923D01*
X0176799Y0173041D01*
X0177474Y0172365D01*
X0178356Y0172000D01*
X0179311Y0172000D01*
X0180193Y0172365D01*
X0180868Y0173041D01*
X0181233Y0173923D01*
X0181233Y0174537D01*
X0187746Y0181050D01*
X0208654Y0181050D01*
X0208757Y0180800D01*
X0198389Y0180800D01*
X0197042Y0179453D01*
X0179883Y0162294D01*
X0179883Y0166938D01*
X0179122Y0167700D01*
X0177896Y0167700D01*
X0171961Y0173635D01*
X0171868Y0173859D01*
X0171193Y0174535D01*
X0170311Y0174900D01*
X0169356Y0174900D01*
X0168474Y0174535D01*
X0167799Y0173859D01*
X0167433Y0172977D01*
X0167433Y0172023D01*
X0167799Y0171141D01*
X0168474Y0170465D01*
X0169356Y0170100D01*
X0170311Y0170100D01*
X0170777Y0170293D01*
X0173371Y0167700D01*
X0171545Y0167700D01*
X0171333Y0167488D01*
X0171122Y0167700D01*
X0170896Y0167700D01*
X0169996Y0168600D01*
X0165733Y0172863D01*
X0165733Y0172977D01*
X0165368Y0173859D01*
X0164693Y0174535D01*
X0163811Y0174900D01*
X0162856Y0174900D01*
X0161974Y0174535D01*
X0161299Y0173859D01*
X0160933Y0172977D01*
X0160933Y0172023D01*
X0161299Y0171141D01*
X0161974Y0170465D01*
X0162856Y0170100D01*
X0163811Y0170100D01*
X0163924Y0170147D01*
X0166958Y0167113D01*
X0166783Y0166938D01*
X0166783Y0160862D01*
X0167545Y0160100D01*
X0171033Y0160100D01*
X0171033Y0144916D01*
X0176033Y0139916D01*
X0176033Y0107947D01*
X0177381Y0106600D01*
X0183727Y0100254D01*
X0202382Y0100254D01*
X0202838Y0100065D01*
X0203828Y0100065D01*
X0204285Y0100254D01*
X0204286Y0100254D01*
X0204287Y0100255D01*
X0204743Y0100443D01*
X0205443Y0101144D01*
X0205632Y0101600D01*
X0205633Y0101601D01*
X0205633Y0101602D01*
X0205822Y0102058D01*
X0205822Y0103049D01*
X0205633Y0103505D01*
X0205633Y0103506D01*
X0205632Y0103507D01*
X0205443Y0103963D01*
X0204743Y0104664D01*
X0204287Y0104853D01*
X0204286Y0104854D01*
X0204285Y0104854D01*
X0203828Y0105043D01*
X0202838Y0105043D01*
X0202382Y0104854D01*
X0185632Y0104854D01*
X0180633Y0109853D01*
X0180633Y0140150D01*
X0180733Y0140391D01*
X0180733Y0141346D01*
X0180633Y0141587D01*
X0180633Y0141821D01*
X0180468Y0141987D01*
X0180368Y0142228D01*
X0179693Y0142903D01*
X0179451Y0143003D01*
X0179286Y0143168D01*
X0175633Y0146821D01*
X0175633Y0148953D01*
X0175762Y0148900D01*
X0175933Y0148900D01*
X0175933Y0148423D01*
X0176299Y0147541D01*
X0176974Y0146865D01*
X0177856Y0146500D01*
X0178811Y0146500D01*
X0179693Y0146865D01*
X0180368Y0147541D01*
X0180733Y0148423D01*
X0180733Y0149377D01*
X0180368Y0150259D01*
X0179933Y0150694D01*
X0179933Y0151934D01*
X0180733Y0152734D01*
X0180733Y0132237D01*
X0181671Y0131300D01*
X0181933Y0131037D01*
X0181933Y0130423D01*
X0182299Y0129541D01*
X0182974Y0128865D01*
X0183856Y0128500D01*
X0184811Y0128500D01*
X0185693Y0128865D01*
X0186368Y0129541D01*
X0186733Y0130423D01*
X0186733Y0131377D01*
X0186368Y0132259D01*
X0185693Y0132935D01*
X0184811Y0133300D01*
X0184196Y0133300D01*
X0183933Y0133563D01*
X0183933Y0133906D01*
X0183974Y0133865D01*
X0184856Y0133500D01*
X0185811Y0133500D01*
X0186693Y0133865D01*
X0187368Y0134541D01*
X0187733Y0135423D01*
X0187733Y0136377D01*
X0187368Y0137259D01*
X0186693Y0137935D01*
X0185933Y0138249D01*
X0185933Y0152251D01*
X0186056Y0152200D01*
X0187011Y0152200D01*
X0187893Y0152565D01*
X0188568Y0153241D01*
X0188933Y0154123D01*
X0188933Y0155077D01*
X0188709Y0155619D01*
X0197029Y0163939D01*
X0197029Y0157342D01*
X0199533Y0154837D01*
X0199533Y0154723D01*
X0199899Y0153841D01*
X0200574Y0153165D01*
X0201456Y0152800D01*
X0202411Y0152800D01*
X0203293Y0153165D01*
X0203968Y0153841D01*
X0204333Y0154723D01*
X0204333Y0155677D01*
X0203968Y0156559D01*
X0203293Y0157235D01*
X0202411Y0157600D01*
X0201456Y0157600D01*
X0201343Y0157553D01*
X0200229Y0158667D01*
X0200229Y0164942D01*
X0203339Y0168051D01*
X0255142Y0168051D01*
X0256079Y0168989D01*
X0261190Y0174100D01*
X0288674Y0174100D01*
X0301733Y0161040D01*
X0301733Y0136063D01*
X0297371Y0131700D01*
X0273266Y0131700D01*
X0272366Y0132600D01*
X0269301Y0132600D01*
X0268363Y0131663D01*
X0268363Y0131663D01*
X0268034Y0131333D01*
X0267356Y0131333D01*
X0266474Y0130968D01*
X0265799Y0130293D01*
X0265433Y0129410D01*
X0265433Y0128456D01*
X0265799Y0127574D01*
X0266474Y0126898D01*
X0267356Y0126533D01*
X0268311Y0126533D01*
X0269193Y0126898D01*
X0269317Y0127022D01*
X0269474Y0126865D01*
X0270356Y0126500D01*
X0271311Y0126500D01*
X0272193Y0126865D01*
X0272627Y0127300D01*
X0299496Y0127300D01*
X0305496Y0133300D01*
X0306433Y0134237D01*
X0306433Y0162563D01*
X0291433Y0177563D01*
X0290496Y0178500D01*
X0259368Y0178500D01*
X0258430Y0177563D01*
X0253619Y0172751D01*
X0219447Y0172751D01*
X0220596Y0173900D01*
X0251996Y0173900D01*
X0252933Y0174837D01*
X0274629Y0196533D01*
X0275501Y0195661D01*
X0277339Y0194900D01*
X0279328Y0194900D01*
X0281166Y0195661D01*
X0282572Y0197068D01*
X0283333Y0198905D01*
X0283333Y0200895D01*
X0282572Y0202732D01*
X0282104Y0203200D01*
X0284562Y0203200D01*
X0284095Y0202732D01*
X0283333Y0200895D01*
X0283333Y0198905D01*
X0284095Y0197068D01*
X0285501Y0195661D01*
X0287339Y0194900D01*
X0289328Y0194900D01*
X0291166Y0195661D01*
X0292572Y0197068D01*
X0293333Y0198905D01*
X0293333Y0200895D01*
X0292572Y0202732D01*
X0292104Y0203200D01*
X0299823Y0203200D01*
X0298764Y0202814D01*
X0296333Y0200774D01*
X0296333Y0200774D01*
X0294746Y0198026D01*
X0294746Y0198026D01*
X0294194Y0194900D01*
X0294746Y0191774D01*
X0296333Y0189026D01*
X0296333Y0189026D01*
X0298764Y0186986D01*
X0301746Y0185900D01*
X0304920Y0185900D01*
X0307903Y0186986D01*
X0310334Y0189026D01*
X0311633Y0191276D01*
X0311633Y0088624D01*
X0310334Y0090874D01*
X0310334Y0090874D01*
X0307903Y0092914D01*
X0307903Y0092914D01*
X0304920Y0094000D01*
X0301746Y0094000D01*
X0298764Y0092914D01*
X0296333Y0090874D01*
X0296333Y0090874D01*
X0294746Y0088126D01*
X0294746Y0088126D01*
X0294194Y0085000D01*
X0294719Y0082027D01*
X0294181Y0082296D01*
X0292924Y0081877D01*
X0291667Y0082296D01*
X0291540Y0082233D01*
X0291408Y0082366D01*
X0290470Y0083303D01*
X0288011Y0083303D01*
X0287444Y0082736D01*
X0287444Y0082736D01*
X0287115Y0082408D01*
X0286220Y0083303D01*
X0284895Y0083303D01*
X0283957Y0082366D01*
X0283957Y0079900D01*
X0283760Y0079900D01*
X0283333Y0079473D01*
X0283333Y0080995D01*
X0282572Y0082832D01*
X0281166Y0084239D01*
X0279328Y0085000D01*
X0277339Y0085000D01*
X0275501Y0084239D01*
X0274095Y0082832D01*
X0273333Y0080995D01*
X0272572Y0082832D01*
X0271166Y0084239D01*
X0269328Y0085000D01*
X0267339Y0085000D01*
X0265501Y0084239D01*
X0264095Y0082832D01*
X0263333Y0080995D01*
X0262572Y0082832D01*
X0261166Y0084239D01*
X0259328Y0085000D01*
X0257339Y0085000D01*
X0255501Y0084239D01*
X0254095Y0082832D01*
X0253411Y0081182D01*
X0253405Y0081218D01*
X0253152Y0081996D01*
X0252781Y0082725D01*
X0252300Y0083388D01*
X0251721Y0083966D01*
X0251059Y0084447D01*
X0250329Y0084819D01*
X0249551Y0085072D01*
X0248833Y0085186D01*
X0248833Y0080500D01*
X0247833Y0080500D01*
X0247833Y0085186D01*
X0247116Y0085072D01*
X0246337Y0084819D01*
X0245608Y0084447D01*
X0244946Y0083966D01*
X0244367Y0083388D01*
X0243886Y0082725D01*
X0243514Y0081996D01*
X0243261Y0081218D01*
X0243256Y0081182D01*
X0242572Y0082832D01*
X0241250Y0084154D01*
X0243496Y0086400D01*
X0262496Y0086400D01*
X0269933Y0093837D01*
X0269933Y0096366D01*
X0270576Y0096100D01*
X0271690Y0096100D01*
X0272719Y0096526D01*
X0273507Y0097314D01*
X0273933Y0098343D01*
X0273933Y0099457D01*
X0273633Y0100181D01*
X0273633Y0106447D01*
X0276077Y0108891D01*
X0276133Y0108947D01*
X0276133Y0119400D01*
X0286783Y0119400D01*
X0286783Y0118862D01*
X0287545Y0118100D01*
X0291122Y0118100D01*
X0291333Y0118312D01*
X0291545Y0118100D01*
X0295122Y0118100D01*
X0295883Y0118862D01*
X0295883Y0119600D01*
X0296611Y0119600D01*
X0297493Y0119965D01*
X0298168Y0120641D01*
X0298533Y0121523D01*
X0298533Y0122477D01*
X0298168Y0123359D01*
X0297493Y0124035D01*
X0296611Y0124400D01*
X0295883Y0124400D01*
X0295883Y0124938D01*
X0295122Y0125700D01*
X0291545Y0125700D01*
X0291333Y0125488D01*
X0291122Y0125700D01*
X0287545Y0125700D01*
X0286783Y0124938D01*
X0286783Y0122600D01*
X0276133Y0122600D01*
X0276133Y0122753D01*
X0275968Y0122918D01*
X0275868Y0123159D01*
X0275193Y0123835D01*
X0274951Y0123935D01*
X0274786Y0124100D01*
X0274552Y0124100D01*
X0274311Y0124200D01*
X0273356Y0124200D01*
X0273115Y0124100D01*
X0272881Y0124100D01*
X0272715Y0123935D01*
X0272474Y0123835D01*
X0271799Y0123159D01*
X0271699Y0122918D01*
X0271533Y0122753D01*
X0271533Y0122519D01*
X0271433Y0122277D01*
X0271433Y0121323D01*
X0271533Y0121081D01*
X0271533Y0117859D01*
X0271381Y0117900D01*
X0270058Y0117900D01*
X0270058Y0114025D01*
X0269808Y0114025D01*
X0269808Y0117900D01*
X0269224Y0117900D01*
X0269233Y0117923D01*
X0269233Y0118877D01*
X0268868Y0119759D01*
X0268193Y0120435D01*
X0267311Y0120800D01*
X0266356Y0120800D01*
X0265968Y0120639D01*
X0265968Y0121177D01*
X0263968Y0123177D01*
X0263968Y0145177D01*
X0263233Y0145912D01*
X0263233Y0146477D01*
X0262868Y0147359D01*
X0262193Y0148035D01*
X0261311Y0148400D01*
X0260356Y0148400D01*
X0259474Y0148035D01*
X0258799Y0147359D01*
X0258433Y0146477D01*
X0258433Y0145523D01*
X0258799Y0144641D01*
X0259474Y0143965D01*
X0260356Y0143600D01*
X0260699Y0143600D01*
X0260699Y0121823D01*
X0260780Y0121741D01*
X0260299Y0121259D01*
X0259933Y0120377D01*
X0259933Y0119423D01*
X0260299Y0118541D01*
X0260733Y0118106D01*
X0260733Y0096336D01*
X0260334Y0095936D01*
X0259720Y0095936D01*
X0258837Y0095571D01*
X0258162Y0094896D01*
X0257847Y0094135D01*
X0220156Y0094135D01*
X0219199Y0093177D01*
X0210526Y0084504D01*
X0209328Y0085000D01*
X0207339Y0085000D01*
X0205501Y0084239D01*
X0204095Y0082832D01*
X0203333Y0080995D01*
X0203333Y0079005D01*
X0204095Y0077168D01*
X0204562Y0076700D01*
X0166843Y0076700D01*
X0167903Y0077086D01*
X0170334Y0079126D01*
X0171921Y0081874D01*
X0171921Y0081874D01*
X0172472Y0085000D01*
X0171921Y0088126D01*
X0170334Y0090874D01*
X0170334Y0090874D01*
X0167903Y0092914D01*
X0167903Y0092914D01*
X0164920Y0094000D01*
X0161746Y0094000D01*
X0158764Y0092914D01*
X0156333Y0090874D01*
X0156333Y0090874D01*
X0155033Y0088624D01*
X0155033Y0088979D02*
X0155238Y0088979D01*
X0155033Y0089978D02*
X0155815Y0089978D01*
X0156333Y0090874D02*
X0156333Y0090874D01*
X0156454Y0090976D02*
X0155033Y0090976D01*
X0155033Y0091975D02*
X0157644Y0091975D01*
X0158764Y0092914D02*
X0158764Y0092914D01*
X0158925Y0092973D02*
X0155033Y0092973D01*
X0155033Y0093972D02*
X0161669Y0093972D01*
X0164998Y0093972D02*
X0219993Y0093972D01*
X0218995Y0092973D02*
X0167741Y0092973D01*
X0169023Y0091975D02*
X0217996Y0091975D01*
X0216998Y0090976D02*
X0170213Y0090976D01*
X0170852Y0089978D02*
X0215999Y0089978D01*
X0215001Y0088979D02*
X0171428Y0088979D01*
X0171921Y0088126D02*
X0171921Y0088126D01*
X0171947Y0087981D02*
X0214002Y0087981D01*
X0213004Y0086982D02*
X0172123Y0086982D01*
X0172299Y0085984D02*
X0212005Y0085984D01*
X0211007Y0084985D02*
X0209364Y0084985D01*
X0207303Y0084985D02*
X0172470Y0084985D01*
X0172472Y0085000D02*
X0172472Y0085000D01*
X0172293Y0083987D02*
X0205249Y0083987D01*
X0204250Y0082988D02*
X0172117Y0082988D01*
X0171941Y0081990D02*
X0203745Y0081990D01*
X0203333Y0080991D02*
X0171411Y0080991D01*
X0170835Y0079993D02*
X0203333Y0079993D01*
X0203338Y0078994D02*
X0170177Y0078994D01*
X0170334Y0079126D02*
X0170334Y0079126D01*
X0170334Y0079126D01*
X0168987Y0077996D02*
X0203752Y0077996D01*
X0204265Y0076997D02*
X0167660Y0076997D01*
X0167903Y0077086D02*
X0167903Y0077086D01*
X0155033Y0094970D02*
X0258237Y0094970D01*
X0260367Y0095969D02*
X0155033Y0095969D01*
X0155033Y0096967D02*
X0260733Y0096967D01*
X0260733Y0097966D02*
X0155033Y0097966D01*
X0155033Y0098964D02*
X0260733Y0098964D01*
X0260733Y0099963D02*
X0155033Y0099963D01*
X0155033Y0100961D02*
X0183019Y0100961D01*
X0182021Y0101960D02*
X0155033Y0101960D01*
X0155033Y0102958D02*
X0181022Y0102958D01*
X0180024Y0103957D02*
X0155033Y0103957D01*
X0155033Y0104955D02*
X0179025Y0104955D01*
X0178027Y0105954D02*
X0155033Y0105954D01*
X0155033Y0106952D02*
X0177028Y0106952D01*
X0177381Y0106600D02*
X0177381Y0106600D01*
X0176033Y0107951D02*
X0155033Y0107951D01*
X0155033Y0108949D02*
X0176033Y0108949D01*
X0176033Y0109948D02*
X0155033Y0109948D01*
X0155033Y0110946D02*
X0176033Y0110946D01*
X0176033Y0111945D02*
X0155033Y0111945D01*
X0155033Y0112943D02*
X0176033Y0112943D01*
X0176033Y0113942D02*
X0155033Y0113942D01*
X0155033Y0114940D02*
X0176033Y0114940D01*
X0176033Y0115939D02*
X0155033Y0115939D01*
X0155033Y0116937D02*
X0176033Y0116937D01*
X0176033Y0117936D02*
X0155033Y0117936D01*
X0155033Y0118934D02*
X0176033Y0118934D01*
X0176033Y0119933D02*
X0155033Y0119933D01*
X0155033Y0120932D02*
X0176033Y0120932D01*
X0176033Y0121930D02*
X0155033Y0121930D01*
X0155033Y0122929D02*
X0176033Y0122929D01*
X0176033Y0123927D02*
X0155033Y0123927D01*
X0155033Y0124926D02*
X0176033Y0124926D01*
X0176033Y0125924D02*
X0155033Y0125924D01*
X0155033Y0126923D02*
X0176033Y0126923D01*
X0176033Y0127921D02*
X0155033Y0127921D01*
X0155033Y0128920D02*
X0176033Y0128920D01*
X0176033Y0129918D02*
X0155033Y0129918D01*
X0155033Y0130917D02*
X0176033Y0130917D01*
X0176033Y0131915D02*
X0155033Y0131915D01*
X0155033Y0132914D02*
X0176033Y0132914D01*
X0176033Y0133912D02*
X0155033Y0133912D01*
X0155033Y0134911D02*
X0176033Y0134911D01*
X0176033Y0135909D02*
X0155033Y0135909D01*
X0155033Y0136908D02*
X0176033Y0136908D01*
X0176033Y0137906D02*
X0155033Y0137906D01*
X0155033Y0138905D02*
X0176033Y0138905D01*
X0176033Y0139903D02*
X0155033Y0139903D01*
X0155033Y0140902D02*
X0175047Y0140902D01*
X0174049Y0141900D02*
X0155033Y0141900D01*
X0155033Y0142899D02*
X0173050Y0142899D01*
X0172052Y0143897D02*
X0155033Y0143897D01*
X0155033Y0144896D02*
X0171053Y0144896D01*
X0171033Y0145894D02*
X0155033Y0145894D01*
X0155033Y0146893D02*
X0171033Y0146893D01*
X0171033Y0147891D02*
X0155033Y0147891D01*
X0155033Y0148890D02*
X0171033Y0148890D01*
X0171033Y0149888D02*
X0155033Y0149888D01*
X0155033Y0150887D02*
X0171033Y0150887D01*
X0171033Y0151885D02*
X0155033Y0151885D01*
X0155033Y0152884D02*
X0171033Y0152884D01*
X0171033Y0153882D02*
X0155033Y0153882D01*
X0155033Y0154881D02*
X0171033Y0154881D01*
X0171033Y0155879D02*
X0155033Y0155879D01*
X0155033Y0156878D02*
X0171033Y0156878D01*
X0171033Y0157876D02*
X0155033Y0157876D01*
X0155033Y0158875D02*
X0171033Y0158875D01*
X0171033Y0159873D02*
X0155033Y0159873D01*
X0155033Y0160872D02*
X0166783Y0160872D01*
X0166783Y0161870D02*
X0155033Y0161870D01*
X0155033Y0162869D02*
X0166783Y0162869D01*
X0166783Y0163868D02*
X0155033Y0163868D01*
X0155033Y0164866D02*
X0166783Y0164866D01*
X0166783Y0165865D02*
X0155033Y0165865D01*
X0155033Y0166863D02*
X0166783Y0166863D01*
X0166209Y0167862D02*
X0155033Y0167862D01*
X0155033Y0168860D02*
X0165211Y0168860D01*
X0164212Y0169859D02*
X0155033Y0169859D01*
X0155033Y0170857D02*
X0161582Y0170857D01*
X0161002Y0171856D02*
X0155033Y0171856D01*
X0155033Y0172854D02*
X0160933Y0172854D01*
X0161296Y0173853D02*
X0155033Y0173853D01*
X0155033Y0174851D02*
X0162738Y0174851D01*
X0163929Y0174851D02*
X0169238Y0174851D01*
X0170429Y0174851D02*
X0176433Y0174851D01*
X0176462Y0173853D02*
X0171871Y0173853D01*
X0172742Y0172854D02*
X0176985Y0172854D01*
X0176889Y0175850D02*
X0155033Y0175850D01*
X0155033Y0176848D02*
X0179019Y0176848D01*
X0180017Y0177847D02*
X0155033Y0177847D01*
X0155033Y0178845D02*
X0181016Y0178845D01*
X0180054Y0179844D02*
X0182014Y0179844D01*
X0183013Y0180842D02*
X0180727Y0180842D01*
X0184543Y0177847D02*
X0195436Y0177847D01*
X0196435Y0178845D02*
X0185541Y0178845D01*
X0186540Y0179844D02*
X0197433Y0179844D01*
X0194438Y0176848D02*
X0183544Y0176848D01*
X0182546Y0175850D02*
X0193439Y0175850D01*
X0192441Y0174851D02*
X0181547Y0174851D01*
X0181204Y0173853D02*
X0191442Y0173853D01*
X0190444Y0172854D02*
X0180682Y0172854D01*
X0175737Y0169859D02*
X0187448Y0169859D01*
X0188447Y0170857D02*
X0174739Y0170857D01*
X0173740Y0171856D02*
X0189445Y0171856D01*
X0186450Y0168860D02*
X0176736Y0168860D01*
X0177734Y0167862D02*
X0185451Y0167862D01*
X0184452Y0166863D02*
X0179883Y0166863D01*
X0179883Y0165865D02*
X0183454Y0165865D01*
X0182455Y0164866D02*
X0179883Y0164866D01*
X0179883Y0163868D02*
X0181457Y0163868D01*
X0180458Y0162869D02*
X0179883Y0162869D01*
X0177333Y0163900D02*
X0173333Y0163900D01*
X0169333Y0163900D01*
X0170734Y0167862D02*
X0173209Y0167862D01*
X0172211Y0168860D02*
X0169736Y0168860D01*
X0168737Y0169859D02*
X0171212Y0169859D01*
X0168082Y0170857D02*
X0167739Y0170857D01*
X0167502Y0171856D02*
X0166740Y0171856D01*
X0167433Y0172854D02*
X0165742Y0172854D01*
X0165371Y0173853D02*
X0167796Y0173853D01*
X0175396Y0179844D02*
X0155033Y0179844D01*
X0155033Y0180842D02*
X0174724Y0180842D01*
X0174457Y0181841D02*
X0155033Y0181841D01*
X0155033Y0182839D02*
X0174457Y0182839D01*
X0174457Y0183838D02*
X0155033Y0183838D01*
X0155033Y0184836D02*
X0174457Y0184836D01*
X0174457Y0185835D02*
X0155033Y0185835D01*
X0155033Y0186833D02*
X0159182Y0186833D01*
X0158764Y0186986D02*
X0158764Y0186986D01*
X0157755Y0187832D02*
X0155033Y0187832D01*
X0155033Y0188830D02*
X0156565Y0188830D01*
X0155869Y0189829D02*
X0155033Y0189829D01*
X0155033Y0190827D02*
X0155292Y0190827D01*
X0167484Y0186833D02*
X0174457Y0186833D01*
X0174753Y0187832D02*
X0168911Y0187832D01*
X0167903Y0186986D02*
X0167903Y0186986D01*
X0170101Y0188830D02*
X0175383Y0188830D01*
X0175383Y0189829D02*
X0170798Y0189829D01*
X0170334Y0189026D02*
X0170334Y0189026D01*
X0170334Y0189026D01*
X0171374Y0190827D02*
X0175383Y0190827D01*
X0175383Y0191826D02*
X0171930Y0191826D01*
X0172106Y0192824D02*
X0175383Y0192824D01*
X0175383Y0193823D02*
X0172282Y0193823D01*
X0172458Y0194821D02*
X0175383Y0194821D01*
X0175383Y0195820D02*
X0172310Y0195820D01*
X0172472Y0194900D02*
X0172472Y0194900D01*
X0172134Y0196818D02*
X0175383Y0196818D01*
X0174917Y0197817D02*
X0171958Y0197817D01*
X0171921Y0198026D02*
X0171921Y0198026D01*
X0171465Y0198815D02*
X0174503Y0198815D01*
X0174457Y0199814D02*
X0170889Y0199814D01*
X0170289Y0200812D02*
X0174457Y0200812D01*
X0174457Y0201811D02*
X0169099Y0201811D01*
X0167909Y0202809D02*
X0174548Y0202809D01*
X0187538Y0180842D02*
X0208740Y0180842D01*
X0215010Y0182929D02*
X0215010Y0187118D01*
X0214512Y0188319D01*
X0213783Y0189048D01*
X0213783Y0196998D01*
X0214512Y0197726D01*
X0215010Y0198928D01*
X0215010Y0202590D01*
X0214757Y0203200D01*
X0224303Y0203200D01*
X0223886Y0202625D01*
X0223514Y0201896D01*
X0223261Y0201118D01*
X0223148Y0200400D01*
X0227833Y0200400D01*
X0227833Y0199400D01*
X0223148Y0199400D01*
X0223261Y0198682D01*
X0223514Y0197904D01*
X0223886Y0197175D01*
X0224367Y0196512D01*
X0224946Y0195934D01*
X0225608Y0195453D01*
X0226337Y0195081D01*
X0227116Y0194828D01*
X0227833Y0194714D01*
X0227833Y0199400D01*
X0228833Y0199400D01*
X0228833Y0194714D01*
X0229551Y0194828D01*
X0230329Y0195081D01*
X0231059Y0195453D01*
X0231721Y0195934D01*
X0232300Y0196512D01*
X0232781Y0197175D01*
X0233152Y0197904D01*
X0233405Y0198682D01*
X0233411Y0198718D01*
X0234095Y0197068D01*
X0235501Y0195661D01*
X0237339Y0194900D01*
X0239328Y0194900D01*
X0241166Y0195661D01*
X0242572Y0197068D01*
X0243333Y0198905D01*
X0243333Y0200895D01*
X0242572Y0202732D01*
X0242104Y0203200D01*
X0244562Y0203200D01*
X0244095Y0202732D01*
X0243333Y0200895D01*
X0243333Y0198905D01*
X0244095Y0197068D01*
X0245501Y0195661D01*
X0246033Y0195441D01*
X0246033Y0186453D01*
X0243781Y0184200D01*
X0221552Y0184200D01*
X0221311Y0184300D01*
X0220356Y0184300D01*
X0220115Y0184200D01*
X0216281Y0184200D01*
X0215010Y0182929D01*
X0215010Y0183838D02*
X0215918Y0183838D01*
X0215010Y0184836D02*
X0244417Y0184836D01*
X0245415Y0185835D02*
X0215010Y0185835D01*
X0215010Y0186833D02*
X0246033Y0186833D01*
X0246033Y0187832D02*
X0214714Y0187832D01*
X0214001Y0188830D02*
X0246033Y0188830D01*
X0246033Y0189829D02*
X0213783Y0189829D01*
X0213783Y0190827D02*
X0246033Y0190827D01*
X0246033Y0191826D02*
X0213783Y0191826D01*
X0213783Y0192824D02*
X0246033Y0192824D01*
X0246033Y0193823D02*
X0213783Y0193823D01*
X0213783Y0194821D02*
X0227158Y0194821D01*
X0227833Y0194821D02*
X0228833Y0194821D01*
X0229509Y0194821D02*
X0246033Y0194821D01*
X0245342Y0195820D02*
X0241324Y0195820D01*
X0242323Y0196818D02*
X0244344Y0196818D01*
X0243784Y0197817D02*
X0242882Y0197817D01*
X0243296Y0198815D02*
X0243371Y0198815D01*
X0243333Y0199814D02*
X0243333Y0199814D01*
X0243333Y0200812D02*
X0243333Y0200812D01*
X0242954Y0201811D02*
X0243713Y0201811D01*
X0244172Y0202809D02*
X0242495Y0202809D01*
X0233784Y0197817D02*
X0233108Y0197817D01*
X0232522Y0196818D02*
X0234344Y0196818D01*
X0235342Y0195820D02*
X0231564Y0195820D01*
X0228833Y0195820D02*
X0227833Y0195820D01*
X0227833Y0196818D02*
X0228833Y0196818D01*
X0228833Y0197817D02*
X0227833Y0197817D01*
X0227833Y0198815D02*
X0228833Y0198815D01*
X0227833Y0199814D02*
X0215010Y0199814D01*
X0215010Y0200812D02*
X0223213Y0200812D01*
X0223487Y0201811D02*
X0215010Y0201811D01*
X0214919Y0202809D02*
X0224020Y0202809D01*
X0223240Y0198815D02*
X0214963Y0198815D01*
X0214550Y0197817D02*
X0223559Y0197817D01*
X0224145Y0196818D02*
X0213783Y0196818D01*
X0213783Y0195820D02*
X0225102Y0195820D01*
X0253946Y0175850D02*
X0256717Y0175850D01*
X0257716Y0176848D02*
X0254944Y0176848D01*
X0255943Y0177847D02*
X0258714Y0177847D01*
X0256941Y0178845D02*
X0311633Y0178845D01*
X0311633Y0177847D02*
X0291149Y0177847D01*
X0292148Y0176848D02*
X0311633Y0176848D01*
X0311633Y0175850D02*
X0293146Y0175850D01*
X0294145Y0174851D02*
X0311633Y0174851D01*
X0311633Y0173853D02*
X0295143Y0173853D01*
X0296142Y0172854D02*
X0311633Y0172854D01*
X0311633Y0171856D02*
X0297140Y0171856D01*
X0298139Y0170857D02*
X0311633Y0170857D01*
X0311633Y0169859D02*
X0299137Y0169859D01*
X0300136Y0168860D02*
X0311633Y0168860D01*
X0311633Y0167862D02*
X0301134Y0167862D01*
X0302133Y0166863D02*
X0311633Y0166863D01*
X0311633Y0165865D02*
X0303132Y0165865D01*
X0304130Y0164866D02*
X0311633Y0164866D01*
X0311633Y0163868D02*
X0305129Y0163868D01*
X0306127Y0162869D02*
X0311633Y0162869D01*
X0311633Y0161870D02*
X0306433Y0161870D01*
X0306433Y0160872D02*
X0311633Y0160872D01*
X0311633Y0159873D02*
X0306433Y0159873D01*
X0306433Y0158875D02*
X0311633Y0158875D01*
X0311633Y0157876D02*
X0306433Y0157876D01*
X0306433Y0156878D02*
X0311633Y0156878D01*
X0311633Y0155879D02*
X0306433Y0155879D01*
X0306433Y0154881D02*
X0311633Y0154881D01*
X0311633Y0153882D02*
X0306433Y0153882D01*
X0306433Y0152884D02*
X0311633Y0152884D01*
X0311633Y0151885D02*
X0306433Y0151885D01*
X0306433Y0150887D02*
X0311633Y0150887D01*
X0311633Y0149888D02*
X0306433Y0149888D01*
X0306433Y0148890D02*
X0311633Y0148890D01*
X0311633Y0147891D02*
X0306433Y0147891D01*
X0306433Y0146893D02*
X0311633Y0146893D01*
X0311633Y0145894D02*
X0306433Y0145894D01*
X0306433Y0144896D02*
X0311633Y0144896D01*
X0311633Y0143897D02*
X0306433Y0143897D01*
X0306433Y0142899D02*
X0311633Y0142899D01*
X0311633Y0141900D02*
X0306433Y0141900D01*
X0306433Y0140902D02*
X0311633Y0140902D01*
X0311633Y0139903D02*
X0306433Y0139903D01*
X0306433Y0138905D02*
X0311633Y0138905D01*
X0311633Y0137906D02*
X0306433Y0137906D01*
X0306433Y0136908D02*
X0311633Y0136908D01*
X0311633Y0135909D02*
X0306433Y0135909D01*
X0306433Y0134911D02*
X0311633Y0134911D01*
X0311633Y0133912D02*
X0306108Y0133912D01*
X0305110Y0132914D02*
X0311633Y0132914D01*
X0311633Y0131915D02*
X0304111Y0131915D01*
X0303113Y0130917D02*
X0311633Y0130917D01*
X0311633Y0129918D02*
X0302114Y0129918D01*
X0301116Y0128920D02*
X0311633Y0128920D01*
X0311633Y0127921D02*
X0300117Y0127921D01*
X0297586Y0131915D02*
X0273051Y0131915D01*
X0271052Y0134600D02*
X0270811Y0134500D01*
X0269856Y0134500D01*
X0269615Y0134600D01*
X0269381Y0134600D01*
X0269215Y0134765D01*
X0268974Y0134865D01*
X0268299Y0135541D01*
X0268199Y0135782D01*
X0268033Y0135947D01*
X0268033Y0136181D01*
X0267933Y0136423D01*
X0267933Y0137377D01*
X0268033Y0137619D01*
X0268033Y0137853D01*
X0268199Y0138018D01*
X0268299Y0138259D01*
X0268974Y0138935D01*
X0269215Y0139035D01*
X0269381Y0139200D01*
X0269615Y0139200D01*
X0269856Y0139300D01*
X0270811Y0139300D01*
X0271052Y0139200D01*
X0296608Y0139200D01*
X0296299Y0139509D01*
X0295933Y0140391D01*
X0295933Y0141346D01*
X0296299Y0142228D01*
X0296733Y0142663D01*
X0296733Y0152106D01*
X0296299Y0152541D01*
X0295933Y0153423D01*
X0295933Y0154377D01*
X0296299Y0155259D01*
X0296974Y0155935D01*
X0297856Y0156300D01*
X0298811Y0156300D01*
X0299693Y0155935D01*
X0300368Y0155259D01*
X0300733Y0154377D01*
X0300733Y0153423D01*
X0300368Y0152541D01*
X0299933Y0152106D01*
X0299933Y0142663D01*
X0300368Y0142228D01*
X0300733Y0141346D01*
X0300733Y0140391D01*
X0300368Y0139509D01*
X0299743Y0138884D01*
X0300368Y0138259D01*
X0300468Y0138018D01*
X0300633Y0137853D01*
X0300633Y0137619D01*
X0300733Y0137377D01*
X0300733Y0136423D01*
X0300633Y0136181D01*
X0300633Y0135947D01*
X0300468Y0135782D01*
X0300368Y0135541D01*
X0299693Y0134865D01*
X0299451Y0134765D01*
X0299286Y0134600D01*
X0299052Y0134600D01*
X0298811Y0134500D01*
X0297856Y0134500D01*
X0297615Y0134600D01*
X0271052Y0134600D01*
X0268929Y0134911D02*
X0263968Y0134911D01*
X0263968Y0135909D02*
X0268071Y0135909D01*
X0267933Y0136908D02*
X0263968Y0136908D01*
X0263968Y0137906D02*
X0268087Y0137906D01*
X0268944Y0138905D02*
X0263968Y0138905D01*
X0263968Y0139903D02*
X0296135Y0139903D01*
X0295933Y0140902D02*
X0263968Y0140902D01*
X0263968Y0141900D02*
X0296163Y0141900D01*
X0296733Y0142899D02*
X0263968Y0142899D01*
X0263968Y0143897D02*
X0296733Y0143897D01*
X0296733Y0144896D02*
X0263968Y0144896D01*
X0263251Y0145894D02*
X0296733Y0145894D01*
X0296733Y0146893D02*
X0263061Y0146893D01*
X0262336Y0147891D02*
X0296733Y0147891D01*
X0296733Y0148890D02*
X0185933Y0148890D01*
X0185933Y0149888D02*
X0296733Y0149888D01*
X0296733Y0150887D02*
X0185933Y0150887D01*
X0185933Y0151885D02*
X0296733Y0151885D01*
X0296156Y0152884D02*
X0202613Y0152884D01*
X0201253Y0152884D02*
X0188211Y0152884D01*
X0188834Y0153882D02*
X0199881Y0153882D01*
X0199490Y0154881D02*
X0188933Y0154881D01*
X0188970Y0155879D02*
X0198491Y0155879D01*
X0197493Y0156878D02*
X0189968Y0156878D01*
X0190967Y0157876D02*
X0197029Y0157876D01*
X0197029Y0158875D02*
X0191965Y0158875D01*
X0192964Y0159873D02*
X0197029Y0159873D01*
X0197029Y0160872D02*
X0193962Y0160872D01*
X0194961Y0161870D02*
X0197029Y0161870D01*
X0197029Y0162869D02*
X0195959Y0162869D01*
X0196958Y0163868D02*
X0197029Y0163868D01*
X0200229Y0163868D02*
X0298906Y0163868D01*
X0297907Y0164866D02*
X0200229Y0164866D01*
X0201152Y0165865D02*
X0296909Y0165865D01*
X0295910Y0166863D02*
X0202150Y0166863D01*
X0203149Y0167862D02*
X0294912Y0167862D01*
X0293913Y0168860D02*
X0255950Y0168860D01*
X0256949Y0169859D02*
X0292915Y0169859D01*
X0291916Y0170857D02*
X0257947Y0170857D01*
X0258946Y0171856D02*
X0290918Y0171856D01*
X0289919Y0172854D02*
X0259944Y0172854D01*
X0260943Y0173853D02*
X0288921Y0173853D01*
X0299905Y0162869D02*
X0200229Y0162869D01*
X0200229Y0161870D02*
X0300903Y0161870D01*
X0301733Y0160872D02*
X0200229Y0160872D01*
X0200229Y0159873D02*
X0301733Y0159873D01*
X0301733Y0158875D02*
X0200229Y0158875D01*
X0201020Y0157876D02*
X0301733Y0157876D01*
X0301733Y0156878D02*
X0203649Y0156878D01*
X0204250Y0155879D02*
X0296919Y0155879D01*
X0296142Y0154881D02*
X0204333Y0154881D01*
X0203985Y0153882D02*
X0295933Y0153882D01*
X0299748Y0155879D02*
X0301733Y0155879D01*
X0301733Y0154881D02*
X0300525Y0154881D01*
X0300733Y0153882D02*
X0301733Y0153882D01*
X0301733Y0152884D02*
X0300510Y0152884D01*
X0299933Y0151885D02*
X0301733Y0151885D01*
X0301733Y0150887D02*
X0299933Y0150887D01*
X0299933Y0149888D02*
X0301733Y0149888D01*
X0301733Y0148890D02*
X0299933Y0148890D01*
X0299933Y0147891D02*
X0301733Y0147891D01*
X0301733Y0146893D02*
X0299933Y0146893D01*
X0299933Y0145894D02*
X0301733Y0145894D01*
X0301733Y0144896D02*
X0299933Y0144896D01*
X0299933Y0143897D02*
X0301733Y0143897D01*
X0301733Y0142899D02*
X0299933Y0142899D01*
X0300504Y0141900D02*
X0301733Y0141900D01*
X0301733Y0140902D02*
X0300733Y0140902D01*
X0300531Y0139903D02*
X0301733Y0139903D01*
X0301733Y0138905D02*
X0299764Y0138905D01*
X0300580Y0137906D02*
X0301733Y0137906D01*
X0301733Y0136908D02*
X0300733Y0136908D01*
X0300595Y0135909D02*
X0301580Y0135909D01*
X0300581Y0134911D02*
X0299738Y0134911D01*
X0299583Y0133912D02*
X0263968Y0133912D01*
X0263968Y0132914D02*
X0298584Y0132914D01*
X0295883Y0124926D02*
X0311633Y0124926D01*
X0311633Y0125924D02*
X0263968Y0125924D01*
X0263968Y0124926D02*
X0286783Y0124926D01*
X0286783Y0123927D02*
X0274970Y0123927D01*
X0275964Y0122929D02*
X0286783Y0122929D01*
X0289333Y0121900D02*
X0293333Y0121900D01*
X0295883Y0118934D02*
X0311633Y0118934D01*
X0311633Y0117936D02*
X0276133Y0117936D01*
X0276133Y0118934D02*
X0286783Y0118934D01*
X0287545Y0116600D02*
X0287445Y0116500D01*
X0285127Y0116500D01*
X0284693Y0116935D01*
X0283811Y0117300D01*
X0282856Y0117300D01*
X0281974Y0116935D01*
X0281299Y0116259D01*
X0280933Y0115377D01*
X0280933Y0114423D01*
X0281299Y0113541D01*
X0281974Y0112865D01*
X0282856Y0112500D01*
X0283811Y0112500D01*
X0284693Y0112865D01*
X0285127Y0113300D01*
X0286571Y0113300D01*
X0286783Y0113087D01*
X0286783Y0109762D01*
X0287545Y0109000D01*
X0291122Y0109000D01*
X0291333Y0109212D01*
X0291545Y0109000D01*
X0295122Y0109000D01*
X0295883Y0109762D01*
X0295883Y0111200D01*
X0301026Y0111200D01*
X0301299Y0110541D01*
X0301974Y0109865D01*
X0302856Y0109500D01*
X0303811Y0109500D01*
X0304693Y0109865D01*
X0305368Y0110541D01*
X0305733Y0111423D01*
X0305733Y0112377D01*
X0305368Y0113259D01*
X0304693Y0113935D01*
X0303811Y0114300D01*
X0303196Y0114300D01*
X0303096Y0114400D01*
X0295883Y0114400D01*
X0295883Y0115838D01*
X0295122Y0116600D01*
X0291545Y0116600D01*
X0291333Y0116388D01*
X0291122Y0116600D01*
X0287545Y0116600D01*
X0284686Y0116937D02*
X0311633Y0116937D01*
X0311633Y0115939D02*
X0295783Y0115939D01*
X0295883Y0114940D02*
X0311633Y0114940D01*
X0311633Y0113942D02*
X0304675Y0113942D01*
X0305499Y0112943D02*
X0311633Y0112943D01*
X0311633Y0111945D02*
X0305733Y0111945D01*
X0305536Y0110946D02*
X0311633Y0110946D01*
X0311633Y0109948D02*
X0304775Y0109948D01*
X0301891Y0109948D02*
X0295883Y0109948D01*
X0295883Y0110946D02*
X0301131Y0110946D01*
X0293333Y0112800D02*
X0289333Y0112800D01*
X0286783Y0112943D02*
X0284771Y0112943D01*
X0286783Y0111945D02*
X0276133Y0111945D01*
X0276133Y0112943D02*
X0281896Y0112943D01*
X0281132Y0113942D02*
X0276133Y0113942D01*
X0276133Y0114940D02*
X0280933Y0114940D01*
X0281166Y0115939D02*
X0276133Y0115939D01*
X0276133Y0116937D02*
X0281981Y0116937D01*
X0271533Y0117936D02*
X0269233Y0117936D01*
X0269210Y0118934D02*
X0271533Y0118934D01*
X0271533Y0119933D02*
X0268694Y0119933D01*
X0265968Y0120932D02*
X0271533Y0120932D01*
X0271433Y0121930D02*
X0265215Y0121930D01*
X0264217Y0122929D02*
X0271703Y0122929D01*
X0272697Y0123927D02*
X0263968Y0123927D01*
X0263968Y0126923D02*
X0266450Y0126923D01*
X0265655Y0127921D02*
X0263968Y0127921D01*
X0263968Y0128920D02*
X0265433Y0128920D01*
X0265644Y0129918D02*
X0263968Y0129918D01*
X0263968Y0130917D02*
X0266423Y0130917D01*
X0268616Y0131915D02*
X0263968Y0131915D01*
X0260699Y0131915D02*
X0186511Y0131915D01*
X0186733Y0130917D02*
X0260699Y0130917D01*
X0260699Y0129918D02*
X0186524Y0129918D01*
X0185747Y0128920D02*
X0260699Y0128920D01*
X0260699Y0127921D02*
X0180633Y0127921D01*
X0180633Y0126923D02*
X0260699Y0126923D01*
X0260699Y0125924D02*
X0180633Y0125924D01*
X0180633Y0124926D02*
X0260699Y0124926D01*
X0260699Y0123927D02*
X0180633Y0123927D01*
X0180633Y0122929D02*
X0260699Y0122929D01*
X0260699Y0121930D02*
X0180633Y0121930D01*
X0180633Y0120932D02*
X0260163Y0120932D01*
X0259933Y0119933D02*
X0180633Y0119933D01*
X0180633Y0118934D02*
X0260136Y0118934D01*
X0260733Y0117936D02*
X0180633Y0117936D01*
X0180633Y0116937D02*
X0260733Y0116937D01*
X0260733Y0115939D02*
X0180633Y0115939D01*
X0180633Y0114940D02*
X0260733Y0114940D01*
X0260733Y0113942D02*
X0180633Y0113942D01*
X0180633Y0112943D02*
X0260733Y0112943D01*
X0260733Y0111945D02*
X0180633Y0111945D01*
X0180633Y0110946D02*
X0260733Y0110946D01*
X0260733Y0109948D02*
X0180633Y0109948D01*
X0181537Y0108949D02*
X0260733Y0108949D01*
X0260733Y0107951D02*
X0182535Y0107951D01*
X0183534Y0106952D02*
X0260733Y0106952D01*
X0260733Y0105954D02*
X0184532Y0105954D01*
X0185531Y0104955D02*
X0202628Y0104955D01*
X0204039Y0104955D02*
X0260733Y0104955D01*
X0260733Y0103957D02*
X0205446Y0103957D01*
X0205822Y0102958D02*
X0260733Y0102958D01*
X0260733Y0101960D02*
X0205781Y0101960D01*
X0205261Y0100961D02*
X0260733Y0100961D01*
X0269933Y0095969D02*
X0278665Y0095969D01*
X0278903Y0096206D02*
X0278227Y0095531D01*
X0277871Y0094671D01*
X0276156Y0094671D01*
X0275693Y0095135D01*
X0274811Y0095500D01*
X0273856Y0095500D01*
X0272974Y0095135D01*
X0272299Y0094459D01*
X0271933Y0093577D01*
X0271933Y0092623D01*
X0272299Y0091741D01*
X0272974Y0091065D01*
X0273856Y0090700D01*
X0274811Y0090700D01*
X0275693Y0091065D01*
X0276099Y0091471D01*
X0279825Y0091471D01*
X0280125Y0091771D01*
X0280739Y0091771D01*
X0281621Y0092137D01*
X0282297Y0092812D01*
X0282662Y0093694D01*
X0282662Y0094649D01*
X0282297Y0095531D01*
X0281621Y0096206D01*
X0280739Y0096571D01*
X0279785Y0096571D01*
X0278903Y0096206D01*
X0277995Y0094970D02*
X0275857Y0094970D01*
X0272809Y0094970D02*
X0269933Y0094970D01*
X0269933Y0093972D02*
X0272097Y0093972D01*
X0271933Y0092973D02*
X0269069Y0092973D01*
X0268071Y0091975D02*
X0272202Y0091975D01*
X0273189Y0090976D02*
X0267072Y0090976D01*
X0266074Y0089978D02*
X0295815Y0089978D01*
X0296333Y0090874D02*
X0296333Y0090874D01*
X0296454Y0090976D02*
X0275477Y0090976D01*
X0281230Y0091975D02*
X0297644Y0091975D01*
X0298764Y0092914D02*
X0298764Y0092914D01*
X0298925Y0092973D02*
X0282363Y0092973D01*
X0282662Y0093972D02*
X0301669Y0093972D01*
X0304998Y0093972D02*
X0311633Y0093972D01*
X0311633Y0094970D02*
X0282529Y0094970D01*
X0281859Y0095969D02*
X0311633Y0095969D01*
X0311633Y0096967D02*
X0273160Y0096967D01*
X0273777Y0097966D02*
X0311633Y0097966D01*
X0311633Y0098964D02*
X0273933Y0098964D01*
X0273724Y0099963D02*
X0311633Y0099963D01*
X0311633Y0100961D02*
X0273633Y0100961D01*
X0273633Y0101960D02*
X0311633Y0101960D01*
X0311633Y0102958D02*
X0273633Y0102958D01*
X0273633Y0103957D02*
X0311633Y0103957D01*
X0311633Y0104955D02*
X0273633Y0104955D01*
X0273633Y0105954D02*
X0311633Y0105954D01*
X0311633Y0106952D02*
X0274138Y0106952D01*
X0275137Y0107951D02*
X0311633Y0107951D01*
X0311633Y0108949D02*
X0276133Y0108949D01*
X0276133Y0109948D02*
X0286783Y0109948D01*
X0286783Y0110946D02*
X0276133Y0110946D01*
X0270058Y0114940D02*
X0269808Y0114940D01*
X0269808Y0115939D02*
X0270058Y0115939D01*
X0270058Y0116937D02*
X0269808Y0116937D01*
X0269417Y0126923D02*
X0269217Y0126923D01*
X0272250Y0126923D02*
X0311633Y0126923D01*
X0311633Y0123927D02*
X0297600Y0123927D01*
X0298346Y0122929D02*
X0311633Y0122929D01*
X0311633Y0121930D02*
X0298533Y0121930D01*
X0298288Y0120932D02*
X0311633Y0120932D01*
X0311633Y0119933D02*
X0297415Y0119933D01*
X0260699Y0132914D02*
X0185714Y0132914D01*
X0186740Y0133912D02*
X0260699Y0133912D01*
X0260699Y0134911D02*
X0187521Y0134911D01*
X0187733Y0135909D02*
X0260699Y0135909D01*
X0260699Y0136908D02*
X0187514Y0136908D01*
X0186721Y0137906D02*
X0260699Y0137906D01*
X0260699Y0138905D02*
X0185933Y0138905D01*
X0185933Y0139903D02*
X0260699Y0139903D01*
X0260699Y0140902D02*
X0185933Y0140902D01*
X0185933Y0141900D02*
X0260699Y0141900D01*
X0260699Y0142899D02*
X0185933Y0142899D01*
X0185933Y0143897D02*
X0259638Y0143897D01*
X0258693Y0144896D02*
X0185933Y0144896D01*
X0185933Y0145894D02*
X0258433Y0145894D01*
X0258605Y0146893D02*
X0185933Y0146893D01*
X0185933Y0147891D02*
X0259331Y0147891D01*
X0253722Y0172854D02*
X0219550Y0172854D01*
X0220549Y0173853D02*
X0254720Y0173853D01*
X0255719Y0174851D02*
X0252947Y0174851D01*
X0257940Y0179844D02*
X0311633Y0179844D01*
X0311633Y0180842D02*
X0258938Y0180842D01*
X0259937Y0181841D02*
X0311633Y0181841D01*
X0311633Y0182839D02*
X0260935Y0182839D01*
X0261934Y0183838D02*
X0311633Y0183838D01*
X0311633Y0184836D02*
X0262932Y0184836D01*
X0263931Y0185835D02*
X0311633Y0185835D01*
X0311633Y0186833D02*
X0307484Y0186833D01*
X0307903Y0186986D02*
X0307903Y0186986D01*
X0308911Y0187832D02*
X0311633Y0187832D01*
X0311633Y0188830D02*
X0310101Y0188830D01*
X0310334Y0189026D02*
X0310334Y0189026D01*
X0310334Y0189026D01*
X0310798Y0189829D02*
X0311633Y0189829D01*
X0311633Y0190827D02*
X0311374Y0190827D01*
X0299182Y0186833D02*
X0264929Y0186833D01*
X0265928Y0187832D02*
X0297755Y0187832D01*
X0298764Y0186986D02*
X0298764Y0186986D01*
X0296565Y0188830D02*
X0266926Y0188830D01*
X0267925Y0189829D02*
X0295869Y0189829D01*
X0295292Y0190827D02*
X0268923Y0190827D01*
X0269922Y0191826D02*
X0294737Y0191826D01*
X0294746Y0191774D02*
X0294746Y0191774D01*
X0294560Y0192824D02*
X0270920Y0192824D01*
X0271919Y0193823D02*
X0294384Y0193823D01*
X0294208Y0194821D02*
X0272917Y0194821D01*
X0273916Y0195820D02*
X0275342Y0195820D01*
X0281324Y0195820D02*
X0285342Y0195820D01*
X0284344Y0196818D02*
X0282323Y0196818D01*
X0282882Y0197817D02*
X0283784Y0197817D01*
X0283371Y0198815D02*
X0283296Y0198815D01*
X0283333Y0199814D02*
X0283333Y0199814D01*
X0283333Y0200812D02*
X0283333Y0200812D01*
X0282954Y0201811D02*
X0283713Y0201811D01*
X0284172Y0202809D02*
X0282495Y0202809D01*
X0292495Y0202809D02*
X0298758Y0202809D01*
X0298764Y0202814D02*
X0298764Y0202814D01*
X0297568Y0201811D02*
X0292954Y0201811D01*
X0293333Y0200812D02*
X0296378Y0200812D01*
X0296333Y0200774D02*
X0296333Y0200774D01*
X0295778Y0199814D02*
X0293333Y0199814D01*
X0293296Y0198815D02*
X0295202Y0198815D01*
X0294709Y0197817D02*
X0292882Y0197817D01*
X0292323Y0196818D02*
X0294533Y0196818D01*
X0294357Y0195820D02*
X0291324Y0195820D01*
X0294194Y0194900D02*
X0294194Y0194900D01*
X0180733Y0151885D02*
X0179933Y0151885D01*
X0179933Y0150887D02*
X0180733Y0150887D01*
X0180733Y0149888D02*
X0180522Y0149888D01*
X0180733Y0148890D02*
X0180733Y0148890D01*
X0180733Y0147891D02*
X0180513Y0147891D01*
X0180733Y0146893D02*
X0179720Y0146893D01*
X0180733Y0145894D02*
X0176560Y0145894D01*
X0176946Y0146893D02*
X0175633Y0146893D01*
X0175633Y0147891D02*
X0176153Y0147891D01*
X0175933Y0148890D02*
X0175633Y0148890D01*
X0177559Y0144896D02*
X0180733Y0144896D01*
X0180733Y0143897D02*
X0178557Y0143897D01*
X0179697Y0142899D02*
X0180733Y0142899D01*
X0180733Y0141900D02*
X0180554Y0141900D01*
X0180733Y0140902D02*
X0180733Y0140902D01*
X0180733Y0139903D02*
X0180633Y0139903D01*
X0180633Y0138905D02*
X0180733Y0138905D01*
X0180733Y0137906D02*
X0180633Y0137906D01*
X0180633Y0136908D02*
X0180733Y0136908D01*
X0180733Y0135909D02*
X0180633Y0135909D01*
X0180633Y0134911D02*
X0180733Y0134911D01*
X0180733Y0133912D02*
X0180633Y0133912D01*
X0180633Y0132914D02*
X0180733Y0132914D01*
X0180633Y0131915D02*
X0181055Y0131915D01*
X0181671Y0131300D02*
X0181671Y0131300D01*
X0181933Y0130917D02*
X0180633Y0130917D01*
X0180633Y0129918D02*
X0182142Y0129918D01*
X0182920Y0128920D02*
X0180633Y0128920D01*
X0242081Y0084985D02*
X0246848Y0084985D01*
X0247833Y0084985D02*
X0248833Y0084985D01*
X0249818Y0084985D02*
X0257303Y0084985D01*
X0259364Y0084985D02*
X0267303Y0084985D01*
X0269364Y0084985D02*
X0277303Y0084985D01*
X0279364Y0084985D02*
X0294197Y0084985D01*
X0294194Y0085000D02*
X0294194Y0085000D01*
X0294368Y0085984D02*
X0243080Y0085984D01*
X0241418Y0083987D02*
X0244974Y0083987D01*
X0244077Y0082988D02*
X0242416Y0082988D01*
X0242921Y0081990D02*
X0243512Y0081990D01*
X0247833Y0081990D02*
X0248833Y0081990D01*
X0248833Y0082988D02*
X0247833Y0082988D01*
X0247833Y0083987D02*
X0248833Y0083987D01*
X0251693Y0083987D02*
X0255249Y0083987D01*
X0254250Y0082988D02*
X0252590Y0082988D01*
X0253154Y0081990D02*
X0253745Y0081990D01*
X0261418Y0083987D02*
X0265249Y0083987D01*
X0264250Y0082988D02*
X0262416Y0082988D01*
X0262921Y0081990D02*
X0263745Y0081990D01*
X0263333Y0080995D02*
X0263333Y0079005D01*
X0262572Y0077168D01*
X0262104Y0076700D01*
X0264562Y0076700D01*
X0264095Y0077168D01*
X0263333Y0079005D01*
X0263333Y0080995D01*
X0263333Y0080991D02*
X0263333Y0080991D01*
X0263333Y0079993D02*
X0263333Y0079993D01*
X0263329Y0078994D02*
X0263338Y0078994D01*
X0263752Y0077996D02*
X0262915Y0077996D01*
X0262401Y0076997D02*
X0264265Y0076997D01*
X0272104Y0076700D02*
X0272572Y0077168D01*
X0273333Y0079005D01*
X0273333Y0080995D01*
X0273333Y0079005D01*
X0274095Y0077168D01*
X0274562Y0076700D01*
X0272104Y0076700D01*
X0272401Y0076997D02*
X0274265Y0076997D01*
X0273752Y0077996D02*
X0272915Y0077996D01*
X0273329Y0078994D02*
X0273338Y0078994D01*
X0273333Y0079993D02*
X0273333Y0079993D01*
X0273333Y0080991D02*
X0273333Y0080991D01*
X0272921Y0081990D02*
X0273745Y0081990D01*
X0274250Y0082988D02*
X0272416Y0082988D01*
X0271418Y0083987D02*
X0275249Y0083987D01*
X0281418Y0083987D02*
X0294373Y0083987D01*
X0294549Y0082988D02*
X0290785Y0082988D01*
X0292586Y0081990D02*
X0293261Y0081990D01*
X0294544Y0086982D02*
X0263078Y0086982D01*
X0264077Y0087981D02*
X0294720Y0087981D01*
X0295238Y0088979D02*
X0265075Y0088979D01*
X0248833Y0080991D02*
X0247833Y0080991D01*
X0282416Y0082988D02*
X0284580Y0082988D01*
X0283957Y0081990D02*
X0282921Y0081990D01*
X0283333Y0080991D02*
X0283957Y0080991D01*
X0283957Y0079993D02*
X0283333Y0079993D01*
X0286535Y0082988D02*
X0287696Y0082988D01*
X0307741Y0092973D02*
X0311633Y0092973D01*
X0311633Y0091975D02*
X0309023Y0091975D01*
X0310213Y0090976D02*
X0311633Y0090976D01*
X0311633Y0089978D02*
X0310852Y0089978D01*
X0311428Y0088979D02*
X0311633Y0088979D01*
D12*
X0293333Y0112800D03*
X0289333Y0112800D03*
X0289333Y0121900D03*
X0293333Y0121900D03*
X0269933Y0113900D03*
X0266733Y0113900D03*
X0177333Y0163900D03*
X0173333Y0163900D03*
X0169333Y0163900D03*
D13*
X0192133Y0187700D03*
X0187033Y0194900D03*
X0203333Y0195000D03*
X0155833Y0202400D03*
X0310833Y0077500D03*
D14*
X0278333Y0080000D03*
X0268333Y0080000D03*
X0258333Y0080000D03*
X0248333Y0080000D03*
X0238333Y0080000D03*
X0228333Y0080000D03*
X0218333Y0080000D03*
X0208333Y0080000D03*
X0228333Y0199900D03*
X0238333Y0199900D03*
X0248333Y0199900D03*
X0258333Y0199900D03*
X0268333Y0199900D03*
X0278333Y0199900D03*
X0288333Y0199900D03*
D15*
X0211741Y0201940D02*
X0211741Y0201940D01*
X0211741Y0199578D01*
X0211741Y0199578D01*
X0211741Y0201940D01*
X0211741Y0186468D02*
X0211741Y0186468D01*
X0211741Y0182136D01*
X0211741Y0182136D01*
X0211741Y0186468D01*
X0211741Y0185876D02*
X0211741Y0185876D01*
X0177725Y0186468D02*
X0177725Y0186468D01*
X0177725Y0182136D01*
X0177725Y0182136D01*
X0177725Y0186468D01*
X0177725Y0185876D02*
X0177725Y0185876D01*
X0177725Y0201940D02*
X0177725Y0201940D01*
X0177725Y0199578D01*
X0177725Y0199578D01*
X0177725Y0201940D01*
D16*
X0199342Y0178500D02*
X0213833Y0178500D01*
X0217233Y0181900D01*
X0220833Y0181900D01*
X0244733Y0181900D01*
X0248333Y0185500D01*
X0248333Y0199900D01*
X0199342Y0178500D02*
X0176842Y0156000D01*
X0173333Y0156000D01*
X0173333Y0145869D01*
X0178333Y0140869D01*
X0178333Y0108900D01*
X0184680Y0102554D01*
X0203333Y0102554D01*
X0270333Y0136900D02*
X0298333Y0136900D01*
X0273833Y0121800D02*
X0273833Y0121000D01*
X0273833Y0109900D01*
X0271333Y0107400D01*
X0271333Y0099100D01*
X0271133Y0098900D01*
X0173333Y0156000D02*
X0173333Y0163900D01*
D17*
X0169833Y0172500D03*
X0168333Y0174900D03*
X0163333Y0172500D03*
X0158433Y0174900D03*
X0156333Y0183900D03*
X0170333Y0183900D03*
X0183333Y0175400D03*
X0178833Y0174400D03*
X0188333Y0172400D03*
X0193233Y0176300D03*
X0203833Y0166400D03*
X0215833Y0164900D03*
X0223333Y0164900D03*
X0223333Y0159900D03*
X0215833Y0159900D03*
X0215833Y0154900D03*
X0223333Y0154900D03*
X0223333Y0149900D03*
X0223333Y0144900D03*
X0215833Y0144900D03*
X0215833Y0149900D03*
X0208333Y0144900D03*
X0202833Y0149900D03*
X0201933Y0155200D03*
X0193333Y0153400D03*
X0186533Y0154600D03*
X0178333Y0148900D03*
X0176239Y0151300D03*
X0178333Y0144900D03*
X0178333Y0140869D03*
X0185333Y0135900D03*
X0184333Y0130900D03*
X0183333Y0124900D03*
X0168333Y0129900D03*
X0158333Y0134900D03*
X0158333Y0145400D03*
X0158333Y0154900D03*
X0158333Y0164900D03*
X0215833Y0139900D03*
X0223333Y0139900D03*
X0223333Y0134900D03*
X0215833Y0134900D03*
X0215833Y0129900D03*
X0223333Y0129900D03*
X0223333Y0124900D03*
X0223333Y0119900D03*
X0215833Y0119900D03*
X0215833Y0124900D03*
X0215833Y0114900D03*
X0223333Y0114900D03*
X0223333Y0109900D03*
X0215833Y0109900D03*
X0213333Y0104900D03*
X0213333Y0099900D03*
X0223333Y0099900D03*
X0223333Y0104900D03*
X0233333Y0104900D03*
X0233333Y0099900D03*
X0243333Y0099900D03*
X0243333Y0104900D03*
X0243333Y0109900D03*
X0243333Y0114900D03*
X0243333Y0119900D03*
X0243333Y0124900D03*
X0243333Y0129900D03*
X0243333Y0134900D03*
X0243333Y0139900D03*
X0243333Y0144900D03*
X0243333Y0149900D03*
X0243333Y0154900D03*
X0243333Y0159900D03*
X0243333Y0164900D03*
X0251333Y0164900D03*
X0251333Y0159900D03*
X0251333Y0154900D03*
X0251333Y0149900D03*
X0251333Y0144900D03*
X0257833Y0142400D03*
X0260833Y0146000D03*
X0251333Y0139900D03*
X0251333Y0134900D03*
X0251333Y0129900D03*
X0251333Y0124900D03*
X0251333Y0119900D03*
X0251333Y0114900D03*
X0251333Y0109900D03*
X0253333Y0104900D03*
X0253333Y0099900D03*
X0260197Y0093536D03*
X0268333Y0090000D03*
X0274333Y0093100D03*
X0280262Y0094171D03*
X0283333Y0090000D03*
X0291833Y0090000D03*
X0298333Y0096500D03*
X0293333Y0100000D03*
X0283333Y0099900D03*
X0268333Y0105000D03*
X0266333Y0109500D03*
X0266833Y0118400D03*
X0262333Y0119900D03*
X0267833Y0124900D03*
X0273833Y0121800D03*
X0283333Y0123900D03*
X0283333Y0114900D03*
X0283333Y0109900D03*
X0296133Y0122000D03*
X0303333Y0111900D03*
X0308333Y0096500D03*
X0270833Y0128900D03*
X0267833Y0128933D03*
X0270333Y0136900D03*
X0274833Y0143400D03*
X0275833Y0151900D03*
X0282333Y0151900D03*
X0285833Y0157400D03*
X0290933Y0158300D03*
X0297333Y0159900D03*
X0298333Y0153900D03*
X0290933Y0152600D03*
X0298333Y0140869D03*
X0298333Y0136900D03*
X0298333Y0133900D03*
X0308333Y0134900D03*
X0308333Y0144900D03*
X0308333Y0159900D03*
X0308333Y0169900D03*
X0308333Y0179900D03*
X0298833Y0180400D03*
X0288333Y0179800D03*
X0287133Y0171900D03*
X0285833Y0167400D03*
X0290933Y0166300D03*
X0278333Y0162400D03*
X0271333Y0156900D03*
X0270833Y0167400D03*
X0268333Y0171900D03*
X0263833Y0167400D03*
X0260833Y0171900D03*
X0251433Y0173300D03*
X0243333Y0173300D03*
X0233433Y0173300D03*
X0233333Y0164900D03*
X0233333Y0159900D03*
X0233333Y0154900D03*
X0233333Y0149900D03*
X0233333Y0144900D03*
X0233333Y0139900D03*
X0233333Y0134900D03*
X0233333Y0129900D03*
X0233333Y0124900D03*
X0233333Y0119900D03*
X0233333Y0114900D03*
X0233333Y0109900D03*
X0208833Y0090000D03*
X0198333Y0090000D03*
X0198333Y0098500D03*
X0188333Y0098500D03*
X0178333Y0100000D03*
X0168333Y0099900D03*
X0158333Y0099900D03*
X0158333Y0110900D03*
X0168333Y0111400D03*
X0168333Y0118400D03*
X0158333Y0119900D03*
X0183333Y0110000D03*
X0178333Y0090000D03*
X0188333Y0090000D03*
X0188333Y0080000D03*
X0178333Y0080000D03*
X0198333Y0080000D03*
X0278333Y0171900D03*
X0278433Y0179900D03*
X0268233Y0180100D03*
X0258733Y0179900D03*
X0258333Y0187900D03*
X0253333Y0189900D03*
X0243333Y0184900D03*
X0233333Y0184900D03*
X0220833Y0181900D03*
X0223433Y0173300D03*
X0233333Y0194900D03*
X0243333Y0194900D03*
X0219833Y0198900D03*
D18*
X0271133Y0098900D03*
D19*
X0203333Y0102554D03*
D20*
X0220833Y0092500D02*
X0259161Y0092500D01*
X0261333Y0089500D02*
X0234333Y0089500D01*
X0228333Y0083500D01*
X0228333Y0080000D01*
X0218333Y0080000D02*
X0218333Y0084500D01*
X0224833Y0091000D01*
X0220833Y0092500D02*
X0208333Y0080000D01*
X0264333Y0095000D02*
X0264333Y0120500D01*
X0262333Y0122500D01*
X0262333Y0144500D01*
X0260833Y0146000D01*
D21*
X0212333Y0182500D02*
X0211130Y0182500D01*
X0211130Y0186468D01*
X0211160Y0186657D01*
X0211382Y0186962D01*
X0211741Y0187079D01*
X0212101Y0186962D01*
X0212323Y0186657D01*
X0212333Y0186590D01*
X0212333Y0182500D01*
X0212333Y0182763D02*
X0211130Y0182763D01*
X0211130Y0183061D02*
X0212333Y0183061D01*
X0212333Y0183360D02*
X0211130Y0183360D01*
X0211130Y0183658D02*
X0212333Y0183658D01*
X0212333Y0183957D02*
X0211130Y0183957D01*
X0211130Y0184255D02*
X0212333Y0184255D01*
X0212333Y0184554D02*
X0211130Y0184554D01*
X0211130Y0184852D02*
X0212333Y0184852D01*
X0212333Y0185151D02*
X0211130Y0185151D01*
X0211130Y0185449D02*
X0212333Y0185449D01*
X0212333Y0185748D02*
X0211130Y0185748D01*
X0211130Y0186046D02*
X0212333Y0186046D01*
X0212333Y0186345D02*
X0211130Y0186345D01*
X0211158Y0186643D02*
X0212325Y0186643D01*
X0212116Y0186942D02*
X0211367Y0186942D01*
X0210355Y0187539D02*
X0207549Y0187539D01*
X0207250Y0187837D02*
X0210572Y0187837D01*
X0210659Y0187957D02*
X0209990Y0187037D01*
X0209990Y0182500D01*
X0188135Y0182500D01*
X0191535Y0185900D01*
X0192879Y0185900D01*
X0193933Y0186954D01*
X0193933Y0188446D01*
X0192879Y0189500D01*
X0191388Y0189500D01*
X0190333Y0188446D01*
X0190333Y0187102D01*
X0185731Y0182500D01*
X0179476Y0182500D01*
X0179476Y0187037D01*
X0178807Y0187957D01*
X0177725Y0188309D01*
X0176833Y0188019D01*
X0176833Y0197968D01*
X0177725Y0197678D01*
X0177725Y0197678D01*
X0178807Y0198030D01*
X0179476Y0198950D01*
X0179476Y0199283D01*
X0179476Y0202529D01*
X0178807Y0203449D01*
X0177725Y0203801D01*
X0176833Y0203511D01*
X0176833Y0203950D01*
X0212333Y0203950D01*
X0212333Y0203608D01*
X0211741Y0203801D01*
X0210659Y0203449D01*
X0209990Y0202529D01*
X0209990Y0198950D01*
X0210659Y0198030D01*
X0210659Y0198030D01*
X0211741Y0197678D01*
X0211741Y0197678D01*
X0212333Y0197870D01*
X0212333Y0188116D01*
X0211741Y0188309D01*
X0210659Y0187957D01*
X0210659Y0187957D01*
X0211209Y0188136D02*
X0206952Y0188136D01*
X0206869Y0188218D02*
X0205353Y0188218D01*
X0204282Y0187147D01*
X0204282Y0185631D01*
X0205353Y0184559D01*
X0206869Y0184559D01*
X0207941Y0185631D01*
X0207941Y0187147D01*
X0206869Y0188218D01*
X0207847Y0187240D02*
X0210138Y0187240D01*
X0209990Y0186942D02*
X0207941Y0186942D01*
X0207941Y0186643D02*
X0209990Y0186643D01*
X0209990Y0186345D02*
X0207941Y0186345D01*
X0207941Y0186046D02*
X0209990Y0186046D01*
X0209990Y0185748D02*
X0207941Y0185748D01*
X0207759Y0185449D02*
X0209990Y0185449D01*
X0209990Y0185151D02*
X0207460Y0185151D01*
X0207162Y0184852D02*
X0209990Y0184852D01*
X0209990Y0184554D02*
X0190189Y0184554D01*
X0190488Y0184852D02*
X0205061Y0184852D01*
X0204762Y0185151D02*
X0190786Y0185151D01*
X0191085Y0185449D02*
X0204464Y0185449D01*
X0204282Y0185748D02*
X0191383Y0185748D01*
X0193025Y0186046D02*
X0204282Y0186046D01*
X0204282Y0186345D02*
X0193324Y0186345D01*
X0193622Y0186643D02*
X0204282Y0186643D01*
X0204282Y0186942D02*
X0193921Y0186942D01*
X0193933Y0187240D02*
X0204375Y0187240D01*
X0204674Y0187539D02*
X0193933Y0187539D01*
X0193933Y0187837D02*
X0204972Y0187837D01*
X0205271Y0188136D02*
X0193933Y0188136D01*
X0193933Y0188434D02*
X0212333Y0188434D01*
X0212333Y0188136D02*
X0212273Y0188136D01*
X0211741Y0188309D02*
X0211741Y0188309D01*
X0212333Y0188733D02*
X0193646Y0188733D01*
X0193348Y0189031D02*
X0212333Y0189031D01*
X0212333Y0189330D02*
X0193049Y0189330D01*
X0191218Y0189330D02*
X0176833Y0189330D01*
X0176833Y0189628D02*
X0212333Y0189628D01*
X0212333Y0189927D02*
X0176833Y0189927D01*
X0176833Y0190225D02*
X0212333Y0190225D01*
X0212333Y0190524D02*
X0176833Y0190524D01*
X0176833Y0190822D02*
X0212333Y0190822D01*
X0212333Y0191121D02*
X0176833Y0191121D01*
X0176833Y0191419D02*
X0212333Y0191419D01*
X0212333Y0191718D02*
X0176833Y0191718D01*
X0176833Y0192016D02*
X0212333Y0192016D01*
X0212333Y0192315D02*
X0176833Y0192315D01*
X0176833Y0192613D02*
X0212333Y0192613D01*
X0212333Y0192912D02*
X0176833Y0192912D01*
X0176833Y0193210D02*
X0212333Y0193210D01*
X0212333Y0193509D02*
X0176833Y0193509D01*
X0176833Y0193808D02*
X0212333Y0193808D01*
X0212333Y0194106D02*
X0176833Y0194106D01*
X0176833Y0194405D02*
X0212333Y0194405D01*
X0212333Y0194703D02*
X0176833Y0194703D01*
X0176833Y0195002D02*
X0212333Y0195002D01*
X0212333Y0195300D02*
X0176833Y0195300D01*
X0176833Y0195599D02*
X0212333Y0195599D01*
X0212333Y0195897D02*
X0176833Y0195897D01*
X0176833Y0196196D02*
X0212333Y0196196D01*
X0212333Y0196494D02*
X0176833Y0196494D01*
X0176833Y0196793D02*
X0212333Y0196793D01*
X0212333Y0197091D02*
X0176833Y0197091D01*
X0176833Y0197390D02*
X0212333Y0197390D01*
X0212333Y0197688D02*
X0211772Y0197688D01*
X0211710Y0197688D02*
X0177757Y0197688D01*
X0177694Y0197688D02*
X0176833Y0197688D01*
X0177366Y0199024D02*
X0177144Y0199330D01*
X0177114Y0199519D01*
X0177114Y0201960D01*
X0177144Y0202149D01*
X0177366Y0202454D01*
X0177725Y0202571D01*
X0178085Y0202454D01*
X0178307Y0202149D01*
X0178337Y0201960D01*
X0178337Y0199519D01*
X0178307Y0199330D01*
X0178085Y0199024D01*
X0177725Y0198907D01*
X0177366Y0199024D01*
X0177252Y0199181D02*
X0178199Y0199181D01*
X0178331Y0199479D02*
X0177120Y0199479D01*
X0177114Y0199778D02*
X0178337Y0199778D01*
X0178337Y0200076D02*
X0177114Y0200076D01*
X0177114Y0200375D02*
X0178337Y0200375D01*
X0178337Y0200673D02*
X0177114Y0200673D01*
X0177114Y0200972D02*
X0178337Y0200972D01*
X0178337Y0201270D02*
X0177114Y0201270D01*
X0177114Y0201569D02*
X0178337Y0201569D01*
X0178337Y0201867D02*
X0177114Y0201867D01*
X0177156Y0202166D02*
X0178295Y0202166D01*
X0178055Y0202464D02*
X0177396Y0202464D01*
X0177287Y0203658D02*
X0176833Y0203658D01*
X0177725Y0203801D02*
X0177725Y0203801D01*
X0178164Y0203658D02*
X0211303Y0203658D01*
X0211741Y0203801D02*
X0211741Y0203801D01*
X0212179Y0203658D02*
X0212333Y0203658D01*
X0212070Y0202464D02*
X0211412Y0202464D01*
X0211382Y0202454D02*
X0211741Y0202571D01*
X0212101Y0202454D01*
X0212323Y0202149D01*
X0212333Y0202082D01*
X0212333Y0199397D01*
X0212323Y0199330D01*
X0212101Y0199024D01*
X0211741Y0198907D01*
X0211382Y0199024D01*
X0211160Y0199330D01*
X0211130Y0199519D01*
X0211130Y0201960D01*
X0211160Y0202149D01*
X0211382Y0202454D01*
X0211172Y0202166D02*
X0212310Y0202166D01*
X0212333Y0201867D02*
X0211130Y0201867D01*
X0211130Y0201569D02*
X0212333Y0201569D01*
X0212333Y0201270D02*
X0211130Y0201270D01*
X0211130Y0200972D02*
X0212333Y0200972D01*
X0212333Y0200673D02*
X0211130Y0200673D01*
X0211130Y0200375D02*
X0212333Y0200375D01*
X0212333Y0200076D02*
X0211130Y0200076D01*
X0211130Y0199778D02*
X0212333Y0199778D01*
X0212333Y0199479D02*
X0211136Y0199479D01*
X0211268Y0199181D02*
X0212214Y0199181D01*
X0210791Y0197987D02*
X0178675Y0197987D01*
X0178807Y0198030D02*
X0178807Y0198030D01*
X0178993Y0198285D02*
X0210473Y0198285D01*
X0210659Y0198030D02*
X0210659Y0198030D01*
X0210257Y0198584D02*
X0179210Y0198584D01*
X0179427Y0198882D02*
X0210040Y0198882D01*
X0209990Y0199181D02*
X0179476Y0199181D01*
X0179476Y0199479D02*
X0209990Y0199479D01*
X0209990Y0199778D02*
X0179476Y0199778D01*
X0179476Y0200076D02*
X0209990Y0200076D01*
X0209990Y0200375D02*
X0179476Y0200375D01*
X0179476Y0200673D02*
X0209990Y0200673D01*
X0209990Y0200972D02*
X0179476Y0200972D01*
X0179476Y0201270D02*
X0209990Y0201270D01*
X0209990Y0201569D02*
X0179476Y0201569D01*
X0179476Y0201867D02*
X0209990Y0201867D01*
X0209990Y0202166D02*
X0179476Y0202166D01*
X0179476Y0202464D02*
X0209990Y0202464D01*
X0210161Y0202763D02*
X0179306Y0202763D01*
X0179089Y0203061D02*
X0210377Y0203061D01*
X0210594Y0203360D02*
X0178872Y0203360D01*
X0178807Y0203449D02*
X0178807Y0203449D01*
X0178807Y0203449D01*
X0176833Y0189031D02*
X0190919Y0189031D01*
X0190621Y0188733D02*
X0176833Y0188733D01*
X0176833Y0188434D02*
X0190333Y0188434D01*
X0190333Y0188136D02*
X0184196Y0188136D01*
X0184113Y0188218D02*
X0182598Y0188218D01*
X0181526Y0187147D01*
X0181526Y0185631D01*
X0182598Y0184559D01*
X0184113Y0184559D01*
X0185185Y0185631D01*
X0185185Y0187147D01*
X0184113Y0188218D01*
X0184494Y0187837D02*
X0190333Y0187837D01*
X0190333Y0187539D02*
X0184793Y0187539D01*
X0185091Y0187240D02*
X0190333Y0187240D01*
X0190173Y0186942D02*
X0185185Y0186942D01*
X0185185Y0186643D02*
X0189874Y0186643D01*
X0189576Y0186345D02*
X0185185Y0186345D01*
X0185185Y0186046D02*
X0189277Y0186046D01*
X0188979Y0185748D02*
X0185185Y0185748D01*
X0185003Y0185449D02*
X0188680Y0185449D01*
X0188382Y0185151D02*
X0184704Y0185151D01*
X0184406Y0184852D02*
X0188083Y0184852D01*
X0187785Y0184554D02*
X0179476Y0184554D01*
X0179476Y0184852D02*
X0182305Y0184852D01*
X0182006Y0185151D02*
X0179476Y0185151D01*
X0179476Y0185449D02*
X0181708Y0185449D01*
X0181526Y0185748D02*
X0179476Y0185748D01*
X0179476Y0186046D02*
X0181526Y0186046D01*
X0181526Y0186345D02*
X0179476Y0186345D01*
X0179476Y0186643D02*
X0181526Y0186643D01*
X0181526Y0186942D02*
X0179476Y0186942D01*
X0179328Y0187240D02*
X0181619Y0187240D01*
X0181918Y0187539D02*
X0179111Y0187539D01*
X0178894Y0187837D02*
X0182216Y0187837D01*
X0182515Y0188136D02*
X0178257Y0188136D01*
X0177725Y0188309D02*
X0177725Y0188309D01*
X0177194Y0188136D02*
X0176833Y0188136D01*
X0177366Y0186962D02*
X0177725Y0187079D01*
X0178085Y0186962D01*
X0178307Y0186657D01*
X0178337Y0186468D01*
X0178337Y0182500D01*
X0177114Y0182500D01*
X0177114Y0186468D01*
X0177144Y0186657D01*
X0177366Y0186962D01*
X0177351Y0186942D02*
X0178100Y0186942D01*
X0178309Y0186643D02*
X0177142Y0186643D01*
X0177114Y0186345D02*
X0178337Y0186345D01*
X0178337Y0186046D02*
X0177114Y0186046D01*
X0177114Y0185748D02*
X0178337Y0185748D01*
X0178337Y0185449D02*
X0177114Y0185449D01*
X0177114Y0185151D02*
X0178337Y0185151D01*
X0178337Y0184852D02*
X0177114Y0184852D01*
X0177114Y0184554D02*
X0178337Y0184554D01*
X0178337Y0184255D02*
X0177114Y0184255D01*
X0177114Y0183957D02*
X0178337Y0183957D01*
X0178337Y0183658D02*
X0177114Y0183658D01*
X0177114Y0183360D02*
X0178337Y0183360D01*
X0178337Y0183061D02*
X0177114Y0183061D01*
X0177114Y0182763D02*
X0178337Y0182763D01*
X0179476Y0182763D02*
X0185994Y0182763D01*
X0186292Y0183061D02*
X0179476Y0183061D01*
X0179476Y0183360D02*
X0186591Y0183360D01*
X0186889Y0183658D02*
X0179476Y0183658D01*
X0179476Y0183957D02*
X0187188Y0183957D01*
X0187486Y0184255D02*
X0179476Y0184255D01*
X0178807Y0187957D02*
X0178807Y0187957D01*
X0178807Y0187957D01*
X0188398Y0182763D02*
X0209990Y0182763D01*
X0209990Y0183061D02*
X0188696Y0183061D01*
X0188995Y0183360D02*
X0209990Y0183360D01*
X0209990Y0183658D02*
X0189294Y0183658D01*
X0189592Y0183957D02*
X0209990Y0183957D01*
X0209990Y0184255D02*
X0189891Y0184255D01*
X0210659Y0203449D02*
X0210659Y0203449D01*
M02*
