%
M48
M72
T01C0.0120
T02C0.0138
T03C0.0150
T04C0.0200
T05C0.0256
T06C0.0400
T07C0.1300
%
T01
X15833Y9990
X16833Y9990
X17833Y10000
X18833Y9850
X18833Y9000
X17833Y9000
X17833Y8000
X18833Y8000
X19833Y8000
X19833Y9000
X20883Y9000
X21333Y9990
X21333Y10490
X21583Y10990
X22333Y10990
X22333Y10490
X22333Y9990
X23333Y9990
X23333Y10490
X23333Y10990
X23333Y11490
X23333Y11990
X23333Y12490
X23333Y12990
X23333Y13490
X23333Y13990
X23333Y14490
X23333Y14990
X23333Y15490
X23333Y15990
X23333Y16490
X24333Y16490
X24333Y15990
X24333Y15490
X24333Y14990
X24333Y14490
X24333Y13990
X24333Y13490
X24333Y12990
X24333Y12490
X24333Y11990
X24333Y11490
X24333Y10990
X24333Y10490
X24333Y9990
X25333Y9990
X25333Y10490
X25133Y10990
X25133Y11490
X25133Y11990
X25133Y12490
X25133Y12990
X25133Y13490
X25133Y13990
X25783Y14240
X26083Y14600
X25133Y14490
X25133Y14990
X25133Y15490
X25133Y15990
X25133Y16490
X26083Y17190
X26383Y16740
X26833Y17190
X27083Y16740
X27833Y17190
X28583Y16740
X28713Y17190
X29093Y16630
X29093Y15830
X28583Y15740
X28233Y15190
X27583Y15190
X27133Y15690
X27833Y16240
X29093Y15260
X29833Y15390
X29733Y15990
X30833Y15990
X30833Y16990
X30833Y17990
X29883Y18040
X28833Y17980
X27843Y17990
X26823Y18010
X25873Y17990
X25143Y17330
X24333Y17330
X23343Y17330
X22343Y17330
X22333Y16490
X21583Y16490
X21583Y15990
X22333Y15990
X22333Y15490
X21583Y15490
X21583Y14990
X21583Y14490
X22333Y14490
X22333Y14990
X22333Y13990
X21583Y13990
X21583Y13490
X22333Y13490
X22333Y12990
X21583Y12990
X21583Y12490
X21583Y11990
X22333Y11990
X22333Y12490
X22333Y11490
X21583Y11490
X19833Y9850
X18333Y11000
X16833Y11140
X16833Y11840
X15833Y11990
X16833Y12990
X15833Y13490
X15833Y14540
X15833Y15490
X15833Y16490
X16333Y17250
X15843Y17490
X15633Y18390
X17033Y18390
X16833Y17490
X16983Y17250
X17883Y17440
X18333Y17540
X18833Y17240
X19323Y17630
X20383Y16640
X20193Y15520
X20283Y14990
X20833Y14490
X19333Y15340
X18653Y15460
X17833Y14890
X17624Y15130
X17833Y14490
X17833Y14087
X18533Y13590
X18433Y13090
X18333Y12490
X15833Y11090
X26020Y9354
X26833Y9000
X27433Y9310
X28026Y9417
X28333Y9000
X29183Y9000
X29833Y9650
X29333Y10000
X28333Y9990
X26833Y10500
X26633Y10950
X26683Y11840
X26233Y11990
X26783Y12490
X27383Y12180
X28333Y12390
X28333Y11490
X28333Y10990
X29613Y12200
X30333Y11190
X30833Y9650
X27083Y12890
X26783Y12893
X27033Y13690
X27483Y14340
X29833Y14087
X29833Y13690
X29833Y13390
X30833Y13490
X30833Y14490
X25833Y18790
X25333Y18990
X24333Y18490
X23333Y18490
X22083Y18190
X23333Y19490
X24333Y19490
X21983Y19890
T02
X20333Y10255
T03
X19213Y18770
X18703Y19490
X20333Y19500
T04
X27113Y9890
T05
X20611Y18639
X18336Y18639
T06
X22833Y19990
X23833Y19990
X24833Y19990
X25833Y19990
X26833Y19990
X27833Y19990
X28833Y19990
X27833Y8000
X26833Y8000
X25833Y8000
X24833Y8000
X23833Y8000
X22833Y8000
X21833Y8000
X20833Y8000
T07
X16333Y8500
X30333Y8500
X30333Y19490
X16333Y19490
M30
