G75*
%MOIN*%
%OFA0B0*%
%FSLAX25Y25*%
%IPPOS*%
%LPD*%
%AMOC8*
5,1,8,0,0,1.08239X$1,22.5*
%
%ADD10R,0.07874X0.04724*%
%ADD11R,0.05315X0.02362*%
%ADD12R,0.04331X0.03937*%
%ADD13C,0.00197*%
%ADD14R,0.16535X0.06693*%
%ADD15R,0.03937X0.04331*%
%ADD16C,0.01181*%
%ADD17R,0.02480X0.03268*%
%ADD18R,0.08661X0.03346*%
%ADD19R,0.04134X0.03937*%
%ADD20R,0.04724X0.02165*%
%ADD21R,0.00984X0.02402*%
%ADD22R,0.00984X0.02205*%
%ADD23R,0.01181X0.03937*%
%ADD24R,0.02362X0.03937*%
%ADD25C,0.00039*%
%ADD26R,0.04724X0.03150*%
%ADD27R,0.03543X0.02362*%
D10*
X0158865Y0127876D03*
X0158865Y0149924D03*
X0307802Y0149924D03*
X0307802Y0127876D03*
D11*
X0293333Y0132994D03*
X0293333Y0136931D03*
X0293333Y0140869D03*
X0293333Y0144806D03*
X0173333Y0144806D03*
X0173333Y0140869D03*
X0173333Y0136931D03*
X0173333Y0132994D03*
D12*
X0189987Y0130900D03*
X0196680Y0130900D03*
X0196680Y0125100D03*
X0189987Y0125100D03*
X0189987Y0117900D03*
X0196680Y0117900D03*
X0196680Y0106100D03*
X0189987Y0106100D03*
X0189987Y0136900D03*
X0196680Y0136900D03*
X0196680Y0142900D03*
X0189987Y0142900D03*
X0189987Y0148900D03*
X0196680Y0148900D03*
X0265487Y0147900D03*
X0272180Y0147900D03*
X0278487Y0147900D03*
X0285180Y0147900D03*
X0299987Y0121600D03*
X0299987Y0115600D03*
X0306680Y0115600D03*
X0306680Y0121600D03*
D13*
X0175885Y0121691D02*
X0168295Y0121691D01*
X0168491Y0121496D02*
X0175885Y0121496D01*
X0175885Y0121301D02*
X0168686Y0121301D01*
X0168882Y0121105D02*
X0175885Y0121105D01*
X0175885Y0120910D02*
X0169077Y0120910D01*
X0169272Y0120715D02*
X0175885Y0120715D01*
X0175885Y0120519D02*
X0169468Y0120519D01*
X0169663Y0120324D02*
X0175885Y0120324D01*
X0175885Y0120129D02*
X0169858Y0120129D01*
X0170054Y0119933D02*
X0175885Y0119933D01*
X0175885Y0119738D02*
X0170249Y0119738D01*
X0170444Y0119542D02*
X0175885Y0119542D01*
X0175885Y0119347D02*
X0170640Y0119347D01*
X0170835Y0119152D02*
X0175885Y0119152D01*
X0175885Y0118956D02*
X0171030Y0118956D01*
X0171226Y0118761D02*
X0175885Y0118761D01*
X0175885Y0118566D02*
X0171421Y0118566D01*
X0171617Y0118370D02*
X0175885Y0118370D01*
X0175885Y0118175D02*
X0171812Y0118175D01*
X0172007Y0117980D02*
X0175885Y0117980D01*
X0175885Y0117784D02*
X0172203Y0117784D01*
X0172398Y0117589D02*
X0175885Y0117589D01*
X0175885Y0117393D02*
X0172593Y0117393D01*
X0172789Y0117198D02*
X0175885Y0117198D01*
X0175885Y0117003D02*
X0172984Y0117003D01*
X0173179Y0116807D02*
X0175885Y0116807D01*
X0175885Y0116612D02*
X0173375Y0116612D01*
X0173570Y0116417D02*
X0175885Y0116417D01*
X0175885Y0116221D02*
X0173766Y0116221D01*
X0173961Y0116026D02*
X0175885Y0116026D01*
X0175885Y0115831D02*
X0174156Y0115831D01*
X0174352Y0115635D02*
X0175885Y0115635D01*
X0175885Y0115440D02*
X0174547Y0115440D01*
X0174742Y0115245D02*
X0175885Y0115245D01*
X0175885Y0115049D02*
X0174938Y0115049D01*
X0175133Y0114854D02*
X0175885Y0114854D01*
X0175885Y0114658D02*
X0175328Y0114658D01*
X0175524Y0114463D02*
X0175885Y0114463D01*
X0175885Y0114268D02*
X0175719Y0114268D01*
X0175885Y0114102D02*
X0166436Y0123551D01*
X0175885Y0123551D01*
X0175885Y0114102D01*
X0175885Y0121887D02*
X0168100Y0121887D01*
X0167905Y0122082D02*
X0175885Y0122082D01*
X0175885Y0122278D02*
X0167709Y0122278D01*
X0167514Y0122473D02*
X0175885Y0122473D01*
X0175885Y0122668D02*
X0167319Y0122668D01*
X0167123Y0122864D02*
X0175885Y0122864D01*
X0175885Y0123059D02*
X0166928Y0123059D01*
X0166733Y0123254D02*
X0175885Y0123254D01*
X0175885Y0123450D02*
X0166537Y0123450D01*
D14*
X0167696Y0105717D03*
D15*
X0190933Y0158054D03*
X0198133Y0158254D03*
X0198133Y0164946D03*
X0190933Y0164746D03*
X0182633Y0161554D03*
X0176333Y0161554D03*
X0169933Y0161554D03*
X0163533Y0161554D03*
X0163533Y0168246D03*
X0169933Y0168246D03*
X0176333Y0168246D03*
X0182633Y0168246D03*
X0220133Y0186654D03*
X0220133Y0193346D03*
X0266333Y0161746D03*
X0266333Y0155054D03*
X0265033Y0140646D03*
X0265033Y0133954D03*
X0286833Y0134054D03*
X0286833Y0140746D03*
D16*
X0296555Y0110831D02*
X0299311Y0110831D01*
X0299311Y0108075D01*
X0296555Y0108075D01*
X0296555Y0110831D01*
X0296555Y0109197D02*
X0299311Y0109197D01*
X0299311Y0110319D02*
X0296555Y0110319D01*
X0296555Y0103925D02*
X0299311Y0103925D01*
X0299311Y0101169D01*
X0296555Y0101169D01*
X0296555Y0103925D01*
X0296555Y0102291D02*
X0299311Y0102291D01*
X0299311Y0103413D02*
X0296555Y0103413D01*
X0307055Y0103925D02*
X0309811Y0103925D01*
X0309811Y0101169D01*
X0307055Y0101169D01*
X0307055Y0103925D01*
X0307055Y0102291D02*
X0309811Y0102291D01*
X0309811Y0103413D02*
X0307055Y0103413D01*
X0307055Y0110831D02*
X0309811Y0110831D01*
X0309811Y0108075D01*
X0307055Y0108075D01*
X0307055Y0110831D01*
X0307055Y0109197D02*
X0309811Y0109197D01*
X0309811Y0110319D02*
X0307055Y0110319D01*
D17*
X0197861Y0111900D03*
X0188806Y0111900D03*
D18*
X0278333Y0156987D03*
X0278333Y0167813D03*
D19*
X0272329Y0162400D03*
X0284337Y0162400D03*
D20*
X0280952Y0141140D03*
X0280952Y0137400D03*
X0280952Y0133660D03*
X0270715Y0133660D03*
X0270715Y0141140D03*
D21*
X0195702Y0172794D03*
D22*
X0193733Y0172893D03*
X0191765Y0172893D03*
X0191765Y0169507D03*
X0193733Y0169507D03*
X0195702Y0169507D03*
D23*
X0195718Y0182039D03*
X0197686Y0182039D03*
X0199655Y0182039D03*
X0201623Y0182039D03*
X0193749Y0182039D03*
X0191781Y0182039D03*
X0189812Y0182039D03*
X0187844Y0182039D03*
D24*
X0185088Y0182039D03*
X0182036Y0182039D03*
X0204379Y0182039D03*
X0207430Y0182039D03*
D25*
X0209773Y0182053D02*
X0213710Y0182053D01*
X0213710Y0182091D02*
X0209773Y0182091D01*
X0209773Y0182129D02*
X0213710Y0182129D01*
X0213710Y0182166D02*
X0209773Y0182166D01*
X0209773Y0182204D02*
X0213710Y0182204D01*
X0213710Y0182242D02*
X0209773Y0182242D01*
X0209773Y0182280D02*
X0213710Y0182280D01*
X0213710Y0182318D02*
X0209773Y0182318D01*
X0209773Y0182356D02*
X0213710Y0182356D01*
X0213710Y0182394D02*
X0209773Y0182394D01*
X0209773Y0182432D02*
X0213710Y0182432D01*
X0213710Y0182470D02*
X0209773Y0182470D01*
X0209773Y0182507D02*
X0213710Y0182507D01*
X0213710Y0182545D02*
X0209773Y0182545D01*
X0209773Y0182583D02*
X0213710Y0182583D01*
X0213710Y0182621D02*
X0209773Y0182621D01*
X0209773Y0182659D02*
X0213710Y0182659D01*
X0213710Y0182697D02*
X0209773Y0182697D01*
X0209773Y0182735D02*
X0213710Y0182735D01*
X0213710Y0182773D02*
X0209773Y0182773D01*
X0209773Y0182810D02*
X0213710Y0182810D01*
X0213710Y0182848D02*
X0209773Y0182848D01*
X0209773Y0182886D02*
X0213710Y0182886D01*
X0213710Y0182924D02*
X0209773Y0182924D01*
X0209773Y0182962D02*
X0213710Y0182962D01*
X0213710Y0183000D02*
X0209773Y0183000D01*
X0209773Y0183038D02*
X0213710Y0183038D01*
X0213710Y0183076D02*
X0209773Y0183076D01*
X0209773Y0183114D02*
X0213710Y0183114D01*
X0213710Y0183151D02*
X0209773Y0183151D01*
X0209773Y0183189D02*
X0213710Y0183189D01*
X0213710Y0183227D02*
X0209773Y0183227D01*
X0209773Y0183265D02*
X0213710Y0183265D01*
X0213710Y0183303D02*
X0209773Y0183303D01*
X0209773Y0183341D02*
X0213710Y0183341D01*
X0213710Y0183379D02*
X0209773Y0183379D01*
X0209773Y0183417D02*
X0213710Y0183417D01*
X0213710Y0183454D02*
X0209773Y0183454D01*
X0209773Y0183492D02*
X0213710Y0183492D01*
X0213710Y0183530D02*
X0209773Y0183530D01*
X0209773Y0183568D02*
X0213710Y0183568D01*
X0213710Y0183606D02*
X0209773Y0183606D01*
X0209773Y0183644D02*
X0213710Y0183644D01*
X0213710Y0183682D02*
X0209773Y0183682D01*
X0209773Y0183720D02*
X0213710Y0183720D01*
X0213710Y0183757D02*
X0209773Y0183757D01*
X0209773Y0183795D02*
X0213710Y0183795D01*
X0213710Y0183833D02*
X0209773Y0183833D01*
X0209773Y0183871D02*
X0213710Y0183871D01*
X0213710Y0183909D02*
X0209773Y0183909D01*
X0209773Y0183947D02*
X0213710Y0183947D01*
X0213710Y0183985D02*
X0209773Y0183985D01*
X0209773Y0184023D02*
X0213710Y0184023D01*
X0213710Y0184061D02*
X0209773Y0184061D01*
X0209773Y0184098D02*
X0213710Y0184098D01*
X0213710Y0184136D02*
X0209773Y0184136D01*
X0209773Y0184174D02*
X0213710Y0184174D01*
X0213710Y0184212D02*
X0209773Y0184212D01*
X0209773Y0184250D02*
X0213710Y0184250D01*
X0213710Y0184288D02*
X0209773Y0184288D01*
X0209773Y0184326D02*
X0213710Y0184326D01*
X0213710Y0184364D02*
X0209773Y0184364D01*
X0209773Y0184401D02*
X0213710Y0184401D01*
X0213710Y0184439D02*
X0209773Y0184439D01*
X0209773Y0184477D02*
X0213710Y0184477D01*
X0213710Y0184515D02*
X0209773Y0184515D01*
X0209773Y0184553D02*
X0213710Y0184553D01*
X0213710Y0184591D02*
X0209773Y0184591D01*
X0209773Y0184629D02*
X0213710Y0184629D01*
X0213710Y0184667D02*
X0209773Y0184667D01*
X0209773Y0184705D02*
X0213710Y0184705D01*
X0213710Y0184742D02*
X0209773Y0184742D01*
X0209773Y0184780D02*
X0213710Y0184780D01*
X0213710Y0184818D02*
X0209773Y0184818D01*
X0209773Y0184856D02*
X0213710Y0184856D01*
X0213710Y0184894D02*
X0209773Y0184894D01*
X0209773Y0184932D02*
X0213710Y0184932D01*
X0213710Y0184970D02*
X0209773Y0184970D01*
X0209773Y0185008D02*
X0213710Y0185008D01*
X0213710Y0185045D02*
X0209773Y0185045D01*
X0209773Y0185083D02*
X0213710Y0185083D01*
X0213710Y0185121D02*
X0209773Y0185121D01*
X0209773Y0185159D02*
X0213710Y0185159D01*
X0213710Y0185197D02*
X0209773Y0185197D01*
X0209773Y0185235D02*
X0213710Y0185235D01*
X0213710Y0185273D02*
X0209773Y0185273D01*
X0209773Y0185311D02*
X0213710Y0185311D01*
X0213710Y0185349D02*
X0209773Y0185349D01*
X0209773Y0185386D02*
X0213710Y0185386D01*
X0213710Y0185424D02*
X0209773Y0185424D01*
X0209773Y0185462D02*
X0213710Y0185462D01*
X0213710Y0185500D02*
X0209773Y0185500D01*
X0209773Y0185538D02*
X0213710Y0185538D01*
X0213710Y0185576D02*
X0209773Y0185576D01*
X0209773Y0185614D02*
X0213710Y0185614D01*
X0213710Y0185652D02*
X0209773Y0185652D01*
X0209773Y0185689D02*
X0213710Y0185689D01*
X0213710Y0185727D02*
X0209773Y0185727D01*
X0209773Y0185765D02*
X0213710Y0185765D01*
X0213710Y0185803D02*
X0209773Y0185803D01*
X0209773Y0185841D02*
X0213710Y0185841D01*
X0213710Y0185879D02*
X0209773Y0185879D01*
X0209773Y0185917D02*
X0213710Y0185917D01*
X0213710Y0185955D02*
X0209773Y0185955D01*
X0209773Y0185992D02*
X0213710Y0185992D01*
X0213710Y0186030D02*
X0209773Y0186030D01*
X0209773Y0186068D02*
X0213710Y0186068D01*
X0213710Y0186106D02*
X0209773Y0186106D01*
X0209773Y0186144D02*
X0213710Y0186144D01*
X0213710Y0186182D02*
X0209773Y0186182D01*
X0209773Y0186220D02*
X0213710Y0186220D01*
X0213710Y0186258D02*
X0209773Y0186258D01*
X0209773Y0186296D02*
X0213710Y0186296D01*
X0213710Y0186333D02*
X0209773Y0186333D01*
X0209773Y0186371D02*
X0213710Y0186371D01*
X0213710Y0186409D02*
X0209773Y0186409D01*
X0209773Y0186447D02*
X0213710Y0186447D01*
X0213710Y0186485D02*
X0209773Y0186485D01*
X0209773Y0186523D02*
X0213710Y0186523D01*
X0213710Y0186561D02*
X0209773Y0186561D01*
X0209773Y0186599D02*
X0213710Y0186599D01*
X0213710Y0186636D02*
X0209773Y0186636D01*
X0209773Y0186674D02*
X0213710Y0186674D01*
X0213710Y0186684D02*
X0213648Y0187077D01*
X0213500Y0187445D01*
X0213274Y0187772D01*
X0212981Y0188040D01*
X0212636Y0188236D01*
X0212256Y0188350D01*
X0211859Y0188377D01*
X0211434Y0188374D01*
X0211020Y0188275D01*
X0210638Y0188088D01*
X0210308Y0187820D01*
X0210045Y0187485D01*
X0209864Y0187100D01*
X0209773Y0186684D01*
X0209773Y0181960D01*
X0209848Y0181525D01*
X0210019Y0181117D01*
X0210276Y0180758D01*
X0210606Y0180465D01*
X0210994Y0180253D01*
X0211418Y0180133D01*
X0211859Y0180109D01*
X0212271Y0180156D01*
X0212662Y0180293D01*
X0213013Y0180513D01*
X0213306Y0180806D01*
X0213526Y0181157D01*
X0213663Y0181548D01*
X0213710Y0181960D01*
X0213710Y0186684D01*
X0213705Y0186712D02*
X0209779Y0186712D01*
X0209787Y0186750D02*
X0213699Y0186750D01*
X0213693Y0186788D02*
X0209795Y0186788D01*
X0209804Y0186826D02*
X0213687Y0186826D01*
X0213681Y0186864D02*
X0209812Y0186864D01*
X0209820Y0186902D02*
X0213675Y0186902D01*
X0213669Y0186940D02*
X0209829Y0186940D01*
X0209837Y0186977D02*
X0213663Y0186977D01*
X0213657Y0187015D02*
X0209845Y0187015D01*
X0209854Y0187053D02*
X0213651Y0187053D01*
X0213642Y0187091D02*
X0209862Y0187091D01*
X0209878Y0187129D02*
X0213627Y0187129D01*
X0213612Y0187167D02*
X0209895Y0187167D01*
X0209913Y0187205D02*
X0213596Y0187205D01*
X0213581Y0187243D02*
X0209931Y0187243D01*
X0209949Y0187280D02*
X0213566Y0187280D01*
X0213551Y0187318D02*
X0209967Y0187318D01*
X0209985Y0187356D02*
X0213536Y0187356D01*
X0213521Y0187394D02*
X0210003Y0187394D01*
X0210020Y0187432D02*
X0213505Y0187432D01*
X0213483Y0187470D02*
X0210038Y0187470D01*
X0210063Y0187508D02*
X0213457Y0187508D01*
X0213431Y0187546D02*
X0210093Y0187546D01*
X0210123Y0187584D02*
X0213404Y0187584D01*
X0213378Y0187621D02*
X0210152Y0187621D01*
X0210182Y0187659D02*
X0213352Y0187659D01*
X0213326Y0187697D02*
X0210212Y0187697D01*
X0210241Y0187735D02*
X0213299Y0187735D01*
X0213273Y0187773D02*
X0210271Y0187773D01*
X0210301Y0187811D02*
X0213231Y0187811D01*
X0213190Y0187849D02*
X0210344Y0187849D01*
X0210390Y0187887D02*
X0213149Y0187887D01*
X0213107Y0187924D02*
X0210437Y0187924D01*
X0210484Y0187962D02*
X0213066Y0187962D01*
X0213024Y0188000D02*
X0210530Y0188000D01*
X0210577Y0188038D02*
X0212983Y0188038D01*
X0212917Y0188076D02*
X0210624Y0188076D01*
X0210691Y0188114D02*
X0212851Y0188114D01*
X0212784Y0188152D02*
X0210768Y0188152D01*
X0210845Y0188190D02*
X0212717Y0188190D01*
X0212651Y0188227D02*
X0210922Y0188227D01*
X0210999Y0188265D02*
X0212538Y0188265D01*
X0212412Y0188303D02*
X0211137Y0188303D01*
X0211297Y0188341D02*
X0212286Y0188341D01*
X0213710Y0182015D02*
X0209773Y0182015D01*
X0209773Y0181977D02*
X0213710Y0181977D01*
X0213707Y0181939D02*
X0209776Y0181939D01*
X0209783Y0181901D02*
X0213703Y0181901D01*
X0213699Y0181863D02*
X0209789Y0181863D01*
X0209796Y0181826D02*
X0213695Y0181826D01*
X0213690Y0181788D02*
X0209803Y0181788D01*
X0209809Y0181750D02*
X0213686Y0181750D01*
X0213682Y0181712D02*
X0209816Y0181712D01*
X0209822Y0181674D02*
X0213678Y0181674D01*
X0213673Y0181636D02*
X0209829Y0181636D01*
X0209836Y0181598D02*
X0213669Y0181598D01*
X0213665Y0181560D02*
X0209842Y0181560D01*
X0209849Y0181522D02*
X0213654Y0181522D01*
X0213641Y0181485D02*
X0209865Y0181485D01*
X0209881Y0181447D02*
X0213628Y0181447D01*
X0213615Y0181409D02*
X0209897Y0181409D01*
X0209913Y0181371D02*
X0213601Y0181371D01*
X0213588Y0181333D02*
X0209929Y0181333D01*
X0209944Y0181295D02*
X0213575Y0181295D01*
X0213562Y0181257D02*
X0209960Y0181257D01*
X0209976Y0181219D02*
X0213548Y0181219D01*
X0213535Y0181182D02*
X0209992Y0181182D01*
X0210008Y0181144D02*
X0213518Y0181144D01*
X0213494Y0181106D02*
X0210027Y0181106D01*
X0210054Y0181068D02*
X0213470Y0181068D01*
X0213447Y0181030D02*
X0210081Y0181030D01*
X0210109Y0180992D02*
X0213423Y0180992D01*
X0213399Y0180954D02*
X0210136Y0180954D01*
X0210163Y0180916D02*
X0213375Y0180916D01*
X0213351Y0180879D02*
X0210190Y0180879D01*
X0210217Y0180841D02*
X0213328Y0180841D01*
X0213303Y0180803D02*
X0210244Y0180803D01*
X0210271Y0180765D02*
X0213265Y0180765D01*
X0213227Y0180727D02*
X0210311Y0180727D01*
X0210354Y0180689D02*
X0213189Y0180689D01*
X0213151Y0180651D02*
X0210397Y0180651D01*
X0210439Y0180613D02*
X0213113Y0180613D01*
X0213075Y0180575D02*
X0210482Y0180575D01*
X0210525Y0180538D02*
X0213037Y0180538D01*
X0212992Y0180500D02*
X0210567Y0180500D01*
X0210613Y0180462D02*
X0212931Y0180462D01*
X0212871Y0180424D02*
X0210682Y0180424D01*
X0210751Y0180386D02*
X0212811Y0180386D01*
X0212750Y0180348D02*
X0210820Y0180348D01*
X0210889Y0180310D02*
X0212690Y0180310D01*
X0212604Y0180272D02*
X0210958Y0180272D01*
X0211059Y0180235D02*
X0212496Y0180235D01*
X0212388Y0180197D02*
X0211193Y0180197D01*
X0211326Y0180159D02*
X0212279Y0180159D01*
X0211961Y0180121D02*
X0211641Y0180121D01*
X0211662Y0197629D02*
X0211234Y0197686D01*
X0210829Y0197837D01*
X0210468Y0198075D01*
X0210169Y0198386D01*
X0209947Y0198757D01*
X0209812Y0199167D01*
X0209773Y0199598D01*
X0209773Y0201960D01*
X0209812Y0202390D01*
X0209947Y0202801D01*
X0210169Y0203171D01*
X0210468Y0203483D01*
X0210829Y0203720D01*
X0211234Y0203871D01*
X0211662Y0203928D01*
X0212110Y0203887D01*
X0212538Y0203747D01*
X0212923Y0203515D01*
X0213247Y0203203D01*
X0213494Y0202827D01*
X0213651Y0202406D01*
X0213710Y0201960D01*
X0213710Y0199598D01*
X0213651Y0199152D01*
X0213494Y0198730D01*
X0213247Y0198354D01*
X0212923Y0198043D01*
X0212538Y0197811D01*
X0212110Y0197671D01*
X0211662Y0197629D01*
X0211431Y0197660D02*
X0211994Y0197660D01*
X0212193Y0197698D02*
X0211203Y0197698D01*
X0211102Y0197736D02*
X0212308Y0197736D01*
X0212424Y0197774D02*
X0211000Y0197774D01*
X0210898Y0197811D02*
X0212539Y0197811D01*
X0212602Y0197849D02*
X0210811Y0197849D01*
X0210753Y0197887D02*
X0212665Y0197887D01*
X0212728Y0197925D02*
X0210696Y0197925D01*
X0210638Y0197963D02*
X0212791Y0197963D01*
X0212854Y0198001D02*
X0210580Y0198001D01*
X0210523Y0198039D02*
X0212917Y0198039D01*
X0212958Y0198077D02*
X0210466Y0198077D01*
X0210430Y0198115D02*
X0212998Y0198115D01*
X0213037Y0198152D02*
X0210394Y0198152D01*
X0210357Y0198190D02*
X0213077Y0198190D01*
X0213116Y0198228D02*
X0210321Y0198228D01*
X0210284Y0198266D02*
X0213155Y0198266D01*
X0213195Y0198304D02*
X0210248Y0198304D01*
X0210212Y0198342D02*
X0213234Y0198342D01*
X0213264Y0198380D02*
X0210175Y0198380D01*
X0210150Y0198418D02*
X0213289Y0198418D01*
X0213313Y0198455D02*
X0210127Y0198455D01*
X0210105Y0198493D02*
X0213338Y0198493D01*
X0213363Y0198531D02*
X0210082Y0198531D01*
X0210059Y0198569D02*
X0213388Y0198569D01*
X0213413Y0198607D02*
X0210037Y0198607D01*
X0210014Y0198645D02*
X0213438Y0198645D01*
X0213463Y0198683D02*
X0209991Y0198683D01*
X0209968Y0198721D02*
X0213487Y0198721D01*
X0213504Y0198759D02*
X0209946Y0198759D01*
X0209934Y0198796D02*
X0213518Y0198796D01*
X0213532Y0198834D02*
X0209921Y0198834D01*
X0209909Y0198872D02*
X0213547Y0198872D01*
X0213561Y0198910D02*
X0209897Y0198910D01*
X0209884Y0198948D02*
X0213575Y0198948D01*
X0213589Y0198986D02*
X0209872Y0198986D01*
X0209859Y0199024D02*
X0213603Y0199024D01*
X0213617Y0199062D02*
X0209847Y0199062D01*
X0209835Y0199099D02*
X0213631Y0199099D01*
X0213645Y0199137D02*
X0209822Y0199137D01*
X0209812Y0199175D02*
X0213654Y0199175D01*
X0213659Y0199213D02*
X0209808Y0199213D01*
X0209805Y0199251D02*
X0213664Y0199251D01*
X0213669Y0199289D02*
X0209801Y0199289D01*
X0209798Y0199327D02*
X0213674Y0199327D01*
X0213679Y0199365D02*
X0209794Y0199365D01*
X0209791Y0199403D02*
X0213684Y0199403D01*
X0213689Y0199440D02*
X0209787Y0199440D01*
X0209784Y0199478D02*
X0213694Y0199478D01*
X0213699Y0199516D02*
X0209780Y0199516D01*
X0209777Y0199554D02*
X0213704Y0199554D01*
X0213709Y0199592D02*
X0209773Y0199592D01*
X0209773Y0199630D02*
X0213710Y0199630D01*
X0213710Y0199668D02*
X0209773Y0199668D01*
X0209773Y0199706D02*
X0213710Y0199706D01*
X0213710Y0199743D02*
X0209773Y0199743D01*
X0209773Y0199781D02*
X0213710Y0199781D01*
X0213710Y0199819D02*
X0209773Y0199819D01*
X0209773Y0199857D02*
X0213710Y0199857D01*
X0213710Y0199895D02*
X0209773Y0199895D01*
X0209773Y0199933D02*
X0213710Y0199933D01*
X0213710Y0199971D02*
X0209773Y0199971D01*
X0209773Y0200009D02*
X0213710Y0200009D01*
X0213710Y0200046D02*
X0209773Y0200046D01*
X0209773Y0200084D02*
X0213710Y0200084D01*
X0213710Y0200122D02*
X0209773Y0200122D01*
X0209773Y0200160D02*
X0213710Y0200160D01*
X0213710Y0200198D02*
X0209773Y0200198D01*
X0209773Y0200236D02*
X0213710Y0200236D01*
X0213710Y0200274D02*
X0209773Y0200274D01*
X0209773Y0200312D02*
X0213710Y0200312D01*
X0213710Y0200350D02*
X0209773Y0200350D01*
X0209773Y0200387D02*
X0213710Y0200387D01*
X0213710Y0200425D02*
X0209773Y0200425D01*
X0209773Y0200463D02*
X0213710Y0200463D01*
X0213710Y0200501D02*
X0209773Y0200501D01*
X0209773Y0200539D02*
X0213710Y0200539D01*
X0213710Y0200577D02*
X0209773Y0200577D01*
X0209773Y0200615D02*
X0213710Y0200615D01*
X0213710Y0200653D02*
X0209773Y0200653D01*
X0209773Y0200690D02*
X0213710Y0200690D01*
X0213710Y0200728D02*
X0209773Y0200728D01*
X0209773Y0200766D02*
X0213710Y0200766D01*
X0213710Y0200804D02*
X0209773Y0200804D01*
X0209773Y0200842D02*
X0213710Y0200842D01*
X0213710Y0200880D02*
X0209773Y0200880D01*
X0209773Y0200918D02*
X0213710Y0200918D01*
X0213710Y0200956D02*
X0209773Y0200956D01*
X0209773Y0200994D02*
X0213710Y0200994D01*
X0213710Y0201031D02*
X0209773Y0201031D01*
X0209773Y0201069D02*
X0213710Y0201069D01*
X0213710Y0201107D02*
X0209773Y0201107D01*
X0209773Y0201145D02*
X0213710Y0201145D01*
X0213710Y0201183D02*
X0209773Y0201183D01*
X0209773Y0201221D02*
X0213710Y0201221D01*
X0213710Y0201259D02*
X0209773Y0201259D01*
X0209773Y0201297D02*
X0213710Y0201297D01*
X0213710Y0201334D02*
X0209773Y0201334D01*
X0209773Y0201372D02*
X0213710Y0201372D01*
X0213710Y0201410D02*
X0209773Y0201410D01*
X0209773Y0201448D02*
X0213710Y0201448D01*
X0213710Y0201486D02*
X0209773Y0201486D01*
X0209773Y0201524D02*
X0213710Y0201524D01*
X0213710Y0201562D02*
X0209773Y0201562D01*
X0209773Y0201600D02*
X0213710Y0201600D01*
X0213710Y0201638D02*
X0209773Y0201638D01*
X0209773Y0201675D02*
X0213710Y0201675D01*
X0213710Y0201713D02*
X0209773Y0201713D01*
X0209773Y0201751D02*
X0213710Y0201751D01*
X0213710Y0201789D02*
X0209773Y0201789D01*
X0209773Y0201827D02*
X0213710Y0201827D01*
X0213710Y0201865D02*
X0209773Y0201865D01*
X0209773Y0201903D02*
X0213710Y0201903D01*
X0213710Y0201941D02*
X0209773Y0201941D01*
X0209774Y0201978D02*
X0213707Y0201978D01*
X0213702Y0202016D02*
X0209778Y0202016D01*
X0209781Y0202054D02*
X0213697Y0202054D01*
X0213692Y0202092D02*
X0209785Y0202092D01*
X0209788Y0202130D02*
X0213687Y0202130D01*
X0213682Y0202168D02*
X0209792Y0202168D01*
X0209795Y0202206D02*
X0213677Y0202206D01*
X0213672Y0202244D02*
X0209799Y0202244D01*
X0209802Y0202281D02*
X0213667Y0202281D01*
X0213662Y0202319D02*
X0209806Y0202319D01*
X0209809Y0202357D02*
X0213657Y0202357D01*
X0213652Y0202395D02*
X0209814Y0202395D01*
X0209826Y0202433D02*
X0213640Y0202433D01*
X0213626Y0202471D02*
X0209839Y0202471D01*
X0209851Y0202509D02*
X0213612Y0202509D01*
X0213598Y0202547D02*
X0209864Y0202547D01*
X0209876Y0202585D02*
X0213584Y0202585D01*
X0213570Y0202622D02*
X0209888Y0202622D01*
X0209901Y0202660D02*
X0213556Y0202660D01*
X0213542Y0202698D02*
X0209913Y0202698D01*
X0209925Y0202736D02*
X0213528Y0202736D01*
X0213514Y0202774D02*
X0209938Y0202774D01*
X0209953Y0202812D02*
X0213499Y0202812D01*
X0213479Y0202850D02*
X0209976Y0202850D01*
X0209999Y0202888D02*
X0213454Y0202888D01*
X0213429Y0202925D02*
X0210022Y0202925D01*
X0210044Y0202963D02*
X0213404Y0202963D01*
X0213380Y0203001D02*
X0210067Y0203001D01*
X0210090Y0203039D02*
X0213355Y0203039D01*
X0213330Y0203077D02*
X0210112Y0203077D01*
X0210135Y0203115D02*
X0213305Y0203115D01*
X0213280Y0203153D02*
X0210158Y0203153D01*
X0210188Y0203191D02*
X0213255Y0203191D01*
X0213221Y0203229D02*
X0210224Y0203229D01*
X0210260Y0203266D02*
X0213181Y0203266D01*
X0213142Y0203304D02*
X0210297Y0203304D01*
X0210333Y0203342D02*
X0213103Y0203342D01*
X0213063Y0203380D02*
X0210370Y0203380D01*
X0210406Y0203418D02*
X0213024Y0203418D01*
X0212984Y0203456D02*
X0210442Y0203456D01*
X0210485Y0203494D02*
X0212945Y0203494D01*
X0212895Y0203532D02*
X0210542Y0203532D01*
X0210600Y0203569D02*
X0212832Y0203569D01*
X0212769Y0203607D02*
X0210658Y0203607D01*
X0210715Y0203645D02*
X0212706Y0203645D01*
X0212643Y0203683D02*
X0210773Y0203683D01*
X0210831Y0203721D02*
X0212580Y0203721D01*
X0212500Y0203759D02*
X0210933Y0203759D01*
X0211035Y0203797D02*
X0212385Y0203797D01*
X0212269Y0203835D02*
X0211136Y0203835D01*
X0211244Y0203873D02*
X0212154Y0203873D01*
X0211856Y0203910D02*
X0211528Y0203910D01*
X0179694Y0202157D02*
X0179694Y0199794D01*
X0179674Y0199340D01*
X0179553Y0198901D01*
X0179338Y0198500D01*
X0179038Y0198157D01*
X0178670Y0197890D01*
X0178252Y0197711D01*
X0177804Y0197629D01*
X0177356Y0197671D01*
X0176929Y0197811D01*
X0176544Y0198043D01*
X0176220Y0198354D01*
X0175973Y0198730D01*
X0175816Y0199152D01*
X0175757Y0199598D01*
X0175757Y0201960D01*
X0175792Y0202386D01*
X0175920Y0202794D01*
X0176137Y0203163D01*
X0176430Y0203475D01*
X0176785Y0203714D01*
X0177184Y0203867D01*
X0177607Y0203928D01*
X0178041Y0203915D01*
X0178460Y0203806D01*
X0178845Y0203606D01*
X0179175Y0203325D01*
X0179435Y0202978D01*
X0179611Y0202582D01*
X0179694Y0202157D01*
X0179692Y0202168D02*
X0175774Y0202168D01*
X0175777Y0202206D02*
X0179684Y0202206D01*
X0179677Y0202244D02*
X0175780Y0202244D01*
X0175783Y0202281D02*
X0179669Y0202281D01*
X0179662Y0202319D02*
X0175786Y0202319D01*
X0175789Y0202357D02*
X0179655Y0202357D01*
X0179647Y0202395D02*
X0175794Y0202395D01*
X0175806Y0202433D02*
X0179640Y0202433D01*
X0179632Y0202471D02*
X0175818Y0202471D01*
X0175830Y0202509D02*
X0179625Y0202509D01*
X0179617Y0202547D02*
X0175842Y0202547D01*
X0175854Y0202585D02*
X0179609Y0202585D01*
X0179593Y0202622D02*
X0175866Y0202622D01*
X0175878Y0202660D02*
X0179576Y0202660D01*
X0179559Y0202698D02*
X0175890Y0202698D01*
X0175902Y0202736D02*
X0179542Y0202736D01*
X0179525Y0202774D02*
X0175914Y0202774D01*
X0175931Y0202812D02*
X0179508Y0202812D01*
X0179492Y0202850D02*
X0175953Y0202850D01*
X0175975Y0202888D02*
X0179475Y0202888D01*
X0179458Y0202925D02*
X0175997Y0202925D01*
X0176020Y0202963D02*
X0179441Y0202963D01*
X0179417Y0203001D02*
X0176042Y0203001D01*
X0176064Y0203039D02*
X0179389Y0203039D01*
X0179361Y0203077D02*
X0176086Y0203077D01*
X0176108Y0203115D02*
X0179332Y0203115D01*
X0179304Y0203153D02*
X0176131Y0203153D01*
X0176162Y0203191D02*
X0179276Y0203191D01*
X0179247Y0203229D02*
X0176198Y0203229D01*
X0176234Y0203266D02*
X0179219Y0203266D01*
X0179190Y0203304D02*
X0176269Y0203304D01*
X0176305Y0203342D02*
X0179155Y0203342D01*
X0179110Y0203380D02*
X0176341Y0203380D01*
X0176376Y0203418D02*
X0179066Y0203418D01*
X0179021Y0203456D02*
X0176412Y0203456D01*
X0176458Y0203494D02*
X0178976Y0203494D01*
X0178932Y0203532D02*
X0176514Y0203532D01*
X0176570Y0203569D02*
X0178887Y0203569D01*
X0178841Y0203607D02*
X0176627Y0203607D01*
X0176683Y0203645D02*
X0178768Y0203645D01*
X0178696Y0203683D02*
X0176739Y0203683D01*
X0176804Y0203721D02*
X0178623Y0203721D01*
X0178550Y0203759D02*
X0176902Y0203759D01*
X0177001Y0203797D02*
X0178477Y0203797D01*
X0178349Y0203835D02*
X0177099Y0203835D01*
X0177220Y0203873D02*
X0178204Y0203873D01*
X0178058Y0203910D02*
X0177483Y0203910D01*
X0175771Y0202130D02*
X0179694Y0202130D01*
X0179694Y0202092D02*
X0175768Y0202092D01*
X0175765Y0202054D02*
X0179694Y0202054D01*
X0179694Y0202016D02*
X0175762Y0202016D01*
X0175758Y0201978D02*
X0179694Y0201978D01*
X0179694Y0201941D02*
X0175757Y0201941D01*
X0175757Y0201903D02*
X0179694Y0201903D01*
X0179694Y0201865D02*
X0175757Y0201865D01*
X0175757Y0201827D02*
X0179694Y0201827D01*
X0179694Y0201789D02*
X0175757Y0201789D01*
X0175757Y0201751D02*
X0179694Y0201751D01*
X0179694Y0201713D02*
X0175757Y0201713D01*
X0175757Y0201675D02*
X0179694Y0201675D01*
X0179694Y0201638D02*
X0175757Y0201638D01*
X0175757Y0201600D02*
X0179694Y0201600D01*
X0179694Y0201562D02*
X0175757Y0201562D01*
X0175757Y0201524D02*
X0179694Y0201524D01*
X0179694Y0201486D02*
X0175757Y0201486D01*
X0175757Y0201448D02*
X0179694Y0201448D01*
X0179694Y0201410D02*
X0175757Y0201410D01*
X0175757Y0201372D02*
X0179694Y0201372D01*
X0179694Y0201334D02*
X0175757Y0201334D01*
X0175757Y0201297D02*
X0179694Y0201297D01*
X0179694Y0201259D02*
X0175757Y0201259D01*
X0175757Y0201221D02*
X0179694Y0201221D01*
X0179694Y0201183D02*
X0175757Y0201183D01*
X0175757Y0201145D02*
X0179694Y0201145D01*
X0179694Y0201107D02*
X0175757Y0201107D01*
X0175757Y0201069D02*
X0179694Y0201069D01*
X0179694Y0201031D02*
X0175757Y0201031D01*
X0175757Y0200994D02*
X0179694Y0200994D01*
X0179694Y0200956D02*
X0175757Y0200956D01*
X0175757Y0200918D02*
X0179694Y0200918D01*
X0179694Y0200880D02*
X0175757Y0200880D01*
X0175757Y0200842D02*
X0179694Y0200842D01*
X0179694Y0200804D02*
X0175757Y0200804D01*
X0175757Y0200766D02*
X0179694Y0200766D01*
X0179694Y0200728D02*
X0175757Y0200728D01*
X0175757Y0200690D02*
X0179694Y0200690D01*
X0179694Y0200653D02*
X0175757Y0200653D01*
X0175757Y0200615D02*
X0179694Y0200615D01*
X0179694Y0200577D02*
X0175757Y0200577D01*
X0175757Y0200539D02*
X0179694Y0200539D01*
X0179694Y0200501D02*
X0175757Y0200501D01*
X0175757Y0200463D02*
X0179694Y0200463D01*
X0179694Y0200425D02*
X0175757Y0200425D01*
X0175757Y0200387D02*
X0179694Y0200387D01*
X0179694Y0200350D02*
X0175757Y0200350D01*
X0175757Y0200312D02*
X0179694Y0200312D01*
X0179694Y0200274D02*
X0175757Y0200274D01*
X0175757Y0200236D02*
X0179694Y0200236D01*
X0179694Y0200198D02*
X0175757Y0200198D01*
X0175757Y0200160D02*
X0179694Y0200160D01*
X0179694Y0200122D02*
X0175757Y0200122D01*
X0175757Y0200084D02*
X0179694Y0200084D01*
X0179694Y0200046D02*
X0175757Y0200046D01*
X0175757Y0200009D02*
X0179694Y0200009D01*
X0179694Y0199971D02*
X0175757Y0199971D01*
X0175757Y0199933D02*
X0179694Y0199933D01*
X0179694Y0199895D02*
X0175757Y0199895D01*
X0175757Y0199857D02*
X0179694Y0199857D01*
X0179694Y0199819D02*
X0175757Y0199819D01*
X0175757Y0199781D02*
X0179693Y0199781D01*
X0179692Y0199743D02*
X0175757Y0199743D01*
X0175757Y0199706D02*
X0179690Y0199706D01*
X0179688Y0199668D02*
X0175757Y0199668D01*
X0175757Y0199630D02*
X0179687Y0199630D01*
X0179685Y0199592D02*
X0175758Y0199592D01*
X0175763Y0199554D02*
X0179683Y0199554D01*
X0179682Y0199516D02*
X0175768Y0199516D01*
X0175773Y0199478D02*
X0179680Y0199478D01*
X0179678Y0199440D02*
X0175778Y0199440D01*
X0175783Y0199403D02*
X0179677Y0199403D01*
X0179675Y0199365D02*
X0175788Y0199365D01*
X0175793Y0199327D02*
X0179670Y0199327D01*
X0179660Y0199289D02*
X0175798Y0199289D01*
X0175803Y0199251D02*
X0179649Y0199251D01*
X0179639Y0199213D02*
X0175808Y0199213D01*
X0175813Y0199175D02*
X0179628Y0199175D01*
X0179618Y0199137D02*
X0175821Y0199137D01*
X0175836Y0199099D02*
X0179608Y0199099D01*
X0179597Y0199062D02*
X0175850Y0199062D01*
X0175864Y0199024D02*
X0179587Y0199024D01*
X0179576Y0198986D02*
X0175878Y0198986D01*
X0175892Y0198948D02*
X0179566Y0198948D01*
X0179555Y0198910D02*
X0175906Y0198910D01*
X0175920Y0198872D02*
X0179537Y0198872D01*
X0179517Y0198834D02*
X0175934Y0198834D01*
X0175948Y0198796D02*
X0179497Y0198796D01*
X0179476Y0198759D02*
X0175962Y0198759D01*
X0175979Y0198721D02*
X0179456Y0198721D01*
X0179436Y0198683D02*
X0176004Y0198683D01*
X0176029Y0198645D02*
X0179415Y0198645D01*
X0179395Y0198607D02*
X0176054Y0198607D01*
X0176079Y0198569D02*
X0179375Y0198569D01*
X0179354Y0198531D02*
X0176104Y0198531D01*
X0176128Y0198493D02*
X0179332Y0198493D01*
X0179298Y0198455D02*
X0176153Y0198455D01*
X0176178Y0198418D02*
X0179265Y0198418D01*
X0179232Y0198380D02*
X0176203Y0198380D01*
X0176233Y0198342D02*
X0179199Y0198342D01*
X0179166Y0198304D02*
X0176272Y0198304D01*
X0176311Y0198266D02*
X0179133Y0198266D01*
X0179100Y0198228D02*
X0176351Y0198228D01*
X0176390Y0198190D02*
X0179067Y0198190D01*
X0179031Y0198152D02*
X0176430Y0198152D01*
X0176469Y0198115D02*
X0178979Y0198115D01*
X0178927Y0198077D02*
X0176508Y0198077D01*
X0176550Y0198039D02*
X0178875Y0198039D01*
X0178823Y0198001D02*
X0176613Y0198001D01*
X0176676Y0197963D02*
X0178771Y0197963D01*
X0178719Y0197925D02*
X0176739Y0197925D01*
X0176802Y0197887D02*
X0178665Y0197887D01*
X0178576Y0197849D02*
X0176865Y0197849D01*
X0176928Y0197811D02*
X0178488Y0197811D01*
X0178399Y0197774D02*
X0177043Y0197774D01*
X0177158Y0197736D02*
X0178311Y0197736D01*
X0178182Y0197698D02*
X0177274Y0197698D01*
X0177472Y0197660D02*
X0177974Y0197660D01*
X0178186Y0188379D02*
X0178558Y0188295D01*
X0178903Y0188131D01*
X0179202Y0187894D01*
X0179441Y0187596D01*
X0179608Y0187253D01*
X0179694Y0186881D01*
X0179694Y0182157D01*
X0179662Y0181717D01*
X0179533Y0181295D01*
X0179314Y0180912D01*
X0179014Y0180588D01*
X0178651Y0180339D01*
X0178240Y0180176D01*
X0177804Y0180109D01*
X0177368Y0180136D01*
X0176949Y0180260D01*
X0176568Y0180473D01*
X0176243Y0180766D01*
X0175993Y0181124D01*
X0175828Y0181529D01*
X0175757Y0181960D01*
X0175757Y0186684D01*
X0175843Y0187096D01*
X0176019Y0187478D01*
X0176275Y0187812D01*
X0176600Y0188080D01*
X0176975Y0188269D01*
X0177384Y0188370D01*
X0177804Y0188377D01*
X0178186Y0188379D01*
X0178352Y0188341D02*
X0177268Y0188341D01*
X0177115Y0188303D02*
X0178521Y0188303D01*
X0178620Y0188265D02*
X0176968Y0188265D01*
X0176893Y0188227D02*
X0178700Y0188227D01*
X0178779Y0188190D02*
X0176818Y0188190D01*
X0176743Y0188152D02*
X0178858Y0188152D01*
X0178924Y0188114D02*
X0176668Y0188114D01*
X0176595Y0188076D02*
X0178972Y0188076D01*
X0179019Y0188038D02*
X0176549Y0188038D01*
X0176504Y0188000D02*
X0179067Y0188000D01*
X0179115Y0187962D02*
X0176458Y0187962D01*
X0176412Y0187924D02*
X0179163Y0187924D01*
X0179208Y0187887D02*
X0176366Y0187887D01*
X0176320Y0187849D02*
X0179238Y0187849D01*
X0179268Y0187811D02*
X0176275Y0187811D01*
X0176246Y0187773D02*
X0179299Y0187773D01*
X0179329Y0187735D02*
X0176217Y0187735D01*
X0176187Y0187697D02*
X0179360Y0187697D01*
X0179390Y0187659D02*
X0176158Y0187659D01*
X0176129Y0187621D02*
X0179421Y0187621D01*
X0179447Y0187584D02*
X0176100Y0187584D01*
X0176071Y0187546D02*
X0179465Y0187546D01*
X0179484Y0187508D02*
X0176042Y0187508D01*
X0176015Y0187470D02*
X0179502Y0187470D01*
X0179521Y0187432D02*
X0175998Y0187432D01*
X0175980Y0187394D02*
X0179539Y0187394D01*
X0179557Y0187356D02*
X0175963Y0187356D01*
X0175946Y0187318D02*
X0179576Y0187318D01*
X0179594Y0187280D02*
X0175928Y0187280D01*
X0175911Y0187243D02*
X0179610Y0187243D01*
X0179619Y0187205D02*
X0175893Y0187205D01*
X0175876Y0187167D02*
X0179628Y0187167D01*
X0179636Y0187129D02*
X0175858Y0187129D01*
X0175842Y0187091D02*
X0179645Y0187091D01*
X0179654Y0187053D02*
X0175834Y0187053D01*
X0175826Y0187015D02*
X0179663Y0187015D01*
X0179672Y0186977D02*
X0175818Y0186977D01*
X0175810Y0186940D02*
X0179680Y0186940D01*
X0179689Y0186902D02*
X0175803Y0186902D01*
X0175795Y0186864D02*
X0179694Y0186864D01*
X0179694Y0186826D02*
X0175787Y0186826D01*
X0175779Y0186788D02*
X0179694Y0186788D01*
X0179694Y0186750D02*
X0175771Y0186750D01*
X0175763Y0186712D02*
X0179694Y0186712D01*
X0179694Y0186674D02*
X0175757Y0186674D01*
X0175757Y0186636D02*
X0179694Y0186636D01*
X0179694Y0186599D02*
X0175757Y0186599D01*
X0175757Y0186561D02*
X0179694Y0186561D01*
X0179694Y0186523D02*
X0175757Y0186523D01*
X0175757Y0186485D02*
X0179694Y0186485D01*
X0179694Y0186447D02*
X0175757Y0186447D01*
X0175757Y0186409D02*
X0179694Y0186409D01*
X0179694Y0186371D02*
X0175757Y0186371D01*
X0175757Y0186333D02*
X0179694Y0186333D01*
X0179694Y0186296D02*
X0175757Y0186296D01*
X0175757Y0186258D02*
X0179694Y0186258D01*
X0179694Y0186220D02*
X0175757Y0186220D01*
X0175757Y0186182D02*
X0179694Y0186182D01*
X0179694Y0186144D02*
X0175757Y0186144D01*
X0175757Y0186106D02*
X0179694Y0186106D01*
X0179694Y0186068D02*
X0175757Y0186068D01*
X0175757Y0186030D02*
X0179694Y0186030D01*
X0179694Y0185992D02*
X0175757Y0185992D01*
X0175757Y0185955D02*
X0179694Y0185955D01*
X0179694Y0185917D02*
X0175757Y0185917D01*
X0175757Y0185879D02*
X0179694Y0185879D01*
X0179694Y0185841D02*
X0175757Y0185841D01*
X0175757Y0185803D02*
X0179694Y0185803D01*
X0179694Y0185765D02*
X0175757Y0185765D01*
X0175757Y0185727D02*
X0179694Y0185727D01*
X0179694Y0185689D02*
X0175757Y0185689D01*
X0175757Y0185652D02*
X0179694Y0185652D01*
X0179694Y0185614D02*
X0175757Y0185614D01*
X0175757Y0185576D02*
X0179694Y0185576D01*
X0179694Y0185538D02*
X0175757Y0185538D01*
X0175757Y0185500D02*
X0179694Y0185500D01*
X0179694Y0185462D02*
X0175757Y0185462D01*
X0175757Y0185424D02*
X0179694Y0185424D01*
X0179694Y0185386D02*
X0175757Y0185386D01*
X0175757Y0185349D02*
X0179694Y0185349D01*
X0179694Y0185311D02*
X0175757Y0185311D01*
X0175757Y0185273D02*
X0179694Y0185273D01*
X0179694Y0185235D02*
X0175757Y0185235D01*
X0175757Y0185197D02*
X0179694Y0185197D01*
X0179694Y0185159D02*
X0175757Y0185159D01*
X0175757Y0185121D02*
X0179694Y0185121D01*
X0179694Y0185083D02*
X0175757Y0185083D01*
X0175757Y0185045D02*
X0179694Y0185045D01*
X0179694Y0185008D02*
X0175757Y0185008D01*
X0175757Y0184970D02*
X0179694Y0184970D01*
X0179694Y0184932D02*
X0175757Y0184932D01*
X0175757Y0184894D02*
X0179694Y0184894D01*
X0179694Y0184856D02*
X0175757Y0184856D01*
X0175757Y0184818D02*
X0179694Y0184818D01*
X0179694Y0184780D02*
X0175757Y0184780D01*
X0175757Y0184742D02*
X0179694Y0184742D01*
X0179694Y0184705D02*
X0175757Y0184705D01*
X0175757Y0184667D02*
X0179694Y0184667D01*
X0179694Y0184629D02*
X0175757Y0184629D01*
X0175757Y0184591D02*
X0179694Y0184591D01*
X0179694Y0184553D02*
X0175757Y0184553D01*
X0175757Y0184515D02*
X0179694Y0184515D01*
X0179694Y0184477D02*
X0175757Y0184477D01*
X0175757Y0184439D02*
X0179694Y0184439D01*
X0179694Y0184401D02*
X0175757Y0184401D01*
X0175757Y0184364D02*
X0179694Y0184364D01*
X0179694Y0184326D02*
X0175757Y0184326D01*
X0175757Y0184288D02*
X0179694Y0184288D01*
X0179694Y0184250D02*
X0175757Y0184250D01*
X0175757Y0184212D02*
X0179694Y0184212D01*
X0179694Y0184174D02*
X0175757Y0184174D01*
X0175757Y0184136D02*
X0179694Y0184136D01*
X0179694Y0184098D02*
X0175757Y0184098D01*
X0175757Y0184061D02*
X0179694Y0184061D01*
X0179694Y0184023D02*
X0175757Y0184023D01*
X0175757Y0183985D02*
X0179694Y0183985D01*
X0179694Y0183947D02*
X0175757Y0183947D01*
X0175757Y0183909D02*
X0179694Y0183909D01*
X0179694Y0183871D02*
X0175757Y0183871D01*
X0175757Y0183833D02*
X0179694Y0183833D01*
X0179694Y0183795D02*
X0175757Y0183795D01*
X0175757Y0183757D02*
X0179694Y0183757D01*
X0179694Y0183720D02*
X0175757Y0183720D01*
X0175757Y0183682D02*
X0179694Y0183682D01*
X0179694Y0183644D02*
X0175757Y0183644D01*
X0175757Y0183606D02*
X0179694Y0183606D01*
X0179694Y0183568D02*
X0175757Y0183568D01*
X0175757Y0183530D02*
X0179694Y0183530D01*
X0179694Y0183492D02*
X0175757Y0183492D01*
X0175757Y0183454D02*
X0179694Y0183454D01*
X0179694Y0183417D02*
X0175757Y0183417D01*
X0175757Y0183379D02*
X0179694Y0183379D01*
X0179694Y0183341D02*
X0175757Y0183341D01*
X0175757Y0183303D02*
X0179694Y0183303D01*
X0179694Y0183265D02*
X0175757Y0183265D01*
X0175757Y0183227D02*
X0179694Y0183227D01*
X0179694Y0183189D02*
X0175757Y0183189D01*
X0175757Y0183151D02*
X0179694Y0183151D01*
X0179694Y0183114D02*
X0175757Y0183114D01*
X0175757Y0183076D02*
X0179694Y0183076D01*
X0179694Y0183038D02*
X0175757Y0183038D01*
X0175757Y0183000D02*
X0179694Y0183000D01*
X0179694Y0182962D02*
X0175757Y0182962D01*
X0175757Y0182924D02*
X0179694Y0182924D01*
X0179694Y0182886D02*
X0175757Y0182886D01*
X0175757Y0182848D02*
X0179694Y0182848D01*
X0179694Y0182810D02*
X0175757Y0182810D01*
X0175757Y0182773D02*
X0179694Y0182773D01*
X0179694Y0182735D02*
X0175757Y0182735D01*
X0175757Y0182697D02*
X0179694Y0182697D01*
X0179694Y0182659D02*
X0175757Y0182659D01*
X0175757Y0182621D02*
X0179694Y0182621D01*
X0179694Y0182583D02*
X0175757Y0182583D01*
X0175757Y0182545D02*
X0179694Y0182545D01*
X0179694Y0182507D02*
X0175757Y0182507D01*
X0175757Y0182470D02*
X0179694Y0182470D01*
X0179694Y0182432D02*
X0175757Y0182432D01*
X0175757Y0182394D02*
X0179694Y0182394D01*
X0179694Y0182356D02*
X0175757Y0182356D01*
X0175757Y0182318D02*
X0179694Y0182318D01*
X0179694Y0182280D02*
X0175757Y0182280D01*
X0175757Y0182242D02*
X0179694Y0182242D01*
X0179694Y0182204D02*
X0175757Y0182204D01*
X0175757Y0182166D02*
X0179694Y0182166D01*
X0179692Y0182129D02*
X0175757Y0182129D01*
X0175757Y0182091D02*
X0179689Y0182091D01*
X0179686Y0182053D02*
X0175757Y0182053D01*
X0175757Y0182015D02*
X0179684Y0182015D01*
X0179681Y0181977D02*
X0175757Y0181977D01*
X0175760Y0181939D02*
X0179678Y0181939D01*
X0179675Y0181901D02*
X0175767Y0181901D01*
X0175773Y0181863D02*
X0179673Y0181863D01*
X0179670Y0181826D02*
X0175779Y0181826D01*
X0175785Y0181788D02*
X0179667Y0181788D01*
X0179665Y0181750D02*
X0175791Y0181750D01*
X0175798Y0181712D02*
X0179661Y0181712D01*
X0179649Y0181674D02*
X0175804Y0181674D01*
X0175810Y0181636D02*
X0179638Y0181636D01*
X0179626Y0181598D02*
X0175816Y0181598D01*
X0175823Y0181560D02*
X0179614Y0181560D01*
X0179603Y0181522D02*
X0175830Y0181522D01*
X0175846Y0181485D02*
X0179591Y0181485D01*
X0179580Y0181447D02*
X0175861Y0181447D01*
X0175877Y0181409D02*
X0179568Y0181409D01*
X0179556Y0181371D02*
X0175892Y0181371D01*
X0175907Y0181333D02*
X0179545Y0181333D01*
X0179533Y0181295D02*
X0175923Y0181295D01*
X0175938Y0181257D02*
X0179512Y0181257D01*
X0179490Y0181219D02*
X0175954Y0181219D01*
X0175969Y0181182D02*
X0179468Y0181182D01*
X0179446Y0181144D02*
X0175985Y0181144D01*
X0176005Y0181106D02*
X0179425Y0181106D01*
X0179403Y0181068D02*
X0176032Y0181068D01*
X0176059Y0181030D02*
X0179381Y0181030D01*
X0179359Y0180992D02*
X0176085Y0180992D01*
X0176112Y0180954D02*
X0179338Y0180954D01*
X0179316Y0180916D02*
X0176138Y0180916D01*
X0176165Y0180879D02*
X0179283Y0180879D01*
X0179248Y0180841D02*
X0176191Y0180841D01*
X0176218Y0180803D02*
X0179213Y0180803D01*
X0179178Y0180765D02*
X0176245Y0180765D01*
X0176287Y0180727D02*
X0179143Y0180727D01*
X0179108Y0180689D02*
X0176329Y0180689D01*
X0176371Y0180651D02*
X0179073Y0180651D01*
X0179038Y0180613D02*
X0176413Y0180613D01*
X0176455Y0180575D02*
X0178996Y0180575D01*
X0178941Y0180538D02*
X0176496Y0180538D01*
X0176538Y0180500D02*
X0178886Y0180500D01*
X0178830Y0180462D02*
X0176588Y0180462D01*
X0176656Y0180424D02*
X0178775Y0180424D01*
X0178720Y0180386D02*
X0176723Y0180386D01*
X0176791Y0180348D02*
X0178665Y0180348D01*
X0178579Y0180310D02*
X0176859Y0180310D01*
X0176926Y0180272D02*
X0178483Y0180272D01*
X0178387Y0180235D02*
X0177035Y0180235D01*
X0177163Y0180197D02*
X0178292Y0180197D01*
X0178126Y0180159D02*
X0177292Y0180159D01*
X0177619Y0180121D02*
X0177879Y0180121D01*
D26*
X0206955Y0167059D03*
X0206955Y0162728D03*
X0206955Y0158398D03*
X0206955Y0154067D03*
X0206955Y0149736D03*
X0206955Y0137925D03*
X0206955Y0133594D03*
X0206955Y0129264D03*
X0206955Y0124933D03*
X0206955Y0120602D03*
X0206955Y0116272D03*
X0206955Y0111941D03*
X0259711Y0111941D03*
X0259711Y0116272D03*
X0259711Y0120602D03*
X0259711Y0124933D03*
X0259711Y0129264D03*
X0259711Y0133594D03*
X0259711Y0137925D03*
X0259711Y0149736D03*
X0259711Y0154067D03*
X0259711Y0158398D03*
X0259711Y0162728D03*
X0259711Y0167059D03*
D27*
X0255577Y0167059D03*
X0255577Y0162728D03*
X0255577Y0158398D03*
X0255577Y0154067D03*
X0255577Y0149736D03*
X0255577Y0137925D03*
X0255577Y0133594D03*
X0255577Y0129264D03*
X0255577Y0124933D03*
X0255577Y0120602D03*
X0255577Y0116272D03*
X0255577Y0111941D03*
X0211089Y0111941D03*
X0211089Y0116272D03*
X0211089Y0120602D03*
X0211089Y0124933D03*
X0211089Y0129264D03*
X0211089Y0133594D03*
X0211089Y0137925D03*
X0211089Y0149736D03*
X0211089Y0154067D03*
X0211089Y0158398D03*
X0211089Y0162728D03*
X0211089Y0167059D03*
M02*
