G04 EAGLE Gerber RS-274X export*
G75*
%MOMM*%
%FSLAX34Y34*%
%LPD*%
%INSolderpaste Top*%
%IPPOS*%
%AMOC8*
5,1,8,0,0,1.08239X$1,22.5*%
G01*
%ADD10R,2.000000X1.200000*%
%ADD11R,1.350000X0.600000*%
%ADD12R,1.100000X1.000000*%
%ADD13R,4.200000X1.700000*%
%ADD14R,1.000000X1.100000*%
%ADD15C,0.300000*%
%ADD16R,0.630000X0.830000*%
%ADD17R,2.200000X0.850000*%
%ADD18R,1.050000X1.000000*%
%ADD19R,1.200000X0.550000*%
%ADD20R,0.250000X0.610000*%
%ADD21R,0.250000X0.560000*%
%ADD22R,0.300000X1.000000*%
%ADD23R,0.600000X1.000000*%
%ADD24R,1.200000X0.800000*%
%ADD25R,0.900000X0.600000*%

G36*
X468819Y819936D02*
X468819Y819936D01*
X468846Y819938D01*
X468881Y819964D01*
X468921Y819982D01*
X468936Y820005D01*
X468958Y820021D01*
X468974Y820062D01*
X468998Y820099D01*
X469005Y820142D01*
X469008Y820151D01*
X469007Y820158D01*
X469009Y820172D01*
X469009Y844172D01*
X469004Y844188D01*
X469007Y844205D01*
X468985Y844255D01*
X468970Y844306D01*
X468957Y844317D01*
X468950Y844333D01*
X468905Y844363D01*
X468865Y844398D01*
X468848Y844401D01*
X468834Y844410D01*
X468760Y844421D01*
X444760Y844421D01*
X444718Y844409D01*
X444674Y844406D01*
X444652Y844390D01*
X444626Y844382D01*
X444597Y844349D01*
X444562Y844323D01*
X444552Y844297D01*
X444534Y844277D01*
X444527Y844233D01*
X444512Y844193D01*
X444517Y844166D01*
X444513Y844139D01*
X444531Y844098D01*
X444540Y844056D01*
X444566Y844020D01*
X444570Y844011D01*
X444575Y844007D01*
X444584Y843996D01*
X468584Y819996D01*
X468622Y819975D01*
X468655Y819946D01*
X468682Y819942D01*
X468706Y819929D01*
X468750Y819932D01*
X468793Y819925D01*
X468819Y819936D01*
G37*
G36*
X57339Y819936D02*
X57339Y819936D01*
X57366Y819938D01*
X57401Y819964D01*
X57441Y819982D01*
X57456Y820005D01*
X57478Y820021D01*
X57494Y820062D01*
X57518Y820099D01*
X57525Y820142D01*
X57528Y820151D01*
X57527Y820158D01*
X57529Y820172D01*
X57529Y844172D01*
X57524Y844188D01*
X57527Y844205D01*
X57505Y844255D01*
X57490Y844306D01*
X57477Y844317D01*
X57470Y844333D01*
X57425Y844363D01*
X57385Y844398D01*
X57368Y844401D01*
X57354Y844410D01*
X57280Y844421D01*
X33280Y844421D01*
X33238Y844409D01*
X33194Y844406D01*
X33172Y844390D01*
X33146Y844382D01*
X33117Y844349D01*
X33082Y844323D01*
X33072Y844297D01*
X33054Y844277D01*
X33047Y844233D01*
X33032Y844193D01*
X33037Y844166D01*
X33033Y844139D01*
X33051Y844098D01*
X33060Y844056D01*
X33086Y844020D01*
X33090Y844011D01*
X33095Y844007D01*
X33104Y843996D01*
X57104Y819996D01*
X57142Y819975D01*
X57175Y819946D01*
X57202Y819942D01*
X57226Y819929D01*
X57270Y819932D01*
X57313Y819925D01*
X57339Y819936D01*
G37*
G36*
X468819Y459510D02*
X468819Y459510D01*
X468846Y459512D01*
X468881Y459538D01*
X468921Y459556D01*
X468936Y459579D01*
X468958Y459595D01*
X468974Y459636D01*
X468998Y459673D01*
X469005Y459716D01*
X469008Y459725D01*
X469007Y459732D01*
X469009Y459746D01*
X469009Y483746D01*
X469004Y483762D01*
X469007Y483779D01*
X468985Y483829D01*
X468970Y483880D01*
X468957Y483891D01*
X468950Y483907D01*
X468905Y483937D01*
X468865Y483972D01*
X468848Y483975D01*
X468834Y483984D01*
X468760Y483995D01*
X444760Y483995D01*
X444718Y483983D01*
X444674Y483980D01*
X444652Y483964D01*
X444626Y483956D01*
X444597Y483923D01*
X444562Y483897D01*
X444552Y483871D01*
X444534Y483851D01*
X444527Y483807D01*
X444512Y483767D01*
X444517Y483740D01*
X444513Y483713D01*
X444531Y483672D01*
X444540Y483630D01*
X444566Y483594D01*
X444570Y483585D01*
X444575Y483581D01*
X444584Y483570D01*
X468584Y459570D01*
X468622Y459549D01*
X468655Y459520D01*
X468682Y459516D01*
X468706Y459503D01*
X468750Y459506D01*
X468793Y459499D01*
X468819Y459510D01*
G37*
G36*
X57339Y459510D02*
X57339Y459510D01*
X57366Y459512D01*
X57401Y459538D01*
X57441Y459556D01*
X57456Y459579D01*
X57478Y459595D01*
X57494Y459636D01*
X57518Y459673D01*
X57525Y459716D01*
X57528Y459725D01*
X57527Y459732D01*
X57529Y459746D01*
X57529Y483746D01*
X57524Y483762D01*
X57527Y483779D01*
X57505Y483829D01*
X57490Y483880D01*
X57477Y483891D01*
X57470Y483907D01*
X57425Y483937D01*
X57385Y483972D01*
X57368Y483975D01*
X57354Y483984D01*
X57280Y483995D01*
X33280Y483995D01*
X33238Y483983D01*
X33194Y483980D01*
X33172Y483964D01*
X33146Y483956D01*
X33117Y483923D01*
X33082Y483897D01*
X33072Y483871D01*
X33054Y483851D01*
X33047Y483807D01*
X33032Y483767D01*
X33037Y483740D01*
X33033Y483713D01*
X33051Y483672D01*
X33060Y483630D01*
X33086Y483594D01*
X33090Y483585D01*
X33095Y483581D01*
X33104Y483570D01*
X57104Y459570D01*
X57142Y459549D01*
X57175Y459520D01*
X57202Y459516D01*
X57226Y459503D01*
X57270Y459506D01*
X57313Y459499D01*
X57339Y459510D01*
G37*
G36*
X468819Y99084D02*
X468819Y99084D01*
X468846Y99086D01*
X468881Y99112D01*
X468921Y99130D01*
X468936Y99153D01*
X468958Y99169D01*
X468974Y99210D01*
X468998Y99247D01*
X469005Y99290D01*
X469008Y99299D01*
X469007Y99306D01*
X469009Y99320D01*
X469009Y123320D01*
X469004Y123336D01*
X469007Y123353D01*
X468985Y123403D01*
X468970Y123454D01*
X468957Y123465D01*
X468950Y123481D01*
X468905Y123511D01*
X468865Y123546D01*
X468848Y123549D01*
X468834Y123558D01*
X468760Y123569D01*
X444760Y123569D01*
X444718Y123557D01*
X444674Y123554D01*
X444652Y123538D01*
X444626Y123530D01*
X444597Y123497D01*
X444562Y123471D01*
X444552Y123445D01*
X444534Y123425D01*
X444527Y123381D01*
X444512Y123341D01*
X444517Y123314D01*
X444513Y123287D01*
X444531Y123246D01*
X444540Y123204D01*
X444566Y123168D01*
X444570Y123159D01*
X444575Y123155D01*
X444584Y123144D01*
X468584Y99144D01*
X468622Y99123D01*
X468655Y99094D01*
X468682Y99090D01*
X468706Y99077D01*
X468750Y99080D01*
X468793Y99073D01*
X468819Y99084D01*
G37*
G36*
X57339Y99084D02*
X57339Y99084D01*
X57366Y99086D01*
X57401Y99112D01*
X57441Y99130D01*
X57456Y99153D01*
X57478Y99169D01*
X57494Y99210D01*
X57518Y99247D01*
X57525Y99290D01*
X57528Y99299D01*
X57527Y99306D01*
X57529Y99320D01*
X57529Y123320D01*
X57524Y123336D01*
X57527Y123353D01*
X57505Y123403D01*
X57490Y123454D01*
X57477Y123465D01*
X57470Y123481D01*
X57425Y123511D01*
X57385Y123546D01*
X57368Y123549D01*
X57354Y123558D01*
X57280Y123569D01*
X33280Y123569D01*
X33238Y123557D01*
X33194Y123554D01*
X33172Y123538D01*
X33146Y123530D01*
X33117Y123497D01*
X33082Y123471D01*
X33072Y123445D01*
X33054Y123425D01*
X33047Y123381D01*
X33032Y123341D01*
X33037Y123314D01*
X33033Y123287D01*
X33051Y123246D01*
X33060Y123204D01*
X33086Y123168D01*
X33090Y123159D01*
X33095Y123155D01*
X33104Y123144D01*
X57104Y99144D01*
X57142Y99123D01*
X57175Y99094D01*
X57202Y99090D01*
X57226Y99077D01*
X57270Y99080D01*
X57313Y99073D01*
X57339Y99084D01*
G37*
G36*
X62160Y987785D02*
X62160Y987785D01*
X62163Y987781D01*
X63271Y987951D01*
X63277Y987957D01*
X63282Y987954D01*
X64324Y988366D01*
X64328Y988373D01*
X64333Y988371D01*
X65258Y989005D01*
X65260Y989013D01*
X65266Y989012D01*
X66026Y989836D01*
X66027Y989844D01*
X66033Y989844D01*
X66590Y990816D01*
X66590Y990820D01*
X66591Y990821D01*
X66589Y990823D01*
X66589Y990824D01*
X66595Y990826D01*
X66922Y991898D01*
X66921Y991903D01*
X66923Y991904D01*
X66921Y991907D01*
X66924Y991909D01*
X67005Y993026D01*
X67004Y993029D01*
X67005Y993030D01*
X67005Y1005030D01*
X67000Y1005037D01*
X67004Y1005041D01*
X66785Y1005985D01*
X66779Y1005991D01*
X66781Y1005996D01*
X66358Y1006868D01*
X66350Y1006871D01*
X66352Y1006877D01*
X65745Y1007633D01*
X65737Y1007635D01*
X65737Y1007641D01*
X64977Y1008242D01*
X64968Y1008242D01*
X64967Y1008248D01*
X64092Y1008666D01*
X64084Y1008664D01*
X64082Y1008669D01*
X63136Y1008882D01*
X63129Y1008878D01*
X63125Y1008883D01*
X62156Y1008879D01*
X62155Y1008879D01*
X61087Y1008860D01*
X61086Y1008860D01*
X61080Y1008856D01*
X61076Y1008859D01*
X60039Y1008603D01*
X60034Y1008596D01*
X60028Y1008599D01*
X59074Y1008118D01*
X59071Y1008111D01*
X59065Y1008112D01*
X58242Y1007431D01*
X58240Y1007423D01*
X58234Y1007423D01*
X57583Y1006576D01*
X57583Y1006568D01*
X57577Y1006567D01*
X57130Y1005596D01*
X57132Y1005588D01*
X57127Y1005586D01*
X56908Y1004540D01*
X56911Y1004533D01*
X56907Y1004530D01*
X56907Y992530D01*
X56910Y992525D01*
X56907Y992522D01*
X57087Y991427D01*
X57093Y991421D01*
X57090Y991416D01*
X57509Y990388D01*
X57516Y990384D01*
X57514Y990379D01*
X58152Y989470D01*
X58159Y989468D01*
X58159Y989462D01*
X58982Y988718D01*
X58990Y988717D01*
X58991Y988711D01*
X59959Y988169D01*
X59968Y988170D01*
X59970Y988164D01*
X61034Y987851D01*
X61042Y987854D01*
X61045Y987849D01*
X62153Y987781D01*
X62160Y987785D01*
G37*
G36*
X473640Y987785D02*
X473640Y987785D01*
X473643Y987781D01*
X474751Y987951D01*
X474757Y987957D01*
X474762Y987954D01*
X475804Y988366D01*
X475808Y988373D01*
X475813Y988371D01*
X476738Y989005D01*
X476740Y989013D01*
X476746Y989012D01*
X477506Y989836D01*
X477507Y989844D01*
X477513Y989844D01*
X478070Y990816D01*
X478070Y990820D01*
X478071Y990821D01*
X478069Y990823D01*
X478069Y990824D01*
X478075Y990826D01*
X478402Y991898D01*
X478401Y991903D01*
X478403Y991904D01*
X478401Y991907D01*
X478404Y991909D01*
X478485Y993026D01*
X478484Y993029D01*
X478485Y993030D01*
X478485Y1005030D01*
X478480Y1005037D01*
X478484Y1005041D01*
X478265Y1005985D01*
X478259Y1005991D01*
X478261Y1005996D01*
X477838Y1006868D01*
X477830Y1006871D01*
X477832Y1006877D01*
X477225Y1007633D01*
X477217Y1007635D01*
X477217Y1007641D01*
X476457Y1008242D01*
X476448Y1008242D01*
X476447Y1008248D01*
X475572Y1008666D01*
X475564Y1008664D01*
X475562Y1008669D01*
X474616Y1008882D01*
X474609Y1008878D01*
X474605Y1008883D01*
X473636Y1008879D01*
X473635Y1008879D01*
X472567Y1008860D01*
X472566Y1008860D01*
X472560Y1008856D01*
X472556Y1008859D01*
X471519Y1008603D01*
X471514Y1008596D01*
X471508Y1008599D01*
X470554Y1008118D01*
X470551Y1008111D01*
X470545Y1008112D01*
X469722Y1007431D01*
X469720Y1007423D01*
X469714Y1007423D01*
X469063Y1006576D01*
X469063Y1006568D01*
X469057Y1006567D01*
X468610Y1005596D01*
X468612Y1005588D01*
X468607Y1005586D01*
X468388Y1004540D01*
X468391Y1004533D01*
X468387Y1004530D01*
X468387Y992530D01*
X468390Y992525D01*
X468387Y992522D01*
X468567Y991427D01*
X468573Y991421D01*
X468570Y991416D01*
X468989Y990388D01*
X468996Y990384D01*
X468994Y990379D01*
X469632Y989470D01*
X469639Y989468D01*
X469639Y989462D01*
X470462Y988718D01*
X470470Y988717D01*
X470471Y988711D01*
X471439Y988169D01*
X471448Y988170D01*
X471450Y988164D01*
X472514Y987851D01*
X472522Y987854D01*
X472525Y987849D01*
X473633Y987781D01*
X473640Y987785D01*
G37*
G36*
X473640Y627359D02*
X473640Y627359D01*
X473643Y627355D01*
X474751Y627525D01*
X474757Y627531D01*
X474762Y627528D01*
X475804Y627940D01*
X475808Y627947D01*
X475813Y627945D01*
X476738Y628579D01*
X476740Y628587D01*
X476746Y628586D01*
X477506Y629410D01*
X477507Y629418D01*
X477513Y629418D01*
X478070Y630390D01*
X478070Y630394D01*
X478071Y630395D01*
X478069Y630397D01*
X478069Y630398D01*
X478075Y630400D01*
X478402Y631472D01*
X478401Y631477D01*
X478403Y631478D01*
X478401Y631481D01*
X478404Y631483D01*
X478485Y632600D01*
X478484Y632603D01*
X478485Y632604D01*
X478485Y644604D01*
X478480Y644611D01*
X478484Y644615D01*
X478265Y645559D01*
X478259Y645565D01*
X478261Y645570D01*
X477838Y646442D01*
X477830Y646445D01*
X477832Y646451D01*
X477225Y647207D01*
X477217Y647209D01*
X477217Y647215D01*
X476457Y647816D01*
X476448Y647816D01*
X476447Y647822D01*
X475572Y648240D01*
X475564Y648238D01*
X475562Y648243D01*
X474616Y648456D01*
X474609Y648452D01*
X474605Y648457D01*
X473636Y648453D01*
X473635Y648453D01*
X472567Y648434D01*
X472566Y648434D01*
X472560Y648430D01*
X472556Y648433D01*
X471519Y648177D01*
X471514Y648170D01*
X471508Y648173D01*
X470554Y647692D01*
X470551Y647685D01*
X470545Y647686D01*
X469722Y647005D01*
X469720Y646997D01*
X469714Y646997D01*
X469063Y646150D01*
X469063Y646142D01*
X469057Y646141D01*
X468610Y645170D01*
X468612Y645162D01*
X468607Y645160D01*
X468388Y644114D01*
X468391Y644107D01*
X468387Y644104D01*
X468387Y632104D01*
X468390Y632099D01*
X468387Y632096D01*
X468567Y631001D01*
X468573Y630995D01*
X468570Y630990D01*
X468989Y629962D01*
X468996Y629958D01*
X468994Y629953D01*
X469632Y629044D01*
X469639Y629042D01*
X469639Y629036D01*
X470462Y628292D01*
X470470Y628291D01*
X470471Y628285D01*
X471439Y627743D01*
X471448Y627744D01*
X471450Y627738D01*
X472514Y627425D01*
X472522Y627428D01*
X472525Y627423D01*
X473633Y627355D01*
X473640Y627359D01*
G37*
G36*
X62160Y627359D02*
X62160Y627359D01*
X62163Y627355D01*
X63271Y627525D01*
X63277Y627531D01*
X63282Y627528D01*
X64324Y627940D01*
X64328Y627947D01*
X64333Y627945D01*
X65258Y628579D01*
X65260Y628587D01*
X65266Y628586D01*
X66026Y629410D01*
X66027Y629418D01*
X66033Y629418D01*
X66590Y630390D01*
X66590Y630394D01*
X66591Y630395D01*
X66589Y630397D01*
X66589Y630398D01*
X66595Y630400D01*
X66922Y631472D01*
X66921Y631477D01*
X66923Y631478D01*
X66921Y631481D01*
X66924Y631483D01*
X67005Y632600D01*
X67004Y632603D01*
X67005Y632604D01*
X67005Y644604D01*
X67000Y644611D01*
X67004Y644615D01*
X66785Y645559D01*
X66779Y645565D01*
X66781Y645570D01*
X66358Y646442D01*
X66350Y646445D01*
X66352Y646451D01*
X65745Y647207D01*
X65737Y647209D01*
X65737Y647215D01*
X64977Y647816D01*
X64968Y647816D01*
X64967Y647822D01*
X64092Y648240D01*
X64084Y648238D01*
X64082Y648243D01*
X63136Y648456D01*
X63129Y648452D01*
X63125Y648457D01*
X62156Y648453D01*
X62155Y648453D01*
X61087Y648434D01*
X61086Y648434D01*
X61080Y648430D01*
X61076Y648433D01*
X60039Y648177D01*
X60034Y648170D01*
X60028Y648173D01*
X59074Y647692D01*
X59071Y647685D01*
X59065Y647686D01*
X58242Y647005D01*
X58240Y646997D01*
X58234Y646997D01*
X57583Y646150D01*
X57583Y646142D01*
X57577Y646141D01*
X57130Y645170D01*
X57132Y645162D01*
X57127Y645160D01*
X56908Y644114D01*
X56911Y644107D01*
X56907Y644104D01*
X56907Y632104D01*
X56910Y632099D01*
X56907Y632096D01*
X57087Y631001D01*
X57093Y630995D01*
X57090Y630990D01*
X57509Y629962D01*
X57516Y629958D01*
X57514Y629953D01*
X58152Y629044D01*
X58159Y629042D01*
X58159Y629036D01*
X58982Y628292D01*
X58990Y628291D01*
X58991Y628285D01*
X59959Y627743D01*
X59968Y627744D01*
X59970Y627738D01*
X61034Y627425D01*
X61042Y627428D01*
X61045Y627423D01*
X62153Y627355D01*
X62160Y627359D01*
G37*
G36*
X62160Y266933D02*
X62160Y266933D01*
X62163Y266929D01*
X63271Y267099D01*
X63277Y267105D01*
X63282Y267102D01*
X64324Y267514D01*
X64328Y267521D01*
X64333Y267519D01*
X65258Y268153D01*
X65260Y268161D01*
X65266Y268160D01*
X66026Y268984D01*
X66027Y268992D01*
X66033Y268992D01*
X66590Y269964D01*
X66590Y269968D01*
X66591Y269969D01*
X66589Y269971D01*
X66589Y269972D01*
X66595Y269974D01*
X66922Y271046D01*
X66921Y271051D01*
X66923Y271052D01*
X66921Y271055D01*
X66924Y271057D01*
X67005Y272174D01*
X67004Y272177D01*
X67005Y272178D01*
X67005Y284178D01*
X67000Y284185D01*
X67004Y284189D01*
X66785Y285133D01*
X66779Y285139D01*
X66781Y285144D01*
X66358Y286016D01*
X66350Y286019D01*
X66352Y286025D01*
X65745Y286781D01*
X65737Y286783D01*
X65737Y286789D01*
X64977Y287390D01*
X64968Y287390D01*
X64967Y287396D01*
X64092Y287814D01*
X64084Y287812D01*
X64082Y287817D01*
X63136Y288030D01*
X63129Y288026D01*
X63125Y288031D01*
X62156Y288027D01*
X62155Y288027D01*
X61087Y288008D01*
X61086Y288008D01*
X61080Y288004D01*
X61076Y288007D01*
X60039Y287751D01*
X60034Y287744D01*
X60028Y287747D01*
X59074Y287266D01*
X59071Y287259D01*
X59065Y287260D01*
X58242Y286579D01*
X58240Y286571D01*
X58234Y286571D01*
X57583Y285724D01*
X57583Y285716D01*
X57577Y285715D01*
X57130Y284744D01*
X57132Y284736D01*
X57127Y284734D01*
X56908Y283688D01*
X56911Y283681D01*
X56907Y283678D01*
X56907Y271678D01*
X56910Y271673D01*
X56907Y271670D01*
X57087Y270575D01*
X57093Y270569D01*
X57090Y270564D01*
X57509Y269536D01*
X57516Y269532D01*
X57514Y269527D01*
X58152Y268618D01*
X58159Y268616D01*
X58159Y268610D01*
X58982Y267866D01*
X58990Y267865D01*
X58991Y267859D01*
X59959Y267317D01*
X59968Y267318D01*
X59970Y267312D01*
X61034Y266999D01*
X61042Y267002D01*
X61045Y266997D01*
X62153Y266929D01*
X62160Y266933D01*
G37*
G36*
X473640Y266933D02*
X473640Y266933D01*
X473643Y266929D01*
X474751Y267099D01*
X474757Y267105D01*
X474762Y267102D01*
X475804Y267514D01*
X475808Y267521D01*
X475813Y267519D01*
X476738Y268153D01*
X476740Y268161D01*
X476746Y268160D01*
X477506Y268984D01*
X477507Y268992D01*
X477513Y268992D01*
X478070Y269964D01*
X478070Y269968D01*
X478071Y269969D01*
X478069Y269971D01*
X478069Y269972D01*
X478075Y269974D01*
X478402Y271046D01*
X478401Y271051D01*
X478403Y271052D01*
X478401Y271055D01*
X478404Y271057D01*
X478485Y272174D01*
X478484Y272177D01*
X478485Y272178D01*
X478485Y284178D01*
X478480Y284185D01*
X478484Y284189D01*
X478265Y285133D01*
X478259Y285139D01*
X478261Y285144D01*
X477838Y286016D01*
X477830Y286019D01*
X477832Y286025D01*
X477225Y286781D01*
X477217Y286783D01*
X477217Y286789D01*
X476457Y287390D01*
X476448Y287390D01*
X476447Y287396D01*
X475572Y287814D01*
X475564Y287812D01*
X475562Y287817D01*
X474616Y288030D01*
X474609Y288026D01*
X474605Y288031D01*
X473636Y288027D01*
X473635Y288027D01*
X472567Y288008D01*
X472566Y288008D01*
X472560Y288004D01*
X472556Y288007D01*
X471519Y287751D01*
X471514Y287744D01*
X471508Y287747D01*
X470554Y287266D01*
X470551Y287259D01*
X470545Y287260D01*
X469722Y286579D01*
X469720Y286571D01*
X469714Y286571D01*
X469063Y285724D01*
X469063Y285716D01*
X469057Y285715D01*
X468610Y284744D01*
X468612Y284736D01*
X468607Y284734D01*
X468388Y283688D01*
X468391Y283681D01*
X468387Y283678D01*
X468387Y271678D01*
X468390Y271673D01*
X468387Y271670D01*
X468567Y270575D01*
X468573Y270569D01*
X468570Y270564D01*
X468989Y269536D01*
X468996Y269532D01*
X468994Y269527D01*
X469632Y268618D01*
X469639Y268616D01*
X469639Y268610D01*
X470462Y267866D01*
X470470Y267865D01*
X470471Y267859D01*
X471439Y267317D01*
X471448Y267318D01*
X471450Y267312D01*
X472514Y266999D01*
X472522Y267002D01*
X472525Y266997D01*
X473633Y266929D01*
X473640Y266933D01*
G37*
G36*
X148658Y987784D02*
X148658Y987784D01*
X148662Y987781D01*
X149707Y987899D01*
X149713Y987905D01*
X149718Y987901D01*
X150712Y988249D01*
X150716Y988256D01*
X150721Y988254D01*
X151613Y988814D01*
X151616Y988821D01*
X151621Y988821D01*
X152365Y989565D01*
X152367Y989573D01*
X152372Y989573D01*
X152932Y990465D01*
X152932Y990472D01*
X152933Y990473D01*
X152937Y990474D01*
X153285Y991468D01*
X153282Y991476D01*
X153287Y991479D01*
X153405Y992525D01*
X153403Y992528D01*
X153405Y992530D01*
X153405Y1004530D01*
X153402Y1004535D01*
X153405Y1004538D01*
X153247Y1005534D01*
X153241Y1005540D01*
X153244Y1005545D01*
X152869Y1006481D01*
X152862Y1006485D01*
X152864Y1006491D01*
X152290Y1007320D01*
X152282Y1007323D01*
X152283Y1007328D01*
X151539Y1008009D01*
X151530Y1008010D01*
X151530Y1008016D01*
X150653Y1008514D01*
X150645Y1008513D01*
X150642Y1008518D01*
X149677Y1008809D01*
X149669Y1008806D01*
X149666Y1008811D01*
X148659Y1008879D01*
X148657Y1008878D01*
X148656Y1008879D01*
X147575Y1008870D01*
X147568Y1008865D01*
X147564Y1008869D01*
X146512Y1008620D01*
X146507Y1008613D01*
X146502Y1008616D01*
X145532Y1008139D01*
X145529Y1008131D01*
X145523Y1008133D01*
X144684Y1007452D01*
X144682Y1007444D01*
X144676Y1007444D01*
X144010Y1006594D01*
X144009Y1006585D01*
X144004Y1006584D01*
X143543Y1005607D01*
X143545Y1005599D01*
X143540Y1005596D01*
X143308Y1004541D01*
X143311Y1004533D01*
X143307Y1004530D01*
X143307Y992530D01*
X143311Y992525D01*
X143307Y992522D01*
X143500Y991416D01*
X143506Y991411D01*
X143503Y991406D01*
X143936Y990371D01*
X143943Y990367D01*
X143941Y990362D01*
X144594Y989449D01*
X144602Y989447D01*
X144601Y989441D01*
X145440Y988697D01*
X145449Y988696D01*
X145449Y988691D01*
X146433Y988152D01*
X146441Y988153D01*
X146443Y988148D01*
X147522Y987841D01*
X147530Y987844D01*
X147533Y987839D01*
X148653Y987781D01*
X148658Y987784D01*
G37*
G36*
X560138Y987784D02*
X560138Y987784D01*
X560142Y987781D01*
X561187Y987899D01*
X561193Y987905D01*
X561198Y987901D01*
X562192Y988249D01*
X562196Y988256D01*
X562201Y988254D01*
X563093Y988814D01*
X563096Y988821D01*
X563101Y988821D01*
X563845Y989565D01*
X563847Y989573D01*
X563852Y989573D01*
X564412Y990465D01*
X564412Y990472D01*
X564413Y990473D01*
X564417Y990474D01*
X564765Y991468D01*
X564762Y991476D01*
X564767Y991479D01*
X564885Y992525D01*
X564883Y992528D01*
X564885Y992530D01*
X564885Y1004530D01*
X564882Y1004535D01*
X564885Y1004538D01*
X564727Y1005534D01*
X564721Y1005540D01*
X564724Y1005545D01*
X564349Y1006481D01*
X564342Y1006485D01*
X564344Y1006491D01*
X563770Y1007320D01*
X563762Y1007323D01*
X563763Y1007328D01*
X563019Y1008009D01*
X563010Y1008010D01*
X563010Y1008016D01*
X562133Y1008514D01*
X562125Y1008513D01*
X562122Y1008518D01*
X561157Y1008809D01*
X561149Y1008806D01*
X561146Y1008811D01*
X560139Y1008879D01*
X560137Y1008878D01*
X560136Y1008879D01*
X559055Y1008870D01*
X559048Y1008865D01*
X559044Y1008869D01*
X557992Y1008620D01*
X557987Y1008613D01*
X557982Y1008616D01*
X557012Y1008139D01*
X557009Y1008131D01*
X557003Y1008133D01*
X556164Y1007452D01*
X556162Y1007444D01*
X556156Y1007444D01*
X555490Y1006594D01*
X555489Y1006585D01*
X555484Y1006584D01*
X555023Y1005607D01*
X555025Y1005599D01*
X555020Y1005596D01*
X554788Y1004541D01*
X554791Y1004533D01*
X554787Y1004530D01*
X554787Y992530D01*
X554791Y992525D01*
X554787Y992522D01*
X554980Y991416D01*
X554986Y991411D01*
X554983Y991406D01*
X555416Y990371D01*
X555423Y990367D01*
X555421Y990362D01*
X556074Y989449D01*
X556082Y989447D01*
X556081Y989441D01*
X556920Y988697D01*
X556929Y988696D01*
X556929Y988691D01*
X557913Y988152D01*
X557921Y988153D01*
X557923Y988148D01*
X559002Y987841D01*
X559010Y987844D01*
X559013Y987839D01*
X560133Y987781D01*
X560138Y987784D01*
G37*
G36*
X560138Y627358D02*
X560138Y627358D01*
X560142Y627355D01*
X561187Y627473D01*
X561193Y627479D01*
X561198Y627475D01*
X562192Y627823D01*
X562196Y627830D01*
X562201Y627828D01*
X563093Y628388D01*
X563096Y628395D01*
X563101Y628395D01*
X563845Y629139D01*
X563847Y629147D01*
X563852Y629147D01*
X564412Y630039D01*
X564412Y630046D01*
X564413Y630047D01*
X564417Y630048D01*
X564765Y631042D01*
X564762Y631050D01*
X564767Y631053D01*
X564885Y632099D01*
X564883Y632102D01*
X564885Y632104D01*
X564885Y644104D01*
X564882Y644109D01*
X564885Y644112D01*
X564727Y645108D01*
X564721Y645114D01*
X564724Y645119D01*
X564349Y646055D01*
X564342Y646059D01*
X564344Y646065D01*
X563770Y646894D01*
X563762Y646897D01*
X563763Y646902D01*
X563019Y647583D01*
X563010Y647584D01*
X563010Y647590D01*
X562133Y648088D01*
X562125Y648087D01*
X562122Y648092D01*
X561157Y648383D01*
X561149Y648380D01*
X561146Y648385D01*
X560139Y648453D01*
X560137Y648452D01*
X560136Y648453D01*
X559055Y648444D01*
X559048Y648439D01*
X559044Y648443D01*
X557992Y648194D01*
X557987Y648187D01*
X557982Y648190D01*
X557012Y647713D01*
X557009Y647705D01*
X557003Y647707D01*
X556164Y647026D01*
X556162Y647018D01*
X556156Y647018D01*
X555490Y646168D01*
X555489Y646159D01*
X555484Y646158D01*
X555023Y645181D01*
X555025Y645173D01*
X555020Y645170D01*
X554788Y644115D01*
X554791Y644107D01*
X554787Y644104D01*
X554787Y632104D01*
X554791Y632099D01*
X554787Y632096D01*
X554980Y630990D01*
X554986Y630985D01*
X554983Y630980D01*
X555416Y629945D01*
X555423Y629941D01*
X555421Y629936D01*
X556074Y629023D01*
X556082Y629021D01*
X556081Y629015D01*
X556920Y628271D01*
X556929Y628270D01*
X556929Y628265D01*
X557913Y627726D01*
X557921Y627727D01*
X557923Y627722D01*
X559002Y627415D01*
X559010Y627418D01*
X559013Y627413D01*
X560133Y627355D01*
X560138Y627358D01*
G37*
G36*
X148658Y627358D02*
X148658Y627358D01*
X148662Y627355D01*
X149707Y627473D01*
X149713Y627479D01*
X149718Y627475D01*
X150712Y627823D01*
X150716Y627830D01*
X150721Y627828D01*
X151613Y628388D01*
X151616Y628395D01*
X151621Y628395D01*
X152365Y629139D01*
X152367Y629147D01*
X152372Y629147D01*
X152932Y630039D01*
X152932Y630046D01*
X152933Y630047D01*
X152937Y630048D01*
X153285Y631042D01*
X153282Y631050D01*
X153287Y631053D01*
X153405Y632099D01*
X153403Y632102D01*
X153405Y632104D01*
X153405Y644104D01*
X153402Y644109D01*
X153405Y644112D01*
X153247Y645108D01*
X153241Y645114D01*
X153244Y645119D01*
X152869Y646055D01*
X152862Y646059D01*
X152864Y646065D01*
X152290Y646894D01*
X152282Y646897D01*
X152283Y646902D01*
X151539Y647583D01*
X151530Y647584D01*
X151530Y647590D01*
X150653Y648088D01*
X150645Y648087D01*
X150642Y648092D01*
X149677Y648383D01*
X149669Y648380D01*
X149666Y648385D01*
X148659Y648453D01*
X148657Y648452D01*
X148656Y648453D01*
X147575Y648444D01*
X147568Y648439D01*
X147564Y648443D01*
X146512Y648194D01*
X146507Y648187D01*
X146502Y648190D01*
X145532Y647713D01*
X145529Y647705D01*
X145523Y647707D01*
X144684Y647026D01*
X144682Y647018D01*
X144676Y647018D01*
X144010Y646168D01*
X144009Y646159D01*
X144004Y646158D01*
X143543Y645181D01*
X143545Y645173D01*
X143540Y645170D01*
X143308Y644115D01*
X143311Y644107D01*
X143307Y644104D01*
X143307Y632104D01*
X143311Y632099D01*
X143307Y632096D01*
X143500Y630990D01*
X143506Y630985D01*
X143503Y630980D01*
X143936Y629945D01*
X143943Y629941D01*
X143941Y629936D01*
X144594Y629023D01*
X144602Y629021D01*
X144601Y629015D01*
X145440Y628271D01*
X145449Y628270D01*
X145449Y628265D01*
X146433Y627726D01*
X146441Y627727D01*
X146443Y627722D01*
X147522Y627415D01*
X147530Y627418D01*
X147533Y627413D01*
X148653Y627355D01*
X148658Y627358D01*
G37*
G36*
X560138Y266932D02*
X560138Y266932D01*
X560142Y266929D01*
X561187Y267047D01*
X561193Y267053D01*
X561198Y267049D01*
X562192Y267397D01*
X562196Y267404D01*
X562201Y267402D01*
X563093Y267962D01*
X563096Y267969D01*
X563101Y267969D01*
X563845Y268713D01*
X563847Y268721D01*
X563852Y268721D01*
X564412Y269613D01*
X564412Y269620D01*
X564413Y269621D01*
X564417Y269622D01*
X564765Y270616D01*
X564762Y270624D01*
X564767Y270627D01*
X564885Y271673D01*
X564883Y271676D01*
X564885Y271678D01*
X564885Y283678D01*
X564882Y283683D01*
X564885Y283686D01*
X564727Y284682D01*
X564721Y284688D01*
X564724Y284693D01*
X564349Y285629D01*
X564342Y285633D01*
X564344Y285639D01*
X563770Y286468D01*
X563762Y286471D01*
X563763Y286476D01*
X563019Y287157D01*
X563010Y287158D01*
X563010Y287164D01*
X562133Y287662D01*
X562125Y287661D01*
X562122Y287666D01*
X561157Y287957D01*
X561149Y287954D01*
X561146Y287959D01*
X560139Y288027D01*
X560137Y288026D01*
X560136Y288027D01*
X559055Y288018D01*
X559048Y288013D01*
X559044Y288017D01*
X557992Y287768D01*
X557987Y287761D01*
X557982Y287764D01*
X557012Y287287D01*
X557009Y287279D01*
X557003Y287281D01*
X556164Y286600D01*
X556162Y286592D01*
X556156Y286592D01*
X555490Y285742D01*
X555489Y285733D01*
X555484Y285732D01*
X555023Y284755D01*
X555025Y284747D01*
X555020Y284744D01*
X554788Y283689D01*
X554791Y283681D01*
X554787Y283678D01*
X554787Y271678D01*
X554791Y271673D01*
X554787Y271670D01*
X554980Y270564D01*
X554986Y270559D01*
X554983Y270554D01*
X555416Y269519D01*
X555423Y269515D01*
X555421Y269510D01*
X556074Y268597D01*
X556082Y268595D01*
X556081Y268589D01*
X556920Y267845D01*
X556929Y267844D01*
X556929Y267839D01*
X557913Y267300D01*
X557921Y267301D01*
X557923Y267296D01*
X559002Y266989D01*
X559010Y266992D01*
X559013Y266987D01*
X560133Y266929D01*
X560138Y266932D01*
G37*
G36*
X148658Y266932D02*
X148658Y266932D01*
X148662Y266929D01*
X149707Y267047D01*
X149713Y267053D01*
X149718Y267049D01*
X150712Y267397D01*
X150716Y267404D01*
X150721Y267402D01*
X151613Y267962D01*
X151616Y267969D01*
X151621Y267969D01*
X152365Y268713D01*
X152367Y268721D01*
X152372Y268721D01*
X152932Y269613D01*
X152932Y269620D01*
X152933Y269621D01*
X152937Y269622D01*
X153285Y270616D01*
X153282Y270624D01*
X153287Y270627D01*
X153405Y271673D01*
X153403Y271676D01*
X153405Y271678D01*
X153405Y283678D01*
X153402Y283683D01*
X153405Y283686D01*
X153247Y284682D01*
X153241Y284688D01*
X153244Y284693D01*
X152869Y285629D01*
X152862Y285633D01*
X152864Y285639D01*
X152290Y286468D01*
X152282Y286471D01*
X152283Y286476D01*
X151539Y287157D01*
X151530Y287158D01*
X151530Y287164D01*
X150653Y287662D01*
X150645Y287661D01*
X150642Y287666D01*
X149677Y287957D01*
X149669Y287954D01*
X149666Y287959D01*
X148659Y288027D01*
X148657Y288026D01*
X148656Y288027D01*
X147575Y288018D01*
X147568Y288013D01*
X147564Y288017D01*
X146512Y287768D01*
X146507Y287761D01*
X146502Y287764D01*
X145532Y287287D01*
X145529Y287279D01*
X145523Y287281D01*
X144684Y286600D01*
X144682Y286592D01*
X144676Y286592D01*
X144010Y285742D01*
X144009Y285733D01*
X144004Y285732D01*
X143543Y284755D01*
X143545Y284747D01*
X143540Y284744D01*
X143308Y283689D01*
X143311Y283681D01*
X143307Y283678D01*
X143307Y271678D01*
X143311Y271673D01*
X143307Y271670D01*
X143500Y270564D01*
X143506Y270559D01*
X143503Y270554D01*
X143936Y269519D01*
X143943Y269515D01*
X143941Y269510D01*
X144594Y268597D01*
X144602Y268595D01*
X144601Y268589D01*
X145440Y267845D01*
X145449Y267844D01*
X145449Y267839D01*
X146433Y267300D01*
X146441Y267301D01*
X146443Y267296D01*
X147522Y266989D01*
X147530Y266992D01*
X147533Y266987D01*
X148653Y266929D01*
X148658Y266932D01*
G37*
G36*
X62160Y1032286D02*
X62160Y1032286D01*
X62165Y1032282D01*
X63302Y1032489D01*
X63308Y1032495D01*
X63313Y1032492D01*
X64375Y1032947D01*
X64379Y1032954D01*
X64385Y1032952D01*
X65320Y1033632D01*
X65322Y1033640D01*
X65328Y1033639D01*
X66088Y1034510D01*
X66088Y1034518D01*
X66094Y1034519D01*
X66641Y1035538D01*
X66640Y1035546D01*
X66645Y1035548D01*
X66651Y1035567D01*
X66664Y1035616D01*
X66678Y1035666D01*
X66691Y1035715D01*
X66705Y1035764D01*
X66718Y1035813D01*
X66719Y1035813D01*
X66718Y1035813D01*
X66732Y1035863D01*
X66746Y1035912D01*
X66759Y1035961D01*
X66773Y1036010D01*
X66786Y1036060D01*
X66800Y1036109D01*
X66813Y1036158D01*
X66827Y1036207D01*
X66841Y1036257D01*
X66854Y1036306D01*
X66868Y1036355D01*
X66952Y1036662D01*
X66949Y1036670D01*
X66954Y1036673D01*
X67005Y1037828D01*
X67004Y1037829D01*
X67005Y1037830D01*
X67005Y1043830D01*
X67001Y1043836D01*
X67004Y1043839D01*
X66792Y1044920D01*
X66786Y1044925D01*
X66789Y1044930D01*
X66342Y1045936D01*
X66335Y1045940D01*
X66337Y1045946D01*
X65677Y1046827D01*
X65669Y1046830D01*
X65669Y1046835D01*
X64830Y1047548D01*
X64822Y1047548D01*
X64821Y1047554D01*
X63844Y1048062D01*
X63836Y1048061D01*
X63834Y1048066D01*
X62769Y1048344D01*
X62761Y1048341D01*
X62758Y1048345D01*
X61658Y1048379D01*
X61652Y1048376D01*
X61649Y1048379D01*
X60574Y1048224D01*
X60568Y1048218D01*
X60563Y1048221D01*
X59549Y1047831D01*
X59545Y1047824D01*
X59539Y1047826D01*
X58637Y1047219D01*
X58635Y1047211D01*
X58629Y1047212D01*
X57885Y1046420D01*
X57884Y1046412D01*
X57878Y1046412D01*
X57329Y1045474D01*
X57330Y1045466D01*
X57324Y1045464D01*
X56997Y1044428D01*
X57000Y1044420D01*
X56995Y1044417D01*
X56907Y1043334D01*
X56909Y1043331D01*
X56907Y1043330D01*
X56907Y1037330D01*
X56910Y1037326D01*
X56907Y1037324D01*
X57057Y1036191D01*
X57063Y1036185D01*
X57060Y1036180D01*
X57458Y1035110D01*
X57465Y1035106D01*
X57463Y1035100D01*
X58090Y1034145D01*
X58098Y1034142D01*
X58097Y1034137D01*
X58920Y1033345D01*
X58928Y1033344D01*
X58929Y1033338D01*
X59908Y1032749D01*
X59916Y1032750D01*
X59918Y1032745D01*
X61003Y1032389D01*
X61011Y1032392D01*
X61014Y1032387D01*
X62151Y1032281D01*
X62160Y1032286D01*
G37*
G36*
X473640Y1032286D02*
X473640Y1032286D01*
X473645Y1032282D01*
X474782Y1032489D01*
X474788Y1032495D01*
X474793Y1032492D01*
X475855Y1032947D01*
X475859Y1032954D01*
X475865Y1032952D01*
X476800Y1033632D01*
X476802Y1033640D01*
X476808Y1033639D01*
X477568Y1034510D01*
X477568Y1034518D01*
X477574Y1034519D01*
X478121Y1035538D01*
X478120Y1035546D01*
X478125Y1035548D01*
X478131Y1035567D01*
X478144Y1035616D01*
X478158Y1035666D01*
X478171Y1035715D01*
X478185Y1035764D01*
X478198Y1035813D01*
X478199Y1035813D01*
X478198Y1035813D01*
X478212Y1035863D01*
X478226Y1035912D01*
X478239Y1035961D01*
X478253Y1036010D01*
X478266Y1036060D01*
X478280Y1036109D01*
X478293Y1036158D01*
X478307Y1036207D01*
X478321Y1036257D01*
X478334Y1036306D01*
X478348Y1036355D01*
X478432Y1036662D01*
X478429Y1036670D01*
X478434Y1036673D01*
X478485Y1037828D01*
X478484Y1037829D01*
X478485Y1037830D01*
X478485Y1043830D01*
X478481Y1043836D01*
X478484Y1043839D01*
X478272Y1044920D01*
X478266Y1044925D01*
X478269Y1044930D01*
X477822Y1045936D01*
X477815Y1045940D01*
X477817Y1045946D01*
X477157Y1046827D01*
X477149Y1046830D01*
X477149Y1046835D01*
X476310Y1047548D01*
X476302Y1047548D01*
X476301Y1047554D01*
X475324Y1048062D01*
X475316Y1048061D01*
X475314Y1048066D01*
X474249Y1048344D01*
X474241Y1048341D01*
X474238Y1048345D01*
X473138Y1048379D01*
X473132Y1048376D01*
X473129Y1048379D01*
X472054Y1048224D01*
X472048Y1048218D01*
X472043Y1048221D01*
X471029Y1047831D01*
X471025Y1047824D01*
X471019Y1047826D01*
X470117Y1047219D01*
X470115Y1047211D01*
X470109Y1047212D01*
X469365Y1046420D01*
X469364Y1046412D01*
X469358Y1046412D01*
X468809Y1045474D01*
X468810Y1045466D01*
X468804Y1045464D01*
X468477Y1044428D01*
X468480Y1044420D01*
X468475Y1044417D01*
X468387Y1043334D01*
X468389Y1043331D01*
X468387Y1043330D01*
X468387Y1037330D01*
X468390Y1037326D01*
X468387Y1037324D01*
X468537Y1036191D01*
X468543Y1036185D01*
X468540Y1036180D01*
X468938Y1035110D01*
X468945Y1035106D01*
X468943Y1035100D01*
X469570Y1034145D01*
X469578Y1034142D01*
X469577Y1034137D01*
X470400Y1033345D01*
X470408Y1033344D01*
X470409Y1033338D01*
X471388Y1032749D01*
X471396Y1032750D01*
X471398Y1032745D01*
X472483Y1032389D01*
X472491Y1032392D01*
X472494Y1032387D01*
X473631Y1032281D01*
X473640Y1032286D01*
G37*
G36*
X473640Y671860D02*
X473640Y671860D01*
X473645Y671856D01*
X474782Y672063D01*
X474788Y672069D01*
X474793Y672066D01*
X475855Y672521D01*
X475859Y672528D01*
X475865Y672526D01*
X476800Y673206D01*
X476802Y673214D01*
X476808Y673213D01*
X477568Y674084D01*
X477568Y674092D01*
X477574Y674093D01*
X478121Y675112D01*
X478120Y675120D01*
X478125Y675122D01*
X478131Y675141D01*
X478144Y675190D01*
X478158Y675240D01*
X478171Y675289D01*
X478185Y675338D01*
X478198Y675387D01*
X478199Y675387D01*
X478198Y675387D01*
X478212Y675437D01*
X478226Y675486D01*
X478239Y675535D01*
X478253Y675584D01*
X478266Y675634D01*
X478280Y675683D01*
X478293Y675732D01*
X478307Y675781D01*
X478321Y675831D01*
X478334Y675880D01*
X478348Y675929D01*
X478432Y676236D01*
X478429Y676244D01*
X478434Y676247D01*
X478485Y677402D01*
X478484Y677403D01*
X478485Y677404D01*
X478485Y683404D01*
X478481Y683410D01*
X478484Y683413D01*
X478272Y684494D01*
X478266Y684499D01*
X478269Y684504D01*
X477822Y685510D01*
X477815Y685514D01*
X477817Y685520D01*
X477157Y686401D01*
X477149Y686404D01*
X477149Y686409D01*
X476310Y687122D01*
X476302Y687122D01*
X476301Y687128D01*
X475324Y687636D01*
X475316Y687635D01*
X475314Y687640D01*
X474249Y687918D01*
X474241Y687915D01*
X474238Y687919D01*
X473138Y687953D01*
X473132Y687950D01*
X473129Y687953D01*
X472054Y687798D01*
X472048Y687792D01*
X472043Y687795D01*
X471029Y687405D01*
X471025Y687398D01*
X471019Y687400D01*
X470117Y686793D01*
X470115Y686785D01*
X470109Y686786D01*
X469365Y685994D01*
X469364Y685986D01*
X469358Y685986D01*
X468809Y685048D01*
X468810Y685040D01*
X468804Y685038D01*
X468477Y684002D01*
X468480Y683994D01*
X468475Y683991D01*
X468387Y682908D01*
X468389Y682905D01*
X468387Y682904D01*
X468387Y676904D01*
X468390Y676900D01*
X468387Y676898D01*
X468537Y675765D01*
X468543Y675759D01*
X468540Y675754D01*
X468938Y674684D01*
X468945Y674680D01*
X468943Y674674D01*
X469570Y673719D01*
X469578Y673716D01*
X469577Y673711D01*
X470400Y672919D01*
X470408Y672918D01*
X470409Y672912D01*
X471388Y672323D01*
X471396Y672324D01*
X471398Y672319D01*
X472483Y671963D01*
X472491Y671966D01*
X472494Y671961D01*
X473631Y671855D01*
X473640Y671860D01*
G37*
G36*
X62160Y671860D02*
X62160Y671860D01*
X62165Y671856D01*
X63302Y672063D01*
X63308Y672069D01*
X63313Y672066D01*
X64375Y672521D01*
X64379Y672528D01*
X64385Y672526D01*
X65320Y673206D01*
X65322Y673214D01*
X65328Y673213D01*
X66088Y674084D01*
X66088Y674092D01*
X66094Y674093D01*
X66641Y675112D01*
X66640Y675120D01*
X66645Y675122D01*
X66651Y675141D01*
X66664Y675190D01*
X66678Y675240D01*
X66691Y675289D01*
X66705Y675338D01*
X66718Y675387D01*
X66719Y675387D01*
X66718Y675387D01*
X66732Y675437D01*
X66746Y675486D01*
X66759Y675535D01*
X66773Y675584D01*
X66786Y675634D01*
X66800Y675683D01*
X66813Y675732D01*
X66827Y675781D01*
X66841Y675831D01*
X66854Y675880D01*
X66868Y675929D01*
X66952Y676236D01*
X66949Y676244D01*
X66954Y676247D01*
X67005Y677402D01*
X67004Y677403D01*
X67005Y677404D01*
X67005Y683404D01*
X67001Y683410D01*
X67004Y683413D01*
X66792Y684494D01*
X66786Y684499D01*
X66789Y684504D01*
X66342Y685510D01*
X66335Y685514D01*
X66337Y685520D01*
X65677Y686401D01*
X65669Y686404D01*
X65669Y686409D01*
X64830Y687122D01*
X64822Y687122D01*
X64821Y687128D01*
X63844Y687636D01*
X63836Y687635D01*
X63834Y687640D01*
X62769Y687918D01*
X62761Y687915D01*
X62758Y687919D01*
X61658Y687953D01*
X61652Y687950D01*
X61649Y687953D01*
X60574Y687798D01*
X60568Y687792D01*
X60563Y687795D01*
X59549Y687405D01*
X59545Y687398D01*
X59539Y687400D01*
X58637Y686793D01*
X58635Y686785D01*
X58629Y686786D01*
X57885Y685994D01*
X57884Y685986D01*
X57878Y685986D01*
X57329Y685048D01*
X57330Y685040D01*
X57324Y685038D01*
X56997Y684002D01*
X57000Y683994D01*
X56995Y683991D01*
X56907Y682908D01*
X56909Y682905D01*
X56907Y682904D01*
X56907Y676904D01*
X56910Y676900D01*
X56907Y676898D01*
X57057Y675765D01*
X57063Y675759D01*
X57060Y675754D01*
X57458Y674684D01*
X57465Y674680D01*
X57463Y674674D01*
X58090Y673719D01*
X58098Y673716D01*
X58097Y673711D01*
X58920Y672919D01*
X58928Y672918D01*
X58929Y672912D01*
X59908Y672323D01*
X59916Y672324D01*
X59918Y672319D01*
X61003Y671963D01*
X61011Y671966D01*
X61014Y671961D01*
X62151Y671855D01*
X62160Y671860D01*
G37*
G36*
X62160Y311434D02*
X62160Y311434D01*
X62165Y311430D01*
X63302Y311637D01*
X63308Y311643D01*
X63313Y311640D01*
X64375Y312095D01*
X64379Y312102D01*
X64385Y312100D01*
X65320Y312780D01*
X65322Y312788D01*
X65328Y312787D01*
X66088Y313658D01*
X66088Y313666D01*
X66094Y313667D01*
X66641Y314686D01*
X66640Y314694D01*
X66645Y314696D01*
X66651Y314715D01*
X66664Y314764D01*
X66678Y314814D01*
X66691Y314863D01*
X66705Y314912D01*
X66718Y314961D01*
X66719Y314961D01*
X66718Y314961D01*
X66732Y315011D01*
X66746Y315060D01*
X66759Y315109D01*
X66773Y315158D01*
X66786Y315208D01*
X66800Y315257D01*
X66813Y315306D01*
X66827Y315355D01*
X66841Y315405D01*
X66854Y315454D01*
X66868Y315503D01*
X66952Y315810D01*
X66949Y315818D01*
X66954Y315821D01*
X67005Y316976D01*
X67004Y316977D01*
X67005Y316978D01*
X67005Y322978D01*
X67001Y322984D01*
X67004Y322987D01*
X66792Y324068D01*
X66786Y324073D01*
X66789Y324078D01*
X66342Y325084D01*
X66335Y325088D01*
X66337Y325094D01*
X65677Y325975D01*
X65669Y325978D01*
X65669Y325983D01*
X64830Y326696D01*
X64822Y326696D01*
X64821Y326702D01*
X63844Y327210D01*
X63836Y327209D01*
X63834Y327214D01*
X62769Y327492D01*
X62761Y327489D01*
X62758Y327493D01*
X61658Y327527D01*
X61652Y327524D01*
X61649Y327527D01*
X60574Y327372D01*
X60568Y327366D01*
X60563Y327369D01*
X59549Y326979D01*
X59545Y326972D01*
X59539Y326974D01*
X58637Y326367D01*
X58635Y326359D01*
X58629Y326360D01*
X57885Y325568D01*
X57884Y325560D01*
X57878Y325560D01*
X57329Y324622D01*
X57330Y324614D01*
X57324Y324612D01*
X56997Y323576D01*
X57000Y323568D01*
X56995Y323565D01*
X56907Y322482D01*
X56909Y322479D01*
X56907Y322478D01*
X56907Y316478D01*
X56910Y316474D01*
X56907Y316472D01*
X57057Y315339D01*
X57063Y315333D01*
X57060Y315328D01*
X57458Y314258D01*
X57465Y314254D01*
X57463Y314248D01*
X58090Y313293D01*
X58098Y313290D01*
X58097Y313285D01*
X58920Y312493D01*
X58928Y312492D01*
X58929Y312486D01*
X59908Y311897D01*
X59916Y311898D01*
X59918Y311893D01*
X61003Y311537D01*
X61011Y311540D01*
X61014Y311535D01*
X62151Y311429D01*
X62160Y311434D01*
G37*
G36*
X473640Y311434D02*
X473640Y311434D01*
X473645Y311430D01*
X474782Y311637D01*
X474788Y311643D01*
X474793Y311640D01*
X475855Y312095D01*
X475859Y312102D01*
X475865Y312100D01*
X476800Y312780D01*
X476802Y312788D01*
X476808Y312787D01*
X477568Y313658D01*
X477568Y313666D01*
X477574Y313667D01*
X478121Y314686D01*
X478120Y314694D01*
X478125Y314696D01*
X478131Y314715D01*
X478144Y314764D01*
X478158Y314814D01*
X478171Y314863D01*
X478185Y314912D01*
X478198Y314961D01*
X478199Y314961D01*
X478198Y314961D01*
X478212Y315011D01*
X478226Y315060D01*
X478239Y315109D01*
X478253Y315158D01*
X478266Y315208D01*
X478280Y315257D01*
X478293Y315306D01*
X478307Y315355D01*
X478321Y315405D01*
X478334Y315454D01*
X478348Y315503D01*
X478432Y315810D01*
X478429Y315818D01*
X478434Y315821D01*
X478485Y316976D01*
X478484Y316977D01*
X478485Y316978D01*
X478485Y322978D01*
X478481Y322984D01*
X478484Y322987D01*
X478272Y324068D01*
X478266Y324073D01*
X478269Y324078D01*
X477822Y325084D01*
X477815Y325088D01*
X477817Y325094D01*
X477157Y325975D01*
X477149Y325978D01*
X477149Y325983D01*
X476310Y326696D01*
X476302Y326696D01*
X476301Y326702D01*
X475324Y327210D01*
X475316Y327209D01*
X475314Y327214D01*
X474249Y327492D01*
X474241Y327489D01*
X474238Y327493D01*
X473138Y327527D01*
X473132Y327524D01*
X473129Y327527D01*
X472054Y327372D01*
X472048Y327366D01*
X472043Y327369D01*
X471029Y326979D01*
X471025Y326972D01*
X471019Y326974D01*
X470117Y326367D01*
X470115Y326359D01*
X470109Y326360D01*
X469365Y325568D01*
X469364Y325560D01*
X469358Y325560D01*
X468809Y324622D01*
X468810Y324614D01*
X468804Y324612D01*
X468477Y323576D01*
X468480Y323568D01*
X468475Y323565D01*
X468387Y322482D01*
X468389Y322479D01*
X468387Y322478D01*
X468387Y316478D01*
X468390Y316474D01*
X468387Y316472D01*
X468537Y315339D01*
X468543Y315333D01*
X468540Y315328D01*
X468938Y314258D01*
X468945Y314254D01*
X468943Y314248D01*
X469570Y313293D01*
X469578Y313290D01*
X469577Y313285D01*
X470400Y312493D01*
X470408Y312492D01*
X470409Y312486D01*
X471388Y311897D01*
X471396Y311898D01*
X471398Y311893D01*
X472483Y311537D01*
X472491Y311540D01*
X472494Y311535D01*
X473631Y311429D01*
X473640Y311434D01*
G37*
G36*
X560778Y1032387D02*
X560778Y1032387D01*
X560784Y1032392D01*
X560789Y1032389D01*
X561874Y1032745D01*
X561879Y1032752D01*
X561884Y1032749D01*
X562863Y1033338D01*
X562866Y1033346D01*
X562872Y1033345D01*
X563695Y1034137D01*
X563696Y1034145D01*
X563702Y1034145D01*
X564329Y1035100D01*
X564328Y1035108D01*
X564334Y1035110D01*
X564732Y1036180D01*
X564730Y1036188D01*
X564735Y1036191D01*
X564885Y1037324D01*
X564882Y1037328D01*
X564885Y1037330D01*
X564885Y1043330D01*
X564882Y1043334D01*
X564885Y1043336D01*
X564735Y1044469D01*
X564729Y1044475D01*
X564732Y1044480D01*
X564334Y1045550D01*
X564327Y1045554D01*
X564329Y1045560D01*
X563702Y1046515D01*
X563694Y1046518D01*
X563695Y1046523D01*
X562872Y1047315D01*
X562864Y1047316D01*
X562863Y1047322D01*
X561884Y1047911D01*
X561876Y1047910D01*
X561874Y1047915D01*
X560789Y1048271D01*
X560781Y1048269D01*
X560778Y1048273D01*
X559641Y1048379D01*
X559634Y1048375D01*
X559630Y1048379D01*
X558542Y1048234D01*
X558536Y1048228D01*
X558531Y1048231D01*
X557503Y1047848D01*
X557498Y1047841D01*
X557493Y1047843D01*
X556576Y1047240D01*
X556573Y1047232D01*
X556567Y1047233D01*
X555807Y1046441D01*
X555806Y1046433D01*
X555800Y1046432D01*
X555236Y1045491D01*
X555237Y1045483D01*
X555231Y1045481D01*
X554890Y1044438D01*
X554892Y1044430D01*
X554888Y1044427D01*
X554787Y1043335D01*
X554789Y1043332D01*
X554787Y1043330D01*
X554787Y1037330D01*
X554789Y1037327D01*
X554787Y1037326D01*
X554888Y1036233D01*
X554893Y1036227D01*
X554890Y1036222D01*
X555231Y1035179D01*
X555238Y1035174D01*
X555236Y1035169D01*
X555800Y1034228D01*
X555808Y1034225D01*
X555807Y1034219D01*
X556567Y1033427D01*
X556575Y1033426D01*
X556576Y1033420D01*
X557493Y1032818D01*
X557501Y1032818D01*
X557503Y1032813D01*
X558531Y1032429D01*
X558539Y1032431D01*
X558542Y1032426D01*
X559630Y1032281D01*
X559637Y1032285D01*
X559641Y1032281D01*
X560778Y1032387D01*
G37*
G36*
X149298Y1032387D02*
X149298Y1032387D01*
X149304Y1032392D01*
X149309Y1032389D01*
X150394Y1032745D01*
X150399Y1032752D01*
X150404Y1032749D01*
X151383Y1033338D01*
X151386Y1033346D01*
X151392Y1033345D01*
X152215Y1034137D01*
X152216Y1034145D01*
X152222Y1034145D01*
X152849Y1035100D01*
X152848Y1035108D01*
X152854Y1035110D01*
X153252Y1036180D01*
X153250Y1036188D01*
X153255Y1036191D01*
X153405Y1037324D01*
X153402Y1037328D01*
X153405Y1037330D01*
X153405Y1043330D01*
X153402Y1043334D01*
X153405Y1043336D01*
X153255Y1044469D01*
X153249Y1044475D01*
X153252Y1044480D01*
X152854Y1045550D01*
X152847Y1045554D01*
X152849Y1045560D01*
X152222Y1046515D01*
X152214Y1046518D01*
X152215Y1046523D01*
X151392Y1047315D01*
X151384Y1047316D01*
X151383Y1047322D01*
X150404Y1047911D01*
X150396Y1047910D01*
X150394Y1047915D01*
X149309Y1048271D01*
X149301Y1048269D01*
X149298Y1048273D01*
X148161Y1048379D01*
X148154Y1048375D01*
X148150Y1048379D01*
X147062Y1048234D01*
X147056Y1048228D01*
X147051Y1048231D01*
X146023Y1047848D01*
X146018Y1047841D01*
X146013Y1047843D01*
X145096Y1047240D01*
X145093Y1047232D01*
X145087Y1047233D01*
X144327Y1046441D01*
X144326Y1046433D01*
X144320Y1046432D01*
X143756Y1045491D01*
X143757Y1045483D01*
X143751Y1045481D01*
X143410Y1044438D01*
X143412Y1044430D01*
X143408Y1044427D01*
X143307Y1043335D01*
X143309Y1043332D01*
X143307Y1043330D01*
X143307Y1037330D01*
X143309Y1037327D01*
X143307Y1037326D01*
X143408Y1036233D01*
X143413Y1036227D01*
X143410Y1036222D01*
X143751Y1035179D01*
X143758Y1035174D01*
X143756Y1035169D01*
X144320Y1034228D01*
X144328Y1034225D01*
X144327Y1034219D01*
X145087Y1033427D01*
X145095Y1033426D01*
X145096Y1033420D01*
X146013Y1032818D01*
X146021Y1032818D01*
X146023Y1032813D01*
X147051Y1032429D01*
X147059Y1032431D01*
X147062Y1032426D01*
X148150Y1032281D01*
X148157Y1032285D01*
X148161Y1032281D01*
X149298Y1032387D01*
G37*
G36*
X149298Y671961D02*
X149298Y671961D01*
X149304Y671966D01*
X149309Y671963D01*
X150394Y672319D01*
X150399Y672326D01*
X150404Y672323D01*
X151383Y672912D01*
X151386Y672920D01*
X151392Y672919D01*
X152215Y673711D01*
X152216Y673719D01*
X152222Y673719D01*
X152849Y674674D01*
X152848Y674682D01*
X152854Y674684D01*
X153252Y675754D01*
X153250Y675762D01*
X153255Y675765D01*
X153405Y676898D01*
X153402Y676902D01*
X153405Y676904D01*
X153405Y682904D01*
X153402Y682908D01*
X153405Y682910D01*
X153255Y684043D01*
X153249Y684049D01*
X153252Y684054D01*
X152854Y685124D01*
X152847Y685128D01*
X152849Y685134D01*
X152222Y686089D01*
X152214Y686092D01*
X152215Y686097D01*
X151392Y686889D01*
X151384Y686890D01*
X151383Y686896D01*
X150404Y687485D01*
X150396Y687484D01*
X150394Y687489D01*
X149309Y687845D01*
X149301Y687843D01*
X149298Y687847D01*
X148161Y687953D01*
X148154Y687949D01*
X148150Y687953D01*
X147062Y687808D01*
X147056Y687802D01*
X147051Y687805D01*
X146023Y687422D01*
X146018Y687415D01*
X146013Y687417D01*
X145096Y686814D01*
X145093Y686806D01*
X145087Y686807D01*
X144327Y686015D01*
X144326Y686007D01*
X144320Y686006D01*
X143756Y685065D01*
X143757Y685057D01*
X143751Y685055D01*
X143410Y684012D01*
X143412Y684004D01*
X143408Y684001D01*
X143307Y682909D01*
X143309Y682906D01*
X143307Y682904D01*
X143307Y676904D01*
X143309Y676901D01*
X143307Y676900D01*
X143408Y675807D01*
X143413Y675801D01*
X143410Y675796D01*
X143751Y674753D01*
X143758Y674748D01*
X143756Y674743D01*
X144320Y673802D01*
X144328Y673799D01*
X144327Y673793D01*
X145087Y673001D01*
X145095Y673000D01*
X145096Y672994D01*
X146013Y672392D01*
X146021Y672392D01*
X146023Y672387D01*
X147051Y672003D01*
X147059Y672005D01*
X147062Y672000D01*
X148150Y671855D01*
X148157Y671859D01*
X148161Y671855D01*
X149298Y671961D01*
G37*
G36*
X560778Y671961D02*
X560778Y671961D01*
X560784Y671966D01*
X560789Y671963D01*
X561874Y672319D01*
X561879Y672326D01*
X561884Y672323D01*
X562863Y672912D01*
X562866Y672920D01*
X562872Y672919D01*
X563695Y673711D01*
X563696Y673719D01*
X563702Y673719D01*
X564329Y674674D01*
X564328Y674682D01*
X564334Y674684D01*
X564732Y675754D01*
X564730Y675762D01*
X564735Y675765D01*
X564885Y676898D01*
X564882Y676902D01*
X564885Y676904D01*
X564885Y682904D01*
X564882Y682908D01*
X564885Y682910D01*
X564735Y684043D01*
X564729Y684049D01*
X564732Y684054D01*
X564334Y685124D01*
X564327Y685128D01*
X564329Y685134D01*
X563702Y686089D01*
X563694Y686092D01*
X563695Y686097D01*
X562872Y686889D01*
X562864Y686890D01*
X562863Y686896D01*
X561884Y687485D01*
X561876Y687484D01*
X561874Y687489D01*
X560789Y687845D01*
X560781Y687843D01*
X560778Y687847D01*
X559641Y687953D01*
X559634Y687949D01*
X559630Y687953D01*
X558542Y687808D01*
X558536Y687802D01*
X558531Y687805D01*
X557503Y687422D01*
X557498Y687415D01*
X557493Y687417D01*
X556576Y686814D01*
X556573Y686806D01*
X556567Y686807D01*
X555807Y686015D01*
X555806Y686007D01*
X555800Y686006D01*
X555236Y685065D01*
X555237Y685057D01*
X555231Y685055D01*
X554890Y684012D01*
X554892Y684004D01*
X554888Y684001D01*
X554787Y682909D01*
X554789Y682906D01*
X554787Y682904D01*
X554787Y676904D01*
X554789Y676901D01*
X554787Y676900D01*
X554888Y675807D01*
X554893Y675801D01*
X554890Y675796D01*
X555231Y674753D01*
X555238Y674748D01*
X555236Y674743D01*
X555800Y673802D01*
X555808Y673799D01*
X555807Y673793D01*
X556567Y673001D01*
X556575Y673000D01*
X556576Y672994D01*
X557493Y672392D01*
X557501Y672392D01*
X557503Y672387D01*
X558531Y672003D01*
X558539Y672005D01*
X558542Y672000D01*
X559630Y671855D01*
X559637Y671859D01*
X559641Y671855D01*
X560778Y671961D01*
G37*
G36*
X149298Y311535D02*
X149298Y311535D01*
X149304Y311540D01*
X149309Y311537D01*
X150394Y311893D01*
X150399Y311900D01*
X150404Y311897D01*
X151383Y312486D01*
X151386Y312494D01*
X151392Y312493D01*
X152215Y313285D01*
X152216Y313293D01*
X152222Y313293D01*
X152849Y314248D01*
X152848Y314256D01*
X152854Y314258D01*
X153252Y315328D01*
X153250Y315336D01*
X153255Y315339D01*
X153405Y316472D01*
X153402Y316476D01*
X153405Y316478D01*
X153405Y322478D01*
X153402Y322482D01*
X153405Y322484D01*
X153255Y323617D01*
X153249Y323623D01*
X153252Y323628D01*
X152854Y324698D01*
X152847Y324702D01*
X152849Y324708D01*
X152222Y325663D01*
X152214Y325666D01*
X152215Y325671D01*
X151392Y326463D01*
X151384Y326464D01*
X151383Y326470D01*
X150404Y327059D01*
X150396Y327058D01*
X150394Y327063D01*
X149309Y327419D01*
X149301Y327417D01*
X149298Y327421D01*
X148161Y327527D01*
X148154Y327523D01*
X148150Y327527D01*
X147062Y327382D01*
X147056Y327376D01*
X147051Y327379D01*
X146023Y326996D01*
X146018Y326989D01*
X146013Y326991D01*
X145096Y326388D01*
X145093Y326380D01*
X145087Y326381D01*
X144327Y325589D01*
X144326Y325581D01*
X144320Y325580D01*
X143756Y324639D01*
X143757Y324631D01*
X143751Y324629D01*
X143410Y323586D01*
X143412Y323578D01*
X143408Y323575D01*
X143307Y322483D01*
X143309Y322480D01*
X143307Y322478D01*
X143307Y316478D01*
X143309Y316475D01*
X143307Y316474D01*
X143408Y315381D01*
X143413Y315375D01*
X143410Y315370D01*
X143751Y314327D01*
X143758Y314322D01*
X143756Y314317D01*
X144320Y313376D01*
X144328Y313373D01*
X144327Y313367D01*
X145087Y312575D01*
X145095Y312574D01*
X145096Y312568D01*
X146013Y311966D01*
X146021Y311966D01*
X146023Y311961D01*
X147051Y311577D01*
X147059Y311579D01*
X147062Y311574D01*
X148150Y311429D01*
X148157Y311433D01*
X148161Y311429D01*
X149298Y311535D01*
G37*
G36*
X560778Y311535D02*
X560778Y311535D01*
X560784Y311540D01*
X560789Y311537D01*
X561874Y311893D01*
X561879Y311900D01*
X561884Y311897D01*
X562863Y312486D01*
X562866Y312494D01*
X562872Y312493D01*
X563695Y313285D01*
X563696Y313293D01*
X563702Y313293D01*
X564329Y314248D01*
X564328Y314256D01*
X564334Y314258D01*
X564732Y315328D01*
X564730Y315336D01*
X564735Y315339D01*
X564885Y316472D01*
X564882Y316476D01*
X564885Y316478D01*
X564885Y322478D01*
X564882Y322482D01*
X564885Y322484D01*
X564735Y323617D01*
X564729Y323623D01*
X564732Y323628D01*
X564334Y324698D01*
X564327Y324702D01*
X564329Y324708D01*
X563702Y325663D01*
X563694Y325666D01*
X563695Y325671D01*
X562872Y326463D01*
X562864Y326464D01*
X562863Y326470D01*
X561884Y327059D01*
X561876Y327058D01*
X561874Y327063D01*
X560789Y327419D01*
X560781Y327417D01*
X560778Y327421D01*
X559641Y327527D01*
X559634Y327523D01*
X559630Y327527D01*
X558542Y327382D01*
X558536Y327376D01*
X558531Y327379D01*
X557503Y326996D01*
X557498Y326989D01*
X557493Y326991D01*
X556576Y326388D01*
X556573Y326380D01*
X556567Y326381D01*
X555807Y325589D01*
X555806Y325581D01*
X555800Y325580D01*
X555236Y324639D01*
X555237Y324631D01*
X555231Y324629D01*
X554890Y323586D01*
X554892Y323578D01*
X554888Y323575D01*
X554787Y322483D01*
X554789Y322480D01*
X554787Y322478D01*
X554787Y316478D01*
X554789Y316475D01*
X554787Y316474D01*
X554888Y315381D01*
X554893Y315375D01*
X554890Y315370D01*
X555231Y314327D01*
X555238Y314322D01*
X555236Y314317D01*
X555800Y313376D01*
X555808Y313373D01*
X555807Y313367D01*
X556567Y312575D01*
X556575Y312574D01*
X556576Y312568D01*
X557493Y311966D01*
X557501Y311966D01*
X557503Y311961D01*
X558531Y311577D01*
X558539Y311579D01*
X558542Y311574D01*
X559630Y311429D01*
X559637Y311433D01*
X559641Y311429D01*
X560778Y311535D01*
G37*
D10*
X14050Y190306D03*
X14050Y134306D03*
D11*
X50800Y177306D03*
X50800Y167306D03*
X50800Y157306D03*
X50800Y147306D03*
D10*
X392350Y134306D03*
X392350Y190306D03*
D11*
X355600Y147306D03*
X355600Y157306D03*
X355600Y167306D03*
X355600Y177306D03*
D12*
X110100Y157226D03*
X93100Y157226D03*
X110100Y141986D03*
X93100Y141986D03*
X110100Y127254D03*
X93100Y127254D03*
D13*
X36480Y78020D03*
D14*
X25908Y219846D03*
X25908Y236846D03*
X42164Y219846D03*
X42164Y236846D03*
D15*
X363784Y73470D02*
X370784Y73470D01*
X370784Y66470D01*
X363784Y66470D01*
X363784Y73470D01*
X363784Y69320D02*
X370784Y69320D01*
X370784Y72170D02*
X363784Y72170D01*
X363784Y91010D02*
X370784Y91010D01*
X370784Y84010D01*
X363784Y84010D01*
X363784Y91010D01*
X363784Y86860D02*
X370784Y86860D01*
X370784Y89710D02*
X363784Y89710D01*
D16*
X90100Y93726D03*
X113100Y93726D03*
D12*
X110100Y108966D03*
X93100Y108966D03*
X372500Y103124D03*
X389500Y103124D03*
X110100Y187706D03*
X93100Y187706D03*
X110100Y172466D03*
X93100Y172466D03*
D17*
X317500Y208246D03*
X317500Y235746D03*
D18*
X302250Y221996D03*
X332750Y221996D03*
D14*
X283718Y149742D03*
X283718Y166742D03*
D12*
X93100Y78994D03*
X110100Y78994D03*
D15*
X390454Y73470D02*
X397454Y73470D01*
X397454Y66470D01*
X390454Y66470D01*
X390454Y73470D01*
X390454Y69320D02*
X397454Y69320D01*
X397454Y72170D02*
X390454Y72170D01*
X390454Y91010D02*
X397454Y91010D01*
X397454Y84010D01*
X390454Y84010D01*
X390454Y91010D01*
X390454Y86860D02*
X397454Y86860D01*
X397454Y89710D02*
X390454Y89710D01*
D12*
X389500Y118364D03*
X372500Y118364D03*
D19*
X324151Y148996D03*
X324151Y158496D03*
X324151Y167996D03*
X298149Y167996D03*
X298149Y148996D03*
D14*
X339090Y166996D03*
X339090Y149996D03*
X95504Y227956D03*
X95504Y210956D03*
X113792Y228464D03*
X113792Y211464D03*
D12*
X317890Y185166D03*
X334890Y185166D03*
X301870Y185166D03*
X284870Y185166D03*
D14*
X169672Y300600D03*
X169672Y283600D03*
X287020Y220336D03*
X287020Y203336D03*
D20*
X107616Y248398D03*
D21*
X102616Y248648D03*
X97616Y248648D03*
X97616Y240048D03*
X102616Y240048D03*
X107616Y240048D03*
D22*
X97656Y271878D03*
X102656Y271878D03*
D23*
X72906Y271878D03*
X80656Y271878D03*
D22*
X87656Y271878D03*
X92656Y271878D03*
X112656Y271878D03*
X107656Y271878D03*
D23*
X137406Y271878D03*
X129656Y271878D03*
D22*
X122656Y271878D03*
X117656Y271878D03*
D14*
X74422Y219846D03*
X74422Y236846D03*
X58420Y219846D03*
X58420Y236846D03*
D24*
X270200Y93830D03*
D25*
X259700Y93830D03*
D24*
X270200Y104830D03*
D25*
X259700Y104830D03*
D24*
X270200Y115830D03*
D25*
X259700Y115830D03*
D24*
X270200Y126830D03*
D25*
X259700Y126830D03*
D24*
X270200Y137830D03*
D25*
X259700Y137830D03*
D24*
X270200Y148830D03*
D25*
X259700Y148830D03*
D24*
X270200Y159830D03*
D25*
X259700Y159830D03*
D24*
X270200Y189830D03*
D25*
X259700Y189830D03*
D24*
X270200Y200830D03*
D25*
X259700Y200830D03*
D24*
X270200Y211830D03*
D25*
X259700Y211830D03*
D24*
X270200Y222830D03*
D25*
X259700Y222830D03*
D24*
X270200Y233830D03*
D25*
X259700Y233830D03*
D24*
X136200Y159830D03*
D25*
X146700Y159830D03*
D24*
X136200Y148830D03*
D25*
X146700Y148830D03*
D24*
X136200Y137830D03*
D25*
X146700Y137830D03*
D24*
X136200Y126830D03*
D25*
X146700Y126830D03*
D24*
X136200Y115830D03*
D25*
X146700Y115830D03*
D24*
X136200Y104830D03*
D25*
X146700Y104830D03*
D24*
X136200Y93830D03*
D25*
X146700Y93830D03*
D24*
X136200Y233830D03*
D25*
X146700Y233830D03*
D24*
X136200Y222830D03*
D25*
X146700Y222830D03*
D24*
X136200Y211830D03*
D25*
X146700Y211830D03*
D24*
X136200Y200830D03*
D25*
X146700Y200830D03*
D24*
X136200Y189830D03*
D25*
X146700Y189830D03*
D10*
X425530Y190306D03*
X425530Y134306D03*
D11*
X462280Y177306D03*
X462280Y167306D03*
X462280Y157306D03*
X462280Y147306D03*
D10*
X803830Y134306D03*
X803830Y190306D03*
D11*
X767080Y147306D03*
X767080Y157306D03*
X767080Y167306D03*
X767080Y177306D03*
D12*
X521580Y157226D03*
X504580Y157226D03*
X521580Y141986D03*
X504580Y141986D03*
X521580Y127254D03*
X504580Y127254D03*
D13*
X447960Y78020D03*
D14*
X437388Y219846D03*
X437388Y236846D03*
X453644Y219846D03*
X453644Y236846D03*
D15*
X775264Y73470D02*
X782264Y73470D01*
X782264Y66470D01*
X775264Y66470D01*
X775264Y73470D01*
X775264Y69320D02*
X782264Y69320D01*
X782264Y72170D02*
X775264Y72170D01*
X775264Y91010D02*
X782264Y91010D01*
X782264Y84010D01*
X775264Y84010D01*
X775264Y91010D01*
X775264Y86860D02*
X782264Y86860D01*
X782264Y89710D02*
X775264Y89710D01*
D16*
X501580Y93726D03*
X524580Y93726D03*
D12*
X521580Y108966D03*
X504580Y108966D03*
X783980Y103124D03*
X800980Y103124D03*
X521580Y187706D03*
X504580Y187706D03*
X521580Y172466D03*
X504580Y172466D03*
D17*
X728980Y208246D03*
X728980Y235746D03*
D18*
X713730Y221996D03*
X744230Y221996D03*
D14*
X695198Y149742D03*
X695198Y166742D03*
D12*
X504580Y78994D03*
X521580Y78994D03*
D15*
X801934Y73470D02*
X808934Y73470D01*
X808934Y66470D01*
X801934Y66470D01*
X801934Y73470D01*
X801934Y69320D02*
X808934Y69320D01*
X808934Y72170D02*
X801934Y72170D01*
X801934Y91010D02*
X808934Y91010D01*
X808934Y84010D01*
X801934Y84010D01*
X801934Y91010D01*
X801934Y86860D02*
X808934Y86860D01*
X808934Y89710D02*
X801934Y89710D01*
D12*
X800980Y118364D03*
X783980Y118364D03*
D19*
X735631Y148996D03*
X735631Y158496D03*
X735631Y167996D03*
X709629Y167996D03*
X709629Y148996D03*
D14*
X750570Y166996D03*
X750570Y149996D03*
X506984Y227956D03*
X506984Y210956D03*
X525272Y228464D03*
X525272Y211464D03*
D12*
X729370Y185166D03*
X746370Y185166D03*
X713350Y185166D03*
X696350Y185166D03*
D14*
X581152Y300600D03*
X581152Y283600D03*
X698500Y220336D03*
X698500Y203336D03*
D20*
X519096Y248398D03*
D21*
X514096Y248648D03*
X509096Y248648D03*
X509096Y240048D03*
X514096Y240048D03*
X519096Y240048D03*
D22*
X509136Y271878D03*
X514136Y271878D03*
D23*
X484386Y271878D03*
X492136Y271878D03*
D22*
X499136Y271878D03*
X504136Y271878D03*
X524136Y271878D03*
X519136Y271878D03*
D23*
X548886Y271878D03*
X541136Y271878D03*
D22*
X534136Y271878D03*
X529136Y271878D03*
D14*
X485902Y219846D03*
X485902Y236846D03*
X469900Y219846D03*
X469900Y236846D03*
D24*
X681680Y93830D03*
D25*
X671180Y93830D03*
D24*
X681680Y104830D03*
D25*
X671180Y104830D03*
D24*
X681680Y115830D03*
D25*
X671180Y115830D03*
D24*
X681680Y126830D03*
D25*
X671180Y126830D03*
D24*
X681680Y137830D03*
D25*
X671180Y137830D03*
D24*
X681680Y148830D03*
D25*
X671180Y148830D03*
D24*
X681680Y159830D03*
D25*
X671180Y159830D03*
D24*
X681680Y189830D03*
D25*
X671180Y189830D03*
D24*
X681680Y200830D03*
D25*
X671180Y200830D03*
D24*
X681680Y211830D03*
D25*
X671180Y211830D03*
D24*
X681680Y222830D03*
D25*
X671180Y222830D03*
D24*
X681680Y233830D03*
D25*
X671180Y233830D03*
D24*
X547680Y159830D03*
D25*
X558180Y159830D03*
D24*
X547680Y148830D03*
D25*
X558180Y148830D03*
D24*
X547680Y137830D03*
D25*
X558180Y137830D03*
D24*
X547680Y126830D03*
D25*
X558180Y126830D03*
D24*
X547680Y115830D03*
D25*
X558180Y115830D03*
D24*
X547680Y104830D03*
D25*
X558180Y104830D03*
D24*
X547680Y93830D03*
D25*
X558180Y93830D03*
D24*
X547680Y233830D03*
D25*
X558180Y233830D03*
D24*
X547680Y222830D03*
D25*
X558180Y222830D03*
D24*
X547680Y211830D03*
D25*
X558180Y211830D03*
D24*
X547680Y200830D03*
D25*
X558180Y200830D03*
D24*
X547680Y189830D03*
D25*
X558180Y189830D03*
D10*
X14050Y550732D03*
X14050Y494732D03*
D11*
X50800Y537732D03*
X50800Y527732D03*
X50800Y517732D03*
X50800Y507732D03*
D10*
X392350Y494732D03*
X392350Y550732D03*
D11*
X355600Y507732D03*
X355600Y517732D03*
X355600Y527732D03*
X355600Y537732D03*
D12*
X110100Y517652D03*
X93100Y517652D03*
X110100Y502412D03*
X93100Y502412D03*
X110100Y487680D03*
X93100Y487680D03*
D13*
X36480Y438446D03*
D14*
X25908Y580272D03*
X25908Y597272D03*
X42164Y580272D03*
X42164Y597272D03*
D15*
X363784Y433896D02*
X370784Y433896D01*
X370784Y426896D01*
X363784Y426896D01*
X363784Y433896D01*
X363784Y429746D02*
X370784Y429746D01*
X370784Y432596D02*
X363784Y432596D01*
X363784Y451436D02*
X370784Y451436D01*
X370784Y444436D01*
X363784Y444436D01*
X363784Y451436D01*
X363784Y447286D02*
X370784Y447286D01*
X370784Y450136D02*
X363784Y450136D01*
D16*
X90100Y454152D03*
X113100Y454152D03*
D12*
X110100Y469392D03*
X93100Y469392D03*
X372500Y463550D03*
X389500Y463550D03*
X110100Y548132D03*
X93100Y548132D03*
X110100Y532892D03*
X93100Y532892D03*
D17*
X317500Y568672D03*
X317500Y596172D03*
D18*
X302250Y582422D03*
X332750Y582422D03*
D14*
X283718Y510168D03*
X283718Y527168D03*
D12*
X93100Y439420D03*
X110100Y439420D03*
D15*
X390454Y433896D02*
X397454Y433896D01*
X397454Y426896D01*
X390454Y426896D01*
X390454Y433896D01*
X390454Y429746D02*
X397454Y429746D01*
X397454Y432596D02*
X390454Y432596D01*
X390454Y451436D02*
X397454Y451436D01*
X397454Y444436D01*
X390454Y444436D01*
X390454Y451436D01*
X390454Y447286D02*
X397454Y447286D01*
X397454Y450136D02*
X390454Y450136D01*
D12*
X389500Y478790D03*
X372500Y478790D03*
D19*
X324151Y509422D03*
X324151Y518922D03*
X324151Y528422D03*
X298149Y528422D03*
X298149Y509422D03*
D14*
X339090Y527422D03*
X339090Y510422D03*
X95504Y588382D03*
X95504Y571382D03*
X113792Y588890D03*
X113792Y571890D03*
D12*
X317890Y545592D03*
X334890Y545592D03*
X301870Y545592D03*
X284870Y545592D03*
D14*
X169672Y661026D03*
X169672Y644026D03*
X287020Y580762D03*
X287020Y563762D03*
D20*
X107616Y608824D03*
D21*
X102616Y609074D03*
X97616Y609074D03*
X97616Y600474D03*
X102616Y600474D03*
X107616Y600474D03*
D22*
X97656Y632304D03*
X102656Y632304D03*
D23*
X72906Y632304D03*
X80656Y632304D03*
D22*
X87656Y632304D03*
X92656Y632304D03*
X112656Y632304D03*
X107656Y632304D03*
D23*
X137406Y632304D03*
X129656Y632304D03*
D22*
X122656Y632304D03*
X117656Y632304D03*
D14*
X74422Y580272D03*
X74422Y597272D03*
X58420Y580272D03*
X58420Y597272D03*
D24*
X270200Y454256D03*
D25*
X259700Y454256D03*
D24*
X270200Y465256D03*
D25*
X259700Y465256D03*
D24*
X270200Y476256D03*
D25*
X259700Y476256D03*
D24*
X270200Y487256D03*
D25*
X259700Y487256D03*
D24*
X270200Y498256D03*
D25*
X259700Y498256D03*
D24*
X270200Y509256D03*
D25*
X259700Y509256D03*
D24*
X270200Y520256D03*
D25*
X259700Y520256D03*
D24*
X270200Y550256D03*
D25*
X259700Y550256D03*
D24*
X270200Y561256D03*
D25*
X259700Y561256D03*
D24*
X270200Y572256D03*
D25*
X259700Y572256D03*
D24*
X270200Y583256D03*
D25*
X259700Y583256D03*
D24*
X270200Y594256D03*
D25*
X259700Y594256D03*
D24*
X136200Y520256D03*
D25*
X146700Y520256D03*
D24*
X136200Y509256D03*
D25*
X146700Y509256D03*
D24*
X136200Y498256D03*
D25*
X146700Y498256D03*
D24*
X136200Y487256D03*
D25*
X146700Y487256D03*
D24*
X136200Y476256D03*
D25*
X146700Y476256D03*
D24*
X136200Y465256D03*
D25*
X146700Y465256D03*
D24*
X136200Y454256D03*
D25*
X146700Y454256D03*
D24*
X136200Y594256D03*
D25*
X146700Y594256D03*
D24*
X136200Y583256D03*
D25*
X146700Y583256D03*
D24*
X136200Y572256D03*
D25*
X146700Y572256D03*
D24*
X136200Y561256D03*
D25*
X146700Y561256D03*
D24*
X136200Y550256D03*
D25*
X146700Y550256D03*
D10*
X425530Y550732D03*
X425530Y494732D03*
D11*
X462280Y537732D03*
X462280Y527732D03*
X462280Y517732D03*
X462280Y507732D03*
D10*
X803830Y494732D03*
X803830Y550732D03*
D11*
X767080Y507732D03*
X767080Y517732D03*
X767080Y527732D03*
X767080Y537732D03*
D12*
X521580Y517652D03*
X504580Y517652D03*
X521580Y502412D03*
X504580Y502412D03*
X521580Y487680D03*
X504580Y487680D03*
D13*
X447960Y438446D03*
D14*
X437388Y580272D03*
X437388Y597272D03*
X453644Y580272D03*
X453644Y597272D03*
D15*
X775264Y433896D02*
X782264Y433896D01*
X782264Y426896D01*
X775264Y426896D01*
X775264Y433896D01*
X775264Y429746D02*
X782264Y429746D01*
X782264Y432596D02*
X775264Y432596D01*
X775264Y451436D02*
X782264Y451436D01*
X782264Y444436D01*
X775264Y444436D01*
X775264Y451436D01*
X775264Y447286D02*
X782264Y447286D01*
X782264Y450136D02*
X775264Y450136D01*
D16*
X501580Y454152D03*
X524580Y454152D03*
D12*
X521580Y469392D03*
X504580Y469392D03*
X783980Y463550D03*
X800980Y463550D03*
X521580Y548132D03*
X504580Y548132D03*
X521580Y532892D03*
X504580Y532892D03*
D17*
X728980Y568672D03*
X728980Y596172D03*
D18*
X713730Y582422D03*
X744230Y582422D03*
D14*
X695198Y510168D03*
X695198Y527168D03*
D12*
X504580Y439420D03*
X521580Y439420D03*
D15*
X801934Y433896D02*
X808934Y433896D01*
X808934Y426896D01*
X801934Y426896D01*
X801934Y433896D01*
X801934Y429746D02*
X808934Y429746D01*
X808934Y432596D02*
X801934Y432596D01*
X801934Y451436D02*
X808934Y451436D01*
X808934Y444436D01*
X801934Y444436D01*
X801934Y451436D01*
X801934Y447286D02*
X808934Y447286D01*
X808934Y450136D02*
X801934Y450136D01*
D12*
X800980Y478790D03*
X783980Y478790D03*
D19*
X735631Y509422D03*
X735631Y518922D03*
X735631Y528422D03*
X709629Y528422D03*
X709629Y509422D03*
D14*
X750570Y527422D03*
X750570Y510422D03*
X506984Y588382D03*
X506984Y571382D03*
X525272Y588890D03*
X525272Y571890D03*
D12*
X729370Y545592D03*
X746370Y545592D03*
X713350Y545592D03*
X696350Y545592D03*
D14*
X581152Y661026D03*
X581152Y644026D03*
X698500Y580762D03*
X698500Y563762D03*
D20*
X519096Y608824D03*
D21*
X514096Y609074D03*
X509096Y609074D03*
X509096Y600474D03*
X514096Y600474D03*
X519096Y600474D03*
D22*
X509136Y632304D03*
X514136Y632304D03*
D23*
X484386Y632304D03*
X492136Y632304D03*
D22*
X499136Y632304D03*
X504136Y632304D03*
X524136Y632304D03*
X519136Y632304D03*
D23*
X548886Y632304D03*
X541136Y632304D03*
D22*
X534136Y632304D03*
X529136Y632304D03*
D14*
X485902Y580272D03*
X485902Y597272D03*
X469900Y580272D03*
X469900Y597272D03*
D24*
X681680Y454256D03*
D25*
X671180Y454256D03*
D24*
X681680Y465256D03*
D25*
X671180Y465256D03*
D24*
X681680Y476256D03*
D25*
X671180Y476256D03*
D24*
X681680Y487256D03*
D25*
X671180Y487256D03*
D24*
X681680Y498256D03*
D25*
X671180Y498256D03*
D24*
X681680Y509256D03*
D25*
X671180Y509256D03*
D24*
X681680Y520256D03*
D25*
X671180Y520256D03*
D24*
X681680Y550256D03*
D25*
X671180Y550256D03*
D24*
X681680Y561256D03*
D25*
X671180Y561256D03*
D24*
X681680Y572256D03*
D25*
X671180Y572256D03*
D24*
X681680Y583256D03*
D25*
X671180Y583256D03*
D24*
X681680Y594256D03*
D25*
X671180Y594256D03*
D24*
X547680Y520256D03*
D25*
X558180Y520256D03*
D24*
X547680Y509256D03*
D25*
X558180Y509256D03*
D24*
X547680Y498256D03*
D25*
X558180Y498256D03*
D24*
X547680Y487256D03*
D25*
X558180Y487256D03*
D24*
X547680Y476256D03*
D25*
X558180Y476256D03*
D24*
X547680Y465256D03*
D25*
X558180Y465256D03*
D24*
X547680Y454256D03*
D25*
X558180Y454256D03*
D24*
X547680Y594256D03*
D25*
X558180Y594256D03*
D24*
X547680Y583256D03*
D25*
X558180Y583256D03*
D24*
X547680Y572256D03*
D25*
X558180Y572256D03*
D24*
X547680Y561256D03*
D25*
X558180Y561256D03*
D24*
X547680Y550256D03*
D25*
X558180Y550256D03*
D10*
X14050Y911158D03*
X14050Y855158D03*
D11*
X50800Y898158D03*
X50800Y888158D03*
X50800Y878158D03*
X50800Y868158D03*
D10*
X392350Y855158D03*
X392350Y911158D03*
D11*
X355600Y868158D03*
X355600Y878158D03*
X355600Y888158D03*
X355600Y898158D03*
D12*
X110100Y878078D03*
X93100Y878078D03*
X110100Y862838D03*
X93100Y862838D03*
X110100Y848106D03*
X93100Y848106D03*
D13*
X36480Y798872D03*
D14*
X25908Y940698D03*
X25908Y957698D03*
X42164Y940698D03*
X42164Y957698D03*
D15*
X363784Y794322D02*
X370784Y794322D01*
X370784Y787322D01*
X363784Y787322D01*
X363784Y794322D01*
X363784Y790172D02*
X370784Y790172D01*
X370784Y793022D02*
X363784Y793022D01*
X363784Y811862D02*
X370784Y811862D01*
X370784Y804862D01*
X363784Y804862D01*
X363784Y811862D01*
X363784Y807712D02*
X370784Y807712D01*
X370784Y810562D02*
X363784Y810562D01*
D16*
X90100Y814578D03*
X113100Y814578D03*
D12*
X110100Y829818D03*
X93100Y829818D03*
X372500Y823976D03*
X389500Y823976D03*
X110100Y908558D03*
X93100Y908558D03*
X110100Y893318D03*
X93100Y893318D03*
D17*
X317500Y929098D03*
X317500Y956598D03*
D18*
X302250Y942848D03*
X332750Y942848D03*
D14*
X283718Y870594D03*
X283718Y887594D03*
D12*
X93100Y799846D03*
X110100Y799846D03*
D15*
X390454Y794322D02*
X397454Y794322D01*
X397454Y787322D01*
X390454Y787322D01*
X390454Y794322D01*
X390454Y790172D02*
X397454Y790172D01*
X397454Y793022D02*
X390454Y793022D01*
X390454Y811862D02*
X397454Y811862D01*
X397454Y804862D01*
X390454Y804862D01*
X390454Y811862D01*
X390454Y807712D02*
X397454Y807712D01*
X397454Y810562D02*
X390454Y810562D01*
D12*
X389500Y839216D03*
X372500Y839216D03*
D19*
X324151Y869848D03*
X324151Y879348D03*
X324151Y888848D03*
X298149Y888848D03*
X298149Y869848D03*
D14*
X339090Y887848D03*
X339090Y870848D03*
X95504Y948808D03*
X95504Y931808D03*
X113792Y949316D03*
X113792Y932316D03*
D12*
X317890Y906018D03*
X334890Y906018D03*
X301870Y906018D03*
X284870Y906018D03*
D14*
X169672Y1021452D03*
X169672Y1004452D03*
X287020Y941188D03*
X287020Y924188D03*
D20*
X107616Y969250D03*
D21*
X102616Y969500D03*
X97616Y969500D03*
X97616Y960900D03*
X102616Y960900D03*
X107616Y960900D03*
D22*
X97656Y992730D03*
X102656Y992730D03*
D23*
X72906Y992730D03*
X80656Y992730D03*
D22*
X87656Y992730D03*
X92656Y992730D03*
X112656Y992730D03*
X107656Y992730D03*
D23*
X137406Y992730D03*
X129656Y992730D03*
D22*
X122656Y992730D03*
X117656Y992730D03*
D14*
X74422Y940698D03*
X74422Y957698D03*
X58420Y940698D03*
X58420Y957698D03*
D24*
X270200Y814682D03*
D25*
X259700Y814682D03*
D24*
X270200Y825682D03*
D25*
X259700Y825682D03*
D24*
X270200Y836682D03*
D25*
X259700Y836682D03*
D24*
X270200Y847682D03*
D25*
X259700Y847682D03*
D24*
X270200Y858682D03*
D25*
X259700Y858682D03*
D24*
X270200Y869682D03*
D25*
X259700Y869682D03*
D24*
X270200Y880682D03*
D25*
X259700Y880682D03*
D24*
X270200Y910682D03*
D25*
X259700Y910682D03*
D24*
X270200Y921682D03*
D25*
X259700Y921682D03*
D24*
X270200Y932682D03*
D25*
X259700Y932682D03*
D24*
X270200Y943682D03*
D25*
X259700Y943682D03*
D24*
X270200Y954682D03*
D25*
X259700Y954682D03*
D24*
X136200Y880682D03*
D25*
X146700Y880682D03*
D24*
X136200Y869682D03*
D25*
X146700Y869682D03*
D24*
X136200Y858682D03*
D25*
X146700Y858682D03*
D24*
X136200Y847682D03*
D25*
X146700Y847682D03*
D24*
X136200Y836682D03*
D25*
X146700Y836682D03*
D24*
X136200Y825682D03*
D25*
X146700Y825682D03*
D24*
X136200Y814682D03*
D25*
X146700Y814682D03*
D24*
X136200Y954682D03*
D25*
X146700Y954682D03*
D24*
X136200Y943682D03*
D25*
X146700Y943682D03*
D24*
X136200Y932682D03*
D25*
X146700Y932682D03*
D24*
X136200Y921682D03*
D25*
X146700Y921682D03*
D24*
X136200Y910682D03*
D25*
X146700Y910682D03*
D10*
X425530Y911158D03*
X425530Y855158D03*
D11*
X462280Y898158D03*
X462280Y888158D03*
X462280Y878158D03*
X462280Y868158D03*
D10*
X803830Y855158D03*
X803830Y911158D03*
D11*
X767080Y868158D03*
X767080Y878158D03*
X767080Y888158D03*
X767080Y898158D03*
D12*
X521580Y878078D03*
X504580Y878078D03*
X521580Y862838D03*
X504580Y862838D03*
X521580Y848106D03*
X504580Y848106D03*
D13*
X447960Y798872D03*
D14*
X437388Y940698D03*
X437388Y957698D03*
X453644Y940698D03*
X453644Y957698D03*
D15*
X775264Y794322D02*
X782264Y794322D01*
X782264Y787322D01*
X775264Y787322D01*
X775264Y794322D01*
X775264Y790172D02*
X782264Y790172D01*
X782264Y793022D02*
X775264Y793022D01*
X775264Y811862D02*
X782264Y811862D01*
X782264Y804862D01*
X775264Y804862D01*
X775264Y811862D01*
X775264Y807712D02*
X782264Y807712D01*
X782264Y810562D02*
X775264Y810562D01*
D16*
X501580Y814578D03*
X524580Y814578D03*
D12*
X521580Y829818D03*
X504580Y829818D03*
X783980Y823976D03*
X800980Y823976D03*
X521580Y908558D03*
X504580Y908558D03*
X521580Y893318D03*
X504580Y893318D03*
D17*
X728980Y929098D03*
X728980Y956598D03*
D18*
X713730Y942848D03*
X744230Y942848D03*
D14*
X695198Y870594D03*
X695198Y887594D03*
D12*
X504580Y799846D03*
X521580Y799846D03*
D15*
X801934Y794322D02*
X808934Y794322D01*
X808934Y787322D01*
X801934Y787322D01*
X801934Y794322D01*
X801934Y790172D02*
X808934Y790172D01*
X808934Y793022D02*
X801934Y793022D01*
X801934Y811862D02*
X808934Y811862D01*
X808934Y804862D01*
X801934Y804862D01*
X801934Y811862D01*
X801934Y807712D02*
X808934Y807712D01*
X808934Y810562D02*
X801934Y810562D01*
D12*
X800980Y839216D03*
X783980Y839216D03*
D19*
X735631Y869848D03*
X735631Y879348D03*
X735631Y888848D03*
X709629Y888848D03*
X709629Y869848D03*
D14*
X750570Y887848D03*
X750570Y870848D03*
X506984Y948808D03*
X506984Y931808D03*
X525272Y949316D03*
X525272Y932316D03*
D12*
X729370Y906018D03*
X746370Y906018D03*
X713350Y906018D03*
X696350Y906018D03*
D14*
X581152Y1021452D03*
X581152Y1004452D03*
X698500Y941188D03*
X698500Y924188D03*
D20*
X519096Y969250D03*
D21*
X514096Y969500D03*
X509096Y969500D03*
X509096Y960900D03*
X514096Y960900D03*
X519096Y960900D03*
D22*
X509136Y992730D03*
X514136Y992730D03*
D23*
X484386Y992730D03*
X492136Y992730D03*
D22*
X499136Y992730D03*
X504136Y992730D03*
X524136Y992730D03*
X519136Y992730D03*
D23*
X548886Y992730D03*
X541136Y992730D03*
D22*
X534136Y992730D03*
X529136Y992730D03*
D14*
X485902Y940698D03*
X485902Y957698D03*
X469900Y940698D03*
X469900Y957698D03*
D24*
X681680Y814682D03*
D25*
X671180Y814682D03*
D24*
X681680Y825682D03*
D25*
X671180Y825682D03*
D24*
X681680Y836682D03*
D25*
X671180Y836682D03*
D24*
X681680Y847682D03*
D25*
X671180Y847682D03*
D24*
X681680Y858682D03*
D25*
X671180Y858682D03*
D24*
X681680Y869682D03*
D25*
X671180Y869682D03*
D24*
X681680Y880682D03*
D25*
X671180Y880682D03*
D24*
X681680Y910682D03*
D25*
X671180Y910682D03*
D24*
X681680Y921682D03*
D25*
X671180Y921682D03*
D24*
X681680Y932682D03*
D25*
X671180Y932682D03*
D24*
X681680Y943682D03*
D25*
X671180Y943682D03*
D24*
X681680Y954682D03*
D25*
X671180Y954682D03*
D24*
X547680Y880682D03*
D25*
X558180Y880682D03*
D24*
X547680Y869682D03*
D25*
X558180Y869682D03*
D24*
X547680Y858682D03*
D25*
X558180Y858682D03*
D24*
X547680Y847682D03*
D25*
X558180Y847682D03*
D24*
X547680Y836682D03*
D25*
X558180Y836682D03*
D24*
X547680Y825682D03*
D25*
X558180Y825682D03*
D24*
X547680Y814682D03*
D25*
X558180Y814682D03*
D24*
X547680Y954682D03*
D25*
X558180Y954682D03*
D24*
X547680Y943682D03*
D25*
X558180Y943682D03*
D24*
X547680Y932682D03*
D25*
X558180Y932682D03*
D24*
X547680Y921682D03*
D25*
X558180Y921682D03*
D24*
X547680Y910682D03*
D25*
X558180Y910682D03*
M02*
