G04 EAGLE Gerber RS-274X export*
G75*
%MOMM*%
%FSLAX34Y34*%
%LPD*%
%INSoldermask Bottom*%
%IPPOS*%
%AMOC8*
5,1,8,0,0,1.08239X$1,22.5*%
G01*
%ADD10C,3.505200*%
%ADD11R,0.863600X1.473200*%
%ADD12C,0.838200*%
%ADD13R,0.838200X1.473200*%
%ADD14C,2.082800*%
%ADD15C,0.853200*%
%ADD16C,1.203200*%

G36*
X763970Y454545D02*
X763970Y454545D01*
X764036Y454547D01*
X764079Y454565D01*
X764126Y454573D01*
X764183Y454607D01*
X764243Y454632D01*
X764278Y454663D01*
X764319Y454688D01*
X764361Y454739D01*
X764409Y454783D01*
X764431Y454825D01*
X764460Y454862D01*
X764481Y454924D01*
X764512Y454983D01*
X764520Y455037D01*
X764532Y455074D01*
X764531Y455114D01*
X764539Y455168D01*
X764539Y457708D01*
X764528Y457773D01*
X764526Y457839D01*
X764508Y457882D01*
X764500Y457929D01*
X764466Y457986D01*
X764441Y458046D01*
X764410Y458081D01*
X764385Y458122D01*
X764334Y458164D01*
X764290Y458212D01*
X764248Y458234D01*
X764211Y458263D01*
X764149Y458284D01*
X764090Y458315D01*
X764036Y458323D01*
X763999Y458335D01*
X763959Y458334D01*
X763905Y458342D01*
X760095Y458342D01*
X760030Y458331D01*
X759964Y458329D01*
X759921Y458311D01*
X759874Y458303D01*
X759817Y458269D01*
X759757Y458244D01*
X759722Y458213D01*
X759681Y458188D01*
X759640Y458137D01*
X759591Y458093D01*
X759569Y458051D01*
X759540Y458014D01*
X759519Y457952D01*
X759488Y457893D01*
X759480Y457839D01*
X759468Y457802D01*
X759468Y457799D01*
X759469Y457762D01*
X759461Y457708D01*
X759461Y455168D01*
X759472Y455103D01*
X759474Y455037D01*
X759492Y454994D01*
X759500Y454947D01*
X759534Y454890D01*
X759559Y454830D01*
X759590Y454795D01*
X759615Y454754D01*
X759666Y454713D01*
X759710Y454664D01*
X759752Y454642D01*
X759789Y454613D01*
X759851Y454592D01*
X759910Y454561D01*
X759964Y454553D01*
X760001Y454541D01*
X760041Y454542D01*
X760095Y454534D01*
X763905Y454534D01*
X763970Y454545D01*
G37*
G36*
X352490Y454545D02*
X352490Y454545D01*
X352556Y454547D01*
X352599Y454565D01*
X352646Y454573D01*
X352703Y454607D01*
X352763Y454632D01*
X352798Y454663D01*
X352839Y454688D01*
X352881Y454739D01*
X352929Y454783D01*
X352951Y454825D01*
X352980Y454862D01*
X353001Y454924D01*
X353032Y454983D01*
X353040Y455037D01*
X353052Y455074D01*
X353051Y455114D01*
X353059Y455168D01*
X353059Y457708D01*
X353048Y457773D01*
X353046Y457839D01*
X353028Y457882D01*
X353020Y457929D01*
X352986Y457986D01*
X352961Y458046D01*
X352930Y458081D01*
X352905Y458122D01*
X352854Y458164D01*
X352810Y458212D01*
X352768Y458234D01*
X352731Y458263D01*
X352669Y458284D01*
X352610Y458315D01*
X352556Y458323D01*
X352519Y458335D01*
X352479Y458334D01*
X352425Y458342D01*
X348615Y458342D01*
X348550Y458331D01*
X348484Y458329D01*
X348441Y458311D01*
X348394Y458303D01*
X348337Y458269D01*
X348277Y458244D01*
X348242Y458213D01*
X348201Y458188D01*
X348160Y458137D01*
X348111Y458093D01*
X348089Y458051D01*
X348060Y458014D01*
X348039Y457952D01*
X348008Y457893D01*
X348000Y457839D01*
X347988Y457802D01*
X347988Y457799D01*
X347989Y457762D01*
X347981Y457708D01*
X347981Y455168D01*
X347992Y455103D01*
X347994Y455037D01*
X348012Y454994D01*
X348020Y454947D01*
X348054Y454890D01*
X348079Y454830D01*
X348110Y454795D01*
X348135Y454754D01*
X348186Y454713D01*
X348230Y454664D01*
X348272Y454642D01*
X348309Y454613D01*
X348371Y454592D01*
X348430Y454561D01*
X348484Y454553D01*
X348521Y454541D01*
X348561Y454542D01*
X348615Y454534D01*
X352425Y454534D01*
X352490Y454545D01*
G37*
G36*
X57850Y944765D02*
X57850Y944765D01*
X57916Y944767D01*
X57959Y944785D01*
X58006Y944793D01*
X58063Y944827D01*
X58123Y944852D01*
X58158Y944883D01*
X58199Y944908D01*
X58241Y944959D01*
X58289Y945003D01*
X58311Y945045D01*
X58340Y945082D01*
X58361Y945144D01*
X58392Y945203D01*
X58400Y945257D01*
X58412Y945294D01*
X58411Y945334D01*
X58419Y945388D01*
X58419Y947928D01*
X58408Y947993D01*
X58406Y948059D01*
X58388Y948102D01*
X58380Y948149D01*
X58346Y948206D01*
X58321Y948266D01*
X58290Y948301D01*
X58265Y948342D01*
X58214Y948384D01*
X58170Y948432D01*
X58128Y948454D01*
X58091Y948483D01*
X58029Y948504D01*
X57970Y948535D01*
X57916Y948543D01*
X57879Y948555D01*
X57839Y948554D01*
X57785Y948562D01*
X53975Y948562D01*
X53910Y948551D01*
X53844Y948549D01*
X53801Y948531D01*
X53754Y948523D01*
X53697Y948489D01*
X53637Y948464D01*
X53602Y948433D01*
X53561Y948408D01*
X53520Y948357D01*
X53471Y948313D01*
X53449Y948271D01*
X53420Y948234D01*
X53399Y948172D01*
X53368Y948113D01*
X53360Y948059D01*
X53348Y948022D01*
X53348Y948019D01*
X53349Y947982D01*
X53341Y947928D01*
X53341Y945388D01*
X53352Y945323D01*
X53354Y945257D01*
X53372Y945214D01*
X53380Y945167D01*
X53414Y945110D01*
X53439Y945050D01*
X53470Y945015D01*
X53495Y944974D01*
X53546Y944933D01*
X53590Y944884D01*
X53632Y944862D01*
X53669Y944833D01*
X53731Y944812D01*
X53790Y944781D01*
X53844Y944773D01*
X53881Y944761D01*
X53921Y944762D01*
X53975Y944754D01*
X57785Y944754D01*
X57850Y944765D01*
G37*
G36*
X47690Y944765D02*
X47690Y944765D01*
X47756Y944767D01*
X47799Y944785D01*
X47846Y944793D01*
X47903Y944827D01*
X47963Y944852D01*
X47998Y944883D01*
X48039Y944908D01*
X48081Y944959D01*
X48129Y945003D01*
X48151Y945045D01*
X48180Y945082D01*
X48201Y945144D01*
X48232Y945203D01*
X48240Y945257D01*
X48252Y945294D01*
X48251Y945334D01*
X48259Y945388D01*
X48259Y947928D01*
X48248Y947993D01*
X48246Y948059D01*
X48228Y948102D01*
X48220Y948149D01*
X48186Y948206D01*
X48161Y948266D01*
X48130Y948301D01*
X48105Y948342D01*
X48054Y948384D01*
X48010Y948432D01*
X47968Y948454D01*
X47931Y948483D01*
X47869Y948504D01*
X47810Y948535D01*
X47756Y948543D01*
X47719Y948555D01*
X47679Y948554D01*
X47625Y948562D01*
X43815Y948562D01*
X43750Y948551D01*
X43684Y948549D01*
X43641Y948531D01*
X43594Y948523D01*
X43537Y948489D01*
X43477Y948464D01*
X43442Y948433D01*
X43401Y948408D01*
X43360Y948357D01*
X43311Y948313D01*
X43289Y948271D01*
X43260Y948234D01*
X43239Y948172D01*
X43208Y948113D01*
X43200Y948059D01*
X43188Y948022D01*
X43188Y948019D01*
X43189Y947982D01*
X43181Y947928D01*
X43181Y945388D01*
X43192Y945323D01*
X43194Y945257D01*
X43212Y945214D01*
X43220Y945167D01*
X43254Y945110D01*
X43279Y945050D01*
X43310Y945015D01*
X43335Y944974D01*
X43386Y944933D01*
X43430Y944884D01*
X43472Y944862D01*
X43509Y944833D01*
X43571Y944812D01*
X43630Y944781D01*
X43684Y944773D01*
X43721Y944761D01*
X43761Y944762D01*
X43815Y944754D01*
X47625Y944754D01*
X47690Y944765D01*
G37*
G36*
X469330Y944765D02*
X469330Y944765D01*
X469396Y944767D01*
X469439Y944785D01*
X469486Y944793D01*
X469543Y944827D01*
X469603Y944852D01*
X469638Y944883D01*
X469679Y944908D01*
X469721Y944959D01*
X469769Y945003D01*
X469791Y945045D01*
X469820Y945082D01*
X469841Y945144D01*
X469872Y945203D01*
X469880Y945257D01*
X469892Y945294D01*
X469891Y945334D01*
X469899Y945388D01*
X469899Y947928D01*
X469888Y947993D01*
X469886Y948059D01*
X469868Y948102D01*
X469860Y948149D01*
X469826Y948206D01*
X469801Y948266D01*
X469770Y948301D01*
X469745Y948342D01*
X469694Y948384D01*
X469650Y948432D01*
X469608Y948454D01*
X469571Y948483D01*
X469509Y948504D01*
X469450Y948535D01*
X469396Y948543D01*
X469359Y948555D01*
X469319Y948554D01*
X469265Y948562D01*
X465455Y948562D01*
X465390Y948551D01*
X465324Y948549D01*
X465281Y948531D01*
X465234Y948523D01*
X465177Y948489D01*
X465117Y948464D01*
X465082Y948433D01*
X465041Y948408D01*
X465000Y948357D01*
X464951Y948313D01*
X464929Y948271D01*
X464900Y948234D01*
X464879Y948172D01*
X464848Y948113D01*
X464840Y948059D01*
X464828Y948022D01*
X464828Y948019D01*
X464829Y947982D01*
X464821Y947928D01*
X464821Y945388D01*
X464832Y945323D01*
X464834Y945257D01*
X464852Y945214D01*
X464860Y945167D01*
X464894Y945110D01*
X464919Y945050D01*
X464950Y945015D01*
X464975Y944974D01*
X465026Y944933D01*
X465070Y944884D01*
X465112Y944862D01*
X465149Y944833D01*
X465211Y944812D01*
X465270Y944781D01*
X465324Y944773D01*
X465361Y944761D01*
X465401Y944762D01*
X465455Y944754D01*
X469265Y944754D01*
X469330Y944765D01*
G37*
G36*
X459170Y944765D02*
X459170Y944765D01*
X459236Y944767D01*
X459279Y944785D01*
X459326Y944793D01*
X459383Y944827D01*
X459443Y944852D01*
X459478Y944883D01*
X459519Y944908D01*
X459561Y944959D01*
X459609Y945003D01*
X459631Y945045D01*
X459660Y945082D01*
X459681Y945144D01*
X459712Y945203D01*
X459720Y945257D01*
X459732Y945294D01*
X459731Y945334D01*
X459739Y945388D01*
X459739Y947928D01*
X459728Y947993D01*
X459726Y948059D01*
X459708Y948102D01*
X459700Y948149D01*
X459666Y948206D01*
X459641Y948266D01*
X459610Y948301D01*
X459585Y948342D01*
X459534Y948384D01*
X459490Y948432D01*
X459448Y948454D01*
X459411Y948483D01*
X459349Y948504D01*
X459290Y948535D01*
X459236Y948543D01*
X459199Y948555D01*
X459159Y948554D01*
X459105Y948562D01*
X455295Y948562D01*
X455230Y948551D01*
X455164Y948549D01*
X455121Y948531D01*
X455074Y948523D01*
X455017Y948489D01*
X454957Y948464D01*
X454922Y948433D01*
X454881Y948408D01*
X454840Y948357D01*
X454791Y948313D01*
X454769Y948271D01*
X454740Y948234D01*
X454719Y948172D01*
X454688Y948113D01*
X454680Y948059D01*
X454668Y948022D01*
X454668Y948019D01*
X454669Y947982D01*
X454661Y947928D01*
X454661Y945388D01*
X454672Y945323D01*
X454674Y945257D01*
X454692Y945214D01*
X454700Y945167D01*
X454734Y945110D01*
X454759Y945050D01*
X454790Y945015D01*
X454815Y944974D01*
X454866Y944933D01*
X454910Y944884D01*
X454952Y944862D01*
X454989Y944833D01*
X455051Y944812D01*
X455110Y944781D01*
X455164Y944773D01*
X455201Y944761D01*
X455241Y944762D01*
X455295Y944754D01*
X459105Y944754D01*
X459170Y944765D01*
G37*
G36*
X352490Y838085D02*
X352490Y838085D01*
X352556Y838087D01*
X352599Y838105D01*
X352646Y838113D01*
X352703Y838147D01*
X352763Y838172D01*
X352798Y838203D01*
X352839Y838228D01*
X352881Y838279D01*
X352929Y838323D01*
X352951Y838365D01*
X352980Y838402D01*
X353001Y838464D01*
X353032Y838523D01*
X353040Y838577D01*
X353052Y838614D01*
X353051Y838654D01*
X353059Y838708D01*
X353059Y841248D01*
X353048Y841313D01*
X353046Y841379D01*
X353028Y841422D01*
X353020Y841469D01*
X352986Y841526D01*
X352961Y841586D01*
X352930Y841621D01*
X352905Y841662D01*
X352854Y841704D01*
X352810Y841752D01*
X352768Y841774D01*
X352731Y841803D01*
X352669Y841824D01*
X352610Y841855D01*
X352556Y841863D01*
X352519Y841875D01*
X352479Y841874D01*
X352425Y841882D01*
X348615Y841882D01*
X348550Y841871D01*
X348484Y841869D01*
X348441Y841851D01*
X348394Y841843D01*
X348337Y841809D01*
X348277Y841784D01*
X348242Y841753D01*
X348201Y841728D01*
X348160Y841677D01*
X348111Y841633D01*
X348089Y841591D01*
X348060Y841554D01*
X348039Y841492D01*
X348008Y841433D01*
X348000Y841379D01*
X347988Y841342D01*
X347988Y841339D01*
X347989Y841302D01*
X347981Y841248D01*
X347981Y838708D01*
X347992Y838643D01*
X347994Y838577D01*
X348012Y838534D01*
X348020Y838487D01*
X348054Y838430D01*
X348079Y838370D01*
X348110Y838335D01*
X348135Y838294D01*
X348186Y838253D01*
X348230Y838204D01*
X348272Y838182D01*
X348309Y838153D01*
X348371Y838132D01*
X348430Y838101D01*
X348484Y838093D01*
X348521Y838081D01*
X348561Y838082D01*
X348615Y838074D01*
X352425Y838074D01*
X352490Y838085D01*
G37*
G36*
X763970Y838085D02*
X763970Y838085D01*
X764036Y838087D01*
X764079Y838105D01*
X764126Y838113D01*
X764183Y838147D01*
X764243Y838172D01*
X764278Y838203D01*
X764319Y838228D01*
X764361Y838279D01*
X764409Y838323D01*
X764431Y838365D01*
X764460Y838402D01*
X764481Y838464D01*
X764512Y838523D01*
X764520Y838577D01*
X764532Y838614D01*
X764531Y838654D01*
X764539Y838708D01*
X764539Y841248D01*
X764528Y841313D01*
X764526Y841379D01*
X764508Y841422D01*
X764500Y841469D01*
X764466Y841526D01*
X764441Y841586D01*
X764410Y841621D01*
X764385Y841662D01*
X764334Y841704D01*
X764290Y841752D01*
X764248Y841774D01*
X764211Y841803D01*
X764149Y841824D01*
X764090Y841855D01*
X764036Y841863D01*
X763999Y841875D01*
X763959Y841874D01*
X763905Y841882D01*
X760095Y841882D01*
X760030Y841871D01*
X759964Y841869D01*
X759921Y841851D01*
X759874Y841843D01*
X759817Y841809D01*
X759757Y841784D01*
X759722Y841753D01*
X759681Y841728D01*
X759640Y841677D01*
X759591Y841633D01*
X759569Y841591D01*
X759540Y841554D01*
X759519Y841492D01*
X759488Y841433D01*
X759480Y841379D01*
X759468Y841342D01*
X759468Y841339D01*
X759469Y841302D01*
X759461Y841248D01*
X759461Y838708D01*
X759472Y838643D01*
X759474Y838577D01*
X759492Y838534D01*
X759500Y838487D01*
X759534Y838430D01*
X759559Y838370D01*
X759590Y838335D01*
X759615Y838294D01*
X759666Y838253D01*
X759710Y838204D01*
X759752Y838182D01*
X759789Y838153D01*
X759851Y838132D01*
X759910Y838101D01*
X759964Y838093D01*
X760001Y838081D01*
X760041Y838082D01*
X760095Y838074D01*
X763905Y838074D01*
X763970Y838085D01*
G37*
G36*
X763970Y814971D02*
X763970Y814971D01*
X764036Y814973D01*
X764079Y814991D01*
X764126Y814999D01*
X764183Y815033D01*
X764243Y815058D01*
X764278Y815089D01*
X764319Y815114D01*
X764361Y815165D01*
X764409Y815209D01*
X764431Y815251D01*
X764460Y815288D01*
X764481Y815350D01*
X764512Y815409D01*
X764520Y815463D01*
X764532Y815500D01*
X764531Y815540D01*
X764539Y815594D01*
X764539Y818134D01*
X764528Y818199D01*
X764526Y818265D01*
X764508Y818308D01*
X764500Y818355D01*
X764466Y818412D01*
X764441Y818472D01*
X764410Y818507D01*
X764385Y818548D01*
X764334Y818590D01*
X764290Y818638D01*
X764248Y818660D01*
X764211Y818689D01*
X764149Y818710D01*
X764090Y818741D01*
X764036Y818749D01*
X763999Y818761D01*
X763959Y818760D01*
X763905Y818768D01*
X760095Y818768D01*
X760030Y818757D01*
X759964Y818755D01*
X759921Y818737D01*
X759874Y818729D01*
X759817Y818695D01*
X759757Y818670D01*
X759722Y818639D01*
X759681Y818614D01*
X759640Y818563D01*
X759591Y818519D01*
X759569Y818477D01*
X759540Y818440D01*
X759519Y818378D01*
X759488Y818319D01*
X759480Y818265D01*
X759468Y818228D01*
X759468Y818225D01*
X759469Y818188D01*
X759461Y818134D01*
X759461Y815594D01*
X759472Y815529D01*
X759474Y815463D01*
X759492Y815420D01*
X759500Y815373D01*
X759534Y815316D01*
X759559Y815256D01*
X759590Y815221D01*
X759615Y815180D01*
X759666Y815139D01*
X759710Y815090D01*
X759752Y815068D01*
X759789Y815039D01*
X759851Y815018D01*
X759910Y814987D01*
X759964Y814979D01*
X760001Y814967D01*
X760041Y814968D01*
X760095Y814960D01*
X763905Y814960D01*
X763970Y814971D01*
G37*
G36*
X352490Y814971D02*
X352490Y814971D01*
X352556Y814973D01*
X352599Y814991D01*
X352646Y814999D01*
X352703Y815033D01*
X352763Y815058D01*
X352798Y815089D01*
X352839Y815114D01*
X352881Y815165D01*
X352929Y815209D01*
X352951Y815251D01*
X352980Y815288D01*
X353001Y815350D01*
X353032Y815409D01*
X353040Y815463D01*
X353052Y815500D01*
X353051Y815540D01*
X353059Y815594D01*
X353059Y818134D01*
X353048Y818199D01*
X353046Y818265D01*
X353028Y818308D01*
X353020Y818355D01*
X352986Y818412D01*
X352961Y818472D01*
X352930Y818507D01*
X352905Y818548D01*
X352854Y818590D01*
X352810Y818638D01*
X352768Y818660D01*
X352731Y818689D01*
X352669Y818710D01*
X352610Y818741D01*
X352556Y818749D01*
X352519Y818761D01*
X352479Y818760D01*
X352425Y818768D01*
X348615Y818768D01*
X348550Y818757D01*
X348484Y818755D01*
X348441Y818737D01*
X348394Y818729D01*
X348337Y818695D01*
X348277Y818670D01*
X348242Y818639D01*
X348201Y818614D01*
X348160Y818563D01*
X348111Y818519D01*
X348089Y818477D01*
X348060Y818440D01*
X348039Y818378D01*
X348008Y818319D01*
X348000Y818265D01*
X347988Y818228D01*
X347988Y818225D01*
X347989Y818188D01*
X347981Y818134D01*
X347981Y815594D01*
X347992Y815529D01*
X347994Y815463D01*
X348012Y815420D01*
X348020Y815373D01*
X348054Y815316D01*
X348079Y815256D01*
X348110Y815221D01*
X348135Y815180D01*
X348186Y815139D01*
X348230Y815090D01*
X348272Y815068D01*
X348309Y815039D01*
X348371Y815018D01*
X348430Y814987D01*
X348484Y814979D01*
X348521Y814967D01*
X348561Y814968D01*
X348615Y814960D01*
X352425Y814960D01*
X352490Y814971D01*
G37*
G36*
X469330Y584339D02*
X469330Y584339D01*
X469396Y584341D01*
X469439Y584359D01*
X469486Y584367D01*
X469543Y584401D01*
X469603Y584426D01*
X469638Y584457D01*
X469679Y584482D01*
X469721Y584533D01*
X469769Y584577D01*
X469791Y584619D01*
X469820Y584656D01*
X469841Y584718D01*
X469872Y584777D01*
X469880Y584831D01*
X469892Y584868D01*
X469891Y584908D01*
X469899Y584962D01*
X469899Y587502D01*
X469888Y587567D01*
X469886Y587633D01*
X469868Y587676D01*
X469860Y587723D01*
X469826Y587780D01*
X469801Y587840D01*
X469770Y587875D01*
X469745Y587916D01*
X469694Y587958D01*
X469650Y588006D01*
X469608Y588028D01*
X469571Y588057D01*
X469509Y588078D01*
X469450Y588109D01*
X469396Y588117D01*
X469359Y588129D01*
X469319Y588128D01*
X469265Y588136D01*
X465455Y588136D01*
X465390Y588125D01*
X465324Y588123D01*
X465281Y588105D01*
X465234Y588097D01*
X465177Y588063D01*
X465117Y588038D01*
X465082Y588007D01*
X465041Y587982D01*
X465000Y587931D01*
X464951Y587887D01*
X464929Y587845D01*
X464900Y587808D01*
X464879Y587746D01*
X464848Y587687D01*
X464840Y587633D01*
X464828Y587596D01*
X464828Y587593D01*
X464829Y587556D01*
X464821Y587502D01*
X464821Y584962D01*
X464832Y584897D01*
X464834Y584831D01*
X464852Y584788D01*
X464860Y584741D01*
X464894Y584684D01*
X464919Y584624D01*
X464950Y584589D01*
X464975Y584548D01*
X465026Y584507D01*
X465070Y584458D01*
X465112Y584436D01*
X465149Y584407D01*
X465211Y584386D01*
X465270Y584355D01*
X465324Y584347D01*
X465361Y584335D01*
X465401Y584336D01*
X465455Y584328D01*
X469265Y584328D01*
X469330Y584339D01*
G37*
G36*
X459170Y584339D02*
X459170Y584339D01*
X459236Y584341D01*
X459279Y584359D01*
X459326Y584367D01*
X459383Y584401D01*
X459443Y584426D01*
X459478Y584457D01*
X459519Y584482D01*
X459561Y584533D01*
X459609Y584577D01*
X459631Y584619D01*
X459660Y584656D01*
X459681Y584718D01*
X459712Y584777D01*
X459720Y584831D01*
X459732Y584868D01*
X459731Y584908D01*
X459739Y584962D01*
X459739Y587502D01*
X459728Y587567D01*
X459726Y587633D01*
X459708Y587676D01*
X459700Y587723D01*
X459666Y587780D01*
X459641Y587840D01*
X459610Y587875D01*
X459585Y587916D01*
X459534Y587958D01*
X459490Y588006D01*
X459448Y588028D01*
X459411Y588057D01*
X459349Y588078D01*
X459290Y588109D01*
X459236Y588117D01*
X459199Y588129D01*
X459159Y588128D01*
X459105Y588136D01*
X455295Y588136D01*
X455230Y588125D01*
X455164Y588123D01*
X455121Y588105D01*
X455074Y588097D01*
X455017Y588063D01*
X454957Y588038D01*
X454922Y588007D01*
X454881Y587982D01*
X454840Y587931D01*
X454791Y587887D01*
X454769Y587845D01*
X454740Y587808D01*
X454719Y587746D01*
X454688Y587687D01*
X454680Y587633D01*
X454668Y587596D01*
X454668Y587593D01*
X454669Y587556D01*
X454661Y587502D01*
X454661Y584962D01*
X454672Y584897D01*
X454674Y584831D01*
X454692Y584788D01*
X454700Y584741D01*
X454734Y584684D01*
X454759Y584624D01*
X454790Y584589D01*
X454815Y584548D01*
X454866Y584507D01*
X454910Y584458D01*
X454952Y584436D01*
X454989Y584407D01*
X455051Y584386D01*
X455110Y584355D01*
X455164Y584347D01*
X455201Y584335D01*
X455241Y584336D01*
X455295Y584328D01*
X459105Y584328D01*
X459170Y584339D01*
G37*
G36*
X57850Y584339D02*
X57850Y584339D01*
X57916Y584341D01*
X57959Y584359D01*
X58006Y584367D01*
X58063Y584401D01*
X58123Y584426D01*
X58158Y584457D01*
X58199Y584482D01*
X58241Y584533D01*
X58289Y584577D01*
X58311Y584619D01*
X58340Y584656D01*
X58361Y584718D01*
X58392Y584777D01*
X58400Y584831D01*
X58412Y584868D01*
X58411Y584908D01*
X58419Y584962D01*
X58419Y587502D01*
X58408Y587567D01*
X58406Y587633D01*
X58388Y587676D01*
X58380Y587723D01*
X58346Y587780D01*
X58321Y587840D01*
X58290Y587875D01*
X58265Y587916D01*
X58214Y587958D01*
X58170Y588006D01*
X58128Y588028D01*
X58091Y588057D01*
X58029Y588078D01*
X57970Y588109D01*
X57916Y588117D01*
X57879Y588129D01*
X57839Y588128D01*
X57785Y588136D01*
X53975Y588136D01*
X53910Y588125D01*
X53844Y588123D01*
X53801Y588105D01*
X53754Y588097D01*
X53697Y588063D01*
X53637Y588038D01*
X53602Y588007D01*
X53561Y587982D01*
X53520Y587931D01*
X53471Y587887D01*
X53449Y587845D01*
X53420Y587808D01*
X53399Y587746D01*
X53368Y587687D01*
X53360Y587633D01*
X53348Y587596D01*
X53348Y587593D01*
X53349Y587556D01*
X53341Y587502D01*
X53341Y584962D01*
X53352Y584897D01*
X53354Y584831D01*
X53372Y584788D01*
X53380Y584741D01*
X53414Y584684D01*
X53439Y584624D01*
X53470Y584589D01*
X53495Y584548D01*
X53546Y584507D01*
X53590Y584458D01*
X53632Y584436D01*
X53669Y584407D01*
X53731Y584386D01*
X53790Y584355D01*
X53844Y584347D01*
X53881Y584335D01*
X53921Y584336D01*
X53975Y584328D01*
X57785Y584328D01*
X57850Y584339D01*
G37*
G36*
X47690Y584339D02*
X47690Y584339D01*
X47756Y584341D01*
X47799Y584359D01*
X47846Y584367D01*
X47903Y584401D01*
X47963Y584426D01*
X47998Y584457D01*
X48039Y584482D01*
X48081Y584533D01*
X48129Y584577D01*
X48151Y584619D01*
X48180Y584656D01*
X48201Y584718D01*
X48232Y584777D01*
X48240Y584831D01*
X48252Y584868D01*
X48251Y584908D01*
X48259Y584962D01*
X48259Y587502D01*
X48248Y587567D01*
X48246Y587633D01*
X48228Y587676D01*
X48220Y587723D01*
X48186Y587780D01*
X48161Y587840D01*
X48130Y587875D01*
X48105Y587916D01*
X48054Y587958D01*
X48010Y588006D01*
X47968Y588028D01*
X47931Y588057D01*
X47869Y588078D01*
X47810Y588109D01*
X47756Y588117D01*
X47719Y588129D01*
X47679Y588128D01*
X47625Y588136D01*
X43815Y588136D01*
X43750Y588125D01*
X43684Y588123D01*
X43641Y588105D01*
X43594Y588097D01*
X43537Y588063D01*
X43477Y588038D01*
X43442Y588007D01*
X43401Y587982D01*
X43360Y587931D01*
X43311Y587887D01*
X43289Y587845D01*
X43260Y587808D01*
X43239Y587746D01*
X43208Y587687D01*
X43200Y587633D01*
X43188Y587596D01*
X43188Y587593D01*
X43189Y587556D01*
X43181Y587502D01*
X43181Y584962D01*
X43192Y584897D01*
X43194Y584831D01*
X43212Y584788D01*
X43220Y584741D01*
X43254Y584684D01*
X43279Y584624D01*
X43310Y584589D01*
X43335Y584548D01*
X43386Y584507D01*
X43430Y584458D01*
X43472Y584436D01*
X43509Y584407D01*
X43571Y584386D01*
X43630Y584355D01*
X43684Y584347D01*
X43721Y584335D01*
X43761Y584336D01*
X43815Y584328D01*
X47625Y584328D01*
X47690Y584339D01*
G37*
G36*
X763970Y477659D02*
X763970Y477659D01*
X764036Y477661D01*
X764079Y477679D01*
X764126Y477687D01*
X764183Y477721D01*
X764243Y477746D01*
X764278Y477777D01*
X764319Y477802D01*
X764361Y477853D01*
X764409Y477897D01*
X764431Y477939D01*
X764460Y477976D01*
X764481Y478038D01*
X764512Y478097D01*
X764520Y478151D01*
X764532Y478188D01*
X764531Y478228D01*
X764539Y478282D01*
X764539Y480822D01*
X764528Y480887D01*
X764526Y480953D01*
X764508Y480996D01*
X764500Y481043D01*
X764466Y481100D01*
X764441Y481160D01*
X764410Y481195D01*
X764385Y481236D01*
X764334Y481278D01*
X764290Y481326D01*
X764248Y481348D01*
X764211Y481377D01*
X764149Y481398D01*
X764090Y481429D01*
X764036Y481437D01*
X763999Y481449D01*
X763959Y481448D01*
X763905Y481456D01*
X760095Y481456D01*
X760030Y481445D01*
X759964Y481443D01*
X759921Y481425D01*
X759874Y481417D01*
X759817Y481383D01*
X759757Y481358D01*
X759722Y481327D01*
X759681Y481302D01*
X759640Y481251D01*
X759591Y481207D01*
X759569Y481165D01*
X759540Y481128D01*
X759519Y481066D01*
X759488Y481007D01*
X759480Y480953D01*
X759468Y480916D01*
X759468Y480913D01*
X759469Y480876D01*
X759461Y480822D01*
X759461Y478282D01*
X759472Y478217D01*
X759474Y478151D01*
X759492Y478108D01*
X759500Y478061D01*
X759534Y478004D01*
X759559Y477944D01*
X759590Y477909D01*
X759615Y477868D01*
X759666Y477827D01*
X759710Y477778D01*
X759752Y477756D01*
X759789Y477727D01*
X759851Y477706D01*
X759910Y477675D01*
X759964Y477667D01*
X760001Y477655D01*
X760041Y477656D01*
X760095Y477648D01*
X763905Y477648D01*
X763970Y477659D01*
G37*
G36*
X352490Y477659D02*
X352490Y477659D01*
X352556Y477661D01*
X352599Y477679D01*
X352646Y477687D01*
X352703Y477721D01*
X352763Y477746D01*
X352798Y477777D01*
X352839Y477802D01*
X352881Y477853D01*
X352929Y477897D01*
X352951Y477939D01*
X352980Y477976D01*
X353001Y478038D01*
X353032Y478097D01*
X353040Y478151D01*
X353052Y478188D01*
X353051Y478228D01*
X353059Y478282D01*
X353059Y480822D01*
X353048Y480887D01*
X353046Y480953D01*
X353028Y480996D01*
X353020Y481043D01*
X352986Y481100D01*
X352961Y481160D01*
X352930Y481195D01*
X352905Y481236D01*
X352854Y481278D01*
X352810Y481326D01*
X352768Y481348D01*
X352731Y481377D01*
X352669Y481398D01*
X352610Y481429D01*
X352556Y481437D01*
X352519Y481449D01*
X352479Y481448D01*
X352425Y481456D01*
X348615Y481456D01*
X348550Y481445D01*
X348484Y481443D01*
X348441Y481425D01*
X348394Y481417D01*
X348337Y481383D01*
X348277Y481358D01*
X348242Y481327D01*
X348201Y481302D01*
X348160Y481251D01*
X348111Y481207D01*
X348089Y481165D01*
X348060Y481128D01*
X348039Y481066D01*
X348008Y481007D01*
X348000Y480953D01*
X347988Y480916D01*
X347988Y480913D01*
X347989Y480876D01*
X347981Y480822D01*
X347981Y478282D01*
X347992Y478217D01*
X347994Y478151D01*
X348012Y478108D01*
X348020Y478061D01*
X348054Y478004D01*
X348079Y477944D01*
X348110Y477909D01*
X348135Y477868D01*
X348186Y477827D01*
X348230Y477778D01*
X348272Y477756D01*
X348309Y477727D01*
X348371Y477706D01*
X348430Y477675D01*
X348484Y477667D01*
X348521Y477655D01*
X348561Y477656D01*
X348615Y477648D01*
X352425Y477648D01*
X352490Y477659D01*
G37*
G36*
X57850Y223913D02*
X57850Y223913D01*
X57916Y223915D01*
X57959Y223933D01*
X58006Y223941D01*
X58063Y223975D01*
X58123Y224000D01*
X58158Y224031D01*
X58199Y224056D01*
X58241Y224107D01*
X58289Y224151D01*
X58311Y224193D01*
X58340Y224230D01*
X58361Y224292D01*
X58392Y224351D01*
X58400Y224405D01*
X58412Y224442D01*
X58411Y224482D01*
X58419Y224536D01*
X58419Y227076D01*
X58408Y227141D01*
X58406Y227207D01*
X58388Y227250D01*
X58380Y227297D01*
X58346Y227354D01*
X58321Y227414D01*
X58290Y227449D01*
X58265Y227490D01*
X58214Y227532D01*
X58170Y227580D01*
X58128Y227602D01*
X58091Y227631D01*
X58029Y227652D01*
X57970Y227683D01*
X57916Y227691D01*
X57879Y227703D01*
X57839Y227702D01*
X57785Y227710D01*
X53975Y227710D01*
X53910Y227699D01*
X53844Y227697D01*
X53801Y227679D01*
X53754Y227671D01*
X53697Y227637D01*
X53637Y227612D01*
X53602Y227581D01*
X53561Y227556D01*
X53520Y227505D01*
X53471Y227461D01*
X53449Y227419D01*
X53420Y227382D01*
X53399Y227320D01*
X53368Y227261D01*
X53360Y227207D01*
X53348Y227170D01*
X53348Y227167D01*
X53349Y227130D01*
X53341Y227076D01*
X53341Y224536D01*
X53352Y224471D01*
X53354Y224405D01*
X53372Y224362D01*
X53380Y224315D01*
X53414Y224258D01*
X53439Y224198D01*
X53470Y224163D01*
X53495Y224122D01*
X53546Y224081D01*
X53590Y224032D01*
X53632Y224010D01*
X53669Y223981D01*
X53731Y223960D01*
X53790Y223929D01*
X53844Y223921D01*
X53881Y223909D01*
X53921Y223910D01*
X53975Y223902D01*
X57785Y223902D01*
X57850Y223913D01*
G37*
G36*
X459170Y223913D02*
X459170Y223913D01*
X459236Y223915D01*
X459279Y223933D01*
X459326Y223941D01*
X459383Y223975D01*
X459443Y224000D01*
X459478Y224031D01*
X459519Y224056D01*
X459561Y224107D01*
X459609Y224151D01*
X459631Y224193D01*
X459660Y224230D01*
X459681Y224292D01*
X459712Y224351D01*
X459720Y224405D01*
X459732Y224442D01*
X459731Y224482D01*
X459739Y224536D01*
X459739Y227076D01*
X459728Y227141D01*
X459726Y227207D01*
X459708Y227250D01*
X459700Y227297D01*
X459666Y227354D01*
X459641Y227414D01*
X459610Y227449D01*
X459585Y227490D01*
X459534Y227532D01*
X459490Y227580D01*
X459448Y227602D01*
X459411Y227631D01*
X459349Y227652D01*
X459290Y227683D01*
X459236Y227691D01*
X459199Y227703D01*
X459159Y227702D01*
X459105Y227710D01*
X455295Y227710D01*
X455230Y227699D01*
X455164Y227697D01*
X455121Y227679D01*
X455074Y227671D01*
X455017Y227637D01*
X454957Y227612D01*
X454922Y227581D01*
X454881Y227556D01*
X454840Y227505D01*
X454791Y227461D01*
X454769Y227419D01*
X454740Y227382D01*
X454719Y227320D01*
X454688Y227261D01*
X454680Y227207D01*
X454668Y227170D01*
X454668Y227167D01*
X454669Y227130D01*
X454661Y227076D01*
X454661Y224536D01*
X454672Y224471D01*
X454674Y224405D01*
X454692Y224362D01*
X454700Y224315D01*
X454734Y224258D01*
X454759Y224198D01*
X454790Y224163D01*
X454815Y224122D01*
X454866Y224081D01*
X454910Y224032D01*
X454952Y224010D01*
X454989Y223981D01*
X455051Y223960D01*
X455110Y223929D01*
X455164Y223921D01*
X455201Y223909D01*
X455241Y223910D01*
X455295Y223902D01*
X459105Y223902D01*
X459170Y223913D01*
G37*
G36*
X469330Y223913D02*
X469330Y223913D01*
X469396Y223915D01*
X469439Y223933D01*
X469486Y223941D01*
X469543Y223975D01*
X469603Y224000D01*
X469638Y224031D01*
X469679Y224056D01*
X469721Y224107D01*
X469769Y224151D01*
X469791Y224193D01*
X469820Y224230D01*
X469841Y224292D01*
X469872Y224351D01*
X469880Y224405D01*
X469892Y224442D01*
X469891Y224482D01*
X469899Y224536D01*
X469899Y227076D01*
X469888Y227141D01*
X469886Y227207D01*
X469868Y227250D01*
X469860Y227297D01*
X469826Y227354D01*
X469801Y227414D01*
X469770Y227449D01*
X469745Y227490D01*
X469694Y227532D01*
X469650Y227580D01*
X469608Y227602D01*
X469571Y227631D01*
X469509Y227652D01*
X469450Y227683D01*
X469396Y227691D01*
X469359Y227703D01*
X469319Y227702D01*
X469265Y227710D01*
X465455Y227710D01*
X465390Y227699D01*
X465324Y227697D01*
X465281Y227679D01*
X465234Y227671D01*
X465177Y227637D01*
X465117Y227612D01*
X465082Y227581D01*
X465041Y227556D01*
X465000Y227505D01*
X464951Y227461D01*
X464929Y227419D01*
X464900Y227382D01*
X464879Y227320D01*
X464848Y227261D01*
X464840Y227207D01*
X464828Y227170D01*
X464828Y227167D01*
X464829Y227130D01*
X464821Y227076D01*
X464821Y224536D01*
X464832Y224471D01*
X464834Y224405D01*
X464852Y224362D01*
X464860Y224315D01*
X464894Y224258D01*
X464919Y224198D01*
X464950Y224163D01*
X464975Y224122D01*
X465026Y224081D01*
X465070Y224032D01*
X465112Y224010D01*
X465149Y223981D01*
X465211Y223960D01*
X465270Y223929D01*
X465324Y223921D01*
X465361Y223909D01*
X465401Y223910D01*
X465455Y223902D01*
X469265Y223902D01*
X469330Y223913D01*
G37*
G36*
X47690Y223913D02*
X47690Y223913D01*
X47756Y223915D01*
X47799Y223933D01*
X47846Y223941D01*
X47903Y223975D01*
X47963Y224000D01*
X47998Y224031D01*
X48039Y224056D01*
X48081Y224107D01*
X48129Y224151D01*
X48151Y224193D01*
X48180Y224230D01*
X48201Y224292D01*
X48232Y224351D01*
X48240Y224405D01*
X48252Y224442D01*
X48251Y224482D01*
X48259Y224536D01*
X48259Y227076D01*
X48248Y227141D01*
X48246Y227207D01*
X48228Y227250D01*
X48220Y227297D01*
X48186Y227354D01*
X48161Y227414D01*
X48130Y227449D01*
X48105Y227490D01*
X48054Y227532D01*
X48010Y227580D01*
X47968Y227602D01*
X47931Y227631D01*
X47869Y227652D01*
X47810Y227683D01*
X47756Y227691D01*
X47719Y227703D01*
X47679Y227702D01*
X47625Y227710D01*
X43815Y227710D01*
X43750Y227699D01*
X43684Y227697D01*
X43641Y227679D01*
X43594Y227671D01*
X43537Y227637D01*
X43477Y227612D01*
X43442Y227581D01*
X43401Y227556D01*
X43360Y227505D01*
X43311Y227461D01*
X43289Y227419D01*
X43260Y227382D01*
X43239Y227320D01*
X43208Y227261D01*
X43200Y227207D01*
X43188Y227170D01*
X43188Y227167D01*
X43189Y227130D01*
X43181Y227076D01*
X43181Y224536D01*
X43192Y224471D01*
X43194Y224405D01*
X43212Y224362D01*
X43220Y224315D01*
X43254Y224258D01*
X43279Y224198D01*
X43310Y224163D01*
X43335Y224122D01*
X43386Y224081D01*
X43430Y224032D01*
X43472Y224010D01*
X43509Y223981D01*
X43571Y223960D01*
X43630Y223929D01*
X43684Y223921D01*
X43721Y223909D01*
X43761Y223910D01*
X43815Y223902D01*
X47625Y223902D01*
X47690Y223913D01*
G37*
G36*
X763970Y117233D02*
X763970Y117233D01*
X764036Y117235D01*
X764079Y117253D01*
X764126Y117261D01*
X764183Y117295D01*
X764243Y117320D01*
X764278Y117351D01*
X764319Y117376D01*
X764361Y117427D01*
X764409Y117471D01*
X764431Y117513D01*
X764460Y117550D01*
X764481Y117612D01*
X764512Y117671D01*
X764520Y117725D01*
X764532Y117762D01*
X764531Y117802D01*
X764539Y117856D01*
X764539Y120396D01*
X764528Y120461D01*
X764526Y120527D01*
X764508Y120570D01*
X764500Y120617D01*
X764466Y120674D01*
X764441Y120734D01*
X764410Y120769D01*
X764385Y120810D01*
X764334Y120852D01*
X764290Y120900D01*
X764248Y120922D01*
X764211Y120951D01*
X764149Y120972D01*
X764090Y121003D01*
X764036Y121011D01*
X763999Y121023D01*
X763959Y121022D01*
X763905Y121030D01*
X760095Y121030D01*
X760030Y121019D01*
X759964Y121017D01*
X759921Y120999D01*
X759874Y120991D01*
X759817Y120957D01*
X759757Y120932D01*
X759722Y120901D01*
X759681Y120876D01*
X759640Y120825D01*
X759591Y120781D01*
X759569Y120739D01*
X759540Y120702D01*
X759519Y120640D01*
X759488Y120581D01*
X759480Y120527D01*
X759468Y120490D01*
X759468Y120487D01*
X759469Y120450D01*
X759461Y120396D01*
X759461Y117856D01*
X759472Y117791D01*
X759474Y117725D01*
X759492Y117682D01*
X759500Y117635D01*
X759534Y117578D01*
X759559Y117518D01*
X759590Y117483D01*
X759615Y117442D01*
X759666Y117401D01*
X759710Y117352D01*
X759752Y117330D01*
X759789Y117301D01*
X759851Y117280D01*
X759910Y117249D01*
X759964Y117241D01*
X760001Y117229D01*
X760041Y117230D01*
X760095Y117222D01*
X763905Y117222D01*
X763970Y117233D01*
G37*
G36*
X352490Y117233D02*
X352490Y117233D01*
X352556Y117235D01*
X352599Y117253D01*
X352646Y117261D01*
X352703Y117295D01*
X352763Y117320D01*
X352798Y117351D01*
X352839Y117376D01*
X352881Y117427D01*
X352929Y117471D01*
X352951Y117513D01*
X352980Y117550D01*
X353001Y117612D01*
X353032Y117671D01*
X353040Y117725D01*
X353052Y117762D01*
X353051Y117802D01*
X353059Y117856D01*
X353059Y120396D01*
X353048Y120461D01*
X353046Y120527D01*
X353028Y120570D01*
X353020Y120617D01*
X352986Y120674D01*
X352961Y120734D01*
X352930Y120769D01*
X352905Y120810D01*
X352854Y120852D01*
X352810Y120900D01*
X352768Y120922D01*
X352731Y120951D01*
X352669Y120972D01*
X352610Y121003D01*
X352556Y121011D01*
X352519Y121023D01*
X352479Y121022D01*
X352425Y121030D01*
X348615Y121030D01*
X348550Y121019D01*
X348484Y121017D01*
X348441Y120999D01*
X348394Y120991D01*
X348337Y120957D01*
X348277Y120932D01*
X348242Y120901D01*
X348201Y120876D01*
X348160Y120825D01*
X348111Y120781D01*
X348089Y120739D01*
X348060Y120702D01*
X348039Y120640D01*
X348008Y120581D01*
X348000Y120527D01*
X347988Y120490D01*
X347988Y120487D01*
X347989Y120450D01*
X347981Y120396D01*
X347981Y117856D01*
X347992Y117791D01*
X347994Y117725D01*
X348012Y117682D01*
X348020Y117635D01*
X348054Y117578D01*
X348079Y117518D01*
X348110Y117483D01*
X348135Y117442D01*
X348186Y117401D01*
X348230Y117352D01*
X348272Y117330D01*
X348309Y117301D01*
X348371Y117280D01*
X348430Y117249D01*
X348484Y117241D01*
X348521Y117229D01*
X348561Y117230D01*
X348615Y117222D01*
X352425Y117222D01*
X352490Y117233D01*
G37*
G36*
X763970Y94119D02*
X763970Y94119D01*
X764036Y94121D01*
X764079Y94139D01*
X764126Y94147D01*
X764183Y94181D01*
X764243Y94206D01*
X764278Y94237D01*
X764319Y94262D01*
X764361Y94313D01*
X764409Y94357D01*
X764431Y94399D01*
X764460Y94436D01*
X764481Y94498D01*
X764512Y94557D01*
X764520Y94611D01*
X764532Y94648D01*
X764531Y94688D01*
X764539Y94742D01*
X764539Y97282D01*
X764528Y97347D01*
X764526Y97413D01*
X764508Y97456D01*
X764500Y97503D01*
X764466Y97560D01*
X764441Y97620D01*
X764410Y97655D01*
X764385Y97696D01*
X764334Y97738D01*
X764290Y97786D01*
X764248Y97808D01*
X764211Y97837D01*
X764149Y97858D01*
X764090Y97889D01*
X764036Y97897D01*
X763999Y97909D01*
X763959Y97908D01*
X763905Y97916D01*
X760095Y97916D01*
X760030Y97905D01*
X759964Y97903D01*
X759921Y97885D01*
X759874Y97877D01*
X759817Y97843D01*
X759757Y97818D01*
X759722Y97787D01*
X759681Y97762D01*
X759640Y97711D01*
X759591Y97667D01*
X759569Y97625D01*
X759540Y97588D01*
X759519Y97526D01*
X759488Y97467D01*
X759480Y97413D01*
X759468Y97376D01*
X759468Y97373D01*
X759469Y97336D01*
X759461Y97282D01*
X759461Y94742D01*
X759472Y94677D01*
X759474Y94611D01*
X759492Y94568D01*
X759500Y94521D01*
X759534Y94464D01*
X759559Y94404D01*
X759590Y94369D01*
X759615Y94328D01*
X759666Y94287D01*
X759710Y94238D01*
X759752Y94216D01*
X759789Y94187D01*
X759851Y94166D01*
X759910Y94135D01*
X759964Y94127D01*
X760001Y94115D01*
X760041Y94116D01*
X760095Y94108D01*
X763905Y94108D01*
X763970Y94119D01*
G37*
G36*
X352490Y94119D02*
X352490Y94119D01*
X352556Y94121D01*
X352599Y94139D01*
X352646Y94147D01*
X352703Y94181D01*
X352763Y94206D01*
X352798Y94237D01*
X352839Y94262D01*
X352881Y94313D01*
X352929Y94357D01*
X352951Y94399D01*
X352980Y94436D01*
X353001Y94498D01*
X353032Y94557D01*
X353040Y94611D01*
X353052Y94648D01*
X353051Y94688D01*
X353059Y94742D01*
X353059Y97282D01*
X353048Y97347D01*
X353046Y97413D01*
X353028Y97456D01*
X353020Y97503D01*
X352986Y97560D01*
X352961Y97620D01*
X352930Y97655D01*
X352905Y97696D01*
X352854Y97738D01*
X352810Y97786D01*
X352768Y97808D01*
X352731Y97837D01*
X352669Y97858D01*
X352610Y97889D01*
X352556Y97897D01*
X352519Y97909D01*
X352479Y97908D01*
X352425Y97916D01*
X348615Y97916D01*
X348550Y97905D01*
X348484Y97903D01*
X348441Y97885D01*
X348394Y97877D01*
X348337Y97843D01*
X348277Y97818D01*
X348242Y97787D01*
X348201Y97762D01*
X348160Y97711D01*
X348111Y97667D01*
X348089Y97625D01*
X348060Y97588D01*
X348039Y97526D01*
X348008Y97467D01*
X348000Y97413D01*
X347988Y97376D01*
X347988Y97373D01*
X347989Y97336D01*
X347981Y97282D01*
X347981Y94742D01*
X347992Y94677D01*
X347994Y94611D01*
X348012Y94568D01*
X348020Y94521D01*
X348054Y94464D01*
X348079Y94404D01*
X348110Y94369D01*
X348135Y94328D01*
X348186Y94287D01*
X348230Y94238D01*
X348272Y94216D01*
X348309Y94187D01*
X348371Y94166D01*
X348430Y94135D01*
X348484Y94127D01*
X348521Y94115D01*
X348561Y94116D01*
X348615Y94108D01*
X352425Y94108D01*
X352490Y94119D01*
G37*
D10*
X25400Y304546D03*
X381000Y304546D03*
D11*
X61214Y225806D03*
X50800Y225806D03*
X40386Y225806D03*
X355727Y96012D03*
X345313Y96012D03*
D12*
X400050Y6350D03*
X6350Y323596D03*
D10*
X25400Y25400D03*
X381000Y25400D03*
D13*
X296164Y98806D03*
X288036Y98806D03*
D14*
X190500Y317246D03*
X215900Y317246D03*
X241300Y317246D03*
X266700Y317246D03*
X292100Y317246D03*
X317500Y317246D03*
X342900Y317246D03*
D11*
X355727Y119126D03*
X345313Y119126D03*
D14*
X241300Y12700D03*
X266700Y12700D03*
X292100Y12700D03*
X317500Y12700D03*
D15*
X134056Y282928D03*
X76256Y282928D03*
D14*
X139700Y12700D03*
X165100Y12700D03*
X190500Y12700D03*
X215900Y12700D03*
D10*
X436880Y304546D03*
X792480Y304546D03*
D11*
X472694Y225806D03*
X462280Y225806D03*
X451866Y225806D03*
X767207Y96012D03*
X756793Y96012D03*
D12*
X811530Y6350D03*
X417830Y323596D03*
D10*
X436880Y25400D03*
X792480Y25400D03*
D13*
X707644Y98806D03*
X699516Y98806D03*
D14*
X601980Y317246D03*
X627380Y317246D03*
X652780Y317246D03*
X678180Y317246D03*
X703580Y317246D03*
X728980Y317246D03*
X754380Y317246D03*
D11*
X767207Y119126D03*
X756793Y119126D03*
D14*
X652780Y12700D03*
X678180Y12700D03*
X703580Y12700D03*
X728980Y12700D03*
D15*
X545536Y282928D03*
X487736Y282928D03*
D14*
X551180Y12700D03*
X576580Y12700D03*
X601980Y12700D03*
X627380Y12700D03*
D10*
X25400Y664972D03*
X381000Y664972D03*
D11*
X61214Y586232D03*
X50800Y586232D03*
X40386Y586232D03*
X355727Y456438D03*
X345313Y456438D03*
D12*
X400050Y366776D03*
X6350Y684022D03*
D10*
X25400Y385826D03*
X381000Y385826D03*
D13*
X296164Y459232D03*
X288036Y459232D03*
D14*
X190500Y677672D03*
X215900Y677672D03*
X241300Y677672D03*
X266700Y677672D03*
X292100Y677672D03*
X317500Y677672D03*
X342900Y677672D03*
D11*
X355727Y479552D03*
X345313Y479552D03*
D14*
X241300Y373126D03*
X266700Y373126D03*
X292100Y373126D03*
X317500Y373126D03*
D15*
X134056Y643354D03*
X76256Y643354D03*
D14*
X139700Y373126D03*
X165100Y373126D03*
X190500Y373126D03*
X215900Y373126D03*
D10*
X436880Y664972D03*
X792480Y664972D03*
D11*
X472694Y586232D03*
X462280Y586232D03*
X451866Y586232D03*
X767207Y456438D03*
X756793Y456438D03*
D12*
X811530Y366776D03*
X417830Y684022D03*
D10*
X436880Y385826D03*
X792480Y385826D03*
D13*
X707644Y459232D03*
X699516Y459232D03*
D14*
X601980Y677672D03*
X627380Y677672D03*
X652780Y677672D03*
X678180Y677672D03*
X703580Y677672D03*
X728980Y677672D03*
X754380Y677672D03*
D11*
X767207Y479552D03*
X756793Y479552D03*
D14*
X652780Y373126D03*
X678180Y373126D03*
X703580Y373126D03*
X728980Y373126D03*
D15*
X545536Y643354D03*
X487736Y643354D03*
D14*
X551180Y373126D03*
X576580Y373126D03*
X601980Y373126D03*
X627380Y373126D03*
D10*
X25400Y1025398D03*
X381000Y1025398D03*
D11*
X61214Y946658D03*
X50800Y946658D03*
X40386Y946658D03*
X355727Y816864D03*
X345313Y816864D03*
D12*
X400050Y727202D03*
X6350Y1044448D03*
D10*
X25400Y746252D03*
X381000Y746252D03*
D13*
X296164Y819658D03*
X288036Y819658D03*
D14*
X190500Y1038098D03*
X215900Y1038098D03*
X241300Y1038098D03*
X266700Y1038098D03*
X292100Y1038098D03*
X317500Y1038098D03*
X342900Y1038098D03*
D11*
X355727Y839978D03*
X345313Y839978D03*
D14*
X241300Y733552D03*
X266700Y733552D03*
X292100Y733552D03*
X317500Y733552D03*
D15*
X134056Y1003780D03*
X76256Y1003780D03*
D14*
X139700Y733552D03*
X165100Y733552D03*
X190500Y733552D03*
X215900Y733552D03*
D10*
X436880Y1025398D03*
X792480Y1025398D03*
D11*
X472694Y946658D03*
X462280Y946658D03*
X451866Y946658D03*
X767207Y816864D03*
X756793Y816864D03*
D12*
X811530Y727202D03*
X417830Y1044448D03*
D10*
X436880Y746252D03*
X792480Y746252D03*
D13*
X707644Y819658D03*
X699516Y819658D03*
D14*
X601980Y1038098D03*
X627380Y1038098D03*
X652780Y1038098D03*
X678180Y1038098D03*
X703580Y1038098D03*
X728980Y1038098D03*
X754380Y1038098D03*
D11*
X767207Y839978D03*
X756793Y839978D03*
D14*
X652780Y733552D03*
X678180Y733552D03*
X703580Y733552D03*
X728980Y733552D03*
D15*
X545536Y1003780D03*
X487736Y1003780D03*
D14*
X551180Y733552D03*
X576580Y733552D03*
X601980Y733552D03*
X627380Y733552D03*
D16*
X68580Y1097153D03*
X748665Y1097153D03*
M02*
