M48
;GenerationSoftware,Autodesk,EAGLE,9.5.2*%
;CreationDate,2020-03-25T18:27:46Z*%
FMAT,2
ICI,OFF
METRIC,TZ,000.000
T6C0.305
T5C0.400
T4C0.508
T3C0.650
T2C1.016
T1C3.302
%
G90
M71
T1
X2540Y66497
X79248Y74625
X43688Y66497
X79248Y66497
X43688Y38583
X79248Y38583
X43688Y74625
X2540Y30455
X38100Y30455
X2540Y2540
X38100Y2540
X43688Y102540
X2540Y102540
X43688Y30455
X79248Y30455
X43688Y2540
X79248Y2540
X38100Y102540
X2540Y74625
X79248Y102540
X38100Y66497
X2540Y38583
X38100Y38583
X38100Y74625
T2
X26670Y103810
X29210Y103810
X31750Y103810
X34290Y103810
X24130Y73355
X62738Y73355
X26670Y73355
X29210Y73355
X31750Y73355
X13970Y73355
X16510Y73355
X19050Y73355
X21590Y73355
X60198Y103810
X62738Y103810
X65278Y103810
X67818Y103810
X70358Y103810
X72898Y103810
X19050Y31725
X21590Y31725
X24130Y31725
X26670Y31725
X29210Y31725
X31750Y31725
X34290Y31725
X24130Y1270
X26670Y1270
X29210Y1270
X31750Y1270
X75438Y103810
X65278Y73355
X67818Y73355
X70358Y73355
X13970Y1270
X16510Y1270
X19050Y1270
X21590Y1270
X60198Y31725
X62738Y31725
X65278Y31725
X67818Y31725
X70358Y31725
X72898Y31725
X75438Y31725
X65278Y1270
X67818Y1270
X70358Y1270
X72898Y1270
X72898Y73355
X55118Y73355
X57658Y73355
X60198Y73355
X55118Y1270
X57658Y1270
X60198Y1270
X62738Y1270
X19050Y67767
X21590Y67767
X24130Y67767
X26670Y67767
X29210Y67767
X31750Y67767
X34290Y67767
X24130Y37313
X26670Y37313
X29210Y37313
X31750Y37313
X13970Y37313
X16510Y37313
X19050Y37313
X21590Y37313
X60198Y67767
X62738Y67767
X65278Y67767
X67818Y67767
X70358Y67767
X72898Y67767
X75438Y67767
X65278Y37313
X67818Y37313
X70358Y37313
X72898Y37313
X55118Y37313
X57658Y37313
X60198Y37313
X62738Y37313
X19050Y103810
X21590Y103810
X24130Y103810
T3
X13406Y28293
X7626Y64335
X7626Y28293
X54554Y28293
X48774Y28293
X13406Y64335
X54554Y64335
X48774Y64335
X13406Y100378
X7626Y100378
X54554Y100378
X48774Y100378
T4
X71069Y42113
X71069Y6071
X29921Y78156
X71069Y78156
X29921Y6071
X29921Y42113
T5
X14834Y31943
X6198Y31943
X6198Y27763
X14834Y27763
X55982Y31943
X47346Y31943
X47346Y27763
X55982Y27763
X47346Y67985
X47346Y63805
X14834Y104028
X6198Y104028
X6198Y99848
X14834Y99848
X55982Y63805
X14834Y63805
X14834Y67985
X55982Y104028
X47346Y104028
X47346Y99848
X55982Y99848
X6198Y67985
X6198Y63805
X55982Y67985
T6
X6350Y6350
X1270Y9119
X7620Y12675
X10160Y19914
X15240Y6325
X15240Y7595
X7620Y8890
X31369Y12802
X31369Y10389
X25400Y29185
X5818Y19380
X6350Y18771
X26670Y28677
X36830Y16731
X36830Y20041
X27686Y11405
X33020Y9627
X32240Y4870
X30734Y4597
X27143Y4708
X4191Y24765
X2540Y24765
X38100Y9373
X7874Y14199
X8128Y15672
X8560Y30455
X12700Y30480
X8433Y20218
X29845Y13691
X12344Y20371
X29083Y13699
X28829Y11024
X36271Y11938
X6477Y25248
X9855Y28626
X27305Y18034
X28702Y8763
X29210Y7620
X47498Y16731
X70866Y15723
X77978Y15723
X71755Y11887
X58293Y27153
X53848Y6999
X47498Y17755
X74371Y12598
X57023Y8865
X58928Y8865
X53975Y23216
X77978Y14961
X61468Y8865
X64008Y8865
X66040Y8865
X57023Y10135
X58928Y10135
X61468Y10135
X64008Y10135
X66040Y10135
X57023Y11405
X58928Y11405
X61468Y11405
X64008Y11405
X66040Y11405
X57023Y12675
X58928Y12675
X61468Y12675
X64008Y12675
X66040Y12675
X57023Y13945
X58928Y13945
X61468Y13945
X64008Y13945
X66040Y13945
X57023Y15215
X58928Y15215
X61468Y15215
X64008Y15215
X66040Y15215
X57023Y16485
X58928Y16485
X61468Y16485
X64008Y16485
X66040Y16485
X57023Y17755
X58928Y17755
X61468Y17755
X64008Y17755
X66040Y17755
X57023Y19025
X58928Y19025
X61468Y19025
X64008Y19025
X66040Y19025
X57023Y20295
X58928Y20295
X61468Y20295
X64008Y20295
X66040Y20295
X57023Y21565
X58928Y21565
X61468Y21565
X64008Y21565
X66040Y21565
X57023Y22835
X58928Y22835
X61468Y22835
X64008Y22835
X66040Y22835
X72263Y19533
X74803Y20930
X74803Y23470
X77724Y21565
X75438Y26619
X64008Y27915
X64008Y30455
X72898Y22200
X67691Y17120
X76327Y3810
X47498Y3810
X47498Y1270
X42443Y25375
X41910Y27661
X42418Y15215
X42418Y17882
X42418Y20295
X42418Y22835
X42418Y6325
X42418Y11405
X44958Y6325
X44958Y9246
X44958Y11024
X58928Y6325
X61468Y6325
X64008Y6325
X66548Y6325
X44958Y25375
X45466Y27661
X55118Y17755
X53721Y19025
X74168Y3810
X44958Y13945
X73914Y19533
X70358Y24613
X72898Y24613
X68453Y24613
X50038Y1270
X52578Y3810
X50038Y3810
X74168Y6325
X52578Y1270
X51283Y25730
X70231Y12675
X80518Y26645
X78105Y26772
X80518Y24105
X64008Y24968
X58953Y24968
X61493Y24968
X66065Y24968
X67920Y26645
X70333Y26695
X76098Y21158
X76098Y23190
X75133Y24613
X76098Y19710
X72923Y26645
X50038Y24740
X80518Y5461
X77978Y5461
X80518Y21565
X80518Y17755
X80518Y15215
X69215Y23470
X61468Y30455
X61468Y27915
X58039Y31471
X70358Y3810
X55245Y3810
X48768Y25502
X70993Y23470
X71120Y20803
X74168Y8865
X76708Y6350
X58928Y7595
X61468Y7595
X64008Y7595
X66548Y7595
X72009Y17374
X52578Y5969
X50038Y5969
X47498Y6350
X42418Y9119
X48768Y12675
X51308Y19914
X56388Y6325
X56388Y7595
X48768Y8890
X72517Y12802
X72517Y10389
X66548Y29185
X46966Y19380
X47498Y18771
X67818Y28677
X77978Y16731
X77978Y20041
X68834Y11405
X74168Y9627
X73388Y4870
X71882Y4597
X68291Y4708
X45339Y24765
X43688Y24765
X79248Y9373
X49022Y14199
X49276Y15672
X49708Y30455
X53848Y30480
X49581Y20218
X70993Y13691
X53492Y20371
X70231Y13699
X69977Y11024
X77419Y11938
X47625Y25248
X51003Y28626
X68453Y18034
X69850Y8763
X70358Y7620
X6350Y52773
X29718Y51765
X36830Y51765
X30607Y47930
X17145Y63195
X12700Y43041
X6350Y53797
X33223Y48641
X15875Y44907
X17780Y44907
X12827Y59258
X36830Y51003
X20320Y44907
X22860Y44907
X24892Y44907
X15875Y46177
X17780Y46177
X20320Y46177
X22860Y46177
X24892Y46177
X15875Y47447
X17780Y47447
X20320Y47447
X22860Y47447
X24892Y47447
X15875Y48717
X17780Y48717
X20320Y48717
X22860Y48717
X24892Y48717
X15875Y49987
X17780Y49987
X20320Y49987
X22860Y49987
X24892Y49987
X15875Y51257
X17780Y51257
X20320Y51257
X22860Y51257
X24892Y51257
X15875Y52527
X17780Y52527
X20320Y52527
X22860Y52527
X24892Y52527
X15875Y53797
X17780Y53797
X20320Y53797
X22860Y53797
X24892Y53797
X15875Y55067
X17780Y55067
X20320Y55067
X22860Y55067
X24892Y55067
X15875Y56337
X17780Y56337
X20320Y56337
X22860Y56337
X24892Y56337
X15875Y57607
X17780Y57607
X20320Y57607
X22860Y57607
X24892Y57607
X15875Y58877
X17780Y58877
X20320Y58877
X22860Y58877
X24892Y58877
X31115Y55575
X33655Y56972
X33655Y59512
X36576Y57607
X34290Y62662
X22860Y63957
X22860Y66497
X31750Y58242
X26543Y53162
X35179Y39853
X6350Y39853
X6350Y37313
X1295Y61417
X762Y63703
X1270Y51257
X1270Y53924
X1270Y56337
X1270Y58877
X1270Y42367
X1270Y47447
X3810Y42367
X3810Y45288
X3810Y47066
X17780Y42367
X20320Y42367
X22860Y42367
X25400Y42367
X3810Y61417
X4318Y63703
X13970Y53797
X12573Y55067
X33020Y39853
X3810Y49987
X32766Y55575
X29210Y60655
X31750Y60655
X27305Y60655
X8890Y37313
X11430Y39853
X8890Y39853
X33020Y42367
X11430Y37313
X10135Y61773
X29083Y48717
X39370Y62687
X36957Y62814
X39370Y60147
X22860Y61011
X17805Y61011
X20345Y61011
X24917Y61011
X26772Y62687
X29185Y62738
X34950Y57201
X34950Y59233
X33985Y60655
X34950Y55753
X31775Y62687
X8890Y60782
X39370Y41504
X36830Y41504
X39370Y57607
X39370Y53797
X39370Y51257
X28067Y59512
X20320Y66497
X20320Y63957
X16891Y67513
X29210Y39853
X14097Y39853
X7620Y61544
X29845Y59512
X29972Y56845
X33020Y44907
X35560Y42393
X17780Y43637
X20320Y43637
X22860Y43637
X25400Y43637
X30861Y53416
X11430Y42012
X8890Y42012
X6350Y42393
X1270Y45161
X7620Y48717
X10160Y55956
X15240Y42367
X15240Y43637
X7620Y44933
X31369Y48844
X31369Y46431
X25400Y65227
X5818Y55423
X6350Y54813
X26670Y64719
X36830Y52773
X36830Y56083
X27686Y47447
X33020Y45669
X32240Y40912
X30734Y40640
X27143Y40751
X4191Y60808
X2540Y60808
X38100Y45415
X7874Y50241
X8128Y51714
X8560Y66497
X12700Y66523
X8433Y56261
X29845Y49733
X12344Y56413
X29083Y49742
X28829Y47066
X36271Y47981
X6477Y61290
X9855Y64668
X27305Y54077
X28702Y44806
X29210Y43663
X47498Y52773
X70866Y51765
X77978Y51765
X71755Y47930
X58293Y63195
X53848Y43041
X47498Y53797
X74371Y48641
X57023Y44907
X58928Y44907
X53975Y59258
X77978Y51003
X61468Y44907
X64008Y44907
X66040Y44907
X57023Y46177
X58928Y46177
X61468Y46177
X64008Y46177
X66040Y46177
X57023Y47447
X58928Y47447
X61468Y47447
X64008Y47447
X66040Y47447
X57023Y48717
X58928Y48717
X61468Y48717
X64008Y48717
X66040Y48717
X57023Y49987
X58928Y49987
X61468Y49987
X64008Y49987
X66040Y49987
X57023Y51257
X58928Y51257
X61468Y51257
X64008Y51257
X66040Y51257
X57023Y52527
X58928Y52527
X61468Y52527
X64008Y52527
X66040Y52527
X57023Y53797
X58928Y53797
X61468Y53797
X64008Y53797
X66040Y53797
X57023Y55067
X58928Y55067
X61468Y55067
X64008Y55067
X66040Y55067
X57023Y56337
X58928Y56337
X61468Y56337
X64008Y56337
X66040Y56337
X57023Y57607
X58928Y57607
X61468Y57607
X64008Y57607
X66040Y57607
X57023Y58877
X58928Y58877
X61468Y58877
X64008Y58877
X66040Y58877
X72263Y55575
X74803Y56972
X74803Y59512
X77724Y57607
X75438Y62662
X64008Y63957
X64008Y66497
X72898Y58242
X67691Y53162
X76327Y39853
X47498Y39853
X47498Y37313
X42443Y61417
X41910Y63703
X42418Y51257
X42418Y53924
X42418Y56337
X42418Y58877
X42418Y42367
X42418Y47447
X44958Y42367
X44958Y45288
X44958Y47066
X58928Y42367
X61468Y42367
X64008Y42367
X66548Y42367
X44958Y61417
X45466Y63703
X55118Y53797
X53721Y55067
X74168Y39853
X44958Y49987
X73914Y55575
X70358Y60655
X72898Y60655
X68453Y60655
X50038Y37313
X52578Y39853
X50038Y39853
X74168Y42367
X52578Y37313
X51283Y61773
X70231Y48717
X80518Y62687
X78105Y62814
X80518Y60147
X64008Y61011
X58953Y61011
X61493Y61011
X66065Y61011
X67920Y62687
X70333Y62738
X76098Y57201
X76098Y59233
X75133Y60655
X76098Y55753
X72923Y62687
X50038Y60782
X80518Y41504
X77978Y41504
X80518Y57607
X80518Y53797
X80518Y51257
X69215Y59512
X61468Y66497
X61468Y63957
X58039Y67513
X70358Y39853
X55245Y39853
X48768Y61544
X70993Y59512
X71120Y56845
X74168Y44907
X76708Y42393
X58928Y43637
X61468Y43637
X64008Y43637
X66548Y43637
X72009Y53416
X52578Y42012
X50038Y42012
X47498Y42393
X42418Y45161
X48768Y48717
X51308Y55956
X56388Y42367
X56388Y43637
X48768Y44933
X72517Y48844
X72517Y46431
X66548Y65227
X46966Y55423
X47498Y54813
X67818Y64719
X77978Y52773
X77978Y56083
X68834Y47447
X74168Y45669
X73388Y40912
X71882Y40640
X68291Y40751
X45339Y60808
X43688Y60808
X79248Y45415
X49022Y50241
X49276Y51714
X49708Y66497
X53848Y66523
X49581Y56261
X70993Y49733
X53492Y56413
X70231Y49742
X69977Y47066
X77419Y47981
X47625Y61290
X51003Y64668
X68453Y54077
X69850Y44806
X70358Y43663
X6350Y88816
X29718Y87808
X36830Y87808
X30607Y83972
X17145Y99238
X6350Y16731
X12700Y79084
X6350Y89840
X33223Y84684
X15875Y80950
X17780Y80950
X12827Y95301
X36830Y87046
X20320Y80950
X22860Y80950
X24892Y80950
X15875Y82220
X17780Y82220
X20320Y82220
X22860Y82220
X24892Y82220
X15875Y83490
X17780Y83490
X20320Y83490
X22860Y83490
X24892Y83490
X15875Y84760
X17780Y84760
X20320Y84760
X22860Y84760
X24892Y84760
X15875Y86030
X17780Y86030
X20320Y86030
X22860Y86030
X24892Y86030
X15875Y87300
X17780Y87300
X20320Y87300
X22860Y87300
X24892Y87300
X15875Y88570
X17780Y88570
X20320Y88570
X22860Y88570
X24892Y88570
X15875Y89840
X17780Y89840
X20320Y89840
X22860Y89840
X24892Y89840
X15875Y91110
X17780Y91110
X20320Y91110
X22860Y91110
X24892Y91110
X15875Y92380
X17780Y92380
X20320Y92380
X22860Y92380
X24892Y92380
X15875Y93650
X17780Y93650
X20320Y93650
X22860Y93650
X24892Y93650
X15875Y94920
X17780Y94920
X20320Y94920
X22860Y94920
X24892Y94920
X31115Y91618
X33655Y93015
X33655Y95555
X36576Y93650
X34290Y98704
X22860Y100000
X22860Y102540
X31750Y94285
X26543Y89205
X35179Y75895
X6350Y75895
X6350Y73355
X1295Y97460
X762Y99746
X1270Y87300
X1270Y89967
X1270Y92380
X1270Y94920
X1270Y78410
X1270Y83490
X3810Y78410
X3810Y81331
X3810Y83109
X17780Y78410
X20320Y78410
X22860Y78410
X25400Y78410
X3810Y97460
X4318Y99746
X13970Y89840
X12573Y91110
X33020Y75895
X3810Y86030
X32766Y91618
X29210Y96698
X31750Y96698
X27305Y96698
X8890Y73355
X11430Y75895
X8890Y75895
X33020Y78410
X11430Y73355
X10135Y97815
X29083Y84760
X39370Y98730
X36957Y98857
X39370Y96190
X22860Y97053
X17805Y97053
X20345Y97053
X24917Y97053
X26772Y98730
X29185Y98781
X34950Y93243
X34950Y95275
X33985Y96698
X34950Y91796
X31775Y98730
X8890Y96825
X39370Y77546
X36830Y77546
X39370Y93650
X39370Y89840
X39370Y87300
X28067Y95555
X20320Y102540
X20320Y100000
X16891Y103556
X29210Y75895
X14097Y75895
X7620Y97587
X29845Y95555
X29972Y92888
X33020Y80950
X35560Y78435
X17780Y79680
X20320Y79680
X22860Y79680
X25400Y79680
X30861Y89459
X11430Y78054
X8890Y78054
X6350Y78435
X1270Y81204
X7620Y84760
X10160Y91999
X15240Y78410
X15240Y79680
X7620Y80975
X31369Y84887
X31369Y82474
X25400Y101270
X5818Y91465
X6350Y90856
X26670Y100762
X36830Y88816
X36830Y92126
X27686Y83490
X33020Y81712
X32240Y76955
X30734Y76683
X27143Y76793
X4191Y96850
X2540Y96850
X38100Y81458
X7874Y86284
X8128Y87757
X8560Y102540
X12700Y102565
X8433Y92304
X29845Y85776
X12344Y92456
X29083Y85784
X28829Y83109
X36271Y84023
X6477Y97333
X9855Y100711
X27305Y90119
X28702Y80848
X29210Y79705
X47498Y88816
X70866Y87808
X77978Y87808
X71755Y83972
X58293Y99238
X29718Y15723
X53848Y79084
X47498Y89840
X74371Y84684
X57023Y80950
X58928Y80950
X53975Y95301
X77978Y87046
X61468Y80950
X64008Y80950
X66040Y80950
X36830Y15723
X58928Y82220
X61468Y82220
X64008Y82220
X66040Y82220
X57023Y83490
X58928Y83490
X61468Y83490
X64008Y83490
X66040Y83490
X57023Y84760
X58928Y84760
X61468Y84760
X64008Y84760
X66040Y84760
X57023Y86030
X58928Y86030
X61468Y86030
X64008Y86030
X66040Y86030
X57023Y87300
X58928Y87300
X61468Y87300
X64008Y87300
X66040Y87300
X57023Y88570
X58928Y88570
X61468Y88570
X64008Y88570
X66040Y88570
X57023Y89840
X58928Y89840
X61468Y89840
X64008Y89840
X66040Y89840
X57023Y91110
X58928Y91110
X61468Y91110
X64008Y91110
X66040Y91110
X57023Y92380
X58928Y92380
X61468Y92380
X64008Y92380
X66040Y92380
X57023Y93650
X58928Y93650
X61468Y93650
X64008Y93650
X66040Y93650
X57023Y94920
X58928Y94920
X61468Y94920
X64008Y94920
X66040Y94920
X72263Y91618
X74803Y93015
X74803Y95555
X77724Y93650
X75438Y98704
X64008Y100000
X64008Y102540
X72898Y94285
X67691Y89205
X76327Y75895
X47498Y75895
X47498Y73355
X42443Y97460
X41910Y99746
X42418Y87300
X42418Y89967
X42418Y92380
X42418Y94920
X42418Y78410
X42418Y83490
X44958Y78410
X44958Y81331
X44958Y83109
X58928Y78410
X61468Y78410
X64008Y78410
X66548Y78410
X44958Y97460
X45466Y99746
X55118Y89840
X53721Y91110
X74168Y75895
X44958Y86030
X73914Y91618
X70358Y96698
X72898Y96698
X68453Y96698
X50038Y73355
X52578Y75895
X50038Y75895
X74168Y78410
X52578Y73355
X51283Y97815
X70231Y84760
X80518Y98730
X78105Y98857
X80518Y96190
X64008Y97053
X58953Y97053
X61493Y97053
X66065Y97053
X67920Y98730
X70333Y98781
X76098Y93243
X76098Y95275
X75133Y96698
X76098Y91796
X72923Y98730
X50038Y96825
X80518Y77546
X77978Y77546
X80518Y93650
X80518Y89840
X80518Y87300
X69215Y95555
X61468Y102540
X61468Y100000
X58039Y103556
X70358Y75895
X55245Y75895
X48768Y97587
X70993Y95555
X71120Y92888
X74168Y80950
X76708Y78435
X58928Y79680
X61468Y79680
X64008Y79680
X66548Y79680
X72009Y89459
X52578Y78054
X50038Y78054
X47498Y78435
X42418Y81204
X48768Y84760
X51308Y91999
X56388Y78410
X56388Y79680
X48768Y80975
X72517Y84887
X72517Y82474
X66548Y101270
X46966Y91465
X47498Y90856
X67818Y100762
X77978Y88816
X77978Y92126
X68834Y83490
X74168Y81712
X73388Y76955
X71882Y76683
X68291Y76793
X45339Y96850
X43688Y96850
X79248Y81458
X49022Y86284
X49276Y87757
X57023Y82220
X53848Y102565
X49581Y92304
X70993Y85776
X53492Y92456
X70231Y85784
X69977Y83109
X77419Y84023
X47625Y97333
X51003Y100711
X68453Y90119
X69850Y80848
X70358Y79705
X30607Y11887
X17145Y27153
X12700Y6999
X6350Y17755
X33223Y12598
X15875Y8865
X17780Y8865
X12827Y23216
X36830Y14961
X20320Y8865
X22860Y8865
X24892Y8865
X15875Y10135
X17780Y10135
X20320Y10135
X22860Y10135
X24892Y10135
X15875Y11405
X17780Y11405
X20320Y11405
X22860Y11405
X24892Y11405
X15875Y12675
X17780Y12675
X20320Y12675
X22860Y12675
X24892Y12675
X15875Y13945
X17780Y13945
X20320Y13945
X22860Y13945
X24892Y13945
X15875Y15215
X17780Y15215
X20320Y15215
X22860Y15215
X24892Y15215
X15875Y16485
X17780Y16485
X20320Y16485
X22860Y16485
X24892Y16485
X15875Y17755
X17780Y17755
X20320Y17755
X22860Y17755
X24892Y17755
X15875Y19025
X17780Y19025
X20320Y19025
X22860Y19025
X24892Y19025
X15875Y20295
X17780Y20295
X20320Y20295
X22860Y20295
X24892Y20295
X15875Y21565
X17780Y21565
X20320Y21565
X22860Y21565
X24892Y21565
X15875Y22835
X17780Y22835
X20320Y22835
X22860Y22835
X24892Y22835
X31115Y19533
X33655Y20930
X33655Y23470
X36576Y21565
X34290Y26619
X22860Y27915
X22860Y30455
X31750Y22200
X26543Y17120
X35179Y3810
X6350Y3810
X6350Y1270
X1295Y25375
X762Y27661
X1270Y15215
X1270Y17882
X1270Y20295
X1270Y22835
X1270Y6325
X1270Y11405
X3810Y6325
X3810Y9246
X3810Y11024
X17780Y6325
X20320Y6325
X22860Y6325
X25400Y6325
X3810Y25375
X4318Y27661
X13970Y17755
X12573Y19025
X33020Y3810
X3810Y13945
X32766Y19533
X29210Y24613
X31750Y24613
X27305Y24613
X8890Y1270
X11430Y3810
X8890Y3810
X33020Y6325
X11430Y1270
X10135Y25730
X29083Y12675
X39370Y26645
X36957Y26772
X39370Y24105
X22860Y24968
X17805Y24968
X20345Y24968
X24917Y24968
X26772Y26645
X29185Y26695
X34950Y21158
X34950Y23190
X33985Y24613
X34950Y19710
X31775Y26645
X8890Y24740
X39370Y5461
X36830Y5461
X39370Y21565
X39370Y17755
X39370Y15215
X28067Y23470
X20320Y30455
X20320Y27915
X16891Y31471
X29210Y3810
X14097Y3810
X7620Y25502
X29845Y23470
X29972Y20803
X33020Y8865
X35560Y6350
X17780Y7595
X20320Y7595
X22860Y7595
X25400Y7595
X30861Y17374
X11430Y5969
X8890Y5969
X49708Y102540
M30