G04 EAGLE Gerber RS-274X export*
G75*
%MOMM*%
%FSLAX34Y34*%
%LPD*%
%INSoldermask Top*%
%IPPOS*%
%AMOC8*
5,1,8,0,0,1.08239X$1,22.5*%
G01*
%ADD10C,3.505200*%
%ADD11C,0.838200*%
%ADD12R,2.203200X1.403200*%
%ADD13R,1.553200X0.803200*%
%ADD14R,1.303200X1.203200*%
%ADD15R,4.200000X1.700000*%
%ADD16R,1.203200X1.303200*%
%ADD17C,0.505344*%
%ADD18R,0.833200X1.033200*%
%ADD19R,2.403200X1.053200*%
%ADD20R,1.253200X1.203200*%
%ADD21R,1.403200X0.753200*%
%ADD22C,2.082800*%
%ADD23R,0.453200X0.813200*%
%ADD24R,0.453200X0.763200*%
%ADD25R,0.503200X1.203200*%
%ADD26R,0.803200X1.203200*%
%ADD27C,0.853200*%
%ADD28R,2.003200X1.003200*%
%ADD29C,1.203200*%
%ADD30C,1.270000*%
%ADD31C,1.703200*%

G36*
X468819Y819936D02*
X468819Y819936D01*
X468846Y819938D01*
X468881Y819964D01*
X468921Y819982D01*
X468936Y820005D01*
X468958Y820021D01*
X468974Y820062D01*
X468998Y820099D01*
X469005Y820142D01*
X469008Y820151D01*
X469007Y820158D01*
X469009Y820172D01*
X469009Y844172D01*
X469004Y844188D01*
X469007Y844205D01*
X468985Y844255D01*
X468970Y844306D01*
X468957Y844317D01*
X468950Y844333D01*
X468905Y844363D01*
X468865Y844398D01*
X468848Y844401D01*
X468834Y844410D01*
X468760Y844421D01*
X444760Y844421D01*
X444718Y844409D01*
X444674Y844406D01*
X444652Y844390D01*
X444626Y844382D01*
X444597Y844349D01*
X444562Y844323D01*
X444552Y844297D01*
X444534Y844277D01*
X444527Y844233D01*
X444512Y844193D01*
X444517Y844166D01*
X444513Y844139D01*
X444531Y844098D01*
X444540Y844056D01*
X444566Y844020D01*
X444570Y844011D01*
X444575Y844007D01*
X444584Y843996D01*
X468584Y819996D01*
X468622Y819975D01*
X468655Y819946D01*
X468682Y819942D01*
X468706Y819929D01*
X468750Y819932D01*
X468793Y819925D01*
X468819Y819936D01*
G37*
G36*
X57339Y819936D02*
X57339Y819936D01*
X57366Y819938D01*
X57401Y819964D01*
X57441Y819982D01*
X57456Y820005D01*
X57478Y820021D01*
X57494Y820062D01*
X57518Y820099D01*
X57525Y820142D01*
X57528Y820151D01*
X57527Y820158D01*
X57529Y820172D01*
X57529Y844172D01*
X57524Y844188D01*
X57527Y844205D01*
X57505Y844255D01*
X57490Y844306D01*
X57477Y844317D01*
X57470Y844333D01*
X57425Y844363D01*
X57385Y844398D01*
X57368Y844401D01*
X57354Y844410D01*
X57280Y844421D01*
X33280Y844421D01*
X33238Y844409D01*
X33194Y844406D01*
X33172Y844390D01*
X33146Y844382D01*
X33117Y844349D01*
X33082Y844323D01*
X33072Y844297D01*
X33054Y844277D01*
X33047Y844233D01*
X33032Y844193D01*
X33037Y844166D01*
X33033Y844139D01*
X33051Y844098D01*
X33060Y844056D01*
X33086Y844020D01*
X33090Y844011D01*
X33095Y844007D01*
X33104Y843996D01*
X57104Y819996D01*
X57142Y819975D01*
X57175Y819946D01*
X57202Y819942D01*
X57226Y819929D01*
X57270Y819932D01*
X57313Y819925D01*
X57339Y819936D01*
G37*
G36*
X468819Y459510D02*
X468819Y459510D01*
X468846Y459512D01*
X468881Y459538D01*
X468921Y459556D01*
X468936Y459579D01*
X468958Y459595D01*
X468974Y459636D01*
X468998Y459673D01*
X469005Y459716D01*
X469008Y459725D01*
X469007Y459732D01*
X469009Y459746D01*
X469009Y483746D01*
X469004Y483762D01*
X469007Y483779D01*
X468985Y483829D01*
X468970Y483880D01*
X468957Y483891D01*
X468950Y483907D01*
X468905Y483937D01*
X468865Y483972D01*
X468848Y483975D01*
X468834Y483984D01*
X468760Y483995D01*
X444760Y483995D01*
X444718Y483983D01*
X444674Y483980D01*
X444652Y483964D01*
X444626Y483956D01*
X444597Y483923D01*
X444562Y483897D01*
X444552Y483871D01*
X444534Y483851D01*
X444527Y483807D01*
X444512Y483767D01*
X444517Y483740D01*
X444513Y483713D01*
X444531Y483672D01*
X444540Y483630D01*
X444566Y483594D01*
X444570Y483585D01*
X444575Y483581D01*
X444584Y483570D01*
X468584Y459570D01*
X468622Y459549D01*
X468655Y459520D01*
X468682Y459516D01*
X468706Y459503D01*
X468750Y459506D01*
X468793Y459499D01*
X468819Y459510D01*
G37*
G36*
X57339Y459510D02*
X57339Y459510D01*
X57366Y459512D01*
X57401Y459538D01*
X57441Y459556D01*
X57456Y459579D01*
X57478Y459595D01*
X57494Y459636D01*
X57518Y459673D01*
X57525Y459716D01*
X57528Y459725D01*
X57527Y459732D01*
X57529Y459746D01*
X57529Y483746D01*
X57524Y483762D01*
X57527Y483779D01*
X57505Y483829D01*
X57490Y483880D01*
X57477Y483891D01*
X57470Y483907D01*
X57425Y483937D01*
X57385Y483972D01*
X57368Y483975D01*
X57354Y483984D01*
X57280Y483995D01*
X33280Y483995D01*
X33238Y483983D01*
X33194Y483980D01*
X33172Y483964D01*
X33146Y483956D01*
X33117Y483923D01*
X33082Y483897D01*
X33072Y483871D01*
X33054Y483851D01*
X33047Y483807D01*
X33032Y483767D01*
X33037Y483740D01*
X33033Y483713D01*
X33051Y483672D01*
X33060Y483630D01*
X33086Y483594D01*
X33090Y483585D01*
X33095Y483581D01*
X33104Y483570D01*
X57104Y459570D01*
X57142Y459549D01*
X57175Y459520D01*
X57202Y459516D01*
X57226Y459503D01*
X57270Y459506D01*
X57313Y459499D01*
X57339Y459510D01*
G37*
G36*
X468819Y99084D02*
X468819Y99084D01*
X468846Y99086D01*
X468881Y99112D01*
X468921Y99130D01*
X468936Y99153D01*
X468958Y99169D01*
X468974Y99210D01*
X468998Y99247D01*
X469005Y99290D01*
X469008Y99299D01*
X469007Y99306D01*
X469009Y99320D01*
X469009Y123320D01*
X469004Y123336D01*
X469007Y123353D01*
X468985Y123403D01*
X468970Y123454D01*
X468957Y123465D01*
X468950Y123481D01*
X468905Y123511D01*
X468865Y123546D01*
X468848Y123549D01*
X468834Y123558D01*
X468760Y123569D01*
X444760Y123569D01*
X444718Y123557D01*
X444674Y123554D01*
X444652Y123538D01*
X444626Y123530D01*
X444597Y123497D01*
X444562Y123471D01*
X444552Y123445D01*
X444534Y123425D01*
X444527Y123381D01*
X444512Y123341D01*
X444517Y123314D01*
X444513Y123287D01*
X444531Y123246D01*
X444540Y123204D01*
X444566Y123168D01*
X444570Y123159D01*
X444575Y123155D01*
X444584Y123144D01*
X468584Y99144D01*
X468622Y99123D01*
X468655Y99094D01*
X468682Y99090D01*
X468706Y99077D01*
X468750Y99080D01*
X468793Y99073D01*
X468819Y99084D01*
G37*
G36*
X57339Y99084D02*
X57339Y99084D01*
X57366Y99086D01*
X57401Y99112D01*
X57441Y99130D01*
X57456Y99153D01*
X57478Y99169D01*
X57494Y99210D01*
X57518Y99247D01*
X57525Y99290D01*
X57528Y99299D01*
X57527Y99306D01*
X57529Y99320D01*
X57529Y123320D01*
X57524Y123336D01*
X57527Y123353D01*
X57505Y123403D01*
X57490Y123454D01*
X57477Y123465D01*
X57470Y123481D01*
X57425Y123511D01*
X57385Y123546D01*
X57368Y123549D01*
X57354Y123558D01*
X57280Y123569D01*
X33280Y123569D01*
X33238Y123557D01*
X33194Y123554D01*
X33172Y123538D01*
X33146Y123530D01*
X33117Y123497D01*
X33082Y123471D01*
X33072Y123445D01*
X33054Y123425D01*
X33047Y123381D01*
X33032Y123341D01*
X33037Y123314D01*
X33033Y123287D01*
X33051Y123246D01*
X33060Y123204D01*
X33086Y123168D01*
X33090Y123159D01*
X33095Y123155D01*
X33104Y123144D01*
X57104Y99144D01*
X57142Y99123D01*
X57175Y99094D01*
X57202Y99090D01*
X57226Y99077D01*
X57270Y99080D01*
X57313Y99073D01*
X57339Y99084D01*
G37*
G36*
X560970Y986998D02*
X560970Y986998D01*
X560975Y987003D01*
X560979Y986999D01*
X562076Y987286D01*
X562080Y987292D01*
X562085Y987289D01*
X563104Y987784D01*
X563107Y987790D01*
X563112Y987789D01*
X564015Y988473D01*
X564017Y988480D01*
X564022Y988480D01*
X564775Y989327D01*
X564775Y989334D01*
X564780Y989335D01*
X565353Y990312D01*
X565352Y990315D01*
X565353Y990316D01*
X565352Y990317D01*
X565352Y990319D01*
X565357Y990321D01*
X565728Y991392D01*
X565726Y991397D01*
X565729Y991399D01*
X565728Y991400D01*
X565730Y991401D01*
X565885Y992523D01*
X565882Y992528D01*
X565885Y992530D01*
X565885Y1004530D01*
X565882Y1004535D01*
X565885Y1004538D01*
X565680Y1005805D01*
X565674Y1005811D01*
X565677Y1005816D01*
X565195Y1007005D01*
X565188Y1007009D01*
X565190Y1007015D01*
X564456Y1008068D01*
X564448Y1008070D01*
X564449Y1008076D01*
X563499Y1008939D01*
X563490Y1008940D01*
X563490Y1008945D01*
X562371Y1009575D01*
X562363Y1009574D01*
X562361Y1009580D01*
X561131Y1009945D01*
X561123Y1009942D01*
X561120Y1009947D01*
X559839Y1010029D01*
X559833Y1010029D01*
X558552Y1009947D01*
X558546Y1009941D01*
X558541Y1009945D01*
X557311Y1009580D01*
X557306Y1009573D01*
X557301Y1009575D01*
X556182Y1008945D01*
X556179Y1008938D01*
X556173Y1008939D01*
X555223Y1008076D01*
X555222Y1008068D01*
X555216Y1008068D01*
X554482Y1007015D01*
X554482Y1007007D01*
X554477Y1007005D01*
X553995Y1005816D01*
X553997Y1005810D01*
X553993Y1005807D01*
X553994Y1005806D01*
X553992Y1005805D01*
X553787Y1004538D01*
X553790Y1004533D01*
X553787Y1004530D01*
X553787Y992530D01*
X553790Y992526D01*
X553787Y992523D01*
X553942Y991401D01*
X553947Y991396D01*
X553944Y991392D01*
X554315Y990321D01*
X554321Y990317D01*
X554319Y990312D01*
X554892Y989335D01*
X554898Y989332D01*
X554897Y989327D01*
X555650Y988480D01*
X555657Y988478D01*
X555657Y988473D01*
X556560Y987789D01*
X556567Y987789D01*
X556568Y987784D01*
X557587Y987289D01*
X557594Y987291D01*
X557596Y987286D01*
X558693Y986999D01*
X558699Y987002D01*
X558702Y986998D01*
X559833Y986931D01*
X559837Y986933D01*
X559839Y986931D01*
X560970Y986998D01*
G37*
G36*
X474570Y986998D02*
X474570Y986998D01*
X474575Y987003D01*
X474579Y986999D01*
X475676Y987286D01*
X475680Y987292D01*
X475685Y987289D01*
X476704Y987784D01*
X476707Y987790D01*
X476712Y987789D01*
X477615Y988473D01*
X477617Y988480D01*
X477622Y988480D01*
X478375Y989327D01*
X478375Y989334D01*
X478380Y989335D01*
X478953Y990312D01*
X478952Y990315D01*
X478953Y990316D01*
X478952Y990317D01*
X478952Y990319D01*
X478957Y990321D01*
X479328Y991392D01*
X479326Y991397D01*
X479329Y991399D01*
X479328Y991400D01*
X479330Y991401D01*
X479485Y992523D01*
X479482Y992528D01*
X479485Y992530D01*
X479485Y1004530D01*
X479482Y1004535D01*
X479485Y1004538D01*
X479280Y1005805D01*
X479274Y1005811D01*
X479277Y1005816D01*
X478795Y1007005D01*
X478788Y1007009D01*
X478790Y1007015D01*
X478056Y1008068D01*
X478048Y1008070D01*
X478049Y1008076D01*
X477099Y1008939D01*
X477090Y1008940D01*
X477090Y1008945D01*
X475971Y1009575D01*
X475963Y1009574D01*
X475961Y1009580D01*
X474731Y1009945D01*
X474723Y1009942D01*
X474720Y1009947D01*
X473439Y1010029D01*
X473433Y1010029D01*
X472152Y1009947D01*
X472146Y1009941D01*
X472141Y1009945D01*
X470911Y1009580D01*
X470906Y1009573D01*
X470901Y1009575D01*
X469782Y1008945D01*
X469779Y1008938D01*
X469773Y1008939D01*
X468823Y1008076D01*
X468822Y1008068D01*
X468816Y1008068D01*
X468082Y1007015D01*
X468082Y1007007D01*
X468077Y1007005D01*
X467595Y1005816D01*
X467597Y1005810D01*
X467593Y1005807D01*
X467594Y1005806D01*
X467592Y1005805D01*
X467387Y1004538D01*
X467390Y1004533D01*
X467387Y1004530D01*
X467387Y992530D01*
X467390Y992526D01*
X467387Y992523D01*
X467542Y991401D01*
X467547Y991396D01*
X467544Y991392D01*
X467915Y990321D01*
X467921Y990317D01*
X467919Y990312D01*
X468492Y989335D01*
X468498Y989332D01*
X468497Y989327D01*
X469250Y988480D01*
X469257Y988478D01*
X469257Y988473D01*
X470160Y987789D01*
X470167Y987789D01*
X470168Y987784D01*
X471187Y987289D01*
X471194Y987291D01*
X471196Y987286D01*
X472293Y986999D01*
X472299Y987002D01*
X472302Y986998D01*
X473433Y986931D01*
X473437Y986933D01*
X473439Y986931D01*
X474570Y986998D01*
G37*
G36*
X63090Y986998D02*
X63090Y986998D01*
X63095Y987003D01*
X63099Y986999D01*
X64196Y987286D01*
X64200Y987292D01*
X64205Y987289D01*
X65224Y987784D01*
X65227Y987790D01*
X65232Y987789D01*
X66135Y988473D01*
X66137Y988480D01*
X66142Y988480D01*
X66895Y989327D01*
X66895Y989334D01*
X66900Y989335D01*
X67473Y990312D01*
X67472Y990315D01*
X67473Y990316D01*
X67472Y990317D01*
X67472Y990319D01*
X67477Y990321D01*
X67848Y991392D01*
X67846Y991397D01*
X67849Y991399D01*
X67848Y991400D01*
X67850Y991401D01*
X68005Y992523D01*
X68002Y992528D01*
X68005Y992530D01*
X68005Y1004530D01*
X68002Y1004535D01*
X68005Y1004538D01*
X67800Y1005805D01*
X67794Y1005811D01*
X67797Y1005816D01*
X67315Y1007005D01*
X67308Y1007009D01*
X67310Y1007015D01*
X66576Y1008068D01*
X66568Y1008070D01*
X66569Y1008076D01*
X65619Y1008939D01*
X65610Y1008940D01*
X65610Y1008945D01*
X64491Y1009575D01*
X64483Y1009574D01*
X64481Y1009580D01*
X63251Y1009945D01*
X63243Y1009942D01*
X63240Y1009947D01*
X61959Y1010029D01*
X61953Y1010029D01*
X60672Y1009947D01*
X60666Y1009941D01*
X60661Y1009945D01*
X59431Y1009580D01*
X59426Y1009573D01*
X59421Y1009575D01*
X58302Y1008945D01*
X58299Y1008938D01*
X58293Y1008939D01*
X57343Y1008076D01*
X57342Y1008068D01*
X57336Y1008068D01*
X56602Y1007015D01*
X56602Y1007007D01*
X56597Y1007005D01*
X56115Y1005816D01*
X56117Y1005810D01*
X56113Y1005807D01*
X56114Y1005806D01*
X56112Y1005805D01*
X55907Y1004538D01*
X55910Y1004533D01*
X55907Y1004530D01*
X55907Y992530D01*
X55910Y992526D01*
X55907Y992523D01*
X56062Y991401D01*
X56067Y991396D01*
X56064Y991392D01*
X56435Y990321D01*
X56441Y990317D01*
X56439Y990312D01*
X57012Y989335D01*
X57018Y989332D01*
X57017Y989327D01*
X57770Y988480D01*
X57777Y988478D01*
X57777Y988473D01*
X58680Y987789D01*
X58687Y987789D01*
X58688Y987784D01*
X59707Y987289D01*
X59714Y987291D01*
X59716Y987286D01*
X60813Y986999D01*
X60819Y987002D01*
X60822Y986998D01*
X61953Y986931D01*
X61957Y986933D01*
X61959Y986931D01*
X63090Y986998D01*
G37*
G36*
X149490Y986998D02*
X149490Y986998D01*
X149495Y987003D01*
X149499Y986999D01*
X150596Y987286D01*
X150600Y987292D01*
X150605Y987289D01*
X151624Y987784D01*
X151627Y987790D01*
X151632Y987789D01*
X152535Y988473D01*
X152537Y988480D01*
X152542Y988480D01*
X153295Y989327D01*
X153295Y989334D01*
X153300Y989335D01*
X153873Y990312D01*
X153872Y990315D01*
X153873Y990316D01*
X153872Y990317D01*
X153872Y990319D01*
X153877Y990321D01*
X154248Y991392D01*
X154246Y991397D01*
X154249Y991399D01*
X154248Y991400D01*
X154250Y991401D01*
X154405Y992523D01*
X154402Y992528D01*
X154405Y992530D01*
X154405Y1004530D01*
X154402Y1004535D01*
X154405Y1004538D01*
X154200Y1005805D01*
X154194Y1005811D01*
X154197Y1005816D01*
X153715Y1007005D01*
X153708Y1007009D01*
X153710Y1007015D01*
X152976Y1008068D01*
X152968Y1008070D01*
X152969Y1008076D01*
X152019Y1008939D01*
X152010Y1008940D01*
X152010Y1008945D01*
X150891Y1009575D01*
X150883Y1009574D01*
X150881Y1009580D01*
X149651Y1009945D01*
X149643Y1009942D01*
X149640Y1009947D01*
X148359Y1010029D01*
X148353Y1010029D01*
X147072Y1009947D01*
X147066Y1009941D01*
X147061Y1009945D01*
X145831Y1009580D01*
X145826Y1009573D01*
X145821Y1009575D01*
X144702Y1008945D01*
X144699Y1008938D01*
X144693Y1008939D01*
X143743Y1008076D01*
X143742Y1008068D01*
X143736Y1008068D01*
X143002Y1007015D01*
X143002Y1007007D01*
X142997Y1007005D01*
X142515Y1005816D01*
X142517Y1005810D01*
X142513Y1005807D01*
X142514Y1005806D01*
X142512Y1005805D01*
X142307Y1004538D01*
X142310Y1004533D01*
X142307Y1004530D01*
X142307Y992530D01*
X142310Y992526D01*
X142307Y992523D01*
X142462Y991401D01*
X142467Y991396D01*
X142464Y991392D01*
X142835Y990321D01*
X142841Y990317D01*
X142839Y990312D01*
X143412Y989335D01*
X143418Y989332D01*
X143417Y989327D01*
X144170Y988480D01*
X144177Y988478D01*
X144177Y988473D01*
X145080Y987789D01*
X145087Y987789D01*
X145088Y987784D01*
X146107Y987289D01*
X146114Y987291D01*
X146116Y987286D01*
X147213Y986999D01*
X147219Y987002D01*
X147222Y986998D01*
X148353Y986931D01*
X148357Y986933D01*
X148359Y986931D01*
X149490Y986998D01*
G37*
G36*
X63090Y626572D02*
X63090Y626572D01*
X63095Y626577D01*
X63099Y626573D01*
X64196Y626860D01*
X64200Y626866D01*
X64205Y626863D01*
X65224Y627358D01*
X65227Y627364D01*
X65232Y627363D01*
X66135Y628047D01*
X66137Y628054D01*
X66142Y628054D01*
X66895Y628901D01*
X66895Y628908D01*
X66900Y628909D01*
X67473Y629886D01*
X67472Y629889D01*
X67473Y629890D01*
X67472Y629891D01*
X67472Y629893D01*
X67477Y629895D01*
X67848Y630966D01*
X67846Y630971D01*
X67849Y630973D01*
X67848Y630974D01*
X67850Y630975D01*
X68005Y632097D01*
X68002Y632102D01*
X68005Y632104D01*
X68005Y644104D01*
X68002Y644109D01*
X68005Y644112D01*
X67800Y645379D01*
X67794Y645385D01*
X67797Y645390D01*
X67315Y646579D01*
X67308Y646583D01*
X67310Y646589D01*
X66576Y647642D01*
X66568Y647644D01*
X66569Y647650D01*
X65619Y648513D01*
X65610Y648514D01*
X65610Y648519D01*
X64491Y649149D01*
X64483Y649148D01*
X64481Y649154D01*
X63251Y649519D01*
X63243Y649516D01*
X63240Y649521D01*
X61959Y649603D01*
X61953Y649603D01*
X60672Y649521D01*
X60666Y649515D01*
X60661Y649519D01*
X59431Y649154D01*
X59426Y649147D01*
X59421Y649149D01*
X58302Y648519D01*
X58299Y648512D01*
X58293Y648513D01*
X57343Y647650D01*
X57342Y647642D01*
X57336Y647642D01*
X56602Y646589D01*
X56602Y646581D01*
X56597Y646579D01*
X56115Y645390D01*
X56117Y645384D01*
X56113Y645381D01*
X56114Y645380D01*
X56112Y645379D01*
X55907Y644112D01*
X55910Y644107D01*
X55907Y644104D01*
X55907Y632104D01*
X55910Y632100D01*
X55907Y632097D01*
X56062Y630975D01*
X56067Y630970D01*
X56064Y630966D01*
X56435Y629895D01*
X56441Y629891D01*
X56439Y629886D01*
X57012Y628909D01*
X57018Y628906D01*
X57017Y628901D01*
X57770Y628054D01*
X57777Y628052D01*
X57777Y628047D01*
X58680Y627363D01*
X58687Y627363D01*
X58688Y627358D01*
X59707Y626863D01*
X59714Y626865D01*
X59716Y626860D01*
X60813Y626573D01*
X60819Y626576D01*
X60822Y626572D01*
X61953Y626505D01*
X61957Y626507D01*
X61959Y626505D01*
X63090Y626572D01*
G37*
G36*
X474570Y626572D02*
X474570Y626572D01*
X474575Y626577D01*
X474579Y626573D01*
X475676Y626860D01*
X475680Y626866D01*
X475685Y626863D01*
X476704Y627358D01*
X476707Y627364D01*
X476712Y627363D01*
X477615Y628047D01*
X477617Y628054D01*
X477622Y628054D01*
X478375Y628901D01*
X478375Y628908D01*
X478380Y628909D01*
X478953Y629886D01*
X478952Y629889D01*
X478953Y629890D01*
X478952Y629891D01*
X478952Y629893D01*
X478957Y629895D01*
X479328Y630966D01*
X479326Y630971D01*
X479329Y630973D01*
X479328Y630974D01*
X479330Y630975D01*
X479485Y632097D01*
X479482Y632102D01*
X479485Y632104D01*
X479485Y644104D01*
X479482Y644109D01*
X479485Y644112D01*
X479280Y645379D01*
X479274Y645385D01*
X479277Y645390D01*
X478795Y646579D01*
X478788Y646583D01*
X478790Y646589D01*
X478056Y647642D01*
X478048Y647644D01*
X478049Y647650D01*
X477099Y648513D01*
X477090Y648514D01*
X477090Y648519D01*
X475971Y649149D01*
X475963Y649148D01*
X475961Y649154D01*
X474731Y649519D01*
X474723Y649516D01*
X474720Y649521D01*
X473439Y649603D01*
X473433Y649603D01*
X472152Y649521D01*
X472146Y649515D01*
X472141Y649519D01*
X470911Y649154D01*
X470906Y649147D01*
X470901Y649149D01*
X469782Y648519D01*
X469779Y648512D01*
X469773Y648513D01*
X468823Y647650D01*
X468822Y647642D01*
X468816Y647642D01*
X468082Y646589D01*
X468082Y646581D01*
X468077Y646579D01*
X467595Y645390D01*
X467597Y645384D01*
X467593Y645381D01*
X467594Y645380D01*
X467592Y645379D01*
X467387Y644112D01*
X467390Y644107D01*
X467387Y644104D01*
X467387Y632104D01*
X467390Y632100D01*
X467387Y632097D01*
X467542Y630975D01*
X467547Y630970D01*
X467544Y630966D01*
X467915Y629895D01*
X467921Y629891D01*
X467919Y629886D01*
X468492Y628909D01*
X468498Y628906D01*
X468497Y628901D01*
X469250Y628054D01*
X469257Y628052D01*
X469257Y628047D01*
X470160Y627363D01*
X470167Y627363D01*
X470168Y627358D01*
X471187Y626863D01*
X471194Y626865D01*
X471196Y626860D01*
X472293Y626573D01*
X472299Y626576D01*
X472302Y626572D01*
X473433Y626505D01*
X473437Y626507D01*
X473439Y626505D01*
X474570Y626572D01*
G37*
G36*
X149490Y626572D02*
X149490Y626572D01*
X149495Y626577D01*
X149499Y626573D01*
X150596Y626860D01*
X150600Y626866D01*
X150605Y626863D01*
X151624Y627358D01*
X151627Y627364D01*
X151632Y627363D01*
X152535Y628047D01*
X152537Y628054D01*
X152542Y628054D01*
X153295Y628901D01*
X153295Y628908D01*
X153300Y628909D01*
X153873Y629886D01*
X153872Y629889D01*
X153873Y629890D01*
X153872Y629891D01*
X153872Y629893D01*
X153877Y629895D01*
X154248Y630966D01*
X154246Y630971D01*
X154249Y630973D01*
X154248Y630974D01*
X154250Y630975D01*
X154405Y632097D01*
X154402Y632102D01*
X154405Y632104D01*
X154405Y644104D01*
X154402Y644109D01*
X154405Y644112D01*
X154200Y645379D01*
X154194Y645385D01*
X154197Y645390D01*
X153715Y646579D01*
X153708Y646583D01*
X153710Y646589D01*
X152976Y647642D01*
X152968Y647644D01*
X152969Y647650D01*
X152019Y648513D01*
X152010Y648514D01*
X152010Y648519D01*
X150891Y649149D01*
X150883Y649148D01*
X150881Y649154D01*
X149651Y649519D01*
X149643Y649516D01*
X149640Y649521D01*
X148359Y649603D01*
X148353Y649603D01*
X147072Y649521D01*
X147066Y649515D01*
X147061Y649519D01*
X145831Y649154D01*
X145826Y649147D01*
X145821Y649149D01*
X144702Y648519D01*
X144699Y648512D01*
X144693Y648513D01*
X143743Y647650D01*
X143742Y647642D01*
X143736Y647642D01*
X143002Y646589D01*
X143002Y646581D01*
X142997Y646579D01*
X142515Y645390D01*
X142517Y645384D01*
X142513Y645381D01*
X142514Y645380D01*
X142512Y645379D01*
X142307Y644112D01*
X142310Y644107D01*
X142307Y644104D01*
X142307Y632104D01*
X142310Y632100D01*
X142307Y632097D01*
X142462Y630975D01*
X142467Y630970D01*
X142464Y630966D01*
X142835Y629895D01*
X142841Y629891D01*
X142839Y629886D01*
X143412Y628909D01*
X143418Y628906D01*
X143417Y628901D01*
X144170Y628054D01*
X144177Y628052D01*
X144177Y628047D01*
X145080Y627363D01*
X145087Y627363D01*
X145088Y627358D01*
X146107Y626863D01*
X146114Y626865D01*
X146116Y626860D01*
X147213Y626573D01*
X147219Y626576D01*
X147222Y626572D01*
X148353Y626505D01*
X148357Y626507D01*
X148359Y626505D01*
X149490Y626572D01*
G37*
G36*
X560970Y626572D02*
X560970Y626572D01*
X560975Y626577D01*
X560979Y626573D01*
X562076Y626860D01*
X562080Y626866D01*
X562085Y626863D01*
X563104Y627358D01*
X563107Y627364D01*
X563112Y627363D01*
X564015Y628047D01*
X564017Y628054D01*
X564022Y628054D01*
X564775Y628901D01*
X564775Y628908D01*
X564780Y628909D01*
X565353Y629886D01*
X565352Y629889D01*
X565353Y629890D01*
X565352Y629891D01*
X565352Y629893D01*
X565357Y629895D01*
X565728Y630966D01*
X565726Y630971D01*
X565729Y630973D01*
X565728Y630974D01*
X565730Y630975D01*
X565885Y632097D01*
X565882Y632102D01*
X565885Y632104D01*
X565885Y644104D01*
X565882Y644109D01*
X565885Y644112D01*
X565680Y645379D01*
X565674Y645385D01*
X565677Y645390D01*
X565195Y646579D01*
X565188Y646583D01*
X565190Y646589D01*
X564456Y647642D01*
X564448Y647644D01*
X564449Y647650D01*
X563499Y648513D01*
X563490Y648514D01*
X563490Y648519D01*
X562371Y649149D01*
X562363Y649148D01*
X562361Y649154D01*
X561131Y649519D01*
X561123Y649516D01*
X561120Y649521D01*
X559839Y649603D01*
X559833Y649603D01*
X558552Y649521D01*
X558546Y649515D01*
X558541Y649519D01*
X557311Y649154D01*
X557306Y649147D01*
X557301Y649149D01*
X556182Y648519D01*
X556179Y648512D01*
X556173Y648513D01*
X555223Y647650D01*
X555222Y647642D01*
X555216Y647642D01*
X554482Y646589D01*
X554482Y646581D01*
X554477Y646579D01*
X553995Y645390D01*
X553997Y645384D01*
X553993Y645381D01*
X553994Y645380D01*
X553992Y645379D01*
X553787Y644112D01*
X553790Y644107D01*
X553787Y644104D01*
X553787Y632104D01*
X553790Y632100D01*
X553787Y632097D01*
X553942Y630975D01*
X553947Y630970D01*
X553944Y630966D01*
X554315Y629895D01*
X554321Y629891D01*
X554319Y629886D01*
X554892Y628909D01*
X554898Y628906D01*
X554897Y628901D01*
X555650Y628054D01*
X555657Y628052D01*
X555657Y628047D01*
X556560Y627363D01*
X556567Y627363D01*
X556568Y627358D01*
X557587Y626863D01*
X557594Y626865D01*
X557596Y626860D01*
X558693Y626573D01*
X558699Y626576D01*
X558702Y626572D01*
X559833Y626505D01*
X559837Y626507D01*
X559839Y626505D01*
X560970Y626572D01*
G37*
G36*
X63090Y266146D02*
X63090Y266146D01*
X63095Y266151D01*
X63099Y266147D01*
X64196Y266434D01*
X64200Y266440D01*
X64205Y266437D01*
X65224Y266932D01*
X65227Y266938D01*
X65232Y266937D01*
X66135Y267621D01*
X66137Y267628D01*
X66142Y267628D01*
X66895Y268475D01*
X66895Y268482D01*
X66900Y268483D01*
X67473Y269460D01*
X67472Y269463D01*
X67473Y269464D01*
X67472Y269465D01*
X67472Y269467D01*
X67477Y269469D01*
X67848Y270540D01*
X67846Y270545D01*
X67849Y270547D01*
X67848Y270548D01*
X67850Y270549D01*
X68005Y271671D01*
X68002Y271676D01*
X68005Y271678D01*
X68005Y283678D01*
X68002Y283683D01*
X68005Y283686D01*
X67800Y284953D01*
X67794Y284959D01*
X67797Y284964D01*
X67315Y286153D01*
X67308Y286157D01*
X67310Y286163D01*
X66576Y287216D01*
X66568Y287218D01*
X66569Y287224D01*
X65619Y288087D01*
X65610Y288088D01*
X65610Y288093D01*
X64491Y288723D01*
X64483Y288722D01*
X64481Y288728D01*
X63251Y289093D01*
X63243Y289090D01*
X63240Y289095D01*
X61959Y289177D01*
X61953Y289177D01*
X60672Y289095D01*
X60666Y289089D01*
X60661Y289093D01*
X59431Y288728D01*
X59426Y288721D01*
X59421Y288723D01*
X58302Y288093D01*
X58299Y288086D01*
X58293Y288087D01*
X57343Y287224D01*
X57342Y287216D01*
X57336Y287216D01*
X56602Y286163D01*
X56602Y286155D01*
X56597Y286153D01*
X56115Y284964D01*
X56117Y284958D01*
X56113Y284955D01*
X56114Y284954D01*
X56112Y284953D01*
X55907Y283686D01*
X55910Y283681D01*
X55907Y283678D01*
X55907Y271678D01*
X55910Y271674D01*
X55907Y271671D01*
X56062Y270549D01*
X56067Y270544D01*
X56064Y270540D01*
X56435Y269469D01*
X56441Y269465D01*
X56439Y269460D01*
X57012Y268483D01*
X57018Y268480D01*
X57017Y268475D01*
X57770Y267628D01*
X57777Y267626D01*
X57777Y267621D01*
X58680Y266937D01*
X58687Y266937D01*
X58688Y266932D01*
X59707Y266437D01*
X59714Y266439D01*
X59716Y266434D01*
X60813Y266147D01*
X60819Y266150D01*
X60822Y266146D01*
X61953Y266079D01*
X61957Y266081D01*
X61959Y266079D01*
X63090Y266146D01*
G37*
G36*
X560970Y266146D02*
X560970Y266146D01*
X560975Y266151D01*
X560979Y266147D01*
X562076Y266434D01*
X562080Y266440D01*
X562085Y266437D01*
X563104Y266932D01*
X563107Y266938D01*
X563112Y266937D01*
X564015Y267621D01*
X564017Y267628D01*
X564022Y267628D01*
X564775Y268475D01*
X564775Y268482D01*
X564780Y268483D01*
X565353Y269460D01*
X565352Y269463D01*
X565353Y269464D01*
X565352Y269465D01*
X565352Y269467D01*
X565357Y269469D01*
X565728Y270540D01*
X565726Y270545D01*
X565729Y270547D01*
X565728Y270548D01*
X565730Y270549D01*
X565885Y271671D01*
X565882Y271676D01*
X565885Y271678D01*
X565885Y283678D01*
X565882Y283683D01*
X565885Y283686D01*
X565680Y284953D01*
X565674Y284959D01*
X565677Y284964D01*
X565195Y286153D01*
X565188Y286157D01*
X565190Y286163D01*
X564456Y287216D01*
X564448Y287218D01*
X564449Y287224D01*
X563499Y288087D01*
X563490Y288088D01*
X563490Y288093D01*
X562371Y288723D01*
X562363Y288722D01*
X562361Y288728D01*
X561131Y289093D01*
X561123Y289090D01*
X561120Y289095D01*
X559839Y289177D01*
X559833Y289177D01*
X558552Y289095D01*
X558546Y289089D01*
X558541Y289093D01*
X557311Y288728D01*
X557306Y288721D01*
X557301Y288723D01*
X556182Y288093D01*
X556179Y288086D01*
X556173Y288087D01*
X555223Y287224D01*
X555222Y287216D01*
X555216Y287216D01*
X554482Y286163D01*
X554482Y286155D01*
X554477Y286153D01*
X553995Y284964D01*
X553997Y284958D01*
X553993Y284955D01*
X553994Y284954D01*
X553992Y284953D01*
X553787Y283686D01*
X553790Y283681D01*
X553787Y283678D01*
X553787Y271678D01*
X553790Y271674D01*
X553787Y271671D01*
X553942Y270549D01*
X553947Y270544D01*
X553944Y270540D01*
X554315Y269469D01*
X554321Y269465D01*
X554319Y269460D01*
X554892Y268483D01*
X554898Y268480D01*
X554897Y268475D01*
X555650Y267628D01*
X555657Y267626D01*
X555657Y267621D01*
X556560Y266937D01*
X556567Y266937D01*
X556568Y266932D01*
X557587Y266437D01*
X557594Y266439D01*
X557596Y266434D01*
X558693Y266147D01*
X558699Y266150D01*
X558702Y266146D01*
X559833Y266079D01*
X559837Y266081D01*
X559839Y266079D01*
X560970Y266146D01*
G37*
G36*
X474570Y266146D02*
X474570Y266146D01*
X474575Y266151D01*
X474579Y266147D01*
X475676Y266434D01*
X475680Y266440D01*
X475685Y266437D01*
X476704Y266932D01*
X476707Y266938D01*
X476712Y266937D01*
X477615Y267621D01*
X477617Y267628D01*
X477622Y267628D01*
X478375Y268475D01*
X478375Y268482D01*
X478380Y268483D01*
X478953Y269460D01*
X478952Y269463D01*
X478953Y269464D01*
X478952Y269465D01*
X478952Y269467D01*
X478957Y269469D01*
X479328Y270540D01*
X479326Y270545D01*
X479329Y270547D01*
X479328Y270548D01*
X479330Y270549D01*
X479485Y271671D01*
X479482Y271676D01*
X479485Y271678D01*
X479485Y283678D01*
X479482Y283683D01*
X479485Y283686D01*
X479280Y284953D01*
X479274Y284959D01*
X479277Y284964D01*
X478795Y286153D01*
X478788Y286157D01*
X478790Y286163D01*
X478056Y287216D01*
X478048Y287218D01*
X478049Y287224D01*
X477099Y288087D01*
X477090Y288088D01*
X477090Y288093D01*
X475971Y288723D01*
X475963Y288722D01*
X475961Y288728D01*
X474731Y289093D01*
X474723Y289090D01*
X474720Y289095D01*
X473439Y289177D01*
X473433Y289177D01*
X472152Y289095D01*
X472146Y289089D01*
X472141Y289093D01*
X470911Y288728D01*
X470906Y288721D01*
X470901Y288723D01*
X469782Y288093D01*
X469779Y288086D01*
X469773Y288087D01*
X468823Y287224D01*
X468822Y287216D01*
X468816Y287216D01*
X468082Y286163D01*
X468082Y286155D01*
X468077Y286153D01*
X467595Y284964D01*
X467597Y284958D01*
X467593Y284955D01*
X467594Y284954D01*
X467592Y284953D01*
X467387Y283686D01*
X467390Y283681D01*
X467387Y283678D01*
X467387Y271678D01*
X467390Y271674D01*
X467387Y271671D01*
X467542Y270549D01*
X467547Y270544D01*
X467544Y270540D01*
X467915Y269469D01*
X467921Y269465D01*
X467919Y269460D01*
X468492Y268483D01*
X468498Y268480D01*
X468497Y268475D01*
X469250Y267628D01*
X469257Y267626D01*
X469257Y267621D01*
X470160Y266937D01*
X470167Y266937D01*
X470168Y266932D01*
X471187Y266437D01*
X471194Y266439D01*
X471196Y266434D01*
X472293Y266147D01*
X472299Y266150D01*
X472302Y266146D01*
X473433Y266079D01*
X473437Y266081D01*
X473439Y266079D01*
X474570Y266146D01*
G37*
G36*
X149490Y266146D02*
X149490Y266146D01*
X149495Y266151D01*
X149499Y266147D01*
X150596Y266434D01*
X150600Y266440D01*
X150605Y266437D01*
X151624Y266932D01*
X151627Y266938D01*
X151632Y266937D01*
X152535Y267621D01*
X152537Y267628D01*
X152542Y267628D01*
X153295Y268475D01*
X153295Y268482D01*
X153300Y268483D01*
X153873Y269460D01*
X153872Y269463D01*
X153873Y269464D01*
X153872Y269465D01*
X153872Y269467D01*
X153877Y269469D01*
X154248Y270540D01*
X154246Y270545D01*
X154249Y270547D01*
X154248Y270548D01*
X154250Y270549D01*
X154405Y271671D01*
X154402Y271676D01*
X154405Y271678D01*
X154405Y283678D01*
X154402Y283683D01*
X154405Y283686D01*
X154200Y284953D01*
X154194Y284959D01*
X154197Y284964D01*
X153715Y286153D01*
X153708Y286157D01*
X153710Y286163D01*
X152976Y287216D01*
X152968Y287218D01*
X152969Y287224D01*
X152019Y288087D01*
X152010Y288088D01*
X152010Y288093D01*
X150891Y288723D01*
X150883Y288722D01*
X150881Y288728D01*
X149651Y289093D01*
X149643Y289090D01*
X149640Y289095D01*
X148359Y289177D01*
X148353Y289177D01*
X147072Y289095D01*
X147066Y289089D01*
X147061Y289093D01*
X145831Y288728D01*
X145826Y288721D01*
X145821Y288723D01*
X144702Y288093D01*
X144699Y288086D01*
X144693Y288087D01*
X143743Y287224D01*
X143742Y287216D01*
X143736Y287216D01*
X143002Y286163D01*
X143002Y286155D01*
X142997Y286153D01*
X142515Y284964D01*
X142517Y284958D01*
X142513Y284955D01*
X142514Y284954D01*
X142512Y284953D01*
X142307Y283686D01*
X142310Y283681D01*
X142307Y283678D01*
X142307Y271678D01*
X142310Y271674D01*
X142307Y271671D01*
X142462Y270549D01*
X142467Y270544D01*
X142464Y270540D01*
X142835Y269469D01*
X142841Y269465D01*
X142839Y269460D01*
X143412Y268483D01*
X143418Y268480D01*
X143417Y268475D01*
X144170Y267628D01*
X144177Y267626D01*
X144177Y267621D01*
X145080Y266937D01*
X145087Y266937D01*
X145088Y266932D01*
X146107Y266437D01*
X146114Y266439D01*
X146116Y266434D01*
X147213Y266147D01*
X147219Y266150D01*
X147222Y266146D01*
X148353Y266079D01*
X148357Y266081D01*
X148359Y266079D01*
X149490Y266146D01*
G37*
G36*
X148358Y1031235D02*
X148358Y1031235D01*
X148362Y1031231D01*
X149702Y1031388D01*
X149708Y1031393D01*
X149713Y1031390D01*
X150984Y1031841D01*
X150989Y1031848D01*
X150994Y1031846D01*
X152133Y1032568D01*
X152136Y1032576D01*
X152142Y1032575D01*
X153092Y1033533D01*
X153093Y1033541D01*
X153099Y1033542D01*
X153812Y1034687D01*
X153811Y1034696D01*
X153817Y1034697D01*
X154257Y1035973D01*
X154255Y1035980D01*
X154259Y1035983D01*
X154405Y1037325D01*
X154403Y1037328D01*
X154405Y1037330D01*
X154405Y1043330D01*
X154403Y1043334D01*
X154405Y1043336D01*
X154250Y1044665D01*
X154244Y1044671D01*
X154247Y1044675D01*
X153800Y1045936D01*
X153793Y1045941D01*
X153795Y1045946D01*
X153078Y1047076D01*
X153071Y1047079D01*
X153072Y1047085D01*
X152122Y1048027D01*
X152113Y1048028D01*
X152113Y1048034D01*
X150977Y1048741D01*
X150969Y1048740D01*
X150967Y1048746D01*
X149702Y1049182D01*
X149694Y1049180D01*
X149692Y1049185D01*
X148361Y1049329D01*
X148355Y1049325D01*
X148351Y1049329D01*
X147185Y1049219D01*
X147180Y1049214D01*
X147176Y1049217D01*
X146053Y1048882D01*
X146049Y1048876D01*
X146045Y1048878D01*
X145009Y1048330D01*
X145006Y1048324D01*
X145001Y1048325D01*
X144093Y1047586D01*
X144091Y1047579D01*
X144086Y1047579D01*
X143339Y1046677D01*
X143339Y1046670D01*
X143334Y1046669D01*
X142777Y1045638D01*
X142778Y1045631D01*
X142773Y1045629D01*
X142429Y1044510D01*
X142431Y1044503D01*
X142427Y1044500D01*
X142307Y1043335D01*
X142309Y1043332D01*
X142307Y1043330D01*
X142307Y1037330D01*
X142309Y1037327D01*
X142307Y1037325D01*
X142418Y1036149D01*
X142423Y1036144D01*
X142420Y1036140D01*
X142758Y1035008D01*
X142764Y1035004D01*
X142762Y1034999D01*
X143314Y1033955D01*
X143321Y1033952D01*
X143319Y1033947D01*
X144065Y1033031D01*
X144072Y1033030D01*
X144072Y1033024D01*
X144982Y1032271D01*
X144989Y1032271D01*
X144990Y1032266D01*
X146029Y1031705D01*
X146036Y1031706D01*
X146038Y1031701D01*
X147167Y1031354D01*
X147173Y1031356D01*
X147176Y1031352D01*
X148351Y1031231D01*
X148358Y1031235D01*
G37*
G36*
X61958Y1031235D02*
X61958Y1031235D01*
X61962Y1031231D01*
X63302Y1031388D01*
X63308Y1031393D01*
X63313Y1031390D01*
X64584Y1031841D01*
X64589Y1031848D01*
X64594Y1031846D01*
X65733Y1032568D01*
X65736Y1032576D01*
X65742Y1032575D01*
X66692Y1033533D01*
X66693Y1033541D01*
X66699Y1033542D01*
X67412Y1034687D01*
X67411Y1034696D01*
X67417Y1034697D01*
X67857Y1035973D01*
X67855Y1035980D01*
X67859Y1035983D01*
X68005Y1037325D01*
X68003Y1037328D01*
X68005Y1037330D01*
X68005Y1043330D01*
X68003Y1043334D01*
X68005Y1043336D01*
X67850Y1044665D01*
X67844Y1044671D01*
X67847Y1044675D01*
X67400Y1045936D01*
X67393Y1045941D01*
X67395Y1045946D01*
X66678Y1047076D01*
X66671Y1047079D01*
X66672Y1047085D01*
X65722Y1048027D01*
X65713Y1048028D01*
X65713Y1048034D01*
X64577Y1048741D01*
X64569Y1048740D01*
X64567Y1048746D01*
X63302Y1049182D01*
X63294Y1049180D01*
X63292Y1049185D01*
X61961Y1049329D01*
X61955Y1049325D01*
X61951Y1049329D01*
X60785Y1049219D01*
X60780Y1049214D01*
X60776Y1049217D01*
X59653Y1048882D01*
X59649Y1048876D01*
X59645Y1048878D01*
X58609Y1048330D01*
X58606Y1048324D01*
X58601Y1048325D01*
X57693Y1047586D01*
X57691Y1047579D01*
X57686Y1047579D01*
X56939Y1046677D01*
X56939Y1046670D01*
X56934Y1046669D01*
X56377Y1045638D01*
X56378Y1045631D01*
X56373Y1045629D01*
X56029Y1044510D01*
X56031Y1044503D01*
X56027Y1044500D01*
X55907Y1043335D01*
X55909Y1043332D01*
X55907Y1043330D01*
X55907Y1037330D01*
X55909Y1037327D01*
X55907Y1037325D01*
X56018Y1036149D01*
X56023Y1036144D01*
X56020Y1036140D01*
X56358Y1035008D01*
X56364Y1035004D01*
X56362Y1034999D01*
X56914Y1033955D01*
X56921Y1033952D01*
X56919Y1033947D01*
X57665Y1033031D01*
X57672Y1033030D01*
X57672Y1033024D01*
X58582Y1032271D01*
X58589Y1032271D01*
X58590Y1032266D01*
X59629Y1031705D01*
X59636Y1031706D01*
X59638Y1031701D01*
X60767Y1031354D01*
X60773Y1031356D01*
X60776Y1031352D01*
X61951Y1031231D01*
X61958Y1031235D01*
G37*
G36*
X473438Y1031235D02*
X473438Y1031235D01*
X473442Y1031231D01*
X474782Y1031388D01*
X474788Y1031393D01*
X474793Y1031390D01*
X476064Y1031841D01*
X476069Y1031848D01*
X476074Y1031846D01*
X477213Y1032568D01*
X477216Y1032576D01*
X477222Y1032575D01*
X478172Y1033533D01*
X478173Y1033541D01*
X478179Y1033542D01*
X478892Y1034687D01*
X478891Y1034696D01*
X478897Y1034697D01*
X479337Y1035973D01*
X479335Y1035980D01*
X479339Y1035983D01*
X479485Y1037325D01*
X479483Y1037328D01*
X479485Y1037330D01*
X479485Y1043330D01*
X479483Y1043334D01*
X479485Y1043336D01*
X479330Y1044665D01*
X479324Y1044671D01*
X479327Y1044675D01*
X478880Y1045936D01*
X478873Y1045941D01*
X478875Y1045946D01*
X478158Y1047076D01*
X478151Y1047079D01*
X478152Y1047085D01*
X477202Y1048027D01*
X477193Y1048028D01*
X477193Y1048034D01*
X476057Y1048741D01*
X476049Y1048740D01*
X476047Y1048746D01*
X474782Y1049182D01*
X474774Y1049180D01*
X474772Y1049185D01*
X473441Y1049329D01*
X473435Y1049325D01*
X473431Y1049329D01*
X472265Y1049219D01*
X472260Y1049214D01*
X472256Y1049217D01*
X471133Y1048882D01*
X471129Y1048876D01*
X471125Y1048878D01*
X470089Y1048330D01*
X470086Y1048324D01*
X470081Y1048325D01*
X469173Y1047586D01*
X469171Y1047579D01*
X469166Y1047579D01*
X468419Y1046677D01*
X468419Y1046670D01*
X468414Y1046669D01*
X467857Y1045638D01*
X467858Y1045631D01*
X467853Y1045629D01*
X467509Y1044510D01*
X467511Y1044503D01*
X467507Y1044500D01*
X467387Y1043335D01*
X467389Y1043332D01*
X467387Y1043330D01*
X467387Y1037330D01*
X467389Y1037327D01*
X467387Y1037325D01*
X467498Y1036149D01*
X467503Y1036144D01*
X467500Y1036140D01*
X467838Y1035008D01*
X467844Y1035004D01*
X467842Y1034999D01*
X468394Y1033955D01*
X468401Y1033952D01*
X468399Y1033947D01*
X469145Y1033031D01*
X469152Y1033030D01*
X469152Y1033024D01*
X470062Y1032271D01*
X470069Y1032271D01*
X470070Y1032266D01*
X471109Y1031705D01*
X471116Y1031706D01*
X471118Y1031701D01*
X472247Y1031354D01*
X472253Y1031356D01*
X472256Y1031352D01*
X473431Y1031231D01*
X473438Y1031235D01*
G37*
G36*
X559838Y1031235D02*
X559838Y1031235D01*
X559842Y1031231D01*
X561182Y1031388D01*
X561188Y1031393D01*
X561193Y1031390D01*
X562464Y1031841D01*
X562469Y1031848D01*
X562474Y1031846D01*
X563613Y1032568D01*
X563616Y1032576D01*
X563622Y1032575D01*
X564572Y1033533D01*
X564573Y1033541D01*
X564579Y1033542D01*
X565292Y1034687D01*
X565291Y1034696D01*
X565297Y1034697D01*
X565737Y1035973D01*
X565735Y1035980D01*
X565739Y1035983D01*
X565885Y1037325D01*
X565883Y1037328D01*
X565885Y1037330D01*
X565885Y1043330D01*
X565883Y1043334D01*
X565885Y1043336D01*
X565730Y1044665D01*
X565724Y1044671D01*
X565727Y1044675D01*
X565280Y1045936D01*
X565273Y1045941D01*
X565275Y1045946D01*
X564558Y1047076D01*
X564551Y1047079D01*
X564552Y1047085D01*
X563602Y1048027D01*
X563593Y1048028D01*
X563593Y1048034D01*
X562457Y1048741D01*
X562449Y1048740D01*
X562447Y1048746D01*
X561182Y1049182D01*
X561174Y1049180D01*
X561172Y1049185D01*
X559841Y1049329D01*
X559835Y1049325D01*
X559831Y1049329D01*
X558665Y1049219D01*
X558660Y1049214D01*
X558656Y1049217D01*
X557533Y1048882D01*
X557529Y1048876D01*
X557525Y1048878D01*
X556489Y1048330D01*
X556486Y1048324D01*
X556481Y1048325D01*
X555573Y1047586D01*
X555571Y1047579D01*
X555566Y1047579D01*
X554819Y1046677D01*
X554819Y1046670D01*
X554814Y1046669D01*
X554257Y1045638D01*
X554258Y1045631D01*
X554253Y1045629D01*
X553909Y1044510D01*
X553911Y1044503D01*
X553907Y1044500D01*
X553787Y1043335D01*
X553789Y1043332D01*
X553787Y1043330D01*
X553787Y1037330D01*
X553789Y1037327D01*
X553787Y1037325D01*
X553898Y1036149D01*
X553903Y1036144D01*
X553900Y1036140D01*
X554238Y1035008D01*
X554244Y1035004D01*
X554242Y1034999D01*
X554794Y1033955D01*
X554801Y1033952D01*
X554799Y1033947D01*
X555545Y1033031D01*
X555552Y1033030D01*
X555552Y1033024D01*
X556462Y1032271D01*
X556469Y1032271D01*
X556470Y1032266D01*
X557509Y1031705D01*
X557516Y1031706D01*
X557518Y1031701D01*
X558647Y1031354D01*
X558653Y1031356D01*
X558656Y1031352D01*
X559831Y1031231D01*
X559838Y1031235D01*
G37*
G36*
X559838Y670809D02*
X559838Y670809D01*
X559842Y670805D01*
X561182Y670962D01*
X561188Y670967D01*
X561193Y670964D01*
X562464Y671415D01*
X562469Y671422D01*
X562474Y671420D01*
X563613Y672142D01*
X563616Y672150D01*
X563622Y672149D01*
X564572Y673107D01*
X564573Y673115D01*
X564579Y673116D01*
X565292Y674261D01*
X565291Y674270D01*
X565297Y674271D01*
X565737Y675547D01*
X565735Y675554D01*
X565739Y675557D01*
X565885Y676899D01*
X565883Y676902D01*
X565885Y676904D01*
X565885Y682904D01*
X565883Y682908D01*
X565885Y682910D01*
X565730Y684239D01*
X565724Y684245D01*
X565727Y684249D01*
X565280Y685510D01*
X565273Y685515D01*
X565275Y685520D01*
X564558Y686650D01*
X564551Y686653D01*
X564552Y686659D01*
X563602Y687601D01*
X563593Y687602D01*
X563593Y687608D01*
X562457Y688315D01*
X562449Y688314D01*
X562447Y688320D01*
X561182Y688756D01*
X561174Y688754D01*
X561172Y688759D01*
X559841Y688903D01*
X559835Y688899D01*
X559831Y688903D01*
X558665Y688793D01*
X558660Y688788D01*
X558656Y688791D01*
X557533Y688456D01*
X557529Y688450D01*
X557525Y688452D01*
X556489Y687904D01*
X556486Y687898D01*
X556481Y687899D01*
X555573Y687160D01*
X555571Y687153D01*
X555566Y687153D01*
X554819Y686251D01*
X554819Y686244D01*
X554814Y686243D01*
X554257Y685212D01*
X554258Y685205D01*
X554253Y685203D01*
X553909Y684084D01*
X553911Y684077D01*
X553907Y684074D01*
X553787Y682909D01*
X553789Y682906D01*
X553787Y682904D01*
X553787Y676904D01*
X553789Y676901D01*
X553787Y676899D01*
X553898Y675723D01*
X553903Y675718D01*
X553900Y675714D01*
X554238Y674582D01*
X554244Y674578D01*
X554242Y674573D01*
X554794Y673529D01*
X554801Y673526D01*
X554799Y673521D01*
X555545Y672605D01*
X555552Y672604D01*
X555552Y672598D01*
X556462Y671845D01*
X556469Y671845D01*
X556470Y671840D01*
X557509Y671279D01*
X557516Y671280D01*
X557518Y671275D01*
X558647Y670928D01*
X558653Y670930D01*
X558656Y670926D01*
X559831Y670805D01*
X559838Y670809D01*
G37*
G36*
X148358Y670809D02*
X148358Y670809D01*
X148362Y670805D01*
X149702Y670962D01*
X149708Y670967D01*
X149713Y670964D01*
X150984Y671415D01*
X150989Y671422D01*
X150994Y671420D01*
X152133Y672142D01*
X152136Y672150D01*
X152142Y672149D01*
X153092Y673107D01*
X153093Y673115D01*
X153099Y673116D01*
X153812Y674261D01*
X153811Y674270D01*
X153817Y674271D01*
X154257Y675547D01*
X154255Y675554D01*
X154259Y675557D01*
X154405Y676899D01*
X154403Y676902D01*
X154405Y676904D01*
X154405Y682904D01*
X154403Y682908D01*
X154405Y682910D01*
X154250Y684239D01*
X154244Y684245D01*
X154247Y684249D01*
X153800Y685510D01*
X153793Y685515D01*
X153795Y685520D01*
X153078Y686650D01*
X153071Y686653D01*
X153072Y686659D01*
X152122Y687601D01*
X152113Y687602D01*
X152113Y687608D01*
X150977Y688315D01*
X150969Y688314D01*
X150967Y688320D01*
X149702Y688756D01*
X149694Y688754D01*
X149692Y688759D01*
X148361Y688903D01*
X148355Y688899D01*
X148351Y688903D01*
X147185Y688793D01*
X147180Y688788D01*
X147176Y688791D01*
X146053Y688456D01*
X146049Y688450D01*
X146045Y688452D01*
X145009Y687904D01*
X145006Y687898D01*
X145001Y687899D01*
X144093Y687160D01*
X144091Y687153D01*
X144086Y687153D01*
X143339Y686251D01*
X143339Y686244D01*
X143334Y686243D01*
X142777Y685212D01*
X142778Y685205D01*
X142773Y685203D01*
X142429Y684084D01*
X142431Y684077D01*
X142427Y684074D01*
X142307Y682909D01*
X142309Y682906D01*
X142307Y682904D01*
X142307Y676904D01*
X142309Y676901D01*
X142307Y676899D01*
X142418Y675723D01*
X142423Y675718D01*
X142420Y675714D01*
X142758Y674582D01*
X142764Y674578D01*
X142762Y674573D01*
X143314Y673529D01*
X143321Y673526D01*
X143319Y673521D01*
X144065Y672605D01*
X144072Y672604D01*
X144072Y672598D01*
X144982Y671845D01*
X144989Y671845D01*
X144990Y671840D01*
X146029Y671279D01*
X146036Y671280D01*
X146038Y671275D01*
X147167Y670928D01*
X147173Y670930D01*
X147176Y670926D01*
X148351Y670805D01*
X148358Y670809D01*
G37*
G36*
X61958Y670809D02*
X61958Y670809D01*
X61962Y670805D01*
X63302Y670962D01*
X63308Y670967D01*
X63313Y670964D01*
X64584Y671415D01*
X64589Y671422D01*
X64594Y671420D01*
X65733Y672142D01*
X65736Y672150D01*
X65742Y672149D01*
X66692Y673107D01*
X66693Y673115D01*
X66699Y673116D01*
X67412Y674261D01*
X67411Y674270D01*
X67417Y674271D01*
X67857Y675547D01*
X67855Y675554D01*
X67859Y675557D01*
X68005Y676899D01*
X68003Y676902D01*
X68005Y676904D01*
X68005Y682904D01*
X68003Y682908D01*
X68005Y682910D01*
X67850Y684239D01*
X67844Y684245D01*
X67847Y684249D01*
X67400Y685510D01*
X67393Y685515D01*
X67395Y685520D01*
X66678Y686650D01*
X66671Y686653D01*
X66672Y686659D01*
X65722Y687601D01*
X65713Y687602D01*
X65713Y687608D01*
X64577Y688315D01*
X64569Y688314D01*
X64567Y688320D01*
X63302Y688756D01*
X63294Y688754D01*
X63292Y688759D01*
X61961Y688903D01*
X61955Y688899D01*
X61951Y688903D01*
X60785Y688793D01*
X60780Y688788D01*
X60776Y688791D01*
X59653Y688456D01*
X59649Y688450D01*
X59645Y688452D01*
X58609Y687904D01*
X58606Y687898D01*
X58601Y687899D01*
X57693Y687160D01*
X57691Y687153D01*
X57686Y687153D01*
X56939Y686251D01*
X56939Y686244D01*
X56934Y686243D01*
X56377Y685212D01*
X56378Y685205D01*
X56373Y685203D01*
X56029Y684084D01*
X56031Y684077D01*
X56027Y684074D01*
X55907Y682909D01*
X55909Y682906D01*
X55907Y682904D01*
X55907Y676904D01*
X55909Y676901D01*
X55907Y676899D01*
X56018Y675723D01*
X56023Y675718D01*
X56020Y675714D01*
X56358Y674582D01*
X56364Y674578D01*
X56362Y674573D01*
X56914Y673529D01*
X56921Y673526D01*
X56919Y673521D01*
X57665Y672605D01*
X57672Y672604D01*
X57672Y672598D01*
X58582Y671845D01*
X58589Y671845D01*
X58590Y671840D01*
X59629Y671279D01*
X59636Y671280D01*
X59638Y671275D01*
X60767Y670928D01*
X60773Y670930D01*
X60776Y670926D01*
X61951Y670805D01*
X61958Y670809D01*
G37*
G36*
X473438Y670809D02*
X473438Y670809D01*
X473442Y670805D01*
X474782Y670962D01*
X474788Y670967D01*
X474793Y670964D01*
X476064Y671415D01*
X476069Y671422D01*
X476074Y671420D01*
X477213Y672142D01*
X477216Y672150D01*
X477222Y672149D01*
X478172Y673107D01*
X478173Y673115D01*
X478179Y673116D01*
X478892Y674261D01*
X478891Y674270D01*
X478897Y674271D01*
X479337Y675547D01*
X479335Y675554D01*
X479339Y675557D01*
X479485Y676899D01*
X479483Y676902D01*
X479485Y676904D01*
X479485Y682904D01*
X479483Y682908D01*
X479485Y682910D01*
X479330Y684239D01*
X479324Y684245D01*
X479327Y684249D01*
X478880Y685510D01*
X478873Y685515D01*
X478875Y685520D01*
X478158Y686650D01*
X478151Y686653D01*
X478152Y686659D01*
X477202Y687601D01*
X477193Y687602D01*
X477193Y687608D01*
X476057Y688315D01*
X476049Y688314D01*
X476047Y688320D01*
X474782Y688756D01*
X474774Y688754D01*
X474772Y688759D01*
X473441Y688903D01*
X473435Y688899D01*
X473431Y688903D01*
X472265Y688793D01*
X472260Y688788D01*
X472256Y688791D01*
X471133Y688456D01*
X471129Y688450D01*
X471125Y688452D01*
X470089Y687904D01*
X470086Y687898D01*
X470081Y687899D01*
X469173Y687160D01*
X469171Y687153D01*
X469166Y687153D01*
X468419Y686251D01*
X468419Y686244D01*
X468414Y686243D01*
X467857Y685212D01*
X467858Y685205D01*
X467853Y685203D01*
X467509Y684084D01*
X467511Y684077D01*
X467507Y684074D01*
X467387Y682909D01*
X467389Y682906D01*
X467387Y682904D01*
X467387Y676904D01*
X467389Y676901D01*
X467387Y676899D01*
X467498Y675723D01*
X467503Y675718D01*
X467500Y675714D01*
X467838Y674582D01*
X467844Y674578D01*
X467842Y674573D01*
X468394Y673529D01*
X468401Y673526D01*
X468399Y673521D01*
X469145Y672605D01*
X469152Y672604D01*
X469152Y672598D01*
X470062Y671845D01*
X470069Y671845D01*
X470070Y671840D01*
X471109Y671279D01*
X471116Y671280D01*
X471118Y671275D01*
X472247Y670928D01*
X472253Y670930D01*
X472256Y670926D01*
X473431Y670805D01*
X473438Y670809D01*
G37*
G36*
X148358Y310383D02*
X148358Y310383D01*
X148362Y310379D01*
X149702Y310536D01*
X149708Y310541D01*
X149713Y310538D01*
X150984Y310989D01*
X150989Y310996D01*
X150994Y310994D01*
X152133Y311716D01*
X152136Y311724D01*
X152142Y311723D01*
X153092Y312681D01*
X153093Y312689D01*
X153099Y312690D01*
X153812Y313835D01*
X153811Y313844D01*
X153817Y313845D01*
X154257Y315121D01*
X154255Y315128D01*
X154259Y315131D01*
X154405Y316473D01*
X154403Y316476D01*
X154405Y316478D01*
X154405Y322478D01*
X154403Y322482D01*
X154405Y322484D01*
X154250Y323813D01*
X154244Y323819D01*
X154247Y323823D01*
X153800Y325084D01*
X153793Y325089D01*
X153795Y325094D01*
X153078Y326224D01*
X153071Y326227D01*
X153072Y326233D01*
X152122Y327175D01*
X152113Y327176D01*
X152113Y327182D01*
X150977Y327889D01*
X150969Y327888D01*
X150967Y327894D01*
X149702Y328330D01*
X149694Y328328D01*
X149692Y328333D01*
X148361Y328477D01*
X148355Y328473D01*
X148351Y328477D01*
X147185Y328367D01*
X147180Y328362D01*
X147176Y328365D01*
X146053Y328030D01*
X146049Y328024D01*
X146045Y328026D01*
X145009Y327478D01*
X145006Y327472D01*
X145001Y327473D01*
X144093Y326734D01*
X144091Y326727D01*
X144086Y326727D01*
X143339Y325825D01*
X143339Y325818D01*
X143334Y325817D01*
X142777Y324786D01*
X142778Y324779D01*
X142773Y324777D01*
X142429Y323658D01*
X142431Y323651D01*
X142427Y323648D01*
X142307Y322483D01*
X142309Y322480D01*
X142307Y322478D01*
X142307Y316478D01*
X142309Y316475D01*
X142307Y316473D01*
X142418Y315297D01*
X142423Y315292D01*
X142420Y315288D01*
X142758Y314156D01*
X142764Y314152D01*
X142762Y314147D01*
X143314Y313103D01*
X143321Y313100D01*
X143319Y313095D01*
X144065Y312179D01*
X144072Y312178D01*
X144072Y312172D01*
X144982Y311419D01*
X144989Y311419D01*
X144990Y311414D01*
X146029Y310853D01*
X146036Y310854D01*
X146038Y310849D01*
X147167Y310502D01*
X147173Y310504D01*
X147176Y310500D01*
X148351Y310379D01*
X148358Y310383D01*
G37*
G36*
X473438Y310383D02*
X473438Y310383D01*
X473442Y310379D01*
X474782Y310536D01*
X474788Y310541D01*
X474793Y310538D01*
X476064Y310989D01*
X476069Y310996D01*
X476074Y310994D01*
X477213Y311716D01*
X477216Y311724D01*
X477222Y311723D01*
X478172Y312681D01*
X478173Y312689D01*
X478179Y312690D01*
X478892Y313835D01*
X478891Y313844D01*
X478897Y313845D01*
X479337Y315121D01*
X479335Y315128D01*
X479339Y315131D01*
X479485Y316473D01*
X479483Y316476D01*
X479485Y316478D01*
X479485Y322478D01*
X479483Y322482D01*
X479485Y322484D01*
X479330Y323813D01*
X479324Y323819D01*
X479327Y323823D01*
X478880Y325084D01*
X478873Y325089D01*
X478875Y325094D01*
X478158Y326224D01*
X478151Y326227D01*
X478152Y326233D01*
X477202Y327175D01*
X477193Y327176D01*
X477193Y327182D01*
X476057Y327889D01*
X476049Y327888D01*
X476047Y327894D01*
X474782Y328330D01*
X474774Y328328D01*
X474772Y328333D01*
X473441Y328477D01*
X473435Y328473D01*
X473431Y328477D01*
X472265Y328367D01*
X472260Y328362D01*
X472256Y328365D01*
X471133Y328030D01*
X471129Y328024D01*
X471125Y328026D01*
X470089Y327478D01*
X470086Y327472D01*
X470081Y327473D01*
X469173Y326734D01*
X469171Y326727D01*
X469166Y326727D01*
X468419Y325825D01*
X468419Y325818D01*
X468414Y325817D01*
X467857Y324786D01*
X467858Y324779D01*
X467853Y324777D01*
X467509Y323658D01*
X467511Y323651D01*
X467507Y323648D01*
X467387Y322483D01*
X467389Y322480D01*
X467387Y322478D01*
X467387Y316478D01*
X467389Y316475D01*
X467387Y316473D01*
X467498Y315297D01*
X467503Y315292D01*
X467500Y315288D01*
X467838Y314156D01*
X467844Y314152D01*
X467842Y314147D01*
X468394Y313103D01*
X468401Y313100D01*
X468399Y313095D01*
X469145Y312179D01*
X469152Y312178D01*
X469152Y312172D01*
X470062Y311419D01*
X470069Y311419D01*
X470070Y311414D01*
X471109Y310853D01*
X471116Y310854D01*
X471118Y310849D01*
X472247Y310502D01*
X472253Y310504D01*
X472256Y310500D01*
X473431Y310379D01*
X473438Y310383D01*
G37*
G36*
X61958Y310383D02*
X61958Y310383D01*
X61962Y310379D01*
X63302Y310536D01*
X63308Y310541D01*
X63313Y310538D01*
X64584Y310989D01*
X64589Y310996D01*
X64594Y310994D01*
X65733Y311716D01*
X65736Y311724D01*
X65742Y311723D01*
X66692Y312681D01*
X66693Y312689D01*
X66699Y312690D01*
X67412Y313835D01*
X67411Y313844D01*
X67417Y313845D01*
X67857Y315121D01*
X67855Y315128D01*
X67859Y315131D01*
X68005Y316473D01*
X68003Y316476D01*
X68005Y316478D01*
X68005Y322478D01*
X68003Y322482D01*
X68005Y322484D01*
X67850Y323813D01*
X67844Y323819D01*
X67847Y323823D01*
X67400Y325084D01*
X67393Y325089D01*
X67395Y325094D01*
X66678Y326224D01*
X66671Y326227D01*
X66672Y326233D01*
X65722Y327175D01*
X65713Y327176D01*
X65713Y327182D01*
X64577Y327889D01*
X64569Y327888D01*
X64567Y327894D01*
X63302Y328330D01*
X63294Y328328D01*
X63292Y328333D01*
X61961Y328477D01*
X61955Y328473D01*
X61951Y328477D01*
X60785Y328367D01*
X60780Y328362D01*
X60776Y328365D01*
X59653Y328030D01*
X59649Y328024D01*
X59645Y328026D01*
X58609Y327478D01*
X58606Y327472D01*
X58601Y327473D01*
X57693Y326734D01*
X57691Y326727D01*
X57686Y326727D01*
X56939Y325825D01*
X56939Y325818D01*
X56934Y325817D01*
X56377Y324786D01*
X56378Y324779D01*
X56373Y324777D01*
X56029Y323658D01*
X56031Y323651D01*
X56027Y323648D01*
X55907Y322483D01*
X55909Y322480D01*
X55907Y322478D01*
X55907Y316478D01*
X55909Y316475D01*
X55907Y316473D01*
X56018Y315297D01*
X56023Y315292D01*
X56020Y315288D01*
X56358Y314156D01*
X56364Y314152D01*
X56362Y314147D01*
X56914Y313103D01*
X56921Y313100D01*
X56919Y313095D01*
X57665Y312179D01*
X57672Y312178D01*
X57672Y312172D01*
X58582Y311419D01*
X58589Y311419D01*
X58590Y311414D01*
X59629Y310853D01*
X59636Y310854D01*
X59638Y310849D01*
X60767Y310502D01*
X60773Y310504D01*
X60776Y310500D01*
X61951Y310379D01*
X61958Y310383D01*
G37*
G36*
X559838Y310383D02*
X559838Y310383D01*
X559842Y310379D01*
X561182Y310536D01*
X561188Y310541D01*
X561193Y310538D01*
X562464Y310989D01*
X562469Y310996D01*
X562474Y310994D01*
X563613Y311716D01*
X563616Y311724D01*
X563622Y311723D01*
X564572Y312681D01*
X564573Y312689D01*
X564579Y312690D01*
X565292Y313835D01*
X565291Y313844D01*
X565297Y313845D01*
X565737Y315121D01*
X565735Y315128D01*
X565739Y315131D01*
X565885Y316473D01*
X565883Y316476D01*
X565885Y316478D01*
X565885Y322478D01*
X565883Y322482D01*
X565885Y322484D01*
X565730Y323813D01*
X565724Y323819D01*
X565727Y323823D01*
X565280Y325084D01*
X565273Y325089D01*
X565275Y325094D01*
X564558Y326224D01*
X564551Y326227D01*
X564552Y326233D01*
X563602Y327175D01*
X563593Y327176D01*
X563593Y327182D01*
X562457Y327889D01*
X562449Y327888D01*
X562447Y327894D01*
X561182Y328330D01*
X561174Y328328D01*
X561172Y328333D01*
X559841Y328477D01*
X559835Y328473D01*
X559831Y328477D01*
X558665Y328367D01*
X558660Y328362D01*
X558656Y328365D01*
X557533Y328030D01*
X557529Y328024D01*
X557525Y328026D01*
X556489Y327478D01*
X556486Y327472D01*
X556481Y327473D01*
X555573Y326734D01*
X555571Y326727D01*
X555566Y326727D01*
X554819Y325825D01*
X554819Y325818D01*
X554814Y325817D01*
X554257Y324786D01*
X554258Y324779D01*
X554253Y324777D01*
X553909Y323658D01*
X553911Y323651D01*
X553907Y323648D01*
X553787Y322483D01*
X553789Y322480D01*
X553787Y322478D01*
X553787Y316478D01*
X553789Y316475D01*
X553787Y316473D01*
X553898Y315297D01*
X553903Y315292D01*
X553900Y315288D01*
X554238Y314156D01*
X554244Y314152D01*
X554242Y314147D01*
X554794Y313103D01*
X554801Y313100D01*
X554799Y313095D01*
X555545Y312179D01*
X555552Y312178D01*
X555552Y312172D01*
X556462Y311419D01*
X556469Y311419D01*
X556470Y311414D01*
X557509Y310853D01*
X557516Y310854D01*
X557518Y310849D01*
X558647Y310502D01*
X558653Y310504D01*
X558656Y310500D01*
X559831Y310379D01*
X559838Y310383D01*
G37*
D10*
X25400Y304546D03*
X381000Y304546D03*
D11*
X400050Y6350D03*
X6350Y323596D03*
D12*
X14050Y190306D03*
X14050Y134306D03*
D13*
X50800Y177306D03*
X50800Y167306D03*
X50800Y157306D03*
X50800Y147306D03*
D12*
X392350Y134306D03*
X392350Y190306D03*
D13*
X355600Y147306D03*
X355600Y157306D03*
X355600Y167306D03*
X355600Y177306D03*
D14*
X110100Y157226D03*
X93100Y157226D03*
X110100Y141986D03*
X93100Y141986D03*
X110100Y127254D03*
X93100Y127254D03*
D15*
X36480Y78020D03*
D16*
X25908Y219846D03*
X25908Y236846D03*
X42164Y219846D03*
X42164Y236846D03*
D17*
X363794Y73460D02*
X370774Y73460D01*
X370774Y66480D01*
X363794Y66480D01*
X363794Y73460D01*
X363794Y71280D02*
X370774Y71280D01*
X370774Y91000D02*
X363794Y91000D01*
X370774Y91000D02*
X370774Y84020D01*
X363794Y84020D01*
X363794Y91000D01*
X363794Y88820D02*
X370774Y88820D01*
D18*
X90100Y93726D03*
X113100Y93726D03*
D14*
X110100Y108966D03*
X93100Y108966D03*
X372500Y103124D03*
X389500Y103124D03*
X110100Y187706D03*
X93100Y187706D03*
X110100Y172466D03*
X93100Y172466D03*
D10*
X25400Y25400D03*
X381000Y25400D03*
D19*
X317500Y208246D03*
X317500Y235746D03*
D20*
X302250Y221996D03*
X332750Y221996D03*
D16*
X283718Y149742D03*
X283718Y166742D03*
D14*
X93100Y78994D03*
X110100Y78994D03*
D17*
X390464Y73460D02*
X397444Y73460D01*
X397444Y66480D01*
X390464Y66480D01*
X390464Y73460D01*
X390464Y71280D02*
X397444Y71280D01*
X397444Y91000D02*
X390464Y91000D01*
X397444Y91000D02*
X397444Y84020D01*
X390464Y84020D01*
X390464Y91000D01*
X390464Y88820D02*
X397444Y88820D01*
D14*
X389500Y118364D03*
X372500Y118364D03*
D21*
X324151Y148996D03*
X324151Y158496D03*
X324151Y167996D03*
X298149Y167996D03*
X298149Y148996D03*
D16*
X339090Y166996D03*
X339090Y149996D03*
X95504Y227956D03*
X95504Y210956D03*
X113792Y228464D03*
X113792Y211464D03*
D14*
X317890Y185166D03*
X334890Y185166D03*
X301870Y185166D03*
X284870Y185166D03*
D16*
X169672Y300600D03*
X169672Y283600D03*
X287020Y220336D03*
X287020Y203336D03*
D22*
X190500Y317246D03*
X215900Y317246D03*
X241300Y317246D03*
X266700Y317246D03*
X292100Y317246D03*
X317500Y317246D03*
X342900Y317246D03*
D23*
X107616Y248398D03*
D24*
X102616Y248648D03*
X97616Y248648D03*
X97616Y240048D03*
X102616Y240048D03*
X107616Y240048D03*
D22*
X241300Y12700D03*
X266700Y12700D03*
X292100Y12700D03*
X317500Y12700D03*
D25*
X97656Y271878D03*
X102656Y271878D03*
D26*
X72906Y271878D03*
X80656Y271878D03*
D25*
X87656Y271878D03*
X92656Y271878D03*
X112656Y271878D03*
X107656Y271878D03*
D26*
X137406Y271878D03*
X129656Y271878D03*
D25*
X122656Y271878D03*
X117656Y271878D03*
D27*
X134056Y282928D03*
X76256Y282928D03*
D16*
X74422Y219846D03*
X74422Y236846D03*
X58420Y219846D03*
X58420Y236846D03*
D22*
X139700Y12700D03*
X165100Y12700D03*
X190500Y12700D03*
X215900Y12700D03*
D28*
X263200Y93830D03*
X263200Y104830D03*
X263200Y115830D03*
X263200Y126830D03*
X263200Y137830D03*
X263200Y148830D03*
X263200Y159830D03*
X263200Y189830D03*
X263200Y200830D03*
X263200Y211830D03*
X263200Y222830D03*
X263200Y233830D03*
X143200Y233830D03*
X143200Y222830D03*
X143200Y211830D03*
X143200Y200830D03*
X143200Y189830D03*
X143200Y159830D03*
X143200Y148830D03*
X143200Y137830D03*
X143200Y126830D03*
X143200Y115830D03*
X143200Y104830D03*
X143200Y93830D03*
D10*
X436880Y304546D03*
X792480Y304546D03*
D11*
X811530Y6350D03*
X417830Y323596D03*
D12*
X425530Y190306D03*
X425530Y134306D03*
D13*
X462280Y177306D03*
X462280Y167306D03*
X462280Y157306D03*
X462280Y147306D03*
D12*
X803830Y134306D03*
X803830Y190306D03*
D13*
X767080Y147306D03*
X767080Y157306D03*
X767080Y167306D03*
X767080Y177306D03*
D14*
X521580Y157226D03*
X504580Y157226D03*
X521580Y141986D03*
X504580Y141986D03*
X521580Y127254D03*
X504580Y127254D03*
D15*
X447960Y78020D03*
D16*
X437388Y219846D03*
X437388Y236846D03*
X453644Y219846D03*
X453644Y236846D03*
D17*
X775274Y73460D02*
X782254Y73460D01*
X782254Y66480D01*
X775274Y66480D01*
X775274Y73460D01*
X775274Y71280D02*
X782254Y71280D01*
X782254Y91000D02*
X775274Y91000D01*
X782254Y91000D02*
X782254Y84020D01*
X775274Y84020D01*
X775274Y91000D01*
X775274Y88820D02*
X782254Y88820D01*
D18*
X501580Y93726D03*
X524580Y93726D03*
D14*
X521580Y108966D03*
X504580Y108966D03*
X783980Y103124D03*
X800980Y103124D03*
X521580Y187706D03*
X504580Y187706D03*
X521580Y172466D03*
X504580Y172466D03*
D10*
X436880Y25400D03*
X792480Y25400D03*
D19*
X728980Y208246D03*
X728980Y235746D03*
D20*
X713730Y221996D03*
X744230Y221996D03*
D16*
X695198Y149742D03*
X695198Y166742D03*
D14*
X504580Y78994D03*
X521580Y78994D03*
D17*
X801944Y73460D02*
X808924Y73460D01*
X808924Y66480D01*
X801944Y66480D01*
X801944Y73460D01*
X801944Y71280D02*
X808924Y71280D01*
X808924Y91000D02*
X801944Y91000D01*
X808924Y91000D02*
X808924Y84020D01*
X801944Y84020D01*
X801944Y91000D01*
X801944Y88820D02*
X808924Y88820D01*
D14*
X800980Y118364D03*
X783980Y118364D03*
D21*
X735631Y148996D03*
X735631Y158496D03*
X735631Y167996D03*
X709629Y167996D03*
X709629Y148996D03*
D16*
X750570Y166996D03*
X750570Y149996D03*
X506984Y227956D03*
X506984Y210956D03*
X525272Y228464D03*
X525272Y211464D03*
D14*
X729370Y185166D03*
X746370Y185166D03*
X713350Y185166D03*
X696350Y185166D03*
D16*
X581152Y300600D03*
X581152Y283600D03*
X698500Y220336D03*
X698500Y203336D03*
D22*
X601980Y317246D03*
X627380Y317246D03*
X652780Y317246D03*
X678180Y317246D03*
X703580Y317246D03*
X728980Y317246D03*
X754380Y317246D03*
D23*
X519096Y248398D03*
D24*
X514096Y248648D03*
X509096Y248648D03*
X509096Y240048D03*
X514096Y240048D03*
X519096Y240048D03*
D22*
X652780Y12700D03*
X678180Y12700D03*
X703580Y12700D03*
X728980Y12700D03*
D25*
X509136Y271878D03*
X514136Y271878D03*
D26*
X484386Y271878D03*
X492136Y271878D03*
D25*
X499136Y271878D03*
X504136Y271878D03*
X524136Y271878D03*
X519136Y271878D03*
D26*
X548886Y271878D03*
X541136Y271878D03*
D25*
X534136Y271878D03*
X529136Y271878D03*
D27*
X545536Y282928D03*
X487736Y282928D03*
D16*
X485902Y219846D03*
X485902Y236846D03*
X469900Y219846D03*
X469900Y236846D03*
D22*
X551180Y12700D03*
X576580Y12700D03*
X601980Y12700D03*
X627380Y12700D03*
D28*
X674680Y93830D03*
X674680Y104830D03*
X674680Y115830D03*
X674680Y126830D03*
X674680Y137830D03*
X674680Y148830D03*
X674680Y159830D03*
X674680Y189830D03*
X674680Y200830D03*
X674680Y211830D03*
X674680Y222830D03*
X674680Y233830D03*
X554680Y233830D03*
X554680Y222830D03*
X554680Y211830D03*
X554680Y200830D03*
X554680Y189830D03*
X554680Y159830D03*
X554680Y148830D03*
X554680Y137830D03*
X554680Y126830D03*
X554680Y115830D03*
X554680Y104830D03*
X554680Y93830D03*
D10*
X25400Y664972D03*
X381000Y664972D03*
D11*
X400050Y366776D03*
X6350Y684022D03*
D12*
X14050Y550732D03*
X14050Y494732D03*
D13*
X50800Y537732D03*
X50800Y527732D03*
X50800Y517732D03*
X50800Y507732D03*
D12*
X392350Y494732D03*
X392350Y550732D03*
D13*
X355600Y507732D03*
X355600Y517732D03*
X355600Y527732D03*
X355600Y537732D03*
D14*
X110100Y517652D03*
X93100Y517652D03*
X110100Y502412D03*
X93100Y502412D03*
X110100Y487680D03*
X93100Y487680D03*
D15*
X36480Y438446D03*
D16*
X25908Y580272D03*
X25908Y597272D03*
X42164Y580272D03*
X42164Y597272D03*
D17*
X363794Y433886D02*
X370774Y433886D01*
X370774Y426906D01*
X363794Y426906D01*
X363794Y433886D01*
X363794Y431706D02*
X370774Y431706D01*
X370774Y451426D02*
X363794Y451426D01*
X370774Y451426D02*
X370774Y444446D01*
X363794Y444446D01*
X363794Y451426D01*
X363794Y449246D02*
X370774Y449246D01*
D18*
X90100Y454152D03*
X113100Y454152D03*
D14*
X110100Y469392D03*
X93100Y469392D03*
X372500Y463550D03*
X389500Y463550D03*
X110100Y548132D03*
X93100Y548132D03*
X110100Y532892D03*
X93100Y532892D03*
D10*
X25400Y385826D03*
X381000Y385826D03*
D19*
X317500Y568672D03*
X317500Y596172D03*
D20*
X302250Y582422D03*
X332750Y582422D03*
D16*
X283718Y510168D03*
X283718Y527168D03*
D14*
X93100Y439420D03*
X110100Y439420D03*
D17*
X390464Y433886D02*
X397444Y433886D01*
X397444Y426906D01*
X390464Y426906D01*
X390464Y433886D01*
X390464Y431706D02*
X397444Y431706D01*
X397444Y451426D02*
X390464Y451426D01*
X397444Y451426D02*
X397444Y444446D01*
X390464Y444446D01*
X390464Y451426D01*
X390464Y449246D02*
X397444Y449246D01*
D14*
X389500Y478790D03*
X372500Y478790D03*
D21*
X324151Y509422D03*
X324151Y518922D03*
X324151Y528422D03*
X298149Y528422D03*
X298149Y509422D03*
D16*
X339090Y527422D03*
X339090Y510422D03*
X95504Y588382D03*
X95504Y571382D03*
X113792Y588890D03*
X113792Y571890D03*
D14*
X317890Y545592D03*
X334890Y545592D03*
X301870Y545592D03*
X284870Y545592D03*
D16*
X169672Y661026D03*
X169672Y644026D03*
X287020Y580762D03*
X287020Y563762D03*
D22*
X190500Y677672D03*
X215900Y677672D03*
X241300Y677672D03*
X266700Y677672D03*
X292100Y677672D03*
X317500Y677672D03*
X342900Y677672D03*
D23*
X107616Y608824D03*
D24*
X102616Y609074D03*
X97616Y609074D03*
X97616Y600474D03*
X102616Y600474D03*
X107616Y600474D03*
D22*
X241300Y373126D03*
X266700Y373126D03*
X292100Y373126D03*
X317500Y373126D03*
D25*
X97656Y632304D03*
X102656Y632304D03*
D26*
X72906Y632304D03*
X80656Y632304D03*
D25*
X87656Y632304D03*
X92656Y632304D03*
X112656Y632304D03*
X107656Y632304D03*
D26*
X137406Y632304D03*
X129656Y632304D03*
D25*
X122656Y632304D03*
X117656Y632304D03*
D27*
X134056Y643354D03*
X76256Y643354D03*
D16*
X74422Y580272D03*
X74422Y597272D03*
X58420Y580272D03*
X58420Y597272D03*
D22*
X139700Y373126D03*
X165100Y373126D03*
X190500Y373126D03*
X215900Y373126D03*
D28*
X263200Y454256D03*
X263200Y465256D03*
X263200Y476256D03*
X263200Y487256D03*
X263200Y498256D03*
X263200Y509256D03*
X263200Y520256D03*
X263200Y550256D03*
X263200Y561256D03*
X263200Y572256D03*
X263200Y583256D03*
X263200Y594256D03*
X143200Y594256D03*
X143200Y583256D03*
X143200Y572256D03*
X143200Y561256D03*
X143200Y550256D03*
X143200Y520256D03*
X143200Y509256D03*
X143200Y498256D03*
X143200Y487256D03*
X143200Y476256D03*
X143200Y465256D03*
X143200Y454256D03*
D10*
X436880Y664972D03*
X792480Y664972D03*
D11*
X811530Y366776D03*
X417830Y684022D03*
D12*
X425530Y550732D03*
X425530Y494732D03*
D13*
X462280Y537732D03*
X462280Y527732D03*
X462280Y517732D03*
X462280Y507732D03*
D12*
X803830Y494732D03*
X803830Y550732D03*
D13*
X767080Y507732D03*
X767080Y517732D03*
X767080Y527732D03*
X767080Y537732D03*
D14*
X521580Y517652D03*
X504580Y517652D03*
X521580Y502412D03*
X504580Y502412D03*
X521580Y487680D03*
X504580Y487680D03*
D15*
X447960Y438446D03*
D16*
X437388Y580272D03*
X437388Y597272D03*
X453644Y580272D03*
X453644Y597272D03*
D17*
X775274Y433886D02*
X782254Y433886D01*
X782254Y426906D01*
X775274Y426906D01*
X775274Y433886D01*
X775274Y431706D02*
X782254Y431706D01*
X782254Y451426D02*
X775274Y451426D01*
X782254Y451426D02*
X782254Y444446D01*
X775274Y444446D01*
X775274Y451426D01*
X775274Y449246D02*
X782254Y449246D01*
D18*
X501580Y454152D03*
X524580Y454152D03*
D14*
X521580Y469392D03*
X504580Y469392D03*
X783980Y463550D03*
X800980Y463550D03*
X521580Y548132D03*
X504580Y548132D03*
X521580Y532892D03*
X504580Y532892D03*
D10*
X436880Y385826D03*
X792480Y385826D03*
D19*
X728980Y568672D03*
X728980Y596172D03*
D20*
X713730Y582422D03*
X744230Y582422D03*
D16*
X695198Y510168D03*
X695198Y527168D03*
D14*
X504580Y439420D03*
X521580Y439420D03*
D17*
X801944Y433886D02*
X808924Y433886D01*
X808924Y426906D01*
X801944Y426906D01*
X801944Y433886D01*
X801944Y431706D02*
X808924Y431706D01*
X808924Y451426D02*
X801944Y451426D01*
X808924Y451426D02*
X808924Y444446D01*
X801944Y444446D01*
X801944Y451426D01*
X801944Y449246D02*
X808924Y449246D01*
D14*
X800980Y478790D03*
X783980Y478790D03*
D21*
X735631Y509422D03*
X735631Y518922D03*
X735631Y528422D03*
X709629Y528422D03*
X709629Y509422D03*
D16*
X750570Y527422D03*
X750570Y510422D03*
X506984Y588382D03*
X506984Y571382D03*
X525272Y588890D03*
X525272Y571890D03*
D14*
X729370Y545592D03*
X746370Y545592D03*
X713350Y545592D03*
X696350Y545592D03*
D16*
X581152Y661026D03*
X581152Y644026D03*
X698500Y580762D03*
X698500Y563762D03*
D22*
X601980Y677672D03*
X627380Y677672D03*
X652780Y677672D03*
X678180Y677672D03*
X703580Y677672D03*
X728980Y677672D03*
X754380Y677672D03*
D23*
X519096Y608824D03*
D24*
X514096Y609074D03*
X509096Y609074D03*
X509096Y600474D03*
X514096Y600474D03*
X519096Y600474D03*
D22*
X652780Y373126D03*
X678180Y373126D03*
X703580Y373126D03*
X728980Y373126D03*
D25*
X509136Y632304D03*
X514136Y632304D03*
D26*
X484386Y632304D03*
X492136Y632304D03*
D25*
X499136Y632304D03*
X504136Y632304D03*
X524136Y632304D03*
X519136Y632304D03*
D26*
X548886Y632304D03*
X541136Y632304D03*
D25*
X534136Y632304D03*
X529136Y632304D03*
D27*
X545536Y643354D03*
X487736Y643354D03*
D16*
X485902Y580272D03*
X485902Y597272D03*
X469900Y580272D03*
X469900Y597272D03*
D22*
X551180Y373126D03*
X576580Y373126D03*
X601980Y373126D03*
X627380Y373126D03*
D28*
X674680Y454256D03*
X674680Y465256D03*
X674680Y476256D03*
X674680Y487256D03*
X674680Y498256D03*
X674680Y509256D03*
X674680Y520256D03*
X674680Y550256D03*
X674680Y561256D03*
X674680Y572256D03*
X674680Y583256D03*
X674680Y594256D03*
X554680Y594256D03*
X554680Y583256D03*
X554680Y572256D03*
X554680Y561256D03*
X554680Y550256D03*
X554680Y520256D03*
X554680Y509256D03*
X554680Y498256D03*
X554680Y487256D03*
X554680Y476256D03*
X554680Y465256D03*
X554680Y454256D03*
D10*
X25400Y1025398D03*
X381000Y1025398D03*
D11*
X400050Y727202D03*
X6350Y1044448D03*
D12*
X14050Y911158D03*
X14050Y855158D03*
D13*
X50800Y898158D03*
X50800Y888158D03*
X50800Y878158D03*
X50800Y868158D03*
D12*
X392350Y855158D03*
X392350Y911158D03*
D13*
X355600Y868158D03*
X355600Y878158D03*
X355600Y888158D03*
X355600Y898158D03*
D14*
X110100Y878078D03*
X93100Y878078D03*
X110100Y862838D03*
X93100Y862838D03*
X110100Y848106D03*
X93100Y848106D03*
D15*
X36480Y798872D03*
D16*
X25908Y940698D03*
X25908Y957698D03*
X42164Y940698D03*
X42164Y957698D03*
D17*
X363794Y794312D02*
X370774Y794312D01*
X370774Y787332D01*
X363794Y787332D01*
X363794Y794312D01*
X363794Y792132D02*
X370774Y792132D01*
X370774Y811852D02*
X363794Y811852D01*
X370774Y811852D02*
X370774Y804872D01*
X363794Y804872D01*
X363794Y811852D01*
X363794Y809672D02*
X370774Y809672D01*
D18*
X90100Y814578D03*
X113100Y814578D03*
D14*
X110100Y829818D03*
X93100Y829818D03*
X372500Y823976D03*
X389500Y823976D03*
X110100Y908558D03*
X93100Y908558D03*
X110100Y893318D03*
X93100Y893318D03*
D10*
X25400Y746252D03*
X381000Y746252D03*
D19*
X317500Y929098D03*
X317500Y956598D03*
D20*
X302250Y942848D03*
X332750Y942848D03*
D16*
X283718Y870594D03*
X283718Y887594D03*
D14*
X93100Y799846D03*
X110100Y799846D03*
D17*
X390464Y794312D02*
X397444Y794312D01*
X397444Y787332D01*
X390464Y787332D01*
X390464Y794312D01*
X390464Y792132D02*
X397444Y792132D01*
X397444Y811852D02*
X390464Y811852D01*
X397444Y811852D02*
X397444Y804872D01*
X390464Y804872D01*
X390464Y811852D01*
X390464Y809672D02*
X397444Y809672D01*
D14*
X389500Y839216D03*
X372500Y839216D03*
D21*
X324151Y869848D03*
X324151Y879348D03*
X324151Y888848D03*
X298149Y888848D03*
X298149Y869848D03*
D16*
X339090Y887848D03*
X339090Y870848D03*
X95504Y948808D03*
X95504Y931808D03*
X113792Y949316D03*
X113792Y932316D03*
D14*
X317890Y906018D03*
X334890Y906018D03*
X301870Y906018D03*
X284870Y906018D03*
D16*
X169672Y1021452D03*
X169672Y1004452D03*
X287020Y941188D03*
X287020Y924188D03*
D22*
X190500Y1038098D03*
X215900Y1038098D03*
X241300Y1038098D03*
X266700Y1038098D03*
X292100Y1038098D03*
X317500Y1038098D03*
X342900Y1038098D03*
D23*
X107616Y969250D03*
D24*
X102616Y969500D03*
X97616Y969500D03*
X97616Y960900D03*
X102616Y960900D03*
X107616Y960900D03*
D22*
X241300Y733552D03*
X266700Y733552D03*
X292100Y733552D03*
X317500Y733552D03*
D25*
X97656Y992730D03*
X102656Y992730D03*
D26*
X72906Y992730D03*
X80656Y992730D03*
D25*
X87656Y992730D03*
X92656Y992730D03*
X112656Y992730D03*
X107656Y992730D03*
D26*
X137406Y992730D03*
X129656Y992730D03*
D25*
X122656Y992730D03*
X117656Y992730D03*
D27*
X134056Y1003780D03*
X76256Y1003780D03*
D16*
X74422Y940698D03*
X74422Y957698D03*
X58420Y940698D03*
X58420Y957698D03*
D22*
X139700Y733552D03*
X165100Y733552D03*
X190500Y733552D03*
X215900Y733552D03*
D28*
X263200Y814682D03*
X263200Y825682D03*
X263200Y836682D03*
X263200Y847682D03*
X263200Y858682D03*
X263200Y869682D03*
X263200Y880682D03*
X263200Y910682D03*
X263200Y921682D03*
X263200Y932682D03*
X263200Y943682D03*
X263200Y954682D03*
X143200Y954682D03*
X143200Y943682D03*
X143200Y932682D03*
X143200Y921682D03*
X143200Y910682D03*
X143200Y880682D03*
X143200Y869682D03*
X143200Y858682D03*
X143200Y847682D03*
X143200Y836682D03*
X143200Y825682D03*
X143200Y814682D03*
D10*
X436880Y1025398D03*
X792480Y1025398D03*
D11*
X811530Y727202D03*
X417830Y1044448D03*
D12*
X425530Y911158D03*
X425530Y855158D03*
D13*
X462280Y898158D03*
X462280Y888158D03*
X462280Y878158D03*
X462280Y868158D03*
D12*
X803830Y855158D03*
X803830Y911158D03*
D13*
X767080Y868158D03*
X767080Y878158D03*
X767080Y888158D03*
X767080Y898158D03*
D14*
X521580Y878078D03*
X504580Y878078D03*
X521580Y862838D03*
X504580Y862838D03*
X521580Y848106D03*
X504580Y848106D03*
D15*
X447960Y798872D03*
D16*
X437388Y940698D03*
X437388Y957698D03*
X453644Y940698D03*
X453644Y957698D03*
D17*
X775274Y794312D02*
X782254Y794312D01*
X782254Y787332D01*
X775274Y787332D01*
X775274Y794312D01*
X775274Y792132D02*
X782254Y792132D01*
X782254Y811852D02*
X775274Y811852D01*
X782254Y811852D02*
X782254Y804872D01*
X775274Y804872D01*
X775274Y811852D01*
X775274Y809672D02*
X782254Y809672D01*
D18*
X501580Y814578D03*
X524580Y814578D03*
D14*
X521580Y829818D03*
X504580Y829818D03*
X783980Y823976D03*
X800980Y823976D03*
X521580Y908558D03*
X504580Y908558D03*
X521580Y893318D03*
X504580Y893318D03*
D10*
X436880Y746252D03*
X792480Y746252D03*
D19*
X728980Y929098D03*
X728980Y956598D03*
D20*
X713730Y942848D03*
X744230Y942848D03*
D16*
X695198Y870594D03*
X695198Y887594D03*
D14*
X504580Y799846D03*
X521580Y799846D03*
D17*
X801944Y794312D02*
X808924Y794312D01*
X808924Y787332D01*
X801944Y787332D01*
X801944Y794312D01*
X801944Y792132D02*
X808924Y792132D01*
X808924Y811852D02*
X801944Y811852D01*
X808924Y811852D02*
X808924Y804872D01*
X801944Y804872D01*
X801944Y811852D01*
X801944Y809672D02*
X808924Y809672D01*
D14*
X800980Y839216D03*
X783980Y839216D03*
D21*
X735631Y869848D03*
X735631Y879348D03*
X735631Y888848D03*
X709629Y888848D03*
X709629Y869848D03*
D16*
X750570Y887848D03*
X750570Y870848D03*
X506984Y948808D03*
X506984Y931808D03*
X525272Y949316D03*
X525272Y932316D03*
D14*
X729370Y906018D03*
X746370Y906018D03*
X713350Y906018D03*
X696350Y906018D03*
D16*
X581152Y1021452D03*
X581152Y1004452D03*
X698500Y941188D03*
X698500Y924188D03*
D22*
X601980Y1038098D03*
X627380Y1038098D03*
X652780Y1038098D03*
X678180Y1038098D03*
X703580Y1038098D03*
X728980Y1038098D03*
X754380Y1038098D03*
D23*
X519096Y969250D03*
D24*
X514096Y969500D03*
X509096Y969500D03*
X509096Y960900D03*
X514096Y960900D03*
X519096Y960900D03*
D22*
X652780Y733552D03*
X678180Y733552D03*
X703580Y733552D03*
X728980Y733552D03*
D25*
X509136Y992730D03*
X514136Y992730D03*
D26*
X484386Y992730D03*
X492136Y992730D03*
D25*
X499136Y992730D03*
X504136Y992730D03*
X524136Y992730D03*
X519136Y992730D03*
D26*
X548886Y992730D03*
X541136Y992730D03*
D25*
X534136Y992730D03*
X529136Y992730D03*
D27*
X545536Y1003780D03*
X487736Y1003780D03*
D16*
X485902Y940698D03*
X485902Y957698D03*
X469900Y940698D03*
X469900Y957698D03*
D22*
X551180Y733552D03*
X576580Y733552D03*
X601980Y733552D03*
X627380Y733552D03*
D28*
X674680Y814682D03*
X674680Y825682D03*
X674680Y836682D03*
X674680Y847682D03*
X674680Y858682D03*
X674680Y869682D03*
X674680Y880682D03*
X674680Y910682D03*
X674680Y921682D03*
X674680Y932682D03*
X674680Y943682D03*
X674680Y954682D03*
X554680Y954682D03*
X554680Y943682D03*
X554680Y932682D03*
X554680Y921682D03*
X554680Y910682D03*
X554680Y880682D03*
X554680Y869682D03*
X554680Y858682D03*
X554680Y847682D03*
X554680Y836682D03*
X554680Y825682D03*
X554680Y814682D03*
D29*
X68580Y1097153D03*
X748665Y1097153D03*
D30*
X59525Y-46355D02*
X59528Y-46133D01*
X59536Y-45911D01*
X59550Y-45689D01*
X59569Y-45467D01*
X59593Y-45247D01*
X59623Y-45026D01*
X59658Y-44807D01*
X59699Y-44588D01*
X59745Y-44371D01*
X59796Y-44155D01*
X59853Y-43940D01*
X59915Y-43726D01*
X59982Y-43515D01*
X60054Y-43304D01*
X60132Y-43096D01*
X60214Y-42890D01*
X60302Y-42686D01*
X60394Y-42483D01*
X60492Y-42284D01*
X60594Y-42087D01*
X60701Y-41892D01*
X60813Y-41700D01*
X60930Y-41511D01*
X61051Y-41324D01*
X61177Y-41141D01*
X61307Y-40961D01*
X61442Y-40784D01*
X61580Y-40611D01*
X61723Y-40441D01*
X61871Y-40274D01*
X62022Y-40111D01*
X62177Y-39952D01*
X62336Y-39797D01*
X62499Y-39646D01*
X62666Y-39498D01*
X62836Y-39355D01*
X63009Y-39217D01*
X63186Y-39082D01*
X63366Y-38952D01*
X63549Y-38826D01*
X63736Y-38705D01*
X63925Y-38588D01*
X64117Y-38476D01*
X64312Y-38369D01*
X64509Y-38267D01*
X64708Y-38169D01*
X64911Y-38077D01*
X65115Y-37989D01*
X65321Y-37907D01*
X65529Y-37829D01*
X65740Y-37757D01*
X65951Y-37690D01*
X66165Y-37628D01*
X66380Y-37571D01*
X66596Y-37520D01*
X66813Y-37474D01*
X67032Y-37433D01*
X67251Y-37398D01*
X67472Y-37368D01*
X67692Y-37344D01*
X67914Y-37325D01*
X68136Y-37311D01*
X68358Y-37303D01*
X68580Y-37300D01*
X68802Y-37303D01*
X69024Y-37311D01*
X69246Y-37325D01*
X69468Y-37344D01*
X69688Y-37368D01*
X69909Y-37398D01*
X70128Y-37433D01*
X70347Y-37474D01*
X70564Y-37520D01*
X70780Y-37571D01*
X70995Y-37628D01*
X71209Y-37690D01*
X71420Y-37757D01*
X71631Y-37829D01*
X71839Y-37907D01*
X72045Y-37989D01*
X72249Y-38077D01*
X72452Y-38169D01*
X72651Y-38267D01*
X72848Y-38369D01*
X73043Y-38476D01*
X73235Y-38588D01*
X73424Y-38705D01*
X73611Y-38826D01*
X73794Y-38952D01*
X73974Y-39082D01*
X74151Y-39217D01*
X74324Y-39355D01*
X74494Y-39498D01*
X74661Y-39646D01*
X74824Y-39797D01*
X74983Y-39952D01*
X75138Y-40111D01*
X75289Y-40274D01*
X75437Y-40441D01*
X75580Y-40611D01*
X75718Y-40784D01*
X75853Y-40961D01*
X75983Y-41141D01*
X76109Y-41324D01*
X76230Y-41511D01*
X76347Y-41700D01*
X76459Y-41892D01*
X76566Y-42087D01*
X76668Y-42284D01*
X76766Y-42483D01*
X76858Y-42686D01*
X76946Y-42890D01*
X77028Y-43096D01*
X77106Y-43304D01*
X77178Y-43515D01*
X77245Y-43726D01*
X77307Y-43940D01*
X77364Y-44155D01*
X77415Y-44371D01*
X77461Y-44588D01*
X77502Y-44807D01*
X77537Y-45026D01*
X77567Y-45247D01*
X77591Y-45467D01*
X77610Y-45689D01*
X77624Y-45911D01*
X77632Y-46133D01*
X77635Y-46355D01*
X77632Y-46577D01*
X77624Y-46799D01*
X77610Y-47021D01*
X77591Y-47243D01*
X77567Y-47463D01*
X77537Y-47684D01*
X77502Y-47903D01*
X77461Y-48122D01*
X77415Y-48339D01*
X77364Y-48555D01*
X77307Y-48770D01*
X77245Y-48984D01*
X77178Y-49195D01*
X77106Y-49406D01*
X77028Y-49614D01*
X76946Y-49820D01*
X76858Y-50024D01*
X76766Y-50227D01*
X76668Y-50426D01*
X76566Y-50623D01*
X76459Y-50818D01*
X76347Y-51010D01*
X76230Y-51199D01*
X76109Y-51386D01*
X75983Y-51569D01*
X75853Y-51749D01*
X75718Y-51926D01*
X75580Y-52099D01*
X75437Y-52269D01*
X75289Y-52436D01*
X75138Y-52599D01*
X74983Y-52758D01*
X74824Y-52913D01*
X74661Y-53064D01*
X74494Y-53212D01*
X74324Y-53355D01*
X74151Y-53493D01*
X73974Y-53628D01*
X73794Y-53758D01*
X73611Y-53884D01*
X73424Y-54005D01*
X73235Y-54122D01*
X73043Y-54234D01*
X72848Y-54341D01*
X72651Y-54443D01*
X72452Y-54541D01*
X72249Y-54633D01*
X72045Y-54721D01*
X71839Y-54803D01*
X71631Y-54881D01*
X71420Y-54953D01*
X71209Y-55020D01*
X70995Y-55082D01*
X70780Y-55139D01*
X70564Y-55190D01*
X70347Y-55236D01*
X70128Y-55277D01*
X69909Y-55312D01*
X69688Y-55342D01*
X69468Y-55366D01*
X69246Y-55385D01*
X69024Y-55399D01*
X68802Y-55407D01*
X68580Y-55410D01*
X68358Y-55407D01*
X68136Y-55399D01*
X67914Y-55385D01*
X67692Y-55366D01*
X67472Y-55342D01*
X67251Y-55312D01*
X67032Y-55277D01*
X66813Y-55236D01*
X66596Y-55190D01*
X66380Y-55139D01*
X66165Y-55082D01*
X65951Y-55020D01*
X65740Y-54953D01*
X65529Y-54881D01*
X65321Y-54803D01*
X65115Y-54721D01*
X64911Y-54633D01*
X64708Y-54541D01*
X64509Y-54443D01*
X64312Y-54341D01*
X64117Y-54234D01*
X63925Y-54122D01*
X63736Y-54005D01*
X63549Y-53884D01*
X63366Y-53758D01*
X63186Y-53628D01*
X63009Y-53493D01*
X62836Y-53355D01*
X62666Y-53212D01*
X62499Y-53064D01*
X62336Y-52913D01*
X62177Y-52758D01*
X62022Y-52599D01*
X61871Y-52436D01*
X61723Y-52269D01*
X61580Y-52099D01*
X61442Y-51926D01*
X61307Y-51749D01*
X61177Y-51569D01*
X61051Y-51386D01*
X60930Y-51199D01*
X60813Y-51010D01*
X60701Y-50818D01*
X60594Y-50623D01*
X60492Y-50426D01*
X60394Y-50227D01*
X60302Y-50024D01*
X60214Y-49820D01*
X60132Y-49614D01*
X60054Y-49406D01*
X59982Y-49195D01*
X59915Y-48984D01*
X59853Y-48770D01*
X59796Y-48555D01*
X59745Y-48339D01*
X59699Y-48122D01*
X59658Y-47903D01*
X59623Y-47684D01*
X59593Y-47463D01*
X59569Y-47243D01*
X59550Y-47021D01*
X59536Y-46799D01*
X59528Y-46577D01*
X59525Y-46355D01*
D31*
X68580Y-46355D03*
M02*
